<svg xmlns="http://www.w3.org/2000/svg" viewBox="0 0 60 30" preserveAspectRatio="xMidYMid meet">
  <g fill="#fcd116">
    <path fill="#0038a8" d="M60 0H0v15h60z"/>
    <path fill="#ce1126" d="M60 15H0v15h60z"/>
    <path fill="#fff" d="M0 30V0l25.95 14.97z"/>
    <path d="m21.83 16.63-.72-.95-1.14.38.68-.98-.7-.97 1.14.35.7-.97.03 1.19 1.14.36-1.13.4zM3.42 27.24l-1.05-.57-.88.8.22-1.17-1.04-.59 1.18-.16.24-1.17.52 1.08 1.18-.13-.86.82zm.42-22.57-1.19-.11-.49 1.08-.26-1.16-1.19-.14 1.03-.61-.24-1.17.9.8 1.04-.59-.48 1.09zm8.54 10.41a3 3 0 1 1-6 0 3 3 0 0 1 6 0Z"/>
    <path d="M9.39 15.04 9 9.18l.39-.38.41.37zm0 .02.73-5.53h.01l.29.32z"/>
    <path d="m9.39 15.04 2.94-4.4h.44zm0 .02 3.88-4.43h.56v.53z"/>
    <path d="m9.39 15.04 4.44-3.44h.02l-.02.47zm0 .02 5.21-1.03h.01l.32.29zm0 0 5.88-.39h.02l.4.37-.4.41z"/>
    <path d="m9.39 15.04 5.58.74-.01.01-.29.3zm0 0 4.44 2.98v.01l.02.43zm0 .02 4.46 3.9v.03l-.02.53h-.54z"/>
    <path d="m9.39 15.04 3.43 4.48h.02-.46zm0 0 1.05 5.27-.31.28zm0 0 .39 5.91-.01.02-.38.39-.39-.39zm0 0-.73 5.59.03.03-.35-.35zm0 0-2.98 4.48-.02-.02-.43.02z"/>
    <path d="m9.39 15.06-3.9 4.46h-.01l-.53-.02v-.54zm0 0-4.44 3.4.02.02-.02-.45zm0-.02-5.26 1.05.01-.01-.31-.3zm0 0-5.92.4-.02-.02-.34-.38.39-.39z"/>
    <path d="m9.39 15.06-5.52-.74.29-.29zm0-.02-4.44-2.97v-.43zm0 0-4.44-3.9v.02-.54h.56z"/>
    <path d="M9.39 15.06 6 10.63h.04l.38-.01zm0-.02-1.03-5.2v.03l.3-.36z"/>
  </g>
</svg>
