<?xml version="1.0" encoding="UTF-8"?>
<svg id="Content" xmlns="http://www.w3.org/2000/svg" viewBox="0 0 500 500">
  <defs>
    <style>
      .cls-1 {
        fill: #101066;
        stroke-width: 0px;
      }
    </style>
  </defs>
  <g>
    <path class="cls-1" d="M387.99,322.8c2.98,8.97,3.25,18.61,1.9,27.76-1.38,9.18-4.26,18.02-8.17,26.33-2.91,6.23-6.76,12.03-10.45,18.17-1.79,3.12-6.65,7.73-11.12,12.18-6.01,6.1-12.9,11.35-20.26,15.78-.91.58-1.85,1.08-2.8,1.6l-2.83,1.54c-1.95.99-3.97,1.91-6.14,2.61-2.15.71-4.46,1.21-6.89,1.24-2.41.03-5.02-.47-7.23-1.73-2.18-1.13-4.06-2.95-5.31-5.03-1.27-2.07-2-4.31-2.46-6.5-.9-4.42-.75-8.71-.48-12.88.31-4.16.85-8.24,1.33-12.26.48-4.03.93-8.02,1.21-12,.28-3.94.4-7.9.19-11.79-.22-3.89-.78-7.73-1.98-11.24-.61-1.75-1.36-3.41-2.3-4.93-.96-1.5-2.09-2.84-3.37-4-1.29-1.16-2.78-2.06-4.32-2.82-1.54-.69-3.37-1.29-5.13-1.79-6.17-1.72-12.34-2.63-18.5-3.26-6.18-.58-12.38-.82-18.82-.79-3.41.01-6.86.05-10.36.01-3.46-.04-6.92-.08-10.38-.11-6.92-.09-13.85-.25-20.6-.74-9.84-.73-19.58-1.93-29.28-3.93-6.04-1.26-11.77-2.49-18.08-5.13-2.92-1.22-5.94-2.77-8.81-4.38-1.43-.81-2.86-1.57-4.2-2.38-1.35-.78-2.68-1.48-3.9-2.17-.42-.22-2.66-2.03-3.67-3.08-2.54-2.35-5.15-5.13-7.68-7.78-2.44-2.72-4.76-5.36-6.59-7.55-3.6-4.25-6.22-8.39-8.81-12.79-.89-1.51-1.75-3.03-2.62-4.55l-2.51-4.59-1.22-2.3-.61-1.15-.61-1.27c-.41-.84-.81-1.69-1.13-2.56-.33-.86-.71-1.72-.97-2.59-1.21-3.47-2.03-7.02-2.61-10.57-.57-3.56-.94-7.13-1.02-10.71-.18-5.37.25-10.72,1.21-16.03.22-1.33.57-2.65.86-3.97.38-1.32.7-2.62,1.18-3.95.91-2.64,2.09-5.1,3.35-7.48,2.65-4.96,5.83-9.72,9.31-14.14,3.43-4.25,6.59-8.41,9.66-12.3,6.13-7.8,11.62-15.7,17.76-23.38.45-.56.86-1.08,1.37-1.68.5-.6,1.05-1.18,1.61-1.75,1.14-1.13,2.42-2.19,3.81-3.09,1.4-.9,2.94-1.62,4.54-2.08,1.62-.45,3.23-.62,4.87-.48.3.02,1.16.21,2.01.59.87.36,1.69.91,2.17,1.28,1.98,1.56,3.36,3.42,4.51,5.31,1.14,1.9,2.01,3.88,2.71,5.9.68,2.03,1.2,4.11,1.47,6.27.27,2.15.33,4.38-.09,6.71-.12.58-.26,1.17-.45,1.76-.18.55-.36.98-.54,1.48-.38.96-.69,1.95-1.12,2.89l-1.26,2.82-1.39,2.74c-1.91,3.62-4.07,7.07-6.32,10.4-4.63,6.84-9.21,13.69-11.52,21.24-1.16,3.77-1.72,7.59-1.61,11.58.06,3.95.66,7.85,1.85,11.54,1.23,3.92,3.2,8.01,6.03,10.61.47.47,1.46,1.47,2.47,2.57.54.52,1.1,1.06,1.6,1.57.49.52,1.02.92,1.39,1.3,4.1,4.01,9.59,6.82,15.35,8.75,2.87.92,5.8,1.54,8.65,1.64,1.42.05,2.82-.03,4.18-.26.34-.05.67-.12,1.01-.2l.51-.11.63-.15c.83-.19,1.63-.35,2.42-.51,3.59-.69,7.09-1.35,10.45-2.26,1.67-.46,3.31-.97,4.82-1.6.37-.16.74-.32,1.09-.49.17-.07.38-.19.48-.24l.09-.05c.13-.08.25-.16.36-.28.1-.11.18-.25.19-.41.04-.1-.1-.08-.15-.12l-.21-.08-3.41-1.32c-3.46-1.39-6.86-2.98-10.14-4.81-5.57-3.08-12.76-7.89-18.9-12.53-1.44-1.04-3.4-2.93-5.41-5.12-2.01-2.2-4-4.76-5.66-7.01-.68-.93-1.36-1.85-1.98-2.81-.66-.93-1.25-1.92-1.84-2.91-.6-.98-1.09-2.05-1.63-3.08l-.67-1.64c-.23-.55-.44-1.1-.59-1.69-.29-.99-.58-1.97-.71-3.02l-.23-1.55-.07-1.6c-.09-1.06.05-2.14.13-3.21.08-1.08.31-2.07.52-3.1.27-1.2.66-2.67,1.01-3.85.86-2.83,2.19-5.56,4.08-7.98,1.88-2.41,4.36-4.56,7.47-5.81,1.55-.62,3.25-.99,4.96-1.03,1.72-.04,3.43.24,5.01.79,3.18,1.09,5.7,3.1,7.75,5.29,4.05,4.48,6.18,9.55,9,13.61,2.71,3.99,6.56,7.09,11,9.29,4.46,2.23,9.45,3.61,14.57,4.63,5.13,1.02,10.41,1.67,15.75,2.28,5.34.61,10.74,1.16,16.17,1.96,5.42.82,10.9,1.83,16.26,3.62,1.46.55,2.96,1,4.39,1.69l2.15.97c.69.38,1.39.76,2.08,1.14l1.03.57.98.67c.65.45,1.29.89,1.92,1.33.6.49,1.18,1.01,1.76,1.51.58.5,1.15.99,1.64,1.57.5.56,1,1.11,1.49,1.65.5.53.87,1.17,1.29,1.74.4.59.81,1.16,1.17,1.73.31.61.62,1.21.92,1.8.29.59.6,1.15.83,1.74.2.59.4,1.17.59,1.74.18.57.35,1.12.52,1.65.14.54.21,1.09.3,1.61.6,3.76-.12,3.83-2.13-.68-1.71-3.24-4.06-6.63-6.95-9.45l-.87-.84-.43-.42-.48-.37-1.92-1.48c-1.37-.86-2.7-1.78-4.18-2.46-1.42-.78-2.94-1.34-4.42-1.95-.76-.28-1.53-.51-2.29-.77l-1.14-.38-1.16-.31c-6.44-1.79-13.17-2.5-19.98-3.17-6.82-.66-13.8-1.18-20.92-2.49-4.41-.78-9.73-1.52-13.16-3.31-.48-.23-2.23-.92-3.09-1.16-4.66-1.48-9.32-3.74-13.21-7.2-.92-.91-1.91-1.77-2.75-2.76-.8-1.01-1.7-2.01-2.41-3.06-1.45-2.09-2.67-4.23-3.91-6.26-1.24-2.03-2.49-3.96-3.92-5.62-1.43-1.65-3.08-3.04-4.89-3.92-1.8-.9-3.75-1.18-5.63-.82-1.89.35-3.7,1.37-5.23,2.76-2.63,2.4-4.41,5.8-5.31,9.33-.44,1.76-.72,3.63-.65,5.36,0,.22-.02.44,0,.66l.07.66.14,1.32c.22.88.32,1.76.61,2.63,1.03,3.49,2.8,6.86,4.93,10.05,2.16,3.19,4.68,6.22,7.4,9.14,3.34,2.86,7.03,5.86,10.92,8.6,3.87,2.76,7.96,5.23,11.9,7.29,3.47,1.83,7.1,3.39,10.8,4.8l2.42.85,1.3.45c.2.08.47.14.61.24l.38.32,1.53,1.26.38.31c.09.03.05.16.05.25v.29s-.08,1.14-.08,1.14c-.12,1.49-.82,2.89-1.97,4.13-.15.15-.28.31-.44.46l-.51.43-.51.42-.58.37c-.39.25-.76.51-1.18.72l-.49.26c-.13.07-.26.13-.39.19-2.09.99-4.15,1.64-6.2,2.21-2.05.57-4.08,1.03-6.1,1.46l-5.98,1.22-1.43.31-1.49.35c-1.13.27-2.27.41-3.4.52-4.57.35-8.98-.49-13.07-1.77-2.06-.63-4.02-1.39-5.98-2.26-.49-.21-.99-.41-1.47-.64l-1.44-.73c-.96-.48-1.92-.96-2.83-1.54-3.71-2.17-7.18-4.84-10.17-8.02-2.99-3.17-5.49-6.84-7.29-10.82-1.84-4.04-2.98-8.37-3.47-12.73-.48-4.36-.4-8.73.34-13.12.73-4.36,2.22-8.55,4.09-12.42,1.86-3.89,4.06-7.51,6.3-11.03,4.51-7,9.14-13.66,12.18-20.92l.55-1.36.27-.68c.09-.22.2-.47.24-.63.24-.71.4-1.52.47-2.37.14-1.71,0-3.55-.35-5.35-.72-3.6-2.23-7.21-4.44-9.85-.75-.88-1.58-1.6-2.41-2.05-.85-.45-1.63-.68-2.44-.65-1.8.01-3.8.8-6.07,2.48-1.07.78-2.11,1.8-3.12,3.04-1.08,1.33-2.2,2.73-3.3,4.17-2.21,2.89-4.41,5.95-6.51,8.84-3.86,5.29-7.69,11.08-11.64,15.97-2.04,2.53-4.12,5.05-6.22,7.53-2.03,2.4-3.94,4.91-5.7,7.52-1.75,2.61-3.36,5.32-4.71,8.11-.66,1.4-1.28,2.81-1.78,4.25-.5,1.42-.88,2.92-1.25,4.43-1.35,6.07-1.76,12.43-1.47,18.72.12,3.15.47,6.28.98,9.37.5,3.1,1.22,6.14,2.18,9.08.23.73.47,1.47.76,2.17.29.7.53,1.44.86,2.12l.97,2.06,1.11,2.13c1.48,2.84,3,5.65,4.58,8.41,3.16,5.53,6.55,10.92,10.45,15.86,3.88,4.95,8.25,9.49,13.13,13.37,4.87,3.9,10.29,7.06,16,9.58,6.98,3.06,14.37,5.1,21.9,6.49,7.54,1.4,15.25,2.09,23.04,2.66,6.65.47,13.71.19,20.34,1.05,1.88.25,8.18-.25,12.53-.2,10.67.13,21.57-.11,32.55.95,7.63.76,15.26,2.07,22.71,5.23,3.84,1.67,7.29,4.49,9.75,7.91,2.49,3.43,3.98,7.34,4.93,11.23,1.1,4.76,1.52,9.53,1.57,14.22.06,4.7-.24,9.35-.72,13.96-.5,4.81-1.2,9.6-1.73,14.26-.52,4.67-.9,9.29-.34,13.49.34,2.66,1.14,5.06,2.47,6.82,1.37,1.7,3.34,2.9,5.61,3.18,2.3.31,4.93-.18,7.52-1.09,1.3-.45,2.59-1.01,3.88-1.63,1.29-.62,2.59-1.37,3.88-2.05,5.33-2.96,10.43-6.6,15.13-10.59,4.7-3.99,8.98-8.35,12.86-12.72,7.28-8.11,12.93-17.64,16.96-27.75,3.97-10.13,6.28-20.97,5.72-31.67-.3-5.31-1.34-10.54-3.29-15.49-1.92-4.95-4.55-9.65-7.8-13.91-3.22-4.28-6.95-8.2-11.07-11.68-4.1-3.5-8.54-6.58-13.23-9.28-10.64-6.13-21.03-10.82-32.58-14.83-5.38-1.86-12.14-6.07-9.7-5.94.46.02,1.4.2,2.31.45,5.8,1.62,11.4,3.11,17.16,4.95,5.75,1.84,11.67,4.03,17.94,7.2,9.21,4.69,18.09,10.46,25.54,17.88,3.73,3.69,7.13,7.74,10.04,12.16,2.88,4.43,5.24,9.24,6.88,14.31Z"/>
    <path class="cls-1" d="M213.79,218.27c.37-.68.8-1.33,1.09-2.03.11-.26.55-.36.08-.94-.24-.29.61-.15.7-.39.25-.67.67-1.24.91-1.9.21-.64.25-1.37.42-2,.19-.62.77-1.11.6-1.83-.17-.61.59-.86.59-1.38-.03-.55.04-1.09.42-1.52.28-.31.66-.63.56-1.02-.06-.24-.44-.51-.37-.74.07-.22.42-.45-.37-.7-.07-.02.08-.11.2-.15.53-.21.53-.52.17-.72-.35-.2-.31-.36-.34-.53-.03-.51-.15-.89-.11-1.31.05-.31.2-.7.21-1.05.01-.38-.51-.6-.26-1.06.25-.47.08-.78-.1-1.09-.09-.17.12-.57-.66-.31-.07.02-.1-.04-.06-.11.3-.51.06-.72-.25-.85-.3-.14-.69-.2-.78-.5-.08-.32-.26-.57-.46-.8-.23-.21-.48-.4-.7-.61-.12-.11-.07-.42-.59-.09-.18.12-.32.02-.28-.14.2-.89-.47-.87-.77-1.23-.34-.45-.96-.46-1.1-1.25-.06-.34-.26-.66-.87-.12-.27.25-.34-.17-.55-.19-.17-.01-.45.23-.59.17-.12-.06-.11-.37-.18-.55-.02-.05-.06-.07-.12-.05-.51.27-.81.04-1.11-.19-.3-.23-.61-.57-.99-.54-.38.06-.74.03-1.09-.03-.35-.02-.69-.09-1.05-.17-.38-.03-.75-.24-1.28-1.66-.24-.64-.38-1.34-.2-1.78.12-.32.3-.63.5-.72.32-.15.65-.37.98-.49.66-.21,1.46-.93,2.14-.42.2.15.54-.19.6.48,0,.09.09.16.14.12.57-.44,1.06-.36,1.53-.21.23.08.46.19.68.29.21.12.43.23.66.3.39.12.85.05,1.29.07.43.03.86.11,1.15.46.8-.52,1.21-.07,1.48.37.93,1.57,2.49,2.12,3.59,3.35,1.08,1.24,2.2,2.47,3.04,3.93.15.24.65.25.51.72-.15.44.27.68.45,1.01.13.31.43.59.36.97-.29,1.52.48,2.66.54,4.07.03.67-.04,1.28-.02,1.92-.04.63-.03,1.26,0,1.89.03.76.37,1.61.03,2.33-.14.3.23.75-.6.88-.23.03.25.47.22.68-.06.52-.26,1-.43,1.49-.21.69-.53,1.32-.7,2-.11.42,0,.92-.09,1.35-.1.45-.29.85-.55,1.22-.32.47-.81.84-1.12,1.3-.32.48-.29,1.15-.85,1.47-1.04.57-1.22,1.59-1.77,2.4-.54.81-1.06,1.62-1.38,2.53-.18.52-.98.63-1.23,1.1-.11.21-1.94-.39-2.46-.78-.1-.08-.19-.17-.22-.23-.27-.74-.86-1.62-.51-2.12.51-.74.89-1.54,1.32-2.31Z"/>
    <path class="cls-1" d="M170.82,267.57c.26-.42.55-.81.77-1.25.08-.17.46-.13,0-.68-.23-.28.54.05.61-.11.18-.44.56-.72.77-1.13.21-.4.24-.94.47-1.33.22-.39.81-.5.77-1.1-.03-.52.69-.34.81-.7.14-.39.32-.75.8-.81.35-.04.74-.03.82-.31.05-.18-.12-.58.03-.69.14-.1.51.02.06-.67-.04-.06.12,0,.22.05.5.26.63.08.51-.28-.13-.36,0-.42.1-.52.26-.29.51-.58.87-.76.26-.14.68-.09.95-.21.28-.12.3-.62.75-.48.46.14.66-.03.87-.19.12-.09.48.1.1-.63-.04-.07.02-.09.08-.06.96.6.52-.77,1.04-.81.54-.02.81-.46,1.2-.72.1-.07.34.06.13-.5-.07-.2.03-.29.16-.19.71.52.77-.1,1.15-.16.43-.05.62-.57,1.27-.21.27.16.54.18.39-.59-.07-.35.27-.12.37-.26.08-.11.04-.47.15-.54.09-.05.31.18.47.27.05.03.08.01.09-.04.2-1.04,1.21-.21,1.67-.63.48-.45,1.1-.56,1.72-.62.34-.04.75.08,1.35,1.43.27.61.46,1.29.46,1.73,0,.32-.02.63-.1.74-.12.17-.23.39-.34.55-.24.35-.32,1.06-.75.85-.14-.07-.11.34-.42-.24-.04-.08-.1-.11-.1-.06-.05,1.12-.73.63-1.12.91-.33.22-.33,1.11-.83.95.16.82-.11.81-.41.69-1.07-.43-1.47.47-2.17.77-.72.3-1.3.84-1.96,1.25-.11.07.07.51-.27.32-.32-.18-.31.14-.45.24-.12.09-.15.33-.39.26-1-.27-1.18.52-1.7.86-.51.36-1.05.7-1.34,1.29-.18.36-.12.93-.51,1.08-.17.06.04.49-.62.09-.19-.11.14.4.09.49-.12.23-.33.39-.5.58-.25.26-.5.51-.68.83-.1.2,0,.56-.07.77-.09.22-.21.4-.41.53-.25.17-.64.23-.87.42-.25.19-.13.65-.58.68-.84.07-.88.7-1.22,1.11-.34.41-.69.83-.8,1.38-.07.31-.77.23-.91.5-.06.12-1.83-.6-2.37-.95-.1-.07-.21-.15-.24-.19-.37-.55-1.04-1.27-.8-1.57.35-.44.57-.96.87-1.42Z"/>
    <path class="cls-1" d="M227.77,227.55c.26-.35.58-.66.75-1.08.06-.15.45-.11-.06-.62-.26-.25.52.04.57-.12.13-.39.41-.72.52-1.12.07-.41-.02-.87.01-1.26.05-.38.52-.67.22-1.13-.26-.38.4-.53.32-.86-.11-.35-.17-.68.17-.96.23-.21.53-.43.41-.67-.08-.15-.5-.29-.47-.44.03-.14.37-.32-.43-.41-.07,0,.07-.07.18-.11.51-.17.46-.37.1-.47-.36-.09-.31-.2-.35-.31-.1-.3-.14-.59-.14-.9,0-.23.27-.53.27-.78,0-.26-.4-.41-.12-.75.29-.35.19-.56.11-.78-.05-.12.22-.42-.57-.19-.07.02-.08-.03-.03-.07.82-.81-.63-.52-.56-.97.03-.47-.33-.73-.59-1.03-.07-.08.06-.31-.47-.05-.19.1-.26.02-.18-.11.46-.71-.12-.67-.21-.97-.12-.36-.61-.36-.43-1.04.08-.29.02-.56-.62-.12-.29.21-.19-.16-.34-.18-.12-.02-.42.19-.5.13-.07-.05.05-.34.07-.5,0-.05-.02-.07-.07-.05-.89.39-.63-.81-1.2-.89-.55-.05-.94-.35-1.35-.67-.23-.16-.39-.48-.1-1.94.13-.66.35-1.33.64-1.67.21-.25.44-.47.59-.5.24-.04.52-.12.76-.15.49-.04,1.23-.47,1.48.09.07.17.42-.08.2.55-.03.09,0,.16.04.13,1.06-.56,1.29.37,1.83.69.47.26,1.41-.01,1.61.63.78-.41.96-.01,1.02.38.18,1.39,1.32,1.82,1.87,2.83.56.98,1.21,1.91,1.64,2.96.07.18.56.15.32.5-.22.32.11.48.2.71.08.21.32.38.2.65-.55,1.09.16,1.78.2,2.68.04.88.04,1.74.24,2.6.14.52.55,1.08.34,1.62-.08.22.31.52-.47.65-.22.03.33.32.33.47.02.38-.11.73-.18,1.09-.09.51-.3.98-.36,1.5-.05.31.15.7.12,1.03-.02.35-.17.66-.36.94-.24.36-.68.62-.93.96-.25.35-.18.91-.68,1.09-.95.31-1.07,1.1-1.6,1.65-.52.54-1.04,1.06-1.46,1.7-.23.38-.97.15-1.26.42-.15.13-1.53-1.17-1.88-1.72-.07-.1-.13-.22-.14-.27-.13-.68-.55-1.54-.27-1.72.42-.27.7-.69,1.02-1.07Z"/>
    <path class="cls-1" d="M197.63,195.23l.8-1c.25-.35.47-.72.68-1.09.16-.27.6-.4.17-1.03-.22-.31.64-.17.76-.45.26-.76.75-1.43.94-2.22.23-.75.16-1.59.31-2.33.08-.75.66-1.44.33-2.24-.24-.66.43-1.15.32-1.77-.09-.65-.25-1.28.07-1.92.19-.46.43-.94.26-1.39-.1-.28-.57-.48-.59-.78-.02-.28.27-.67-.55-.75-.07,0,.04-.15.13-.24.44-.4.31-.77-.09-.92-.39-.15-.41-.35-.49-.55-.22-.55-.46-1.09-.64-1.64-.13-.42-.06-.94-.23-1.36-.17-.45-.74-.61-.68-1.16.05-.57-.25-.86-.54-1.13-.16-.14-.14-.62-.78-.08-.06.05-.11,0-.1-.07.09-.61-.25-.71-.58-.7-.35.02-.69.18-.89-.04-.44-.44-1.07-.37-1.69-.35-.16,0-.37-.23-.5.37-.05.21-.21.24-.32.1-.57-.76-1.09-.18-1.67-.19-.69,0-1.26.54-2.14.16-.37-.16-.83-.17-.94.66-.05.38-.49.16-.72.33-.18.14-.26.53-.45.62-.16.07-.44-.15-.67-.21-.07-.02-.13,0-.16.07-.64,1.18-2.04.55-2.9,1.24-.85.68-1.82,1.11-2.8,1.57-.54.25-1.17.37-2.33-.62-.52-.45-.93-1.03-.93-1.53,0-.37.03-.74.19-.93.25-.3.47-.66.73-.94.52-.61.86-1.58,1.74-1.65.27-.02.35-.5.83-.01.07.07.18.07.2,0,.49-1.39,1.81-1.26,2.77-1.74.82-.41,1.39-1.49,2.4-1.47.23-.94.88-.99,1.45-.91,2,.3,3.77-.77,6.03-.68,1.12.06,2.31.2,3.46.57,1.14.36,2.22.9,3.13,1.6.31.23.87.09.98.66.1.52.65.71.98,1.06.29.32.73.57.81,1.02.33,1.81,1.47,2.91,2,4.44.23.74.46,1.5.62,2.25.18.74.4,1.47.6,2.21.3.89.8,1.79.7,2.76-.05.4.37.83-.38,1.23-.22.11.37.49.39.75.03.65-.07,1.29-.12,1.93l-.42,2.65c-.08.54.14,1.15.03,1.7-.1.57-.25,1.14-.52,1.67-.36.65-.84,1.24-1.23,1.86-.39.64-.39,1.52-1.08,1.97-.61.42-1,.95-1.38,1.48-.36.55-.68,1.12-1.13,1.61-.42.5-.86.98-1.32,1.45l-1.31,1.47c-.48.59-1.43.52-1.98.95-.27.22-1.72-1.05-1.99-1.66-.05-.11-.09-.25-.08-.32.13-.88-.03-1.88.48-2.28.78-.57,1.4-1.32,2.03-2.06Z"/>
  </g>
  <path class="cls-1" d="M300.29,82.52c6.37,2.82,11.44,7.74,15.15,13.37.73,1.03,1.23,2.21,1.87,3.31.55,1.15,1.23,2.25,2.02,3.35.41.54.67,1.45.84,2.51.1.52.2,1.08.31,1.65.09.57.2,1.14.36,1.7,1.69,6.01,1.97,12.43,1.2,18.58-.68,6-2.17,11.89-4.56,17.41-2.34,5.5-5.87,10.51-8.9,15.32-2.67,4.18-6.04,7.12-9.13,10.59-3.28,3.7-6.92,7.28-10.68,10.26-2.75,2.17-5.53,4.21-8.05,6.55-1.58,1.46-2.84,3.07-4.64,4.57-1.67,1.38-3.77,2.72-4.69,4.55-.08.15-.91.67-1.36.91-2.12,1.12-4.28,3-5.54,4.54-.31.38-.62.72-.94,1.05-.31.29-.61.57-.92.85-.33.29-.65.59-.98.88-1.31,1.16-2.61,2.26-3.95,3.41l-.69.59-.17.15-.09.07s-.03-.06-.05-.09l-.19-.41-.75-1.62-1.51-3.26c-.26-.55-.49-1.13-.77-1.68l-.63-1.21c-.27-.51-.51-1.03-.81-1.53-1.14-2.01-2.33-3.99-3.65-5.92-1.95-2.9-3.9-5.84-6.21-8.56-2.4-2.85-5.44-5.47-7.62-8.2-2.19-2.75-4.63-5.07-7.11-7.47-1.41-1.37-2.81-3.23-4.53-3.79-.16-.05-.68-.58-.88-.86-3.26-4.7-8.15-7.76-11.7-12.44-1.8-2.42-3.63-4.87-5.36-7.44-1.69-2.59-3.33-5.27-4.64-8.11-.38-.74-.62-1.58-.97-2.36-.36-.77-.72-1.52-1.24-2.16-.38-.45-.99-2.13-1.04-3.01-.12-1.18-.32-2.35-.46-3.54-.08-.59-.18-1.18-.29-1.77l-.22-1.81c-.07-.6-.18-1.21-.22-1.81l-.11-1.82c-.11-1.22-.03-2.43.03-3.63.36-5.44,1.38-11,4.13-15.8.53-1.03,1.31-2.17,1.92-3.45.31-.64.69-1.26.98-1.93.31-.66.55-1.36.82-2.03.24-.62.82-1.44,1.5-2.29.74-.81,1.54-1.67,2.18-2.46,1.14-1.22,2-2.66,3.32-3.7,1.06-.96,2.43-1.52,3.68-2.22.36-.22.81-.5,1.16-.73.84-.59,1.66-1.2,2.57-1.69.93-.47,1.88-.92,2.84-1.34.99-.32,1.98-.63,2.98-.91,1-.26,2.03-.38,3.04-.56,4.08-.53,8.14-.3,12.17.15,4.07.44,8.05,1.73,11.75,3.54,3.7,1.83,7.15,4.26,9.98,7.3,3.16,3.28,5.56,7.54,5.39,10.87-.01,1.47-.69,1.7-1.84.32-.43-.51-.86-1.05-1.28-1.62-.42-.57-.94-1.09-1.35-1.68l-1.02-1.38-1.17-1.25c-.39-.41-.77-.82-1.16-1.23-.41-.38-.85-.73-1.26-1.1-3.49-3.05-7.67-4.85-11.92-6.82-.33-.16-.69-.29-1.05-.42-.37-.1-.75-.19-1.12-.29-.74-.2-1.42-.47-1.94-.95-.15-.12-.74-.28-1.03-.28-3.2-.19-6.38-.2-9.55,0-.79.09-1.6.09-2.37.24l-2.35.41c-1.52.42-3.07.81-4.45,1.52-1.23.48-2.33,1.31-3.45,2-.53.4-1.04.83-1.56,1.24l-.77.62-.72.69c-1.98,1.76-3.65,3.81-5.47,5.83-1.2,2.82-2.96,5.73-4.36,8.41-2.51,4.7-3.61,10.14-3.59,15.48.13,5.33,1.46,10.65,3.55,15.64,1.04,2.54,2.32,5.01,3.8,7.37,1.45,2.38,3.1,4.66,4.86,6.87,3.51,4.43,7.49,8.57,11.56,12.66,1.39,1.39,2.93,2.25,4.34,4.12,1.33,1.75,3.55,3.53,5.38,5.31,1.68,1.64,3.56,3.25,4.97,4.98,2.93,3.58,6.03,7.04,9,10.67,2.97,3.63,5.8,7.44,8.08,11.61.3.51.56,1.04.82,1.57l.38.75.11.24.44,1.04c.27-.16.57-.45.86-.67l2.01-1.7c3.48-2.95,6.93-5.93,10.32-8.95,4.14-3.7,8.06-7.58,12.29-11.14,1.82-1.52,3.34-3.51,5.54-4.56.63-.3,1.81-2.24,2.85-3.32,2.6-2.69,5.18-5.4,7.56-8.25,3.33-3.95,6.37-8.11,8.84-12.58,1.51-2.73,2.58-5.62,3.66-8.49,1.13-3,2.11-6.07,2.87-9.16.97-3.9,1.66-7.9,1.56-11.91-.06-4.19-1.28-8.39-2.26-12.22-.91-3.61-2.57-7.01-4.77-9.97-2.19-2.97-4.88-5.54-7.9-7.58-5.95-3.97-13.73-5.57-20.78-4.05-.5.12-.99.22-1.48.31-.49.1-.96.25-1.44.36-.97.2-1.88.54-2.81.82-.48.12-.9.36-1.35.54-.44.2-.91.36-1.33.6-.83.5-1.74.94-2.48,1.62-.36.3-.83.52-1.34.7-.47.21-.99.37-1.47.46-.96.18-1.79.12-1.73-.4.02-.2.17-.53.38-.81.34-.45.67-.9,1-1.34l1.12-1.24c.72-.87,1.61-1.55,2.48-2.32,1.82-1.38,3.93-2.66,6.51-3.33,7.53-2.08,15.66-1.57,22.81,1.59Z"/>
</svg>