<?xml version="1.0" encoding="UTF-8"?>
<svg id="Content" xmlns="http://www.w3.org/2000/svg" viewBox="0 0 500 500">
  <defs>
    <style>
      .cls-1 {
        fill: none;
      }

      .cls-1, .cls-2 {
        stroke-width: 0px;
      }

      .cls-2 {
        fill: #fff;
      }
    </style>
  </defs>
  <g>
    <g>
      <path class="cls-1" d="M418.57,383.08l-1.66-7.42c-2.48-11.1-5.05-22.59-7.99-33.78-14.75-56.18-29.59-112.35-44.42-168.51l-18.46-69.9c-1.77-6.7-3.52-13.41-5.27-20.12-2.41-9.25-4.83-18.5-7.29-27.73-1.31-4.93-3.6-6.65-8.96-6.65-.15,0-.29,0-.44,0l-1.17.21c-1,.2-2.34.46-3.67.75-5.06,1.09-10.13,2.19-15.19,3.3-10.59,2.32-21.55,4.71-32.36,6.9-29.6,6-61.35,13.84-99.93,24.68-21.07,5.93-41.8,13.82-61.84,21.45-6.95,2.65-13.91,5.3-20.89,7.87-2.39.88-3.51,2.65-3.15,4.98.46,2.97.96,5.56,1.51,7.93,24.46,103.84,49.94,203.73,54.38,221.52,7.69,30.75,24.37,95.46,24.99,96.64,1.29,2.48,3.23,3.75,5.67,3.75.51,0,1.04-.06,1.59-.17,2.1-.43,4.21-.81,6.33-1.2,3.86-.7,7.84-1.43,11.71-2.43,6.85-1.77,13.68-3.65,20.5-5.53,6.24-1.72,12.49-3.45,18.76-5.08,9.83-2.56,19.67-5.05,29.51-7.55,10.51-2.66,21.03-5.32,31.52-8.06,39.48-10.32,69.85-17.52,98.47-23.33,7.01-1.42,14.42-3.18,23.32-5.53,4.86-1.29,5.48-2.27,4.41-7.01Z"/>
      <path class="cls-2" d="M317.82,414.91c-18.92,4.86-37.85,9.72-56.75,14.57-7.03,1.83-14.3,3.34-21.45,5.88-1.78.63-4.42,1.19-7.43,1.79-2.99.64-6.35,1.35-9.59,2.25-8.79,2.38-17.59,4.77-26.4,7.16l-3.31.89c-1.12.3-2.27.57-3.4.82-2.27.5-4.54.94-6.79,1.35l-6.68,1.26-1.71.33c-.72.13-1.47.21-2.24.17-1.55-.04-3.21-.58-4.51-1.53-1.27-.92-2.2-2.12-2.85-3.32-.31-.62-.62-1.67-.73-2.07l-.46-1.62-1.77-6.42-3.49-12.81c-2.32-8.54-4.62-17.08-6.86-25.65-4.45-16.99-8.56-34.65-13.07-50.95-3.93-14.11-6.54-27.08-10.1-40.64-3.77-14.38-7.6-29.28-10.8-43.48-2.34-10.36-4.58-20.62-7.23-30.83-1.66-6.37-3.52-12.25-5.19-19.24-1.55-6.47-3.01-13.91-5.15-19.36-.18-.46-.74-3.4-.99-4.9-1.19-7.12-3.27-15.67-5.03-21.43-1.7-5.63-2.86-10.67-4.15-15.97-1.74-7.28-3.49-14.57-5.23-21.86-.46-1.79-.77-3.76-1.15-5.63l-.54-2.85-.13-.71c-.04-.25-.09-.42-.14-.85-.08-.74-.09-1.55.06-2.38.27-1.69,1.31-3.37,2.57-4.37.62-.52,1.28-.91,1.92-1.21.31-.15.68-.29.92-.38l.66-.24,5.25-1.95c10.54-3.82,21-7.61,31.55-11.44,10.99-4.02,22.69-8.58,33.17-11.46,10.49-2.87,20.51-5.6,30.78-8.41,5.82-1.59,12.74-3.03,17.33-5.07.43-.19,2.62-.75,3.65-.95,16.94-3.26,33.1-8.59,50.26-11.98,4.41-.88,8.88-1.73,13.31-2.66,4.43-.94,8.89-1.89,13.35-2.84,8.92-1.95,17.87-3.9,26.77-5.84,2.4-.5,4.88-1.01,7.31-1.52.62-.13,1.23-.26,1.84-.38l.33-.07c.14-.02.27-.07.41-.06l.69-.02c.34,0,.68-.01,1.02-.02,1.37,0,2.83.08,4.4.5.54.15,1.43.46,2.4,1.13.97.66,1.94,1.68,2.61,2.77,1.35,2.17,1.77,4.46,2,5.54,2.64,13.23,6.73,26.85,10.09,40.22,3.84,15.26,8.25,30.43,11.7,45.95,1.46,6.56,3.66,15.46,6.45,23.07,1.28,3.49,2.91,11.03,4.46,16.61,1.28,4.58,2.78,8.93,3.99,13.46,1.03,3.86,1.76,7.82,2.65,11.78.27,1.17.64,2.61.99,3.75,6.7,22.05,11.43,44.48,17.56,66.82,6.15,22.47,12.1,45.26,17.91,67.99,3.11,12.6,5.69,25.65,6.19,34.52.22,4-.47,4.17-2.08-1.09-1.18-3.86-2.47-8.31-3.56-12.78-1.75-7.15-3.59-14.27-5.48-21.15-4.01-14.33-8.46-28.47-12.05-43.53-1.12-4.68-2.93-10.02-3.31-14.03-.05-.56-.51-2.48-.79-3.37-6.22-19.61-11.03-40.47-16.44-60.7-4.61-17.22-9.78-33.69-14.03-51.18-3.3-9.34-6.14-20.63-8.45-30.35-4.07-17.15-8.55-34.23-13.03-51.33-2.27-8.53-4.53-17.07-6.79-25.6l-1.7-6.4c-.28-1.03-.57-2.23-.83-3.05-.28-.87-.63-1.62-1.01-2.13-.39-.51-.76-.82-1.37-1.07-.6-.25-1.41-.41-2.32-.47-.42-.04-.99-.04-1.37-.05-.02,0-.05,0-.07,0l-.31.05-.79.15-3.18.64c-17.51,3.73-35.03,7.45-52.55,11.18-17.48,3.64-34.87,7.76-52.2,12.15-5.9,1.5-10.86,3.26-17.83,4.76-6.55,1.4-14.85,3.94-22.37,6.05-6.89,1.9-13.95,4.23-20.39,6.15-13.35,3.94-26.53,8.8-39.69,13.81-6.59,2.51-13.18,5.02-19.77,7.52l-4.94,1.88c-1.54.53-1.9,1.01-2.06,1.7-.03.19-.04.41-.01.66l.02.19.06.31.12.63.48,2.53c.34,1.69.6,3.37.99,5.08,6.33,27.25,12.82,54.57,19.63,81.62,4.15,16.51,8.64,32.85,12.59,49.56,1.69,7.12,3.97,14.5,4.98,21.69.28,2.04,2.51,8.53,3.67,13.09,2.86,11.34,5.72,22.72,8.58,34.08,3.99,15.78,7.88,31.61,11.97,47.33,2.49,9.59,5.24,19.02,7.79,28.61,2.67,10.02,5.29,20.17,7.86,30.21.82,3.17,1.64,6.33,2.45,9.48.13.5.15.5.15.68v.03s0,.01,0,.01l-1.69.89-.52.28c1.05-.54-3.08,1.62,2.21-1.15h0s.01.03.01.03l.03.05.1.19.2.34c.28.43.58.77.89.99.59.44,1.3.63,2.37.49l9.64-1.68c3.22-.57,6.33-1.16,9.46-2,6.58-1.73,13.27-3.61,19.9-5.43,6.66-1.83,13.25-3.64,19.6-5.14,23.72-5.4,47.08-11.67,70.56-17.67,23.35-5.95,46.85-11.65,70.33-16.92,6.66-1.5,13.11-2.69,19.47-3.84,6.33-1.17,12.61-2.52,19.04-4.2,1.5-.41,3.22-.67,4.6-.98.3-.08.59-.15.88-.23.23-.07.47-.17.68-.31.42-.29.67-.75.82-1.23.15-.49.22-1.08.29-1.55.06-.48.13-.88.2-1.17.15-.57.38-.68.67-.07.22.47.58,1.43.66,2.66.05,1.04-.19,2.15-.91,2.94-.35.39-.77.73-1.24,1-.24.15-.45.25-.65.35-.21.11-.41.2-.61.27-1.64.67-3.14,1.07-4.67,1.58-3.06.97-6.13,1.92-9.27,2.82-3.15.9-6.37,1.77-9.74,2.56-3.37.78-6.82,1.53-10.49,2.29-21.62,4.46-43.14,9.63-64.58,15.05Z"/>
    </g>
    <path class="cls-2" d="M363.48,364.06c-3.16.74-6.33,1.43-9.47,2.24-1.17.3-2.44.25-3.51,1.21-.53.48-1.85-.05-2.93.23-2.92.78-5.9,1.35-8.83,2.12-2.85.76-5.64,1.68-8.47,2.4-2.81.73-5.81,1.04-8.42,2.1-2.26.92-4.53.82-6.74,1.54-2.34.76-4.77,1.5-7.17,1.83-1.75.23-3.5.42-5.14,1.01-1.03.37-1.9,1.04-3.05,1.33-1.07.27-2.37.27-3.07,1.31-.06.09-.57.08-.84.05-1.29-.18-2.68.25-3.53.88-.83.61-1.66.8-2.52,1.07-2.36.75-4.72,1.48-7.1,2.13-1.79.48-3.63.74-5.43,1.22-1.87.5-3.72,1.48-5.54,1.65-1.83.18-3.44.72-5.12,1.27-.95.31-2.18.32-2.71,1.35-.05.1-.41.2-.59.19-3.05-.13-5.3,2.05-8.16,2.66-2.94.63-5.82,1.71-8.73,2.59-.78.24-1.67.25-2.23,1.02-.2.27-1.01.53-1.45.5-2.38-.17-4.53.94-6.8,1.4-2.58.53-5.06,1.53-7.79,1.55-1.16,0-2.67.22-3.83,1.24-.53.47-1.87.41-2.77.72-.75.25-1.41.77-2.15.96-.64.16-1.35.02-2.03.04-.2,0-.44.06-.62.15-3.49,1.73-7.42,1.51-11.08,2.64-3.68,1.23-7.48,2.17-11.26,3.07-2.08.5-4.27.84-6.03-.2-.79-.47-.96-1.16-.18-1.81.57-.47,1.24-.96,1.96-1.23,1.14-.46,2.29-.91,3.4-1.36,2.32-.89,4.52-2.19,7.08-2.51.8-.1,1.6-.72,2.4-.26.11.06.44.03.58-.06,3.06-1.83,6.7-2,10.07-2.9,2.87-.76,5.5-2.25,8.47-2.59,1.41-1.14,3.29-1.43,4.94-1.57,5.83-.52,11.32-2.6,16.93-4.11,5.7-1.54,11.31-3.41,16.96-5.18.96-.3,1.65-1.01,2.88-1.03,1.16-.03,2.44-.72,3.68-1.12,1.13-.37,2.27-.92,3.4-1.07,4.69-.61,9.03-2.49,13.54-3.75,4.48-1.26,8.99-2.48,13.41-3.93,2.69-.89,5.3-2.06,8.11-2.64,1.2-.24,2.33-1,3.68-.56.38.12,1.34-.73,2.09-.95,1.87-.55,3.78-.98,5.67-1.46,2.63-.65,5.28-1.23,7.9-1.93,1.6-.42,3.12-1.1,4.72-1.54,1.67-.46,3.38-.83,5.06-1.16,2.14-.4,4.31-.63,6.45-1.05,2.22-.44,4.43-1.32,6.61-1.47,4.06-.28,7.9-1.52,11.82-2.36,3.9-.84,7.81-1.69,11.65-2.76,2.18-.62,4.34-.47,6.49-.99,1-.24,2.8,1.27,2.54,2-.05.14-.18.31-.34.39-1.97,1.09-3.69,2.46-6.12,2.98-3.59.76-7.16,1.66-10.74,2.5Z"/>
    <path class="cls-2" d="M349.23,312.1c-1.59.5-3.2.98-4.92,1.37-1.85.42-3.37.59-5,.91-1.2.22-2.48.08-3.62.96-.35.21-.58.19-.97.11-.1-.02-.2-.04-.3-.06-.11-.02-.28,0-.42.01-.29.03-.58.08-.85.17-2.93,1.06-5.95,1.81-8.92,2.69-2.89.85-5.72,1.85-8.62,2.61-2.87.76-5.93,1.05-8.61,2.08-2.32.89-4.62.75-6.86,1.42-2.38.72-4.84,1.42-7.25,1.73-1.76.23-3.52.41-5.16,1.02-1.02.39-1.88,1.07-3.02,1.39-1.05.3-2.35.35-3,1.42-.05.09-.56.11-.84.08-.64-.05-1.29.05-1.91.25-.65.22-1.24.52-1.69.85-.89.65-1.78.86-2.7,1.13-2.53.73-5.05,1.3-7.53,1.75-1.83.34-3.67.46-5.49.79-1.89.31-3.82,1.23-5.66,1.33-1.85.1-3.52.57-5.24,1.03-.97.26-2.21.21-2.8,1.22-.05.09-.42.18-.61.17-3.05-.27-5.46,1.8-8.36,2.31-2.99.52-5.94,1.5-8.9,2.32-.79.22-1.69.21-2.28.98-.21.27-1.03.51-1.47.48-2.38-.19-4.59.82-6.88,1.25-2.61.48-5.1,1.47-7.82,1.51-1.16.01-2.68.25-3.81,1.31-.52.49-1.85.47-2.77.78-.75.26-1.41.79-2.17,1-.64.17-1.37.05-2.06.08-.21.01-.45.07-.63.16-3.51,1.8-7.5,1.69-11.16,2.96-3.68,1.27-7.48,2.28-11.24,3.33-2.07.57-4.23,1.03-6.09.1-.84-.42-1.07-1.09-.33-1.78.55-.5,1.19-1.03,1.91-1.34,1.15-.5,2.28-1.05,3.4-1.52,2.33-.99,4.53-2.35,7.14-2.73.81-.11,1.62-.75,2.44-.31.11.06.45.02.59-.07,3.06-1.92,6.72-2.22,10.11-3.2,2.89-.83,5.49-2.34,8.52-2.75,1.41-1.19,3.35-1.53,5.04-1.7,2.99-.3,5.88-.93,8.75-1.66l4.29-1.13c1.42-.4,2.85-.8,4.28-1.15,5.82-1.43,11.57-3.08,17.39-4.59.99-.26,1.73-.94,2.98-.91,1.18.03,2.52-.61,3.79-.95,1.16-.31,2.34-.81,3.49-.91,2.36-.24,4.73-.67,7.07-1.21,2.35-.56,4.66-1.14,6.92-1.6,2.26-.47,4.49-.99,6.63-1.68,1.04-.34,2.16-.76,3.3-1.17l3.37-1.21c2.73-.98,5.4-2.19,8.27-2.77,1.22-.24,2.39-.99,3.76-.54.39.12,1.37-.71,2.14-.92,1.91-.52,3.85-.92,5.78-1.36,2.67-.6,5.36-1.14,7.99-1.82,1.61-.41,3.13-1.09,4.72-1.55,1.66-.48,3.35-.89,5.03-1.24,2.14-.45,4.29-.75,6.4-1.29,1.09-.28,2.17-.67,3.24-1.05.54-.19,1.07-.37,1.6-.53.27-.08.53-.15.8-.21l.2-.05.28-.05.55-.08,1.01-.12.77-.03c.51-.03,1.02-.07,1.53-.11,1.02-.1,2.03-.23,3.04-.39.98-.16,2.08-.32,2.89-.5.89-.2,1.83-.46,2.78-.71,3.79-1.03,7.64-2.34,11.43-3.76,2.17-.81,4.37-.86,6.61-1.46.53-.14,1.27.16,1.83.62.55.45.88,1.03.74,1.39-.06.14-.19.3-.34.38-1.93,1.03-3.52,2.51-5.9,3.21-3.52,1.05-7.01,2.36-10.61,3.5Z"/>
    <path class="cls-2" d="M342.36,287.06c-3.17.79-6.35,1.53-9.49,2.4-1.17.32-2.46.3-3.51,1.27-.53.49-1.86-.02-2.94.28-2.92.82-5.93,1.45-8.84,2.29-2.83.81-5.57,1.84-8.29,2.78-2.73.91-5.47,1.6-8.04,3.06-2.19,1.23-4.51,1.4-6.69,2.33-2.31.99-4.75,1.92-7.18,2.39-1.78.33-3.54.61-5.21,1.25-1.04.4-1.91,1.11-3.09,1.41-1.09.28-2.41.31-3.13,1.34-.06.09-.59.08-.86.04-1.31-.18-2.73.25-3.62.85-.87.59-1.72.77-2.61,1.02-2.43.67-4.88,1.31-7.35,1.82-1.85.39-3.75.5-5.6.85-1.94.34-3.9,1.17-5.76,1.16-1.86,0-3.56.38-5.3.73-.99.2-2.24.08-2.86,1.04-.06.09-.43.16-.61.13-3.01-.46-5.43,1.53-8.26,1.97-2.94.46-5.82,1.46-8.69,2.35-.76.24-1.65.26-2.18,1.05-.19.28-.98.55-1.41.53-2.36-.09-4.4,1.14-6.63,1.78-2.54.72-4.9,1.96-7.63,2.22-1.15.11-2.65.47-3.68,1.62-.47.53-1.81.62-2.7,1.01-.73.32-1.35.9-2.09,1.16-.63.23-1.36.16-2.05.24-.2.03-.44.1-.61.21-3.38,2.06-7.37,2.21-10.97,3.69-1.83.73-3.61,1.42-5.57,2.02-1.95.59-3.92,1.05-5.87,1.47-2.15.46-4.39.72-6.14-.4-.79-.5-.95-1.19-.14-1.8.59-.45,1.28-.9,2.01-1.15,1.17-.39,2.32-.84,3.44-1.25,2.35-.84,4.45-2.11,6.96-2.59.79-.15,1.56-.82,2.39-.42.11.06.44,0,.58-.1,2.93-2.08,6.52-2.59,9.8-3.8,2.8-1.02,5.26-2.72,8.21-3.36,1.3-1.3,3.18-1.79,4.83-2.1,2.92-.53,5.74-1.47,8.52-2.46,2.79-1.01,5.62-2.07,8.49-2.88,5.84-1.66,11.69-3.29,17.64-4.49,1.01-.2,1.8-.83,3.03-.72,1.16.1,2.52-.44,3.8-.71,1.17-.25,2.35-.68,3.49-.71,4.73-.16,9.21-1.71,13.77-2.74,4.54-1.03,9.07-2.16,13.46-3.64,2.68-.9,5.23-2.16,7.99-2.85,1.18-.3,2.25-1.12,3.63-.77.39.1,1.27-.82,2-1.1,1.82-.66,3.64-1.32,5.47-1.98l3.78-1.42,3.86-1.53c1.6-.63,3.11-1.45,4.73-2.02,1.69-.59,3.41-1.07,5.13-1.45,2.18-.48,4.38-.76,6.52-1.23,2.23-.48,4.46-1.4,6.66-1.59,4.1-.35,7.96-1.66,11.91-2.57,3.93-.91,7.86-1.83,11.72-2.95,2.19-.64,4.36-.51,6.53-1.05,1.01-.25,2.83,1.25,2.57,1.97-.05.14-.18.31-.34.39-1.98,1.1-3.7,2.49-6.15,3.03-3.61.8-7.2,1.76-10.78,2.66Z"/>
    <path class="cls-2" d="M280.21,280.93c-2.13.56-4.27,1.06-6.38,1.69-.79.23-1.68.12-2.33,1-.32.44-1.29-.15-2.02.07-1.96.61-3.98,1.01-5.95,1.6-1.91.58-3.77,1.36-5.68,1.94-1.89.58-3.97.72-5.7,1.6-1.51.76-3.11.52-4.6,1.06-1.58.58-3.23,1.11-4.89,1.23-1.21.09-2.43.11-3.54.55-.7.27-1.26.84-2.05,1.02-.73.16-1.64.04-2.08.99-.04.08-.4.02-.59-.04-.92-.31-1.87-.03-2.44.49-.55.5-1.13.6-1.72.77-1.62.46-3.25.91-4.91,1.25-1.24.25-2.53.27-3.77.51-1.3.25-2.57.95-3.84.87-1.28-.08-2.41.23-3.56.53-.66.17-1.52,0-1.86.93-.03.09-.28.14-.41.11-2.14-.55-3.64,1.27-5.61,1.5-2.03.24-3.99.94-5.98,1.47-.53.14-1.15.06-1.5.75-.12.24-.67.41-.98.33-1.67-.41-3.1.47-4.64.72-1.76.29-3.39,1.09-5.28.93-.8-.07-1.83.05-2.53,1-.32.44-1.25.32-1.86.55-.5.2-.92.66-1.43.8-.43.12-.95-.06-1.42-.09-.14,0-.3.03-.42.11-2.31,1.47-5.08,1-7.56,1.87-2.57.77-5.28,1.22-7.94,1.64-1.45.22-2.92.23-4.17-1.03-.56-.56-.7-1.26-.18-1.79.39-.39.85-.76,1.35-.93.79-.28,1.61-.59,2.35-.87,1.58-.58,3.03-1.57,4.78-1.55.55,0,1.06-.5,1.65.05.08.08.31.08.4.01,1.99-1.5,4.49-1.49,6.76-2.13,1.93-.56,3.61-1.82,5.66-1.99.88-1.06,2.18-1.25,3.33-1.29,4.06-.15,7.78-1.69,11.66-2.56,3.93-.88,7.82-1.99,11.74-2.94.67-.16,1.13-.75,1.99-.61.81.14,1.7-.36,2.55-.58.78-.2,1.56-.58,2.35-.57,3.26.04,6.23-1.24,9.32-1.94,3.07-.7,6.17-1.38,9.15-2.39,1.82-.61,3.56-1.52,5.47-1.84.82-.14,1.55-.78,2.52-.25.28.15.88-.61,1.38-.77,1.26-.4,2.55-.69,3.83-1.02,1.77-.46,3.56-.87,5.32-1.41,1.07-.33,2.06-.91,3.12-1.27,1.11-.37,2.25-.67,3.4-.89,1.46-.28,2.95-.39,4.41-.69,1.51-.31,2.97-1.05,4.48-1.08,2.81-.06,5.37-1.07,8.03-1.68,2.64-.61,5.29-1.24,7.87-2.08,1.46-.48,2.98-.21,4.44-.59.68-.18,2.07,1.41,1.96,2.11-.02.13-.1.29-.2.36-1.27.95-2.34,2.19-3.99,2.56-2.43.54-4.83,1.24-7.25,1.87Z"/>
    <path class="cls-2" d="M263.68,359.62c-1.52.37-3.05.69-4.54,1.14-.56.17-1.21-.02-1.64.79-.21.41-.95-.26-1.46-.1-1.39.43-2.84.66-4.23,1.08-1.36.41-2.66,1.02-4.02,1.44-1.34.41-2.84.38-4.06,1.11-1.05.63-2.23.25-3.28.67-1.12.44-2.29.83-3.49.81-.88-.01-1.76-.09-2.54.25-.49.21-.87.73-1.43.83-.52.1-1.19-.09-1.45.8-.02.07-.29,0-.43-.09-.68-.37-1.36-.17-1.74.29-.37.45-.78.51-1.2.63-1.15.33-2.31.64-3.49.85-.88.15-1.82.07-2.71.21-.93.14-1.81.74-2.74.56-.93-.17-1.73.04-2.56.24-.47.11-1.1-.11-1.29.77-.02.08-.2.12-.29.07-1.59-.71-2.57.97-3.99,1.04-1.46.08-2.84.62-4.25.99-.38.1-.83-.03-1.04.63-.07.23-.46.35-.69.25-1.24-.53-2.22.22-3.33.35-1.26.15-2.4.81-3.78.51-.58-.13-1.33-.1-1.78.79-.2.41-.89.21-1.32.4-.35.15-.63.58-.99.68-.31.08-.69-.13-1.03-.18-.1-.02-.22.01-.3.08-1.54,1.31-3.57.67-5.28,1.38-1.71.7-3.54,1.1-5.39,1.51-1.02.22-2.11.28-3.17-.95-.48-.55-.66-1.24-.35-1.76.23-.38.51-.76.84-.94.53-.29,1.05-.59,1.57-.88,1.08-.56,2.01-1.54,3.32-1.51.4,0,.74-.49,1.22.06.07.08.23.08.29.02,1.33-1.42,3.17-1.22,4.78-1.74,1.37-.45,2.52-1.57,4-1.57.57-.97,1.51-1.06,2.34-1.01,2.94.17,5.55-1.07,8.32-1.62,2.81-.56,5.56-1.36,8.35-1.99.48-.11.77-.65,1.41-.44.6.2,1.21-.22,1.82-.37.56-.14,1.1-.45,1.67-.38,2.37.29,4.45-.74,6.65-1.19,2.19-.44,4.39-.9,6.51-1.63,1.29-.45,2.5-1.2,3.87-1.36.59-.07,1.08-.64,1.82-.04.21.17.6-.52.96-.64.89-.29,1.81-.47,2.72-.69,1.26-.31,2.54-.56,3.79-.95.76-.23,1.45-.73,2.2-.99.79-.27,1.6-.47,2.42-.59,1.04-.16,2.12-.14,3.17-.31,1.08-.18,2.1-.79,3.19-.7,2.04.18,3.84-.61,5.74-.99,1.89-.38,3.78-.79,5.6-1.4,1.04-.35,2.16.04,3.19-.21.48-.12,1.58,1.56,1.54,2.23,0,.13-.06.27-.13.34-.87.83-1.58,1.96-2.76,2.18-1.74.33-3.44.82-5.16,1.24Z"/>
    <path class="cls-2" d="M365.85,331.99c-1.33.34-2.67.66-3.97,1.12-.48.17-1.09,0-1.4.82-.15.41-.87-.23-1.32-.06-1.21.47-2.49.75-3.71,1.22-1.2.45-2.35,1.09-3.56,1.53-1.2.44-2.57.46-3.64,1.21-.93.65-2.02.31-2.96.75-1,.47-2.03.83-3.12.81-.79-.02-1.59-.1-2.29.24-.43.21-.76.72-1.26.82-.47.1-1.08-.1-1.28.79-.02.07-.26-.01-.39-.09-.63-.37-1.23-.18-1.56.28-.32.45-.69.5-1.06.62-1.03.32-2.06.63-3.12.83-.79.15-1.64.06-2.44.19-.83.14-1.6.72-2.45.55-.85-.18-1.56.03-2.3.23-.42.11-1-.12-1.14.76-.01.08-.17.11-.26.07-1.47-.71-2.28.95-3.56,1.02-1.32.07-2.54.6-3.8.96-.34.1-.76-.03-.91.62-.06.23-.4.35-.61.25-1.14-.53-2,.21-2.99.33-1.13.14-2.13.8-3.39.49-.53-.13-1.21-.1-1.57.78-.17.4-.79.21-1.17.39-.31.15-.54.57-.86.67-.27.08-.63-.14-.95-.2-.09-.02-.2,0-.27.07-1.38,1.25-3.26.57-4.81,1.23-1.56.66-3.22,1-4.87,1.32-.82.16-2.17.26-3.08-1.14-.4-.63-.38-1.34-.09-1.79.22-.34.45-.67.72-.81.43-.22.89-.54,1.36-.78.97-.52,1.82-1.45,2.99-1.39.36.02.65-.46,1.1.1.06.08.21.09.26.03,1.16-1.36,2.82-1.11,4.25-1.58,1.22-.39,2.21-1.49,3.55-1.49.47-.97,1.32-1.04,2.08-.99,2.67.18,4.97-1.04,7.45-1.58,2.52-.55,4.97-1.32,7.47-1.94.43-.1.67-.65,1.26-.44.55.2,1.09-.22,1.63-.36.5-.13.97-.44,1.5-.37,2.16.3,3.99-.72,5.97-1.15,1.97-.43,3.94-.87,5.82-1.59,1.15-.44,2.21-1.18,3.45-1.34.53-.07.95-.63,1.65-.03.2.17.52-.52.84-.63.79-.29,1.59-.49,2.39-.73,1.1-.33,2.23-.61,3.31-1.01.66-.25,1.24-.75,1.89-1.02.68-.29,1.39-.5,2.12-.64.92-.16,1.9-.21,2.83-.42.96-.22,1.84-.86,2.85-.8,1.88.11,3.48-.7,5.21-1.09,1.73-.38,3.46-.75,5.18-1.26.98-.29,2,.17,2.97.01.46-.08,1.34,1.7,1.25,2.37-.02.13-.07.27-.13.32-.83.73-1.48,1.78-2.51,1.93-1.52.2-3.02.62-4.52,1.01Z"/>
    <path class="cls-2" d="M348.53,263.1c-.67.17-1.35.28-1.99.52-.24.09-.58-.17-.67.56-.04.37-.48-.37-.71-.28-.6.25-1.25.29-1.86.52-.59.23-1.12.66-1.7.89-.58.23-1.29.02-1.77.57-.41.48-1.02-.03-1.47.24-.47.29-.97.52-1.54.36-.42-.12-.85-.3-1.17-.07-.2.14-.31.6-.56.63-.24.03-.58-.24-.58.59,0,.07-.14-.04-.22-.14-.38-.44-.67-.33-.79.07-.11.39-.3.39-.48.46-.5.18-1.01.34-1.54.39-.4.04-.86-.16-1.26-.13-.42.02-.76.49-1.23.21-.47-.28-.82-.17-1.18-.08-.21.05-.54-.25-.51.59,0,.08-.08.09-.13.03-.85-.88-1.09.62-1.76.51-.69-.11-1.27.24-1.9.42-.17.05-.4-.14-.42.47,0,.21-.18.28-.3.16-.66-.67-1.03-.07-1.54-.09-.58-.02-1.05.47-1.74,0-.29-.2-.65-.27-.76.53-.05.37-.4.09-.59.21-.15.1-.24.48-.4.52-.14.04-.34-.23-.51-.33-.05-.03-.1-.02-.13.03-.61,1.01-1.65.07-2.4.47-.76.4-1.59.49-2.43.55-.26.02-.39,0-.86-.21-.39-.21-.73-.61-.95-1.33-.19-.65-.14-1.36,0-1.8.11-.32.19-.62.28-.7.11-.11.39-.37.59-.53.46-.36.83-1.14,1.44-.9.19.07.3-.35.58.26.04.08.12.12.14.06.49-1.15,1.37-.66,2.08-.89.6-.2,1.02-1.12,1.7-.92.16-.87.58-.81.97-.65,1.39.56,2.47-.29,3.7-.47,1.25-.19,2.44-.6,3.68-.86.21-.04.28-.54.61-.25.31.27.54-.06.81-.13.24-.06.46-.3.74-.16,1.16.58,2.01-.16,2.99-.32.98-.16,1.96-.33,2.86-.77.55-.27,1.02-.85,1.65-.84.27,0,.42-.49.86.19.12.19.21-.43.37-.5.38-.17.8-.23,1.2-.33.56-.14,1.13-.23,1.67-.45.33-.13.59-.53.91-.69.34-.17.7-.26,1.07-.28.48-.02.99.13,1.46.09.49-.04.89-.51,1.43-.28.99.42,1.75-.11,2.6-.24.85-.13,1.7-.28,2.49-.64.45-.2,1.03.33,1.5.21.22-.05.93,1.72.99,2.37.01.12,0,.26-.02.31-.31.69-.51,1.69-1.03,1.75-.77.09-1.51.34-2.27.53Z"/>
  </g>
  <g>
    <path class="cls-2" d="M146.42,212.91c-3.79-2.88-6.61-6.82-8.51-10.97-1.91-4.18-3-8.58-3.69-12.97-.13-.8-.21-1.68-.27-2.57-.03-.89-.04-1.78,0-2.68.06-1.8.24-3.6.37-5.49.05-.95.58-2.19,1.29-3.51.73-1.31,1.64-2.68,2.47-4.05,1.12-1.85,2.42-3.55,3.83-5.13,1.39-1.57,2.9-3.04,4.51-4.41,3.21-2.75,6.91-5.02,10.88-6.62.59-.25.76-.26.98-.46.18-.24-.05-.52-.11-.8l-.02-.06-.04-.21-.08-.43c-.05-.29-.11-.57-.14-.86-.05-.58-.13-1.16-.12-1.74-.03-1.17.11-2.33.34-3.46.47-2.27,1.41-4.35,2.53-6.2,1.13-1.87,2.4-3.47,3.79-5.04,2.75-3.1,6.16-5.75,9.88-7.7,1.85-1,3.78-1.82,5.72-2.49,1.94-.7,3.9-1.23,5.84-1.68.84-.19,1.68-.36,2.52-.46.83-.13,1.67-.2,2.49-.24.76-.07,1.83-.08,2.74.02.93.09,1.82.27,2.67.49,1.71.45,3.29,1.1,4.8,1.86l.38.2c.06.03.13.05.19.04.14,0,.25-.1.33-.21l.06-.07.22-.23.45-.48.91-.96c.64-.61,1.29-1.22,1.95-1.82,1.37-1.15,2.8-2.25,4.33-3.18,3.05-1.9,6.4-3.26,9.73-4.05,4.87-1.14,9.72-1.35,14.5-1.46,1.5-.05,2.94-.09,4.42-.14,1.46-.03,2.98,0,4.64.21,1.54.21,3.2.59,4.81,1.01,1.62.42,3.2.88,4.69,1.15.26.04,1.55.85,2.13,1.36l.18.15s0,.03.01.04c0,.07.03.14.08.18.05.02-.01.04.17.06.14.02.3.03.47.04.85.03,1.22.02,1.91-.13.88-.19,1.74-.38,2.56-.56.79-.12,1.53-.25,2.2-.39,2.74-.51,5.24-.39,7.82-.1,7.14.82,14.04,3.8,19.57,8.19,2.07,1.65,3.95,3.5,5.68,5.42,1.53,1.74,3.14,3.35,4.92,4.67.93.69,1.93,1.31,2.97,1.85l.8.4.94.5c.62.33,1.25.67,1.86,1,1.19.73,2.35,1.51,3.44,2.32,1.02.89,2.07,1.71,2.92,2.67,3.47,3.74,6.39,7.62,8.58,12.1,1.33,2.53,1.9,5.78,3.25,7.88.14.19.28,1.28.31,1.78.13,4.14.13,8.18-.6,12.24l-.73,3c-.1.51-.29.99-.48,1.47l-.56,1.45c-.2.49-.36.96-.61,1.46-.24.5-.51.97-.78,1.43-.55.92-1.16,1.77-1.78,2.55l-.24.3-.06.08s-.02.01-.02.01l-.23-.13c-.06-.04-.18-.09-.21-.1-.1-.05-.14-.05-.11-.05l.11.02c.08.02.13.02.23.03.34.03.21.02.23.04,0,.05,0,.16.02.31.04.32.13.73.25,1.22l.34,1.42c.47,2.12.89,4.3.94,6.5.25,4.4-.52,8.82-1.98,12.91-.83,2.17-2.05,4.3-2.68,6.4-.05.19-.17.47-.32.79-.17.31-.39.66-.62,1.02-.23.36-.49.72-.73,1.05-.26.32-.51.6-.72.81-2.27,2.31-4.64,4.58-7.21,6.63-2.55,2.03-5.39,3.87-8.54,5.07-3.57,1.36-7.53,2.12-11.47,1.78l-1.12-.02-1.39-.07c-.92-.07-1.85-.16-2.77-.3-1.84-.27-3.65-.7-5.4-1.31-1.48-.51-3.2-1.15-4.99-1.81-.89-.33-1.82-.67-2.71-.97-.96-.33-.93-.17-1.12-.02-.06.08-.11.16-.16.23-.02.04-.04.07-.07.1l-.04.05s0,0-.04.05l-.16.21c-.43.57-.88,1.16-1.33,1.74-.44.58-.94,1.14-1.35,1.68-1.35,1.76-2.64,3.54-4.3,5.06-.72.63-1.53,1.16-2.33,1.7-.83.5-1.7.94-2.54,1.43-.51.27-1.14.61-1.61.94-2.31,1.53-4.92,2.74-7.72,3.35-2.78.64-5.71.84-8.55.4l-1.07-.13c-.35-.06-.7-.16-1.04-.24-.69-.17-1.39-.32-2.07-.52-1.32-.5-2.69-.89-3.92-1.56l-1.88-.91-1.73-.97c-1.15-.66-2.3-1.35-3.43-2.07-1.95-1.23-3.83-2.64-5.6-4.2l-1.16-1.06s-.1-.15-.17-.08l-.15.17-.76.8c-.57.6-1.19,1.05-1.79,1.58-.61.51-1.26.97-1.89,1.46-.65.46-1.32.9-1.99,1.34-2.72,1.69-5.73,3.01-8.87,3.82-3.02.79-6.23,1.04-9.08.69-2.86-.34-5.34-1.25-7.08-2.44-1.57-1.08-1.31-1.75,1.07-1.58,1.76.06,3.73.13,5.66.11,3.09.06,6.12-.53,8.9-1.46,2.48-.84,4.76-2.14,6.87-3.69,1.05-.78,2.07-1.61,3.06-2.49.47-.46,1.03-.87,1.44-1.35.69-.74,1.39-1.49,2.09-2.24.58-.43,1.17-.77,1.76-1.16.28-.11.61-.21.97-.12.17.03.32.08.46.13.14.07.29.17.43.25l.47.28c.16.08.32.17.48.36.32.31.65.63.98.94l.97.95.63.58c.76.7,1.47,1.39,1.92,2.16.12.22.75.76,1.09.96,1.88,1.08,3.8,2.11,5.76,3.11,1.99,1.01,3.84,1.78,5.85,2.41,2,.5,4.05.93,6.12.83,1.04.06,2.06-.16,3.09-.26l1.52-.35.76-.18.74-.27c3.36-1.17,6.33-3.24,8.93-5.66.65-.61,1.26-1.27,1.89-1.89.59-.67,1.19-1.35,1.78-2.02.56-.72,1.15-1.39,1.71-2.13.66-.88,1.33-1.76,2-2.65.51-.87,1.16-1.64,2.04-2.11.9-.48,1.94-.57,2.99-.37l.8.2.8.28.64.24.51.2c.52.2,1.04.41,1.56.62,2.04.8,4.08,1.56,6.01,2.13,1.7.51,3.46.88,5.23,1.1.89.11,1.78.19,2.69.22l.71.03c.06,0,.11,0,.17,0l.23.02h.16s.31.04.31.04c.41.05.83.05,1.25.06,3.34.04,6.71-.93,9.79-2.63,3.08-1.7,5.96-4,8.35-6.6,2.38-2.64,4.4-5.62,5.84-8.85,1.45-3.27,2.4-6.79,2.51-10.33l.04-1.33-.07-1.32c0-.89-.2-1.75-.28-2.63-.07-.44-.18-.86-.27-1.3-.1-.44-.17-.84-.31-1.35-.23-1-.53-1.79-.71-3.31-.03-.38-.05-.83,0-1.33.06-.5.21-1.06.43-1.54.11-.24.23-.46.36-.66.06-.11.13-.19.19-.28l.15-.2.42-.56c.54-.75,1.04-1.48,1.47-2.21.21-.38.41-.71.59-1.12l.52-1.22.53-1.22c.17-.41.26-.84.4-1.26,1.07-3.36,1.41-6.94,1.05-10.48-.37-2.42-1.14-4.35-1.87-7.12-.15-.66-.35-1.36-.69-2.04-.32-.69-.63-1.42-1.04-2.11-.43-.68-.87-1.38-1.3-2.07-.46-.68-.98-1.3-1.44-1.95-1.77-2.3-3.98-4.41-6.03-6.23-1-1.03-2.19-1.81-3.32-2.7l-1.83-1.12-.94-.56c-.37-.2-.73-.4-1.09-.61-2.9-1.66-5.5-3.79-7.8-6.05-1.18-1.18-2.17-2.21-3.25-3.21-1.08-.99-2.21-1.93-3.38-2.81-2.34-1.75-4.84-3.22-7.48-4.39-3.78-1.68-7.88-2.64-12.05-2.8-2.06-.11-4.23,0-6.22.28-.49.1-.91.16-1.46.29-.58.13-1.29.26-1.97.31l-.92.05c-.31.01-.63.02-.98.01-.87-.02-1.85-.16-2.61-.68l-.62-.38c-.16-.1-.33-.18-.5-.28-.33-.19-.67-.35-1.02-.51-.69-.32-1.4-.6-2.12-.84-1.46-.47-2.98-.81-4.55-1.01-1.73-.24-3.52-.33-5.35-.38l-2.7-.03c-.9.03-1.79.03-2.68.07-3.57.17-7.07.62-10.49,1.37-2.95.65-5.65,2.14-8.55,2.91-.83.24-2.91,2.16-4.3,3.44-.47.36-.88.79-1.32,1.18-.45.39-.86.81-1.27,1.24l-.62.64-.48.49c-.2.19-.42.4-.65.58-.89.74-1.98,1.22-3.13,1.27-1.13.07-2.31-.34-3.29-.83-.54-.27-1.02-.48-1.55-.69-1.04-.41-2.1-.72-3.14-.89-.72-.12-1.44-.18-2.09-.16-.81.06-1.65.09-2.48.19-1.66.16-3.29.46-4.9.83-3.2.8-6.28,2.01-9.02,3.76-3.39,2.1-6.07,5.08-8.46,8.25-1.24,1.66-2.23,3.33-2.84,5.02-.58,1.69-.8,3.37-.52,5.05l.03.2v.1s.02.05.02.05l.03.12.23,1,.22.99c.05.33.05.65.04.96-.04,1.2-.7,2.46-1.69,3.15-.48.37-1.12.69-1.72.88l-1.65.59c-.62.22-1.22.46-1.83.71-2.41,1.02-4.7,2.37-6.81,4.02-2.17,1.7-4.22,3.83-5.93,5.99-1.72,2.18-3.12,4.47-4.21,6.77-1.03,2.13-1.63,4.45-1.76,6.82-.09,1.19,0,2.36.13,3.59.16,1.27.35,2.53.61,3.77,1,4.96,2.83,9.73,5.73,13.59,1.43,1.92,3.14,3.6,5.11,4.92.99.66,2.06,1.25,3.18,1.8.56.27,1.13.54,1.72.8.48.23,1.41.54,2.3,1.29.42.35.79.77,1.08,1.23.3.47.53.99.66,1.39l.63,1.86c.18.59.45,1.15.68,1.73.22.58.49,1.13.77,1.68,1.09,2.21,2.43,4.26,4.02,6.11,1.81,2.09,3.69,3.96,5.79,5.61,2.09,1.65,4.42,3.06,7.02,4.12,1.21.48,2.49,1.46,3.39,2.3.89.85,1.34,1.66.71,1.8-.24.05-.71.05-1.16-.05-2.87-.58-5.66-1.28-8.45-2.42-2.77-1.16-5.57-2.75-8.14-5.2-3.77-3.61-6.73-8.07-8.6-12.88-.26-.59-.45-1.21-.66-1.82l-.31-.92-.12-.36c-.03-.09-.06-.16-.09-.23-.08-.17-.19-.32-.35-.42-.05-.04-.2-.12-.38-.2l-.81-.35c-2.29-1.01-4.67-2.19-6.81-3.85Z"/>
    <path class="cls-2" d="M250.21,170.98c-.36.08-.73.09-1.06.27-.12.06-.34-.23-.3.48.02.35-.31-.41-.42-.34-.3.18-.66.15-.96.31-.3.15-.52.53-.8.71-.27.18-.71-.07-.86.42-.13.42-.57-.1-.76.12-.19.25-.4.45-.76.27-.26-.13-.55-.32-.67-.11-.08.13-.01.55-.15.57-.12.02-.39-.24-.15.53.02.07-.09-.04-.16-.13-.33-.42-.46-.32-.4.05.06.36-.04.36-.12.42-.21.16-.44.3-.71.35-.21.03-.52-.14-.73-.11-.22.04-.22.46-.58.22-.36-.24-.52-.13-.68-.03-.09.05-.4-.2-.04.54.03.07,0,.08-.05.04-.83-.72-.31.61-.71.56-.42-.05-.57.3-.79.52-.06.06-.28-.07.02.44.11.18.05.25-.07.16-.69-.49-.58.04-.83.1-.3.06-.25.51-.88.24-.27-.12-.48-.1-.05.53.2.29-.14.13-.15.26,0,.1.19.4.14.46-.04.05-.31-.11-.46-.16-.04-.01-.06,0-.04.05.4.85-.73.36-.77.82-.05.43-.34.67-.62.88-.16.13-.44.12-1.79-.45-.61-.26-1.28-.51-1.59-.83-.23-.23-.43-.46-.44-.59-.02-.21-.08-.44-.1-.65-.03-.42-.38-1.09.12-1.18.16-.02-.07-.35.5-.03.08.05.14.04.12,0-.52-1,.33-.95.57-1.33.2-.34-.09-1.17.44-1.21-.41-.73-.12-.84.22-.8,1.17.11,1.36-.84,2.07-1.21.68-.41,1.27-.91,1.95-1.31.11-.06-.04-.53.29-.3.3.21.32-.11.47-.19.13-.08.19-.31.42-.21.94.43,1.2-.31,1.79-.48.57-.17,1.13-.39,1.58-.8.28-.25.44-.8.84-.79.17,0,.16-.46.58.19.12.18.04-.41.12-.48.2-.16.46-.19.69-.28.32-.11.67-.17.97-.35.18-.11.28-.48.46-.62.19-.14.4-.23.63-.21.3.02.64.21.93.21.3,0,.49-.42.85-.15.65.5,1.05.04,1.56.02.5-.03,1-.07,1.45-.33.26-.15.63.44.89.37.13-.03.62,1.8.68,2.45.01.12.02.26,0,.31-.14.64-.19,1.6-.47,1.6-.42,0-.81.14-1.22.23Z"/>
    <path class="cls-2" d="M187.05,197.59c.15-.59.25-1.18.25-1.78,0-.22.36-.42-.3-.7-.34-.13.48-.28.45-.49-.09-.54.08-1.09-.08-1.61-.11-.51-.44-.98-.64-1.42-.09-.22-.05-.48-.08-.72-.04-.23-.13-.46-.39-.61-.43-.25,0-.79-.29-1.07-.29-.3-.59-.57-.54-1.06.05-.37.11-.77-.19-.91-.18-.09-.61.03-.7-.14-.07-.16,0-.54-.68-.11-.06.04,0-.12.05-.22.25-.5.05-.67-.31-.52-.36.15-.43.03-.56-.05-.17-.11-.33-.23-.48-.36-.17-.12-.33-.25-.47-.4-.21-.23-.29-.67-.54-.9-.26-.24-.73-.13-.83-.61-.1-.49-.4-.62-.68-.77-.16-.08-.22-.5-.69.18-.04.06-.1.03-.1-.04-.05-1.2-1.09-.1-1.48-.53-.42-.45-1.04-.44-1.59-.58-.15-.03-.24-.3-.54.22-.1.19-.26.17-.29,0-.19-.9-.76-.52-1.15-.76-.45-.27-1.02.01-1.4-.71-.16-.3-.44-.49-.82.21-.17.32-.36-.07-.55-.01-.16.04-.36.37-.51.36-.13,0-.21-.33-.32-.49-.03-.05-.08-.06-.12-.02-.83.76-1.43-.46-2.2-.29-.76.17-1.51.04-2.25-.1-.41-.07-.81-.32-1.11-1.78-.13-.66-.17-1.37.02-1.79.14-.31.31-.6.47-.68.27-.12.53-.29.79-.41.54-.23,1.11-.89,1.65-.5.16.12.4-.25.49.41.01.09.08.15.12.1.82-.96,1.53-.22,2.28-.2.64.01,1.38-.7,1.98-.25.49-.74.9-.53,1.21-.22,1.11,1.09,2.49.82,3.73,1.31,1.24.49,2.55.82,3.79,1.43.21.1.59-.23.69.2.09.4.5.33.77.47.24.13.59.11.72.41.26.64.67,1,1.14,1.27.45.3.96.55,1.37.91.39.4.78.79,1.19,1.16.38.41.79.78,1.25,1.13.5.47,1.35.73,1.57,1.45.1.29.65.36.14.99-.15.17.51.13.61.31.27.41.44.88.64,1.33.23.64.39,1.3.65,1.93.13.39.52.72.68,1.12.18.42.24.86.19,1.29-.06.56-.25,1.11-.33,1.64-.09.54.25,1.12-.11,1.62-.72.9-.5,1.83-.72,2.73-.28.86-.46,1.76-.57,2.64-.06.51-.8.77-.93,1.23-.06.22-1.94-.09-2.53-.38-.11-.05-.23-.13-.26-.18-.44-.61-1.23-1.24-1.03-1.68.31-.64.37-1.34.51-2.01Z"/>
    <path class="cls-2" d="M205.28,193.78c-.91-.99-1.72-2.05-2.56-3.1-.33-.39-.33-.99-1.19-1.05-.44-.03-.02-.88-.28-1.26-.75-1.02-1.22-2.23-1.82-3.36-.56-1.12-1.28-2.21-1.67-3.47-.21-.62-.28-1.28-.33-1.95-.09-.65-.13-1.31-.39-1.94-.41-1.13.27-2.15.27-3.22,0-1.16.2-2.4.88-3.35.47-.71,1.1-1.28,1.32-2.05.17-.46.06-1.07.38-1.53.3-.42.93-.63.55-1.49-.03-.07.22-.17.38-.19.73-.11,1.15-.56,1.19-1.14.04-.56.34-.83.64-1.1.39-.39.8-.77,1.21-1.14.42-.34.87-.65,1.32-.95.68-.47,1.52-.61,2.22-.97.72-.39,1.31-1.11,2.15-1.13.42,0,.78-.1,1.11-.23.31-.12.59-.28.88-.44.33-.18.89-.06.77-.93-.01-.08.12-.14.2-.11,1.44.41,1.72-1.26,2.72-1.63,1.06-.36,1.94-1.11,2.83-1.75.23-.18.62-.18.49-.81-.05-.22.18-.42.39-.39,1.12.16,1.56-.71,2.22-1.16.78-.51,1.29-1.34,2.35-1.58.45-.1.95-.4.71-1.25-.11-.38.46-.47.59-.79.11-.25,0-.67.14-.88.13-.18.51-.17.76-.27.08-.03.13-.09.13-.17-.02-.77.34-1.23.8-1.69.35-.47.89-.92.95-1.52.2-1.19.45-2.25.54-3.3.05-.6.19-1.08,1.44-1.95.56-.37,1.17-.8,1.71-.52.4.18.75.45.91.78.21.52.47,1.06.6,1.6.31,1.1.83,2.38.22,3.48-.16.34.04.84-.66.94-.1.01-.19.13-.17.21.28.9,0,1.64-.35,2.34-.33.72-.91,1.25-1.25,1.92-.29.58-.49,1.19-.75,1.79-.26.59-.54,1.2-1.11,1.55.13,1.04-.57,1.57-1.23,1.91-1.17.59-2.16,1.27-3.05,2.11-.92.78-1.83,1.55-2.83,2.23-1.01.68-2.05,1.26-3.05,1.92-1,.68-2.04,1.25-3.1,1.79-.36.19-.45.76-1.03.67-.55-.08-.93.42-1.39.67-.37.21-.68.57-1.13.58-1.9.04-3.02,1.46-4.34,2.37-1.27.97-2.46,2.08-3.16,3.45-.18.43-.3.89-.43,1.32-.08.45-.23.86-.46,1.23-.18.34.09.81-.73.97-.23.05.26.54.23.77-.05.29-.06.59-.1.88-.04.29-.09.59-.08.89-.01.42-.04.84.01,1.26.01.42.08.85.2,1.27.11.52.59.95.77,1.44.26.51.39,1.04.55,1.59.16.7.23,1.48.5,2.19.29.74,1.01,1.26,1.11,2.08.21,1.56,1.38,2.54,2.25,3.67.88,1.13,1.87,2.22,3.03,3.01.65.43.82,1.4,1.44,1.78.14.1.04.57-.09,1.14-.14.56-.32,1.18-.55,1.43-.08.09-.21.17-.3.18-1.11.07-2.4.29-3.19-.44-1.15-1.07-2.28-2.07-3.31-3.2Z"/>
    <path class="cls-2" d="M210.85,227.84l-.56-1.16c-.17-.4-.34-.79-.55-1.17-.15-.29.03-.71-.74-.76-.38-.03.24-.61.11-.88-.36-.73-.52-1.53-.87-2.26-.3-.73-.79-1.41-1.09-2.15-.29-.75-.07-1.63-.65-2.29-.51-.58.06-1.3-.2-1.89-.28-.64-.46-1.33-.21-2.02.18-.5.4-.99.24-1.45-.1-.29-.52-.55-.5-.88.02-.31.35-.65-.46-.91-.07-.02.07-.16.18-.23.53-.33.51-.72.16-1.01-.34-.28-.29-.52-.3-.77-.03-.69.04-1.39.17-2.07.1-.51.49-.98.64-1.47.16-.51-.12-1.15.38-1.55.49-.4.56-.86.66-1.33.07-.26.51-.47-.22-.9-.07-.04-.03-.14.04-.17,1.21-.46.12-1.58.63-2.27.52-.68.64-1.53.94-2.31.08-.21.39-.32-.06-.75-.16-.15-.09-.38.09-.42.98-.23.83-1,1.23-1.5.47-.55.48-1.38,1.39-1.67.38-.12.71-.39.26-1.1-.2-.33.28-.43.36-.69.06-.22-.11-.58,0-.77.1-.16.45-.13.67-.2.07-.02.11-.07.1-.14-.09-1.36,1.47-1.5,1.94-2.45.5-.96,1.29-1.7,2.14-2.38.46-.37,1.1-.65,2.38.19.58.37,1.01.94,1.13,1.39.08.33.15.67.07.85-.13.29-.21.62-.32.9-.24.59-.12,1.48-.79,1.68-.21.07-.06.49-.65.18-.08-.04-.17-.01-.16.04.26,1.27-.77,1.5-1.2,2.22-.36.61-.07,1.61-.73,2.01.47.75.14,1.05-.27,1.25-1.42.75-1.57,2.25-2.19,3.44-.65,1.22-1.01,2.56-1.42,3.87-.07.23.32.53-.09.71-.4.16-.21.56-.27.85-.06.27.05.58-.2.8-1.03.91-.69,2.1-.86,3.16-.11.54-.15,1.08-.18,1.63-.04.54,0,1.09.13,1.63.14.66.61,1.28.52,1.95-.05.29.42.53-.31.9-.21.11.4.3.46.47.14.44.16.89.23,1.33.09.62.21,1.24.41,1.84.12.37.52.65.71,1,.19.36.3.75.34,1.15.03.52-.03,1.08.06,1.59.11.53.61.93.48,1.53-.21,1.12.43,1.9.8,2.79.38.88.71,1.8,1.35,2.55.35.43.04,1.18.31,1.65.12.21-1.32,1.5-1.92,1.74-.12.05-.25.08-.31.06-.79-.17-1.85-.16-2.13-.76-.42-.88-.91-1.71-1.34-2.59Z"/>
    <path class="cls-2" d="M207.43,219.93c-.51.18-1.05.23-1.56.42-.19.07-.46-.22-.52.5-.03.36-.39-.4-.57-.33-.48.18-.99.2-1.48.34-.48.13-.93.47-1.42.61-.49.13-1.02-.18-1.47.27-.4.37-.8-.27-1.19-.11-.42.17-.86.28-1.27-.02-.3-.22-.58-.49-.88-.38-.19.07-.38.47-.59.42-.19-.04-.37-.4-.6.38-.02.07-.09-.09-.13-.2-.16-.54-.4-.52-.61-.18-.21.33-.35.28-.51.28-.43,0-.86-.06-1.28-.21-.31-.11-.57-.47-.87-.6-.31-.13-.74.16-.95-.31-.21-.46-.49-.51-.78-.58-.16-.04-.25-.45-.61.3-.03.07-.09.04-.1-.03-.17-1.13-1.02.05-1.41-.37-.39-.43-.95-.4-1.44-.56-.13-.05-.18-.32-.51.17-.12.17-.26.14-.27-.03-.04-.89-.6-.6-.9-.88-.34-.32-.9-.2-1.02-.95-.05-.32-.2-.56-.76,0-.26.26-.28-.16-.46-.17-.15-.01-.43.23-.56.17-.1-.05-.05-.37-.08-.55,0-.05-.04-.08-.09-.06-1.02.41-.95-.94-1.62-1.1-.68-.2-1.18-.67-1.64-1.2-.25-.28-.42-.75.38-2.01.36-.57.88-1.06,1.25-1.28.27-.17.55-.31.68-.3.21.02.45,0,.66,0,.43.03,1.11-.32,1.18.19.03.16.35-.08.05.51-.04.08-.03.15.01.12.99-.57,1.01.26,1.48.46.4.16,1.15-.34,1.33.17.59-.61.75-.37.84-.05.33,1.16,1.36.94,2.05,1.37.74.39,1.55.58,2.33.84.14.04.37-.37.44.01.06.36.33.16.5.2.16.04.37-.08.47.16.45.97,1.23.56,1.86.77.63.23,1.3.3,1.96.16.41-.1.81-.48,1.21-.34.17.07.35-.37.51.39.05.21.21-.37.31-.4.27-.07.54-.03.81-.03.38.01.76.02,1.13-.1.23-.07.42-.41.63-.51.23-.11.46-.13.71-.08.31.06.65.31.97.3.33,0,.58-.41.95-.12.7.51,1.2.09,1.77.01.57-.11,1.14-.23,1.63-.56.28-.19.78.33,1.09.23.14-.05,1.01,1.66,1.17,2.28.03.12.05.25.04.3-.12.66-.12,1.65-.53,1.71-.61.1-1.17.35-1.75.54Z"/>
    <path class="cls-2" d="M167.31,216.75c-.22.06-.46.05-.67.17-.08.05-.23-.27-.18.43.02.35-.22-.44-.29-.39-.19.13-.42.06-.62.17-.19.11-.35.42-.55.54-.2.11-.46-.23-.6.21-.12.38-.37-.24-.51-.07-.15.18-.33.31-.53.03-.15-.2-.3-.47-.41-.32-.07.09-.1.51-.19.49-.08-.02-.2-.36-.2.45,0,.07-.05-.07-.08-.18-.13-.51-.23-.47-.27-.11-.04.35-.11.32-.17.34-.18.06-.36.1-.54.03-.14-.05-.29-.35-.42-.42-.14-.07-.28.3-.42-.08-.14-.39-.26-.36-.39-.36-.07,0-.16-.37-.2.45,0,.08-.03.07-.04,0-.22-1.06-.4.34-.61.07-.21-.27-.43-.08-.65-.06-.06,0-.11-.23-.18.36-.02.21-.09.23-.11.08-.14-.81-.32-.33-.48-.47-.18-.16-.39.2-.54-.43-.06-.27-.16-.42-.31.33-.07.34-.14-.01-.21.06-.06.06-.15.4-.2.41-.05,0-.07-.3-.11-.45-.01-.04-.03-.05-.05,0-.36.83-.53-.34-.83-.14-.31.2-.59.06-.88-.1-.15-.09-.3-.36-.14-1.82.08-.66.24-1.35.37-1.75.09-.3.19-.57.25-.64.09-.12.19-.26.28-.38.18-.22.42-.88.51-.5.03.12.13-.26.09.39,0,.09,0,.14.02.1.32-.99.45-.3.67-.35.19-.05.42-.83.57-.48.16-.8.25-.65.33-.4.29.88.68.31,1.02.44.35.12.71.02,1.07.05.06,0,.1-.45.18-.1.07.33.16.07.23.07.07,0,.14-.18.21.03.31.83.58.31.87.38.29.08.58.12.84-.11.16-.14.28-.6.47-.45.08.06.11-.38.27.36.05.21.05-.37.09-.41.11-.08.23-.05.34-.06.16-.02.33.01.48-.09.09-.06.14-.39.22-.48.09-.1.19-.11.3-.05.14.07.32.33.46.37.15.05.22-.32.41,0,.37.59.54.22.8.24.25.01.5,0,.7-.2.11-.12.4.47.53.43.06-.02.64,1.79.79,2.42.03.12.05.25.05.3.01.61.12,1.55-.07,1.53-.27-.03-.51.1-.76.17Z"/>
    <path class="cls-2" d="M182.04,165.25c-.22-.33-.49-.61-.81-.85-.12-.08.02-.43-.58-.05-.3.19.19-.49.07-.56-.31-.2-.48-.56-.83-.71-.33-.17-.78-.17-1.09-.32-.31-.15-.35-.7-.88-.52-.44.15-.29-.53-.61-.55-.33-.02-.62-.1-.71-.5-.08-.28-.13-.63-.39-.6-.16.02-.45.33-.56.24-.1-.08-.09-.46-.53.21-.04.06-.03-.1,0-.21.1-.53-.07-.6-.33-.31-.25.28-.32.2-.42.18-.29-.06-.56-.13-.8-.31-.18-.13-.28-.51-.46-.64-.2-.14-.54.15-.63-.29-.1-.43-.31-.47-.51-.53-.11-.03-.17-.43-.45.33-.03.07-.07.05-.07-.01-.1-1.1-.74.19-1.02-.13-.3-.34-.7-.22-1.06-.23-.1,0-.17-.25-.33.32-.06.2-.16.21-.19.06-.17-.83-.51-.4-.77-.54-.31-.17-.64.18-.93-.46-.12-.27-.32-.43-.5.33-.08.35-.23,0-.35.08-.1.07-.19.41-.28.42-.08,0-.16-.3-.24-.44-.02-.04-.05-.05-.08,0-.44.86-.93-.25-1.39,0-.44.27-.91.22-1.38.16-.26-.03-.52-.23-.96-1.64-.2-.63-.38-1.32-.32-1.76.04-.32.1-.63.2-.72.16-.15.31-.36.47-.49.32-.3.62-1.02,1.04-.69.13.1.23-.3.38.35.02.09.07.13.09.09.43-1.06,1-.4,1.5-.5.43-.07.86-.87,1.3-.52.26-.81.56-.66.8-.4.42.46.85.55,1.29.56.44.02.89-.03,1.32.08.87.2,1.76.31,2.64.52.15.03.39-.38.47.02.08.37.35.17.55.23.17.05.4-.07.51.18.43.98,1.23.75,1.86,1.09.31.17.62.33.94.46.31.16.63.29.99.35.43.08,1.03-.12,1.34.23.13.14.52-.12.28.63-.07.21.38-.19.49-.15.29.11.52.31.77.47.34.24.68.48,1.04.69.22.12.61.03.86.13.26.11.47.28.63.51.2.29.28.71.48.98.19.3.68.32.67.8-.04.9.61,1.1.97,1.59.31.52.62,1.03,1.1,1.41.28.22-.06.84.13,1.09.1.12-1.36,1.33-1.93,1.64-.11.06-.23.11-.28.12-.67.1-1.58.45-1.71.17-.19-.41-.52-.73-.79-1.09Z"/>
    <path class="cls-2" d="M205.17,136.56c-.05-.15-.09-.32-.22-.43-.05-.04.23-.24-.42,0-.32.12.39-.28.34-.32-.14-.1-.1-.29-.25-.38-.14-.09-.46-.08-.6-.16-.13-.08.12-.41-.31-.3-.37.1.11-.34-.08-.35-.2,0-.35-.05-.17-.33.13-.2.3-.44.13-.42-.1,0-.46.22-.47.15-.01-.06.22-.32-.44.14-.06.04.04-.07.12-.15.37-.37.3-.41,0-.22-.3.19-.29.13-.33.11-.11-.06-.21-.13-.23-.27-.01-.11.15-.38.15-.5,0-.13-.35.06-.13-.28.22-.34.14-.39.07-.45-.04-.04.18-.35-.42.21-.06.05-.06.03-.02-.02.63-.87-.44.05-.36-.24.07-.3-.17-.27-.31-.34-.04-.02.08-.23-.32.2-.14.15-.19.14-.11.02.43-.69.02-.39.02-.57-.01-.2-.34.02-.07-.56.11-.25.13-.41-.36.16-.23.26-.08-.06-.16-.02-.07.03-.3.3-.34.28-.03-.01.11-.28.17-.42.02-.04,0-.05-.03-.02-.63.6-.15-.44-.44-.36-.28.1-.39-.08-.48-.26-.06-.11,0-.35.58-1.7.26-.61.54-1.26.79-1.61.18-.25.36-.49.44-.53.14-.08.29-.17.42-.25.27-.14.77-.64.74-.23,0,.13.25-.17-.05.41-.04.08-.05.13-.01.1.73-.74.59-.04.83.03.2.06.83-.49.8-.08.57-.59.6-.39.55-.12-.18.93.49.73.74,1.09.25.36.63.56.9.88.04.06.41-.23.22.09-.18.29.08.18.14.24.06.06.25,0,.16.2-.38.81.2.71.35,1.01.15.3.29.6.64.73.22.08.7-.03.69.23,0,.11.4-.06-.17.45-.16.14.36-.12.41-.09.13.08.17.22.25.34.11.16.17.35.34.48.1.08.43.02.56.09.13.07.2.19.19.33,0,.19-.17.46-.16.63,0,.18.39.18.14.48-.47.54-.05.66,0,.95.04.29.07.58.32.79.14.12-.42.47-.36.61.03.07-1.75.73-2.37.89-.12.03-.25.06-.29.07-.61.06-1.53.27-1.51.13.02-.2-.1-.35-.16-.53Z"/>
    <path class="cls-2" d="M260.45,130.62c-.08-.18-.11-.39-.26-.55-.05-.06.22-.27-.43-.05-.33.11.39-.3.32-.35-.17-.13-.16-.36-.32-.49-.16-.13-.48-.16-.66-.27-.17-.11.05-.48-.39-.41-.38.07.09-.41-.13-.45-.23-.04-.41-.11-.26-.42.11-.22.27-.49.09-.5-.11,0-.48.19-.5.11-.02-.07.19-.35-.48.1-.06.04.04-.08.11-.16.36-.39.27-.44-.05-.27-.31.17-.31.1-.36.07-.14-.09-.26-.2-.31-.38-.04-.13.11-.42.08-.57-.03-.15-.39,0-.19-.36.21-.36.11-.43.02-.52-.05-.05.16-.37-.46.16-.06.05-.07.02-.03-.03.62-.89-.51-.04-.46-.37.04-.33-.25-.34-.42-.46-.05-.03.07-.25-.36.15-.15.14-.21.12-.13-.01.43-.7-.02-.44-.05-.65-.03-.24-.41-.07-.15-.67.11-.25.12-.43-.44.09-.25.24-.1-.09-.2-.07-.08.02-.34.25-.39.23-.04-.02.12-.29.17-.43.02-.04,0-.05-.03-.03-.74.51-.23-.55-.59-.53-.35.03-.5-.21-.65-.45-.08-.13-.05-.41.69-1.68.33-.58.71-1.18,1-1.48.22-.22.43-.43.53-.46.16-.06.33-.12.49-.17.31-.09.88-.52.83-.1-.02.13.28-.13-.07.42-.05.08-.06.13-.02.1.84-.65.66.07.93.18.23.1.92-.38.89.05.62-.54.66-.32.61-.05-.2.98.55.84.83,1.27.28.42.72.68,1.03,1.07.05.07.43-.2.25.12-.17.3.1.2.17.28.07.07.27.03.18.24-.36.86.28.8.46,1.16.18.36.36.71.77.88.25.11.74.04.75.34,0,.13.42-.04-.13.49-.16.15.37-.11.43-.07.15.1.21.26.3.41.13.2.21.43.4.59.12.1.46.06.61.14.15.09.22.24.23.41.01.22-.14.53-.11.74.02.22.44.25.21.58-.45.61,0,.8.06,1.16.08.35.12.72.38,1.02.15.18-.42.53-.36.71.03.09-1.77.66-2.41.78-.12.02-.25.04-.3.05-.62,0-1.56.14-1.54-.02.02-.24-.1-.43-.18-.64Z"/>
    <path class="cls-2" d="M272.84,144.35c.43-.38.91-.7,1.34-1.08.16-.15.53,0,.31-.69-.11-.34.54.2.68.05.38-.39.89-.6,1.29-.98.38-.37.7-.85,1.11-1.2.41-.34,1.07-.29,1.3-.9.2-.55.86-.18,1.17-.48.33-.34.71-.64,1.23-.55.38.06.78.18,1.01-.08.14-.16.14-.63.36-.68.2-.05.54.19.41-.62-.01-.07.13.03.21.12.4.41.63.28.68-.12.04-.39.21-.41.36-.48.42-.2.83-.42,1.3-.46.35-.04.77.15,1.12.13.36-.02.63-.48,1.05-.2.41.28.71.19,1.02.13.18-.04.46.28.44-.54,0-.08.07-.08.11-.02.72.94.95-.54,1.54-.37.59.2,1.12-.06,1.67-.16.15-.03.33.19.41-.41.03-.21.19-.26.28-.11.48.78.88.27,1.31.38.49.13.97-.28,1.46.37.21.27.47.42.74-.33.12-.34.35,0,.53-.07.15-.07.31-.41.46-.4.13,0,.23.31.35.47.03.05.08.05.12.01.8-.8,1.4.41,2.13.3.76-.12,1.48.12,2.2.42.38.16.78.53.59,2.02-.09.67-.37,1.32-.63,1.68-.19.26-.39.51-.52.55-.2.06-.44.19-.64.26-.42.14-.92.75-1.22.32-.1-.14-.3.22-.29-.44,0-.09-.04-.15-.07-.1-.67.93-1.09.18-1.65.23-.47.03-.93.79-1.37.44-.27.81-.54.66-.79.41-.43-.46-.89-.47-1.33-.44-.44.05-.88.17-1.33.18-.45,0-.91.05-1.35.12-.45.06-.89.2-1.34.26-.16.02-.19.5-.44.19-.24-.29-.4,0-.59.05-.18.05-.31.27-.53.12-.91-.6-1.5.06-2.2.22-.71.18-1.43.36-2.02.81-.36.28-.56.9-1.03.93-.2.02-.19.5-.69-.1-.14-.17-.05.43-.14.5-.24.19-.54.27-.8.42-.36.22-.75.38-1.08.67-.2.17-.25.57-.43.77-.19.2-.42.34-.69.41-.34.09-.76.08-1.08.21-.34.14-.43.64-.92.56-.9-.15-1.26.45-1.78.82-.53.36-1.06.73-1.45,1.26-.22.3-.9.03-1.17.27-.12.11-1.58-1.14-1.96-1.66-.07-.1-.14-.21-.15-.27-.12-.68-.47-1.6-.09-1.84.56-.35,1.01-.82,1.5-1.24Z"/>
    <path class="cls-2" d="M237.73,200.81c1.37-1.67,2.92-2.83,4.36-4.05.54-.43,1.3-.56,1.49-1.55.09-.49,1.1-.18,1.6-.56,1.35-1.04,2.82-1.85,4.17-2.83,1.32-.95,2.51-2.08,3.82-3.03,1.3-.94,2.88-1.53,3.94-2.72.93-1.03,2.21-1.17,3.17-2,1.02-.86,2.01-1.78,3.23-2.31.9-.38,1.79-.75,2.41-1.46.39-.44.54-1.09,1.04-1.47.44-.37,1.16-.56.98-1.49-.02-.08.27-.15.45-.15.83-.03,1.33-.61,1.43-1.23.09-.6.44-.88.74-1.23l2.31-2.87c.54-.7,1.3-1.28,1.76-2.03.53-.78.51-1.78,1.13-2.42.61-.68.76-1.45.88-2.35.04-.25.17-.57.21-.88.06-.37.06-.9-.37-.94-.07-.03-.06-.08.02-.1.56-.45.48-1.18.23-1.82-.23-.66-.63-1.28-.62-1.98-.01-1.47-.68-2.83-1.28-4.11-.17-.33-.14-.81-.81-.84-.24,0-.46-.3-.43-.54.04-.32,0-.6-.07-.87-.1-.25-.25-.46-.41-.67-.16-.2-.33-.4-.51-.6-.19-.17-.38-.35-.53-.56-.33-.5-.83-.81-1.28-1.16-.43-.4-.93-.67-1.28-1.27-.08-.12-.17-.25-.28-.36-.12-.09-.26-.17-.41-.21-.31-.1-.68-.09-1.08.15-.35.19-.81-.25-1.26-.29-.37-.02-.75.22-1.11.16-.32-.04-.59-.38-.91-.57-.09-.06-.21-.08-.32-.05-.5.13-.96.19-1.42.18-.45,0-.92-.13-1.36-.17-.45-.06-.91-.17-1.36-.19-.44,0-.9,0-1.33.12-1.71.51-3.29,1.01-4.65,1.85-.76.48-1.44.85-3,.56-.69-.14-1.39-.37-1.42-1.1-.02-.51.06-1.09.34-1.48.43-.66.92-1.28,1.46-1.83,1.11-1.12,2.36-2.44,4.06-2.58.26-.02.51-.16.76-.24.26-.06.52-.04.79.24.07.08.28.09.37.02.47-.37.98-.58,1.5-.71.53-.14,1.07-.21,1.61-.19.54.01,1.08.02,1.6.09.53.07,1.05.13,1.57.15.89.03,1.76-.02,2.66-.07.91,0,1.89.16,2.76.56.63-.22,1.25-.13,1.82.07.29.1.56.23.82.38.25.16.48.37.69.56.38.34.75.66,1.13.97.38.31.71.68,1.07,1,.75.62,1.38,1.33,2.05,2.01,1.27,1.4,2.45,2.92,3.18,4.63.78,1.71,1.37,3.46,1.78,5.25.41,1.82.68,3.57.57,5.66,0,.32.04.79.02,1.27-.03.31.01.26-.01.37-.02.07-.07.12-.18.29-.4.46-.27,1.45-.44,2.25-.17.74-.21,1.59-.65,2.21-.42.66-.86,1.25-1.21,1.9-.4.6-.73,1.25-1.1,1.85-.72,1.22-1.46,2.41-2.35,3.47-1.8,2.08-3.78,3.87-5.61,5.8-1.14,1.13-2.09,2.54-3.49,3.38-.59.36-.92,1.15-1.91.94-.28-.06-.44.81-.8,1.07-.86.68-1.8,1.26-2.7,1.89-1.26.87-2.53,1.61-3.73,2.5-.73.54-1.31,1.29-2.03,1.85-.75.59-1.56,1.11-2.39,1.56-1.06.58-2.21,1-3.24,1.59-1.08.61-1.94,1.62-3.09,1.99-2.13.7-3.7,2.23-5.07,3.52-1.37,1.3-2.19,2.63-2.34,4.52-.08,1.05-.82,2.05-.87,3.24-.02.54-1.95,1.24-2.58.99-.12-.05-.25-.15-.29-.24-.55-1.22-1.44-2.42-1.17-3.95.12-.57.18-1.12.36-1.71.14-.58.3-1.17.55-1.76.41-1.19,1.11-2.3,1.86-3.26Z"/>
    <path class="cls-2" d="M303.27,172.84c.36.18.69.41,1.08.53.15.04.11.41.59-.11.24-.26-.05.52.08.56.36.11.6.41.96.54.35.12.78.1,1.12.24.33.14.4.66.92.52.45-.11.26.57.57.61.33.05.63.17.66.58.02.3,0,.64.24.67.15.02.51-.22.59-.1.08.11-.04.46.58-.07.05-.04,0,.1-.05.21-.24.49-.09.57.24.38.32-.19.37-.08.46-.03.24.16.48.34.64.6.12.19.07.56.17.76.11.21.54.11.41.54-.13.43.03.55.17.69.08.08-.09.44.56-.07.06-.05.08,0,.05.05-.52.98.7.23.74.66.04.44.42.56.68.79.07.06-.04.29.45-.04.17-.12.26-.06.18.07-.42.74.12.6.2.89.09.32.57.3.29.94-.11.27-.11.49.56.12.31-.17.14.17.27.2.11.03.43-.14.5-.07.06.05-.13.31-.18.46-.02.04,0,.07.05.06.94-.21.34.85.8,1.05.46.2.67.61.85,1.04.1.24.07.59-1,1.62-.48.46-1.06.88-1.45,1.05-.29.13-.57.24-.68.22-.18-.03-.39-.02-.57-.05-.36-.05-1.05.17-.94-.27.03-.14-.33.03.13-.44.06-.06.08-.12.03-.11-1.02.36-.74-.35-1.04-.59-.25-.2-1.06.09-1-.37-.73.4-.75.16-.68-.14.24-1.04-.62-1.11-.94-1.64-.35-.53-.86-.92-1.26-1.39-.07-.08-.46.18-.3-.16.15-.32-.14-.24-.24-.34-.09-.09-.3-.06-.24-.29.24-.95-.48-.92-.77-1.32-.29-.41-.61-.78-1.11-.94-.31-.09-.81.04-.93-.26-.05-.13-.43.13-.05-.54.11-.19-.35.19-.43.16-.2-.07-.32-.23-.48-.35-.21-.18-.4-.37-.67-.47-.16-.06-.48.11-.65.07-.18-.03-.32-.13-.42-.3-.12-.19-.15-.53-.29-.71-.15-.19-.52,0-.52-.42,0-.79-.53-.65-.83-.9-.15-.12-.31-.24-.48-.34-.17-.07-.35-.11-.56-.11-.22,0-.17-.67-.38-.74-.08-.03.38-1.88.63-2.48.05-.11.11-.23.14-.27.42-.47.99-1.25,1.26-1.08.4.26.88.36,1.27.58Z"/>
    <path class="cls-2" d="M289.65,184.21c.31-.32.69-.57.92-.96.09-.14.45-.04.05-.63-.2-.29.51.14.59,0,.2-.37.57-.6.78-.96.21-.35.26-.83.42-1.19.17-.36.72-.45.61-.99-.09-.47.6-.32.67-.66.08-.35.15-.7.58-.79.31-.07.67-.12.68-.39,0-.17-.27-.5-.16-.62.1-.11.49-.07-.13-.59-.05-.04.11-.02.22,0,.53.13.59-.06.34-.35-.24-.28-.16-.36-.12-.47.11-.3.23-.59.45-.84.16-.18.56-.25.72-.44.17-.2-.06-.59.39-.64.45-.06.52-.28.61-.49.05-.12.46-.13-.26-.52-.07-.04-.04-.08.02-.08,1.11.02-.09-.8.28-1.05.39-.27.32-.7.37-1.08.02-.1.27-.15-.28-.38-.19-.08-.19-.18-.04-.2.85-.09.46-.49.62-.73.2-.3-.12-.66.56-.91.29-.1.44-.29-.29-.53-.34-.11.02-.23-.05-.35-.06-.1-.4-.21-.4-.3,0-.08.31-.14.46-.22.04-.02.04-.05,0-.08-.86-.46.31-.91.03-1.36-.25-.43-.22-.87-.18-1.3.02-.25.21-.47,1.58-1.03.61-.26,1.27-.55,1.72-.51.33.02.64.06.75.18.17.18.38.33.54.51.33.36,1.05.68.75,1.16-.1.14.29.27-.35.43-.09.02-.13.08-.09.1,1.07.49.4,1.13.47,1.68.08.48.82,1,.44,1.47.78.34.63.68.33.91-.5.43-.64.88-.7,1.36-.06.47-.08.96-.24,1.41-.31.92-.56,1.83-.9,2.73-.06.15.32.45-.09.49-.38.04-.23.35-.31.54-.07.17,0,.43-.25.51-.54.17-.75.47-.89.8-.16.32-.24.69-.45.99-.43.59-.8,1.2-1.03,1.9-.12.43.01,1.04-.37,1.32-.16.12.09.53-.64.26-.21-.08.18.4.13.52-.12.28-.34.49-.52.73-.25.33-.55.63-.74,1.01-.12.23-.02.63-.12.88-.1.27-.27.48-.51.62-.3.19-.73.26-1,.46-.29.2-.27.71-.75.72-.89.02-1.04.7-1.54,1.06-.48.37-.95.75-1.27,1.28-.18.3-.85.05-1.08.28-.11.11-1.53-1.14-1.92-1.66-.07-.1-.15-.21-.16-.26-.18-.65-.62-1.53-.34-1.72.42-.28.74-.69,1.1-1.04Z"/>
    <path class="cls-2" d="M278.49,226.26c.41-.14.82-.27,1.2-.49.14-.08.42.17.31-.53-.06-.35.4.35.53.27.35-.21.74-.33,1.07-.58.31-.25.52-.68.82-.93.3-.23.82-.16.91-.7.07-.47.66-.1.84-.39.19-.3.39-.58.82-.55.32.03.68.1.78-.15.06-.16-.09-.56.05-.64.13-.07.49.09.07-.6-.04-.06.11.01.21.07.46.29.58.12.44-.23-.14-.35-.03-.39.05-.49.21-.26.43-.5.72-.67.23-.12.6-.09.83-.22.24-.14.16-.59.61-.5.46.09.6-.1.77-.28.09-.1.47.01-.07-.61-.05-.06-.01-.09.05-.07,1.06.38.24-.81.69-.94.48-.14.56-.61.79-.95.06-.09.32-.05-.1-.48-.15-.15-.1-.25.05-.21.84.23.63-.32.91-.51.33-.22.21-.72.94-.68.31.02.54-.1,0-.65-.25-.25.14-.22.13-.38,0-.13-.25-.39-.2-.49.04-.08.35,0,.52-.01.05,0,.07-.03.05-.08-.49-.87.76-.77.8-1.35.03-.58.35-1,.67-1.42.18-.23.51-.39,1.94,0,.65.17,1.32.4,1.65.7.25.22.47.44.49.58.04.23.12.48.15.69.07.45.52,1.11,0,1.31-.16.06.12.37-.51.17-.09-.03-.15,0-.12.04.67.95-.21,1.12-.4,1.64-.17.43.29,1.23-.25,1.46.56.64.28.85-.08.93-1.24.31-1.25,1.41-1.91,2.09-.64.7-1.15,1.5-1.79,2.2-.11.12.15.53-.24.44-.36-.08-.33.25-.47.41-.13.14-.14.4-.41.4-1.12-.04-1.25.86-1.87,1.29-.62.43-1.17.9-1.63,1.51-.27.38-.35,1.01-.82,1.16-.2.06-.1.54-.7.05-.17-.14.03.44-.07.53-.23.23-.52.37-.78.54-.37.24-.77.44-1.1.74-.2.19-.28.58-.49.78-.22.2-.48.34-.77.41-.37.08-.81,0-1.16.1-.36.11-.58.57-1.06.38-.87-.36-1.34.18-1.98.35-.63.16-1.28.23-1.87.56-.34.18-.81-.36-1.15-.26-.17.05-.75-1.75-.82-2.4-.01-.12-.02-.26,0-.31.18-.66.22-1.64.55-1.67.49-.04.95-.23,1.42-.35Z"/>
    <path class="cls-2" d="M263.69,225.16c.21-.36.4-.73.47-1.14.03-.15.4-.18-.19-.57-.29-.19.52-.04.54-.18.04-.39.31-.7.35-1.09.01-.38-.17-.81-.16-1.17,0-.36.47-.64.16-1.05-.3-.35.35-.5.25-.81-.12-.32-.18-.63.16-.89.24-.19.58-.38.43-.61-.09-.14-.49-.29-.46-.43.03-.13.38-.28-.42-.41-.07-.01.08-.07.19-.09.53-.13.5-.32.14-.43-.35-.11-.3-.21-.31-.32-.05-.29-.12-.57-.06-.87.04-.22.32-.47.38-.7.06-.24-.32-.44.01-.7.34-.28.28-.48.24-.7-.02-.12.31-.34-.5-.27-.08,0-.07-.04-.02-.07.99-.59-.48-.59-.32-.98.16-.42-.12-.73-.26-1.06-.04-.09.14-.27-.44-.15-.21.04-.26-.04-.14-.14.66-.53.1-.63.13-.94.02-.36-.47-.48-.04-1.04.18-.24.22-.48-.52-.29-.34.09-.11-.2-.24-.27-.11-.05-.45.04-.51-.04-.05-.06.18-.28.26-.43.02-.04.01-.07-.04-.07-.94.03-.24-.93-.68-1.21-.46-.24-.65-.68-.84-1.1-.1-.24-.07-.56.9-1.67.43-.51.92-1.03,1.33-1.2.3-.13.59-.24.73-.2.22.06.48.1.68.16.43.13,1.22.04,1.16.58-.02.17.38.06-.09.52-.07.06-.08.13-.02.12,1.13-.14.88.71,1.22,1.12.27.36,1.2.36,1.13.94.84-.15.85.21.74.56-.36,1.19.49,1.81.71,2.73.18.93.57,1.79.73,2.73.02.16.5.2.19.46-.29.24,0,.41.04.61.03.18.24.35.07.56-.73.84-.19,1.49-.21,2.24-.01.73-.17,1.44.04,2.17.12.44.56.92.32,1.36-.1.18.31.44-.47.53-.22.03.33.27.34.4.02.31-.06.61-.1.92-.04.43-.23.82-.25,1.25-.02.26.23.59.24.86,0,.29-.06.56-.2.8-.17.32-.53.56-.74.85-.2.3,0,.77-.45.96-.84.34-.72,1.05-1.06,1.57-.34.51-.67,1.02-.8,1.63-.08.35-.79.32-.93.61-.07.14-1.8-.63-2.33-1.01-.1-.07-.2-.16-.23-.2-.38-.56-1.08-1.24-.88-1.49.3-.37.45-.83.67-1.24Z"/>
  </g>
</svg>