<?xml version="1.0" encoding="UTF-8"?>
<svg id="Content" xmlns="http://www.w3.org/2000/svg" viewBox="0 0 500 500">
  <defs>
    <style>
      .cls-1 {
        fill: none;
      }

      .cls-1, .cls-2 {
        stroke-width: 0px;
      }

      .cls-2 {
        fill: #fff;
      }
    </style>
  </defs>
  <path class="cls-2" d="M284.47,185.42c2.8,11.83,5.6,23.67,8.4,35.49,1,4.42,1.66,9,3.35,13.45.83,2.22,1,6.65,1.88,10.75.59,2.77,1.18,5.55,1.78,8.32l.85,4.17.43,2.14c.21,1.17.57,2.4.63,3.49.04.55-.04.99-.16,1.41-.07.21-.14.41-.28.62-.17.2-.34.37-.55.5-.76.56-1.78.83-2.95.9-.58.04-1.17.04-1.77.02l-1.45-.07c-.6-.05-1.35-.03-2.05-.03-2.82,0-5.63.01-8.44.02-10.95.52-21.84,1.02-32.77,2.08-10.82.96-22.04,1.73-32.41,3.42-8.99,1.47-17.2,1.84-25.83,3.06-9.13,1.3-18.67,2.5-27.69,3.28-6.59.56-13.11,1.05-19.62,1.97-2.03.29-3.99.64-5.99.99-2.01.33-4.08.57-6.31.75-4.15.33-8.88.39-12.43,1.5-.15.05-.7.08-1.31.08-.59,0-1.26-.01-1.71-.01-4.32-.12-9.64.98-13.38,1.89-1.81.45-3.49.84-5.23,1.07-1.74.24-3.5.4-5.34.44-.64.01-1.28.02-1.92,0-.65-.02-1.27-.05-2-.12-.72-.08-1.55-.2-2.5-.54-.95-.33-1.98-.97-2.71-1.73-.37-.37-.69-.78-.92-1.11-.22-.32-.43-.64-.62-.97-.38-.65-.69-1.29-.97-1.91-.55-1.25-.95-2.45-1.32-3.57l-2.3-6.54c-.82-2.24-1.53-4.58-2.12-6.91-.89-3.49-1.54-7-2.08-10.48l-.77-5.21-.37-2.6-.19-1.3-.1-.64-.12-.55c-.14-.73-.36-1.62-.59-2.5-.22-.87-.46-1.75-.71-2.64-.51-1.77-1.02-3.55-1.53-5.32-1.02-3.53-2.01-7.01-2.74-10.28-1.48-6.58-3.28-12.76-5.1-19.1-1.04-3.6-1.88-7.92-3.51-10.66-.15-.26-.53-1.61-.64-2.25-1.87-10.59-6.15-20.33-8.39-31.09-1.17-5.45-2.46-10.94-3.8-16.44-.68-2.75-1.31-5.53-2.09-8.23-.93-3.36-1.85-6.71-2.78-10.05-.17-.66-.34-1.32-.5-1.98l-.25-.99-.12-.5-.06-.25c0-.07-.09-.21.04-.17,1.37,0,2.74,0,4.09-.01,1.35.01,2.68,0,4.01-.04.82-.05,1.56-.13,2.31-.26.99-.2,4.14-.22,5.67-.06,8.33.81,17.11.47,25.69.29,9.77-.09,19.59-.7,29.49-.31,4.18.16,9.9.17,14.89-.64,2.3-.38,7.09-.11,10.69-.24,2.96-.11,5.8-.5,8.72-.56,2.48-.05,4.98.22,7.51.32.75.03,1.67.02,2.41-.04,14.31-1.07,28.56-.15,42.96-.6,7.24-.23,14.52-.38,21.82-.46l10.95-.11,5.45-.04c1.78-.02,3.57-.08,5.36-.16,2.41-.11,4.85-.23,7.21-.34,1.2-.04,2.39-.07,3.55-.08.58,0,1.15,0,1.71,0,.28,0,.56,0,.84,0,.26,0,.64,0,.6.03,0,.02.25-.02.44-.03l.57-.05c.38-.02.75-.04,1.12-.05.73-.02,1.45,0,2.15.06,1.39.13,2.72.39,3.9.99.68.37,1.15.81,1.32,1.2.17.4.12.58-.05.63-.37.09-.97-.31-2.58-.26-.95.01-1.99.16-3.05.35-.53.1-1.07.21-1.61.33-.57.14-1.14.28-1.71.41-.54.06-1.11.12-1.67.18-4.52.41-9.07.97-13.56,1.31-4.7.36-9.31.55-13.96.8-4.66.22-9.36.36-14.17.25-2.99-.07-6.48.37-8.97-.24-.34-.09-1.57-.12-2.16-.06-12.76,1.21-26.08.74-39.1,1.02-11.08.23-21.79,1.2-32.99,1.02-3.06.45-6.41.67-9.76.75-3.35.11-6.7.1-9.81.05-10.94-.17-21.92.03-32.92.32l-4.12.11h-4.13s-8.27.02-8.27.02h-8.27s-2.07,0-2.07,0l-1.95-.04-1.05-.04h-.09s-.06,0-.04.03l.04.17.09.35.81,3.04c.7,2.71,1.5,5.43,2.11,8.14l3.9,16.29c1.31,5.47,2.57,10.75,4.04,16.12,1.44,5.35,2.94,10.71,4.44,16.06,1.02,3.65,2.36,6.66,3.24,11.02.83,4.1,2.57,9.22,3.91,13.89,1.23,4.28,2.69,8.73,3.64,12.82.98,4.25,2.06,8.48,3.13,12.75l.8,3.23c.25,1.03.55,2.41.68,3.41.33,2.16.68,4.31,1.05,6.45.75,4.28,1.62,8.51,2.76,12.63.56,2.06,1.21,4.08,1.96,6.09l2.2,6.22c.67,2.07,1.3,4,2.25,5.38.44.6.55.66,1.24.87.67.17,1.75.22,2.75.25,2.02.05,4.09-.11,6.19-.37,2.12-.25,4.25-.65,6.37-.97,4.24-.66,8.6-1.53,13.08-1.93,4.33-.41,8.65-.81,12.97-1.21,2.62-.27,5.24-.52,7.86-.83,2.61-.37,5.23-.74,7.85-1.11,5.24-.73,10.49-1.42,15.79-1.97,4.52-.46,9.22-1.46,13.77-1.24,1.29.06,5.43-1.01,8.33-1.39,7.22-.9,14.47-1.8,21.71-2.7l15.09-1.85c5.05-.55,10.09-1.11,15.13-1.66,6.15-.66,12.23-1.52,18.41-2.05,3.23-.26,6.48-.54,9.75-.66,3.27-.1,6.53-.21,9.78-.31,2.06-.04,4.12-.09,6.18-.13l3.08-.05,3.09.07,6.17.13.77.02.86.05.37.02h.06s.12.03.12.03c.17.01.36.05.53-.03.05-.17-.05-.35-.07-.54-.18-.86-.36-1.73-.54-2.6-.45-2.1-.9-4.2-1.35-6.29-.92-4.18-1.75-8.32-2.47-12.31-1.32-7.43-2.79-14.82-4.5-22.15-1.74-7.32-3.48-14.65-5.21-21.97-.84-3.64-1.69-7.29-2.54-10.94-.84-3.65-1.69-7.29-2.62-10.92-1.85-7.26-3.7-14.52-5.55-21.75-2.1-8.24-3.51-15.83-5.09-24.09-.01-.05-.02-.1-.03-.15-.25-1.89-.27-3.98-.31-5.56-.02-.77-.03-1.43,0-1.83.04-.41.2-.6.58-.32.31.21.75.79,1.06,1.4.91,1.9,1.48,3.86,1.94,5.74.84,2.87,1.68,5.73,2.56,8.71.94,3,1.84,6.14,2.67,9.57,1.61,6.68,3.25,13.34,4.94,20.03l2.53,10.02c.84,3.34,1.61,6.7,2.41,10.05Z"/>
  <path class="cls-2" d="M298.78,177.52c3.27,13.83,6.5,27.68,9.84,41.48.62,2.57,1.18,5.18,1.78,7.81.58,2.63,1.26,5.28,2.18,7.89.92,2.6,1.22,7.76,2.31,12.54,1.47,6.46,2.8,12.97,4.14,19.46l.99,4.88.68,3.34.18,1.01c.02.32.02.62,0,.9-.08.56-.15,1.05-.55,1.53-.2.23-.44.38-.68.54-.23.16-.49.29-.77.39-.55.22-1.19.34-1.86.4-.67.06-1.37.07-2.07.06-.81-.02-1.16-.05-1.57-.07l-1.13-.05h-1.23s-2.47.01-2.47.01l-4.8.03c-1.6,0-3.2.02-4.8.12l-9.58.49c-6.39.34-12.77.59-19.16,1.15-12.67.97-25.78,1.9-37.92,3.68-10.52,1.61-20.11,2.19-30.19,3.57-10.67,1.5-21.8,2.91-32.35,3.86-7.7.69-15.32,1.31-22.92,2.36-4.75.63-9.14,1.65-14.36,2.12-4.84.39-10.37.52-14.53,1.68-.35.1-2.53.14-3.64.12-.66,0-1.34,0-2.02,0-.68,0-1.33.01-2.01.05-1.35.06-2.73.2-4.09.38-2.71.37-5.32.92-7.44,1.47-2.1.51-4.1.91-6.07,1.26-1.96.36-3.9.63-5.98.84-1.42.14-2.87.24-4.34.27-.74.01-1.48,0-2.23-.01-.74-.03-1.47-.06-2.33-.16-.85-.11-1.81-.27-2.89-.72-1.06-.43-2.15-1.23-2.87-2.08-.19-.21-.35-.42-.51-.63l-.39-.56c-.24-.37-.46-.73-.66-1.1-.41-.73-.74-1.46-1.04-2.18-.6-1.43-1.04-2.8-1.47-4.09l-1.33-3.77-1.37-3.9c-.47-1.31-.92-2.63-1.31-3.99-2.36-8.11-3.45-16.29-4.67-24.36-.3-2.23-.69-3.88-1.28-6.04-.55-2.06-1.15-4.15-1.74-6.21-1.18-4.13-2.33-8.19-3.21-12.01-1.78-7.68-3.89-14.9-6.02-22.31-1.21-4.21-2.26-9.24-4.04-12.48-.17-.3-.61-1.89-.75-2.63-2.36-12.34-7.14-23.75-9.85-36.31-1.39-6.36-2.9-12.79-4.47-19.22-.8-3.2-1.53-6.48-2.4-9.62-.87-3.18-1.82-6.43-2.51-9.83-.37-1.81-.61-3.74-.78-5.67-.05-.48-.08-.96-.12-1.45-.04-.37-.08-1.23.02-1.94.19-1.46.81-2.84,1.7-3.99.32-.4.9-.98,1.75-1.47.42-.25.91-.47,1.44-.63.26-.09.54-.15.82-.21.18-.03.37-.06.55-.09,1.37-.23,2.77-.35,3.7-.38,5.02-.14,10.06-.38,15.15-.65,2.55-.13,5.1-.26,7.67-.33,2.56-.07,5.06-.14,7.57-.17,11.42-.13,22.89-.79,34.46-.43,4.89.16,11.57.1,17.41-.72,2.68-.39,8.29-.12,12.5-.27,3.46-.12,6.78-.52,10.19-.58,2.9-.05,5.82.21,8.78.3.88.03,1.95.02,2.82-.04,16.73-1.11,33.38-.22,50.22-.71,8.46-.24,16.98-.42,25.51-.52l12.8-.13,6.39-.05c2.09-.02,4.18-.08,6.28-.18,2.86-.14,5.74-.28,8.54-.41,1.41-.06,2.82-.1,4.18-.12.68,0,1.36-.01,2.02-.02.33,0,.66,0,.99,0h.49s.23,0,.23,0c-.07.01.01.01.02.02,0,.02.32-.03.51-.05l.65-.06c.43-.03.85-.06,1.27-.07.83-.03,1.64-.02,2.43.03,1.57.12,3.07.38,4.41,1,.78.39,1.32.87,1.53,1.3.21.43.17.64,0,.68-.38.08-1.08-.45-2.98-.42-1.1,0-2.29.14-3.51.35-.61.1-1.23.23-1.85.36l-.94.21-1.02.25c-.69.07-1.4.14-2.11.21-5.29.46-10.62,1.09-15.86,1.45-2.72.2-5.48.33-8.17.45-2.71.13-5.42.25-8.14.38-5.45.23-10.94.38-16.57.28-3.5-.06-7.58.39-10.48-.22-.4-.08-1.84-.11-2.52-.05-14.92,1.24-30.48.81-45.7,1.12-12.96.26-25.48,1.26-38.56,1.11-7.17.89-15.61.96-22.87.89-12.79-.13-25.65.12-38.49.46-6.36.13-12.73.48-19.06.99-3.14.27-6.36.57-9.3,1.03-.5.08-.91.46-1.05.97-.03.13-.05.26-.05.4l.05,1.09c.05.73.12,1.47.21,2.21.37,3.01,1.11,6.07,1.93,9.17l1.26,4.72c.43,1.61.77,3.18,1.16,4.77l4.56,19.03,2.28,9.45c.8,3.13,1.62,6.26,2.48,9.39,1.7,6.26,3.45,12.52,5.22,18.78,1.2,4.26,2.69,7.8,3.78,12.89,1.02,4.77,3.02,10.77,4.59,16.23,1.44,5.01,3.11,10.21,4.25,14.99,1.22,4.96,2.45,9.93,3.68,14.92.15.64.31,1.24.45,1.91.14.68.29,1.38.41,2.04l.58,3.78c.4,2.52.82,5.02,1.28,7.52.93,4.98,2.05,9.91,3.53,14.67.35,1.19.81,2.37,1.22,3.55l1.28,3.58,1.31,3.67c.41,1.23.78,2.4,1.21,3.5.42,1.09.9,2.09,1.47,2.92.54.77.78.92,1.65,1.17.84.21,2.12.27,3.3.3,1.19.02,2.4-.01,3.61-.09,2.42-.16,4.91-.49,7.41-.9,2.5-.4,4.96-.76,7.49-1.2,2.52-.43,5.07-.85,7.65-1.17,1.29-.16,2.59-.3,3.9-.41l3.81-.33c5.05-.47,10.09-.94,15.12-1.41,1.53-.16,3.07-.27,4.6-.48l4.59-.63c3.06-.42,6.12-.84,9.18-1.27,6.12-.84,12.26-1.63,18.46-2.29,5.28-.56,10.79-1.65,16.09-1.52,1.51.03,6.35-1.11,9.76-1.57,8.44-1.11,16.92-2.11,25.38-3.16,11.74-1.51,23.55-2.75,35.35-3.92,7.19-.71,14.31-1.6,21.54-2.13,7.57-.47,15.24-.68,22.83-.91,1.2-.02,2.4-.08,3.61-.07l3.61.06,7.21.14c.6.02,1.36.08,1.92.12l.36.03h.06s.12.03.12.03c.08.01.17.02.26.01.09,0,.2-.04.17-.13,0-.08-.02-.16-.03-.25-.02-.15.02.03-.13-.77l-.68-3.51c-1.89-9.73-4.39-19.74-6.11-29.06-.79-4.34-1.63-8.66-2.52-12.98-.93-4.3-1.94-8.59-2.94-12.87-2.03-8.56-4.06-17.12-6.09-25.68-1-4.26-1.95-8.53-3-12.78l-3.17-12.74c-2.15-8.5-4.3-16.99-6.45-25.46-.62-2.4-1.18-4.77-1.71-7.1-.54-2.34-.88-4.71-1.31-7.05l-.61-3.51c-.21-1.14-.43-2.29-.65-3.44-.46-2.31-.96-4.62-1.56-6.94-.56-2.17-.8-4.8-.9-6.67-.04-.95-.06-1.69-.04-2.15.03-.47.17-.69.59-.31.17.15.38.41.56.69.19.3.39.65.54,1,3.64,9.01,5.9,17.56,8.25,28.07,3.77,15.6,7.73,31.2,11.66,46.83Z"/>
  <g>
    <g>
      <path class="cls-1" d="M172.48,213.5c-3.97,1.27-17.16.08-18.33-3.17-3.51-2.73,19.32-17.92,22.74-20.92,4.68-4.11,24.56-19.88,30.45-14.9,3.04,2.57-11.93,32.4-15.24,38.03-2.49,4.23-4.41,18.96-11.05,15.85-5.44-2.55-3.07-15.12-8.58-14.89Z"/>
      <path class="cls-2" d="M180.95,225.08c.51.8.95,1.14,1.59,1.29.47.07.71.02,1.35-.67.41-.49,1.19-1.08.99-2.2-.11-.54,1-.97,1.3-1.82.8-2.25,1.61-4.6,2.41-7.12.2-.62.39-1.25.64-1.92.21-.63.66-1.52.86-1.95l1.52-3.28c1.05-2.17,2.52-4.23,3.17-6.51.57-1.97,1.94-3.33,2.62-5.15.72-1.92,1.51-3.89,2.59-5.6.79-1.25,1.61-2.46,2.03-3.85.26-.87.19-1.8.56-2.69.35-.83,1.03-1.68.51-2.67-.04-.08.22-.41.39-.56.8-.73,1.09-1.86.91-2.66-.13-1.02-.17-.66-.16-.76-.02-.02-.05-.02-.07-.02,0,0-.01,0-.02-.01h0s0,0,0,0h-.11c-.14-.02-.34.02-.51.02-1.07.07-2.47.19-3.81.66-1.4.49-2.69,1.54-4.12,1.89-1.45.35-2.64,1.09-3.85,1.86-.69.44-1.7.65-1.8,1.71-.01.1-.27.26-.42.29-2.54.44-3.6,2.94-5.63,4.16-1.05.64-2.04,1.39-2.99,2.19-.47.4-.94.81-1.4,1.22l-.67.61c-.29.26-.57.5-.84.71-.57.46-1.3.71-1.46,1.56-.06.3-.62.75-.99.84-2,.47-3.29,2.03-4.91,3.06-1.84,1.18-3.35,2.78-5.45,3.63-.89.36-1.97,1.03-2.34,2.31-.17.58-1.19.98-1.72,1.55-.44.47-.66,1.13-1.1,1.55-.37.36-.96.49-1.42.76-.14.08-.27.21-.34.35-.18.36-.44.76-.56.99.02.06.02.09,0,.11-.02.04-.19.1-.21.22-.05.1-.03.22.04.32.04.05.08.09.15.12.2.09.51.19.78.25,2.68.59,5.83,1.05,8.82,1.23,1.69.09,3.23.24,4.53,1.42.6.51.94,1.17.21,1.79-.53.43-1.19.81-1.86.95-1.08.21-2.15.4-3.2.5-2.16.2-4.41.68-6.63-.09-.68-.24-1.6-.04-2.03-.83-.06-.11-.33-.23-.48-.23-.47.02-.94,0-1.42-.09-.25-.04-.45-.09-.75-.17-.33-.1-.65-.25-.98-.38-1.29-.58-2.38-1.55-2.83-2.83-.14-.02-.12-.08-.15-.13l-.07-.15c-.04-.11-.09-.22-.12-.34-.06-.23-.1-.48-.11-.73-.01-.49.08-.97.24-1.43.31-.93.91-1.8,1.54-2.62.46-.6.92-1.19,1.38-1.78.41-.53.81-1.05,1.22-1.55.83-1,1.72-1.92,2.82-2.62.57-1.53,1.96-2.47,3.23-3.14,4.44-2.38,8.17-5.75,12.07-8.54l.7-.52c.24-.19.36-.28.64-.52l1.49-1.24c.99-.81,1.98-1.61,2.99-2.39,2.01-1.57,4.05-3.09,6.17-4.52.72-.49,1.09-1.29,2.15-1.55.99-.24,1.9-1.13,2.88-1.71.89-.53,1.76-1.22,2.73-1.51,2.01-.59,3.9-1.39,5.96-2.08,1.03-.35,2.1-.66,3.29-.83.3-.04.59-.09.91-.09l.56-.02c.21,0,.42,0,.62.03.4.06.81.1,1.21.18l1.14.38,1.01.58c.29.24.61.47.86.75.52.58.72,1.34.81,2.1.08.77,0,1.58-.14,2.38-.03.2-.07.41-.11.58l-.09.4-.19.78c-.53,2.04-1.17,3.93-1.78,5.84-.74,2.31-1.25,4.7-2.38,6.86-.48.92-.52,2.09-1.64,2.7-.31.17-.18,1.29-.44,1.9-.63,1.52-1.37,2.99-2.09,4.48-.99,2.06-2.06,4.09-3.02,6.16-.59,1.26-.94,2.64-1.54,3.92-.31.67-.65,1.33-1.01,2-.19.33-.38.66-.59,1l-.18.29-.19.34c-.68,1.3-1.48,3-2.13,4.72-.68,1.79-1.02,3.89-2.19,5.59-.54.79-1.08,1.59-1.69,2.41-.62.81-1.3,1.67-2.31,2.43-.5.38-1.14.72-1.81.95-.68.2-1.39.32-2.1.26-1.45-.12-2.57-.6-3.62-1.4-1.01-.79-1.69-1.78-2.18-2.71-.49-.94-.82-1.86-1.09-2.75-.54-1.78-.88-3.47-1.34-5-.25-.86-.34-1.67-.47-2.38-.11-.71-.34-1.29-.59-1.44-.08-.07-.05-.55-.28-1.15-.2-.56-.52-1.2-.32-1.52.08-.12.26-.25.45-.29.6-.09,1.32-.07,1.99.18.66.24,1.27.63,1.74,1.08.96.9,1.55,1.95,1.85,3.07.42,1.66.69,3.17,1.06,4.59.35,1.41.79,2.72,1.34,3.62Z"/>
    </g>
    <g>
      <path class="cls-1" d="M167.3,183.94c-3.9,3.25-7.02-23.78-1.04-19.1,2.96.83,10.66,7.53,10.79,8.7.24,2.16-7.92,10.87-9.75,10.4Z"/>
      <path class="cls-2" d="M169.6,179.65c.57-.54,1.18-1.07,1.66-1.71.18-.24.64-.24.33-.93-.16-.34.64-.02.8-.25.41-.62.96-1.13,1.3-1.75.08-.14.17-.33.2-.44,0-.05-.02-.12-.04-.18-.04-.11-.1-.2-.12-.26-.02-.05.04-.09.08-.14.05-.09,0-.2-.27-.13-.19.06-.13.02-.09-.08.03-.03-.06-.2-.12-.32-.07-.12-.16-.22-.29-.29-.54-.3-1.07-.63-1.32-1.26-.19-.45-.34-.95-.77-1.12-.27-.11-.72.05-.93-.16-.2-.19-.23-.66-.91-.16-.06.04-.06-.15-.05-.27.08-.59-.23-.78-.64-.63-.4.14-.53,0-.72-.11-.51-.3-1.01-.59-1.41-.91-.15-.13-.28-.3-.37-.45-.12-.16-.15-.3-.52-.48-.15-.08-.32-.14-.5-.19l-.3-.16-.15-.08-.08-.04s0,0,0,0c-.04.08.09-.13.17-.29l.21-.42c.12-.3.19-.46.22-.67.08-.32,0-.45.04-.37.02.06.21.38.59.67.09.09.27.19.32.24-.02,0-.04,0-.05,0,0,.05.07.12.43.33.07.04.05.06-.02.05-.56-.04-.56.27-.44.57.12.31.36.63.19.92-.35.61-.19,1.34-.18,2.05,0,.19-.23.4.36.57.21.06.23.26.09.36-.8.55-.28,1.12-.37,1.68-.11.65.32,1.25-.22,1.97-.23.3-.32.71.47.93.36.1.07.46.18.68.09.18.47.3.51.48.04.15-.23.37-.34.55-.03.06-.02.11.03.15,1.02.71.12,1.84.61,2.6.24.37.42.73.56,1.04l.16.4c.02.05.03.09.03.12-.01.02.03,0-.04.05-.17.15-.3.25-.44.39-.6.57-.8,1.08-.79,1.18,0,.04,0,0,0,0,0-.03-.01-.09-.03-.12-.02-.05-.05-.15-.09-.2-.02-.03-.04-.05-.07-.11-.03-.05.02.03.04.05l.08.11c.41.52,1.02.96.95,1.53-.05.39-.4.9-.99.94-.91.06-1.6-.31-2.05-.6-.91-.63-1.86-1.12-1.86-2.03.01-.27-.46-.41.09-.82.08-.06.09-.16.03-.19-1.3-.64-.92-1.85-1.2-2.77-.24-.79-1.18-1.45-.96-2.35-.87-.34-.8-.91-.62-1.41.66-1.73-.02-3.31.1-5.02.06-.86.1-1.72.19-2.63.1-.91.21-1.84.63-2.95.14-.36-.13-.93.52-1.32.3-.16.52-.45.84-.8.29-.33.76-.75,1.33-.98,1.07-.45,2.35-.41,2.94.05l.42.34.33.32c.15.13.1.14.12.18.02.04,0,.07.05.11.18.14.31.19.72.4.36.16.7.31,1,.47.32.16.62.32.89.53,1.08.8,2.06,1.63,3.19,2.26.69.38,1.57.54,2.07,1.19.21.27.77.19.51.98-.07.22.55,0,.73.14.22.17.43.34.63.54l.7.72c.4.49.9.95,1.2,1.48.38.52.52,1.06.76,1.63.02.06.07.12.08.18.1.66.32,1.34.13,2.07-.18.82-.65,1.62-1.19,2.34l-.13.16-.09.09c-.06.06-.12.12-.19.18l-.39.33c-.26.21-.53.42-.75.64-.46.47-.63,1.21-1.3,1.45-1.24.43-1.75,1.45-2.62,2.19-.87.73-1.73,1.44-2.63,2.3-.26.25-.64.33-1.03.4-.42.06-.79.1-1.33.28-.12.04-.28-.03-.5-.19-.2-.16-.34-.39-.48-.68-.12-.29-.13-.59-.09-.85.03-.24.13-.56.12-.52.01-.04.03-.13.03-.21-.02-.05-.01-.47-.04-.46-.03-.07-.02-.17-.03-.26-.03-.16-.02-.36-.03-.52,0-.34.05-.61.27-.73.67-.34,1.31-.99,1.96-1.58Z"/>
    </g>
    <g>
      <path class="cls-1" d="M213.61,218.78c-3.6-.7-9.4.88-10.54-3.59-.48-1.9,5.21-13.03,6.58-14.51,1.07-1.15,7.77,5.58,9.82,11.16,1.3,3.54,3.4,6.08-4.34,6.92-.47.05-.97.03-1.52.01Z"/>
      <path class="cls-2" d="M217.48,215.89c.24-.07.57-.21.57-.51,0-.08.36-.17-.4-.34-.37-.04.49-.07.41-.19-.04-.06-.07-.12-.1-.17l-.15-.4c-.13-.37-.3-.78-.5-1.2-.22-.46-.39-.66-.62-.96-.22-.28-.45-.56-.65-.85-.39-.58-.45-1.43-1.19-1.8-.63-.31-.42-1.13-.9-1.52-.51-.41-.99-.85-1.16-1.51-.13-.48-.22-1.01-.63-1.24-.26-.15-.73-.04-.92-.27-.08-.1.02-.13-.03-.16-.03-.01-.12.06-.33.41-.03.06.04-.07.08-.18.22-.51.07-.59-.03-.2-.1.38-.08.34-.09.35-.02.05,0,.08-.05,0-.01-.02-.05-.09-.1-.15-.07-.09-.17-.17-.23-.17-.05,0-.02.1-.01.15,0,.03,0,.04-.03.06-.07.07-.18.18-.32.23-.58.23-.78.66-1,1.09-.13.24-.6.36.02.93.06.05,0,.14-.08.15-1.3.22-.39,1.53-.96,2.11-.59.61-.76,1.45-1.04,2.2-.07.2-.38.32.09.72.16.14.11.35-.06.39-.96.24-.71.98-.98,1.42-.14.28-.12.28-.12.34,0,.06-.03.1-.19.2l-.16.11c-.25.14-.25.43.42.08.3-.19.05.06.15.05.08-.02.29-.29.32-.3.03,0-.07.29-.07.46,0,.05.04.06.08.03.38-.32.58-.17.95.03.33.21.76.48,1.25.39.97-.18,2.05-.1,3.27.08.65.09,1.46.43,1.67,1.96.09.68-.08,1.37-.38,1.75-.23.28-.44.53-.64.59-.32.09-.64.24-.96.35-.65.22-1.34.9-2.07.51-.23-.12-.52.26-.69-.4-.02-.09-.12-.15-.17-.1-1.08.97-2.23.22-3.48-.08-.28-.08-.58-.12-.88-.16-.31-.04-.64-.12-.99-.22-.67-.22-1.41-.65-1.74-1.37-1.2-.14-1.63-1.34-1.64-2.23l-.03-.35.02-.28c.06-.1.03-.19.06-.29l.06-.55c.07-.36.16-.72.22-1.07.05-.34.2-.73.26-.94l.2-.69c.26-.87.47-1.71.85-2.46.79-1.58,1.42-3.19,2.24-4.71.14-.26-.15-.69.32-.84.45-.13.41-.62.59-.96.16-.31.19-.71.52-.9.2-.11.49-.44.7-.65.23-.24.43-.48.62-.73.36-.52.74-.96,1.08-1.5.28-.27.56-.58.85-.81l.46-.28c.17-.07.38-.13.58-.13,1.88-.03,3.54,1.44,5.26,2.78.76.56,1.65.86,2.1,1.65.19.33.78.35.42,1.12-.1.21.57.12.73.29.42.43.73.94,1.08,1.42.48.68.88,1.41,1.37,2.11.3.42.82.73,1.14,1.18.32.48.57,1.01.71,1.59.11.41.1.64.12.94.02.3.05.59.14.91.05.17.12.33.2.48l.34.8c.13.27.18.56.24.84.06.28.07.56,0,.82-.23.95-.4,1.81-.81,2.63-.43.8-1.08,1.44-1.87,1.92-.42.19-.86.37-1.28.54l-1.25.35c-.38.1-.64.14-.97.22l-.91.23c-.34.09-.68,0-1.03-.11-.38-.14-.75-.29-1.11-.29-.37,0-.73-1.88-.57-2.53.03-.12.07-.25.12-.3.28-.3.53-.69.75-.98.11-.15.22-.28.34-.36.13-.1.28-.17.44-.18.94,0,1.96-.31,2.18-.39Z"/>
    </g>
  </g>
  <g>
    <path class="cls-1" d="M325.68,303.78c5.08,1.04,9.69,3.06,14.63,4.62,8.24,2.6,15.93,5.15,11.93,6.93-1.3.58-12.75,2.74-13.45,2.82l-14.76,1.63c-6.69.73-13.39,1.47-20.08,2.21l-22.55,2.48c-7.33.81-14.66,1.62-22,2.42l-34.53,3.81c-.3.03-.61.05-.9.05-1.64.02-3.17-.39-4.54-.76-.48-.13-.95-.25-1.42-.36-11.56-2.56-21.48-4.51-38.23-6.82-1.2-.16-8.74-2.28-12.07-2.75-3.6-.51-2.28-1.7-2.28-1.7l66.19-6.88c7.59-.61,15.17-1.22,22.76-1.83l2.82-.23c6.28-.51,11.37-1.68,17.66-2.19l20.79-2.69c4.46-.36,19.86-2.33,24.25-2.69l5.77,1.92Z"/>
    <path class="cls-2" d="M291.6,307.52l-9.25,1.18-4.62.6-2.31.31-2.32.25c-2.23.26-4.58.26-6.86,1.3-1.14.51-3.49.04-5.65.33-2.98.39-5.86.55-8.74.79-2.89.22-5.78.45-8.66.72-5.6.55-11.18,1.2-16.77,1.92-5.55.66-11.31.87-16.62,1.84-4.6.84-8.84.63-13.26,1.25-4.68.65-9.54,1.26-14.17,1.43-3.38.13-6.73.19-10.05.68-2.07.3-3.98.91-6.25,1.12-.1,0-.21.02-.32.03l1.66-.74.06-.06.03-.03c-.73-.73,1.64,1.62-1.63-1.64h0s0,.02,0,.02l.08.08.09.08s.02.01-.02-.01c-.04-.03-.13-.07-.19-.09-.15-.05-.17,0-.07-.05.22-.06.76-.64,1.17-1.55.02-.05.05-.11.09-.18l.05-.1s0,0,0,0h.01s0,.02.03.03l.17.06c.16.04.31.08.52.11.24.03.49.05.73.08.29.02.56.04.83.05.54.02,1.04,0,1.54-.1.18-.03,1.11.32,1.56.54,2.16,1.04,4.9,1.72,6.79,1.8.45.02.89.05,1.07.03.45.02.89.05,1.32.09.86.09,1.7.21,2.57.33,4.74.64,9.5,1.34,14.21,2.25,3.54.67,6.99,1.63,10.5,2.42,1.83.41,3.73.74,5.6,1.1.93.19,1.85.38,2.74.59.44.11.88.22,1.31.35.45.14.91.29,1.34.45,1.66.65,2.96,1.06,4.21,1.04h.46s.61-.07.61-.07l1.25-.13c.83-.09,1.67-.18,2.5-.27,1.91-.21,4.18-.09,5.65-1.07.14-.09.85-.16,1.19-.13,5.56.46,10.76-1.52,16.3-1.87,5.71-.36,11.52-1.19,17.28-1.86,1.54-.18,3.2-.12,4.56-.86.48-.26,2.09-.46,2.88-.4,4.34.33,8.78-.65,13.16-1,5-.39,9.95-1.31,15.04-1.25,2.15.03,5.07-.15,7.54-1.18,1.13-.47,3.61-.4,5.43-.68,1.5-.23,2.91-.74,4.39-.91,1.26-.15,2.56.01,3.86.01.39,0,.85-.05,1.23-.13,3.6-.83,7.23-1.15,10.89-1.41h.19s.3-.05.3-.05l.66-.09,1.34-.19,2.7-.41,1.25-.21.4-.06c.17-.03.34-.07.45-.13.12-.06.22-.1.31-.16.04-.03.09-.07.1-.13.01-.07-.06-.13-.12-.17-.26-.16-.49-.23-.72-.32l-.17-.07-.87-.31-2.61-.89c-1.72-.57-3.59-1.18-5.36-1.84-3.93-1.47-7.58-3.01-9.89-5.01-1.05-.9-.95-1.62.88-1.63,1.34,0,2.87.14,4.31.53,2.31.62,4.58,1.27,6.75,1.89,2.23.65,4.56,1.09,6.91,1.71l.88.24.44.12.56.17c.97.32,1.95.65,2.89,1.03,1.9.74,3.59,1.68,4.4,2.67.53.62,1.08,1.2,1.3,2.01.13.4.07.98-.15,1.35-.22.37-.54.6-.93.77-.22.09-.73.4-.93.57-.47.48-1.28.99-2.37,1.4-1.14.39-2.48.73-3.8,1.05-1.01.23-2.03.46-3.05.69-.82.17-1.65.33-2.48.48-.85.15-1.62.28-2.58.42-.37.05-.48.05-.72.07l-.63.05-1.25.11c-1.67.15-3.34.3-4.99.5-5.63.69-11,2.09-16.73,2.37-3.03,1.15-6.73,1.41-9.92,1.52-11.24.37-22.37,2.18-33.54,3.29-11.33,1.13-22.65,2.5-33.98,3.69-1.93.2-3.54.85-5.84.74-1.08-.05-2.3.07-3.55.23-.63.09-1.27.18-1.9.26-.32.04-.64.09-.95.13-.33.04-.8.07-1.19.09-1.48.04-2.92-.18-4.16-.46-1.3-.3-2.12-.55-3.19-.89-8.48-2.76-17.36-3.96-26.14-5.42l-6.57-1.05-3.29-.49-.82-.12-.41-.06-.56-.1c-.63-.13-1.16-.27-1.72-.41-2.18-.54-4.32-1.09-6.46-1.56-1.06-.23-2.13-.45-3.12-.59l-.88-.13c-.34-.06-.67-.12-1.06-.23-.2-.06-.38-.1-.61-.2l-.33-.13-.4-.21c-.12-.06-.29-.18-.45-.31-.08-.06-.15-.12-.23-.2-.1-.1-.19-.2-.27-.3-.34-.38-.72-1.2-.67-1.99.02-.52.17-.93.34-1.27.09-.17.18-.31.28-.45.12-.15.16-.22.4-.45l.53-.5.85-.11c5.19-.68,10.34-1.63,15.62-2.01,2.32-.17,4.72-.86,7.09-.34.67.15,2.78-.66,4.27-.84,3.7-.45,7.42-.79,11.13-1.18,5.15-.54,10.32-1.02,15.46-1.63,3.13-.37,6.21-1.01,9.35-1.41,3.27-.46,6.61-.68,9.91-.88,4.19-.24,8.37-.31,12.56-.57,2.17-.14,4.38-.38,6.55-.59,2.1-.21,4.19-.47,6.24-.59,1.91-.11,3.84-.3,5.79-.5,1.93-.21,3.98-.4,5.83-.57,3.83-.49,7.64-1.05,11.47-1.5l5.71-.69,2.85-.35,2.86-.28c3.78-.4,7.59-.89,11.37-1.41,2.15-.3,4.23-.4,6.31-.48,1.04-.04,2.08-.08,3.13-.12.67,0,1.45-.22,2.21.19.53.18,1.06.37,1.59.56,1.88.62,3.81,3.26,2.84,3.62-.19.07-.54.09-.86.03-1.03-.19-2.05-.35-3.07-.51l-.76-.12-.38-.06-.19-.03h-.1c-.24-.05-.54.11-.87.21-2,.5-4.1.96-6.47,1.2-3.49.36-6.99.77-10.5,1.18l-5.3.59c-1.71.15-3.48.44-5.22.65Z"/>
  </g>
  <g>
    <path class="cls-1" d="M315.66,349.11c-1.11,0-2.07-.34-2.93-.65-.22-.08-.44-.16-.67-.23-1.55-.51-3.1-.99-4.66-1.47-2.59-.78-5.36-1.56-8.74-2.44-1.46-.38-2.92-.74-4.38-1.1-.87-.22-1.69-.43-2.41-1.15-.15-.15-.27-.33-.36-.53-.01-.02-.03-.05-.05-.07-.16-.16-.29-.36-.37-.59-.05-.12-.1-.27-.14-.4l-.03-.09c-.06-.14-.1-.29-.13-.45h0c-.03-.2-.05-.42-.06-.64,0-.04,0-.08,0-.13,0-.08,0-.21.01-.29.02-.13.07-.38.12-.61l.02-.09c.01-.16.05-.32.1-.47.07-.19.16-.37.26-.56.09-.24.23-.45.41-.63h0c.11-.13.23-.26.35-.38.07-.07.18-.16.26-.21.03-.02.2-.13.24-.15.31-.18,1.04-.47,1.38-.54.62-.12,1.23-.2,1.85-.29.35-.05.7-.09,1.05-.15l47.91-7.08c2.3-.34,4.61.26,6.65.78.44.11.88.23,1.31.33,5.05,1.2,10.42,2.64,17.42,4.69.25.08.43.15.61.23l.1.04c.13.05.28.12.58.29.04.02.09.05.13.07.12.08.24.17.36.26.04.03.08.06.11.1h0s.1.09.14.14c.05.05.09.1.13.14.76.83.86,1.65.91,2.15.11.73-.07,1.74-.43,2.42-.24.48-.7,1.24-1.67,1.68-.12.06-.25.1-.38.12-.11.03-.32.1-.41.13-.08.03-.2.07-.28.09-.16.03-.32.05-.48.07l-20.44,2.91c-10.71,1.53-21.42,3.05-32.13,4.57l-.24.04c-.19.03-.38.06-.57.08-.15.01-.3.02-.45.02ZM292.63,341.97h0,0ZM292.62,341.97h0,0ZM292.62,341.97h0,0ZM292.62,341.97s0,0,0,0c0,0,0,0,0,0ZM292.39,341.96c.07.01.15.02.23.02-.08,0-.15,0-.23-.02ZM370.72,335.99l-.04.05.02-.02.14-.18-.13.14ZM372,334.6s.05.05.07.07c-.02-.02-.05-.05-.07-.07Z"/>
    <path class="cls-2" d="M373.69,332.85s-.02.05.04,0c.02-.02-.21.23.27-.27.24-.25-.33.34-.3.32.07-.06-.01.03.05-.02.06-.05.27-.24.33-.3.06-.05-.2.22.1-.06.26-.25-.19.21-.08.11.12-.11.2-.17-.01.04-.15.16-.35.36-.25.26.06-.06.32-.3.34-.32-.02.02-.26.26.32-.29.05-.05-.05.06-.13.13-.38.37-.35.34-.09.1.25-.24.22-.21.24-.22.02-.01.04-.02.04-.02h0s0,0,0,0l-4.89,4.74h0s.01-.02.03-.03c.04-.04.26-.26.31-.31.06-.06-.2.2.07-.07.28-.28.26-.26.26-.26,0,0,.26-.26-.32.31-.05.05-.05.05,0,0,.75-.75-.24.23-.05.05.19-.19.05-.06.03-.04,0,0,.16-.16-.25.25-.15.15-.16.16-.06.06.57-.57.22-.22.32-.32.11-.11-.16.15.28-.29.19-.19.29-.29-.24.24-.24.25,0,0-.06.05-.05.05-.29.29-.3.3,0,0,.21-.21.31-.31.03-.03.03-.03,0,0-.6.61.2-.21.04-.04-.16.16-.1.09-.02,0,.05-.05.21-.22,1.24-1.27.46-.47.96-.98,1.25-1.28.22-.22.42-.43.47-.48.09-.09.21-.21.3-.3.18-.18.66-.66.4-.4-.08.08.19-.19-.26.27-.06.06-.1.1-.06.07.72-.72.25-.24.31-.29.05-.04.62-.62.38-.36.57-.57.47-.47.3-.3-.6.62-.19.21-.26.3-.08.09.01.01-.02.05,0,0,.32-.32.07-.06-.24.24-.05.05-.05.05,0,0,.13-.12-.02.03-.3.3-.36.36-.35.36,0,0,.03-.02.04-.04,0,0,.02-.01.02-.01h0s-2.87,2.8-2.87,2.8h0s-.01,0,0,0h0s0,0,0,0h0s0,0,0,0c0,0,0,0,0,0h0s0,0,0,0h0s0,0,0,0c0,0,0,0,0,0,0,0,0,0,0,0h0s1.15-1.24,1.54-1.66c.08-.09.17-.19.21-.22.41-.43,1.05-1.11,1.01-1.06-.06.07,0,.03,0,.04Z"/>
    <path class="cls-2" d="M368.95,334.34s.05.02,0-.04c-.02-.02.23.2-.28-.26-.26-.23.36.31.33.29-.06-.07.03,0-.02-.05-.06-.06-.26-.25-.32-.31-.05-.06.23.19-.07-.09-.26-.24.22.18.11.07-.06-.06-.11-.1-.11-.11,0,0,0,0,.03.02,1.3,1.1,2.81,2.37,4.54,3.83l-.03-.02s-.05-.03-.08-.06c-.18-.13-.4-.31-.29-.22.07.06.34.28.36.3-.02-.02-.3-.23.33.27.05.04-.06-.05-.15-.12-.41-.32-.39-.3-.11-.07.27.22.24.19.25.21.03.03.05.06-.01.01-.05-.04-.29-.22-.35-.26-.07-.05.22.19-.09-.05-.31-.24-.3-.22-.3-.22,0,0-.29-.23.34.28.06.05.05.04,0,0-.84-.66.25.22.04.06-.22-.16-.07-.04-.05-.01,0,0-.18-.14.28.23.16.13.18.15.06.05-.63-.5-.25-.19-.36-.27-.13-.09.16.15-.33-.24-.1-.08-.19-.14-.17-.13,0,0,.04.04.11.09.03.03.08.06.13.1.03.02.06.04.09.07l.02.02c-.17.17-.34.35-.51.53l.04.06c.2.28,0,0,.04.07.04.05.24.34.25.35,0,0-.18-.24-.26-.35-.03-.03-.03-.04,0,0,.16.23.2.28.18.26l-4.5-4.5c.06.03.43.3.31.2-.18-.15-.1-.1,0-.03.06.03.25.17,1.44,1.03.53.39,1.11.81,1.45,1.06.25.18.48.36.54.4.1.07.24.18.33.25.2.15.75.56.45.35-.09-.06.22.17-.31-.22-.07-.05-.11-.08-.08-.05.41.3.48.36.45.34-.01,0-.05-.03-.08-.05h-.02s0-.02,0-.02l-3.25-3.25h0s0,0,0,0c0,0,0,0,0,0-.03-.06-.5-.71-.29-.44-.06-.08-.11-.15-.15-.21-.02-.03-.04-.06-.06-.08l-.02-.03c-.22.2-.43.4-.64.59h-.01c-.07-.07-.11-.11-.13-.12-.03-.02.05.03.15.11.68.52.24.15.34.21.1.06.02-.02.07,0,0,0-.35-.29-.07-.07.26.21.06.04.06.04,0,0-.13-.11.03.01.67.52.28.19.36.24.08.05.15.09,0-.05-.1-.08-.44-.37-.3-.27.03.02-.04-.04-.04-.04l4.4,3.71h0s-.01,0-.01,0c0,0-.03-.02-.05-.04-.05-.04-.14-.12-.28-.25-.16-.14.27.25.29.27.05.05,0,.03,0,.03,0,0-.05-.03,0,.03.04.03.26.25.32.3.06.06.05.06,0,.01-.07-.06-.28-.23-.34-.28-.06-.05.19.19-.07-.04-.5-.43-.25-.2-.32-.24-.06-.04-.11-.07,0,.04.06.06-.42-.35-.42-.35,0,0-1.41-1.26-1.89-1.69-.09-.08-.19-.17-.22-.2-.44-.4-1.03-.94-1.08-.99.08.06.03,0,.04,0Z"/>
    <path class="cls-2" d="M294.09,341.83c0-.08-.02-.17-.04-.26,0,0,.01.04-.03-.11-.02-.05-.03-.08-.03-.09-.04-.09-.08-.18-.14-.27-.06-.09-.12-.17-.19-.24-.07-.07-.15-.14-.23-.18-.07-.04-.12-.07-.18-.1-.06-.03-.13-.05-.18-.07-.07-.02-.07-.02-.12-.02-.01,0-.07,0-.07,0,0,0,.02,0-.06,0,0,0,0,0-.01,0-.05,0-.03,0-.06,0-.04,0-.04,0-.04,0-.02,0-.04,0-.05,0h-.01s0,0,0,0h0s-.03,4.88-.03,4.88h0s.04-.02.06-.04c.06-.06.11-.37.16-.45.05-.08.16.27.17-.12,0-.4.04-.38.1-.4.03,0-.03-.38.2.41.02.07.03.06.02,0-.2-1.05.3.25.36-.06.01-.3.2-.18.35-.24.04-.02-.06-.23.29.24.12.17.18.16.11.02-.37-.73,0-.4,0-.59-.02-.19.35-.04-.05-.55-.17-.21-.26-.33.37.08.29.18.05-.08.14-.06.07,0,.38.17.41.13.03-.03-.22-.21-.33-.31-.03-.03-.03-.04.01-.03.84.24-.12-.44.12-.45.26-.06.2-.24.1-.39-.05-.08-.28-.2-1.73-.44-.65-.1-1.35-.21-1.77-.28-.3-.05-.59-.11-.66-.14-.11-.04-.28-.09-.39-.14-.08-.07.03-.1.04-.16,0-.01-.02.02.03-.05,0-.01,0,0,0-.01.05-.07.11-.15.17-.22.06-.06.11-.12.18-.18.13-.1.09-.07.12-.1.14-.11.31-.2.47-.26.17-.06.33-.09.48-.1,0,0,0,0,.07,0,.12,0,.09,0,.09,0,0,0-.02,0,.08,0,.12.02.13.02.14.02,0,0,.04,0,.06.01.01,0,.02,0,.03,0h0s-.02,3.82-.02,3.82h0s-.01,0-.01,0c0,0-.02,0-.02-.01-.13-.09-.24-.18-.44,0-.12.11-.36.51-.45.3-.03-.08-.26.3-.03-.43.07-.2-.21.31-.26.32-.13.02-.21-.08-.31-.14-.14-.08-.25-.23-.44-.28-.11-.03-.42.11-.57.07-.15-.04-.24-.16-.26-.31-.02-.19.13-.46.13-.62,0-.15-.38-.16-.1-.4.55-.4.19-.45.24-.63.05-.16.1-.28-.07-.4-.09-.08.55-.07.55-.11,0,0,.47.04,1.01.12.55.08,1.17.17,1.49.22.12.02.25.03.3.04.15.01.32.03.49.05.07,0,.2.02.22.01,0,0,0-.01,0-.01,0-.04,0-.07,0-.07,0-.07,0-.15,0-.24Z"/>
    <path class="cls-2" d="M292.62,339.55s0,.05,0-.03c0-.02,0,.15,0-.38,0,.25,0,.41,0,.44,0-.09,0,.03,0-.05,0-.08,0-.36,0-.44,0-.04,0,.07,0-.11,0,.14,0,.07,0,.13,0,.02,0,0,0,.04q0,.22,0,.36c0-.09,0-.44,0-.47,0-.02,0,.12,0-.43v.19c0,.1,0,.06,0,.13,0-.35,0-.3,0-.32v6.72c0-.06,0-.36,0-.44,0-.04,0,.07,0-.1,0-.39,0-.37,0-.37,0,0,0-.15,0,.44h0c0,.08,0,.05,0,.07,0-.06,0-.04,0-.05,0,0,0-.13,0,.36,0,.06,0,.04,0,.08,0-.68,0-.34,0-.45,0-.15,0,.18,0-.41,0,.12,0,0,0,.34,0,.12,0,.05,0,.08,0,.07,0,.41,0,.42,0,0,0-.29,0-.44h0c0,.85,0-.29,0-.06,0,.23,0,.14,0,.02,0-.07,0-.31,0-1.77,0-.66,0-1.37,0-1.79,0-.31,0-.6,0-.68,0-.12,0-.3,0-.42,0-.19,0-.3,0-.57,0,.1,0-.19,0,.38v.09c0-1.02,0-.35,0-.42,0-.05,0-.25,0-.52,0-.43,0-.29,0-.42,0,.86,0,.28,0,.4,0,.12,0,0,0,.05,0,0,0,0,0-.1,0,.1,0,.07,0,.07,0,0,0-.01,0,.03,0,7.74,0,4.35,0,5.18,0-.09,0-.17,0,.04,0,.13,0,.23,0,.4,0-.06,0,.19,0-.4,0,.17,0,.37,0,.39,0,.07,0,.02,0,.02,0,0,0-.06,0,.02,0,.05,0,.36,0,.44h0c0-.09,0-.37,0-.44,0-.03,0,.05,0-.08,0-.66,0-.32,0-.4,0-.08,0-.13,0,.03,0-.09,0-.54,0-.55,0,0,0-1.89,0-2.54v-.3c0-.6,0-1.4,0-1.47,0,.09,0,.02,0,.02Z"/>
    <path class="cls-2" d="M292.62,339.55s0,.05,0-.03c0-.02,0,.15,0-.38,0,.25,0,.41,0,.44,0-.09,0,.03,0-.05,0-.08,0-.36,0-.44,0-.04,0,.07,0-.11,0,.14,0,.07,0,.13,0,.02,0,0,0,.04q0,.22,0,.36c0-.09,0-.44,0-.47,0-.02,0,.12,0-.43v.19c0,.1,0,.06,0,.13,0-.35,0-.3,0-.32v6.72c0-.06,0-.36,0-.44,0-.04,0,.07,0-.1,0-.39,0-.37,0-.37,0,0,0-.15,0,.44h0c0,.08,0,.05,0,.07,0-.06,0-.04,0-.05,0,0,0-.13,0,.36,0,.06,0,.04,0,.08,0-.68,0-.34,0-.45,0-.15,0,.18,0-.41,0,.12,0,0,0,.34,0,.12,0,.05,0,.08,0,.07,0,.41,0,.42,0,0,0-.29,0-.44h0c0,.85,0-.29,0-.06,0,.23,0,.14,0,.02,0-.07,0-.31,0-1.77v-1.79c0-.31,0-.6,0-.68,0-.12,0-.3,0-.42,0-.19,0-.3,0-.57,0,.1,0-.19,0,.38v.09c0-.61,0-.38,0-.42,0-.05,0-.25,0-.52,0-.43,0-.29,0-.42,0,.86,0,.28,0,.4,0,.12,0,0,0,.05,0,0,0,0,0-.1,0,.1,0,.07,0,.07,0,0,0-.01,0,.03,0,7.74,0,4.35,0,5.18,0-.09,0-.17,0,.04,0,.13,0,.23,0,.4,0-.06,0,.19,0-.4,0,.17,0,.37,0,.39,0,.07,0,.02,0,.02,0,0,0-.06,0,.02,0,.05,0,.36,0,.44h0c0-.09,0-.37,0-.44,0-.03,0,.05,0-.08,0-.66,0-.32,0-.4,0-.08,0-.13,0,.03,0-.09,0-.54,0-.55,0,0,0-1.89,0-2.54v-.3c0-.6,0-1.4,0-1.47,0,.09,0,.02,0,.02Z"/>
    <path class="cls-2" d="M292.63,339.55s0,.05,0-.03c0-.02,0,.15,0-.38,0,.25,0,.41,0,.44,0-.09,0,.03,0-.05,0-.08,0-.36,0-.44,0-.08,0,.3,0-.11,0,.14,0,.07,0,.13,0,.02,0,0,0,.04q0,.22,0,.36c0-.09,0-.44,0-.47,0-.02,0,.12,0-.43,0,.06,0,.09,0,.19,0,.1,0,.06,0,.13,0-.35,0-.3,0-.32v6.72c0-.06,0-.36,0-.44,0-.04,0,.07,0-.1,0-.39,0-.37,0-.37,0,0,0-.15,0,.44h0c0-1.06,0,.33,0,.07,0-.27,0-.08,0-.05,0,0,0-.13,0,.36,0,.06,0,.04,0,.08,0-.68,0-.34,0-.45,0-.15,0,.18,0-.41,0,.12,0,0,0,.34,0,.12,0,.05,0,.08,0,.07,0,.41,0,.42,0,0,0-.29,0-.44h0c0,.85,0-.29,0-.06,0,.23,0,.14,0,.02,0-.07,0-.31,0-1.77v-1.79c0-.31,0-.6,0-.68,0-.12,0-.3,0-.42,0-.19,0-.3,0-.57,0,.1,0-.19,0,.38v.09c0-1.02,0-.35,0-.42,0-.06,0-.87,0-.52,0-.43,0-.29,0-.42,0,.86,0,.28,0,.4,0,.12,0,0,0,.05,0,0,0,0,0-.1,0,.1,0,.07,0,.07,0,0,0-.01,0,.03,0,7.74,0,4.35,0,5.18,0-.09,0-.17,0,.04,0,.13,0,.57,0,.4,0-.06,0,.19,0-.4,0,.17,0,.37,0,.39,0,.07,0,.02,0,.02,0,0,0-.06,0,.02,0,.05,0,.36,0,.44h0c0-.09,0-.37,0-.44,0-.03,0,.05,0-.08,0-.66,0-.32,0-.4,0-.08,0-.13,0,.03,0-.09,0-.54,0-.55,0,0,0-1.89,0-2.54v-.3c0-.6,0-1.4,0-1.47,0,.09,0,.02,0,.02Z"/>
    <path class="cls-2" d="M331.23,344.49c2.84-.4,5.7-.76,8.52-1.24,1.05-.18,2.18,0,3.18-.84.5-.42,1.64.25,2.61.07,2.63-.47,5.32-.72,7.96-1.18,2.57-.44,5.11-1.09,7.68-1.54,2.55-.44,5.24-.44,7.65-1.2.52-.14.42-.15.47-.18l.41-.14c-.07.02,0,0,0,.01h.07c.05,0,.12,0,.19-.03.04-.03.04.02.14-.13.06-.09.06-.06.1-.14.06-.12.1-.33.08-.46,0-.05-.02-.08-.03-.09,0,0-.02,0,.01-.01l.3-.07h.02s0,0,0,0h0c-.16.02.36-.05-.36.05h0s0-.02,0-.02v-.04s-.02-.07-.02-.07l-.02-.07c-.04-.15-.05-.12-.09-.17-.03-.03-.06-.06-.08-.09-.01-.01-.02-.02-.08-.08h0s0,0,0,0h0s0,0,0,0c.35-.3-.78.68.78-.68l-.07.06-.14.11-.55.45c-.06.05-.05.04-.05.04h0s0-.01,0-.01l-.02-.02h0s0,0,0,0c-.8.75,1.08-1.02.89-.84h0s0,0,0,0h0s.01-.02.01-.02l.03-.04.05-.09-1.95-1.22h0s1.92,1.14,1.92,1.14h0s0,0,0,0h0s0,0,0,0h0s-.98,1.06-.98,1.06h0s0,0,0,0h.02s.03.03.02.03h-.02s-.04-.05-.04-.05c0,0-.06-.03-.08-.04l-.04-.03-.02-.02h0s.22-.6.22-.6l.13-.35.06-.17.03-.09v-.02c-.92,2.39-.25.66-.46,1.2h0s0,0,0,0l-.05-.02-.09-.04-.09-.04-.17-.09c-.08-.06-.32-.13-.49-.2l-.54-.22c-1.42-.61-2.82-1.28-4.34-1.54-.95-.16-1.92,0-2.92-.3-.92-.28-1.9-.9-2.92-.34-.09.05-.47-.21-.65-.37-.88-.78-2.12-1.08-3.05-.96-.91.12-1.62-.12-2.39-.31-2.34-.54-4.2-1.06-5.75-1.16-.6-.04-.97-.08-1.93-.03-.83.03-1.65.05-2.47.14-1.71.17-3.47.8-5.09.65-1.63-.15-3.13.09-4.67.32-.88.13-1.95-.09-2.55.83-.06.09-.39.12-.55.08-2.66-.68-4.91,1.06-7.48,1.17-2.65.12-5.3.7-7.95,1.12-.7.11-1.49-.01-2.06.67-.2.24-.94.37-1.32.28-2.08-.51-4.07.28-6.09.44-2.31.18-4.55.89-6.95.62-.53-.06-1.17-.07-1.69.04-.28.06-.55.14-.82.27-.35.14-.12.23-.32.5-.04.09-.11.16-.18.22-.08.06-.05.05-.09.06-.05,0-.12.01-.17.04h0s-.02.02-.03.03h0s0,.01,0,.01h0s0,.01,0,.01h0s-.94-.69-.94-.69h0s0,0,0,0h0s.01.01.01.01h.02s.95.45.95.45v.27c.01.09.03.17.04.25h0s0,.02,0,.02h0s0,0,0,0l-1.27-.47h0s0,0,0,0h0s.02,0,.02,0h.03s.03,0,.03,0l1.26-1.4.07,1.99c0,.25.05.26.04.29,0,0-.02,0-.05.02-.02,0-.04-.02-.06.05-.02.02-.05.05-.08.07-.05.03-.11.06-.15.1,0,.04,0,.13,0,.19,0,.07.03.17.03.19,0,.02.02.03.05.03.14,0,.21,0,.28-.01.08,0,.06-.04.18,0,.18.07,1.21.37,1.98.65,1.61.56,3.21,1.18,4.89,1.55,3.39.73,6.77,1.69,10.04,2.89.45.16.9.33,1.34.53.4.18.95.46,1.29.71.69.51,1.04,1.04,1.51,1.82.42.67.58,1.41-.38,1.76-.69.24-1.56.3-2.26.14-1.05-.25-2.1-.38-3.15-.59-2.14-.44-4.41-.37-6.47-1.31-.64-.3-1.53-.14-1.92-.93-.05-.11-.32-.23-.46-.23-1.57.08-3.06-.24-4.55-.63-.74-.2-1.48-.43-2.22-.66-.36-.11-.78-.22-1.28-.4-.5-.18-1.08-.43-1.62-.8-.58-.4-1.13-.87-1.5-1.48-.24-.27-.45-.56-.63-.87l-.37-.76c-.08-.3-.21-.58-.3-.88-.05-.15-.06-.28-.09-.43l-.08-.44c-.05-.35-.06-.72-.03-1.07l.11-.88-.06.42c.02-.23.06-.47.1-.71l.08-.35c.03-.13.06-.23.08-.28.1-.27.21-.54.33-.81l-.13.29c.11-.31.26-.61.45-.89.18-.27.28-.39.46-.58h0,0s0,0,0,0l.41-.33.21-.16.1-.08h.01s0-.01,0-.01h0s-.06-.07-.06-.07h0s0,0,0,0h0s.03-.02.03-.02l.05-.04c.28-.22.57-.41.89-.57.22-.25.55-.49.74-.65.22-.17.41-.31.71-.46.33-.17.77-.3.96-.35.21-.06.43-.11.64-.15.42-.08.9-.14,1.28-.16.37-.02.72,0,1.1,0,5.25.09,10.31-1.24,15.46-1.88,5.22-.65,10.41-1.54,15.62-2.26.89-.12,1.58-.69,2.67-.49,1.02.19,2.25-.26,3.38-.43,1.04-.15,2.11-.49,3.12-.43,2.09.12,4.15-.1,6.2-.41l1.57-.25c.65-.09,1.29-.14,1.91-.13,1.25.01,2.43.2,3.52.46,1.09.27,2.08.56,3.02.81l2.99.84c2,.55,4.01,1.05,6.04,1.49,2.47.53,5.03.76,7.44,1.59.45.15.94.22,1.42.33.28.08.64.22.87.34l.2.12.25.17c.17.12.3.23.46.38.18.17.32.37.45.58.08.13.21.21.5.45l.52.43.2,1.28h0s-.81-1.8-.81-1.8c.46.39.64.44,1.08.86.38.36.72.81.9,1.24.15.36.26.74.34,1.12.04.19.07.35.09.5l.05.43c.07.82,0,1.48-.16,2.16-.08.34-.18.67-.31,1.02-.06.17-.16.37-.23.52l-.22.42c-.39.68-.89,1.3-1.5,1.8-.37.31-.79.57-1.22.79-.22.11-.46.16-.69.24-.07.03-.07.01-.25.1-.06.02-.03.01-.06.02l-.07.02c-.4.13-.82.26-1.2.29l-.75.1-1.38.19c-.92.13-1.83.27-2.74.43-1.43.25-2.82.77-4.24,1.05-1.49.29-3.01.51-4.53.65-1.92.18-3.86.18-5.78.37-1.99.2-4.01.84-5.95.77-3.62-.15-7.1.68-10.63,1.11-3.51.42-7.03.87-10.5,1.52-1.97.37-3.87-.01-5.81.27-.22.03-.5-.05-.74-.2-.25-.15-.6-.36-.82-.61-.49-.53-.65-1.16-.49-1.49.06-.13.18-.26.3-.31.36-.2.83-.45,1.27-.68.44-.23.88-.47,1.33-.68.9-.43,1.85-.79,2.95-.91,3.23-.37,6.45-.89,9.67-1.35Z"/>
  </g>
  <path class="cls-2" d="M164.95,112.09c-.11.22-.29.39-.41.63-.05.1-.34-.09.03.51.17.31-.44-.25-.49-.18-.18.24-.55.28-.84.44-.15.08-.29.2-.45.31-.08.05-.17.1-.24.14-.05.04-.11.07-.17.09-.25.06-.4-.34-.72,0-.32.28-.3-.4-.53-.34-.27.05-.58-.03-.56-.41.01-.27.1-.58-.11-.6-.13-.01-.52.15-.58.02-.05-.13.19-.39-.57-.11-.06.02.03-.1.12-.18.41-.36.33-.45-.04-.43-.37.02-.36-.1-.4-.2-.12-.27-.19-.5-.12-.88.06-.25.38-.44.49-.6.11-.17-.19-.47.24-.5.42-.01.45-.12.51-.25.04-.08.39.06-.26-.44-.06-.05-.03-.07.03-.05.51.19.49.08.44-.14-.07-.21-.16-.52.04-.52.4,0,.54-.32.88-.51.09-.05.26.14.17-.45-.03-.21.09-.27.18-.14.26.35.4.4.55.38.13-.02.34-.12.41-.05.18.16.46-.19.54.47.03.28.06.43.39-.25.16-.31.16.06.26.01.09-.04.3-.32.38-.3.07.02-.01.32-.03.48,0,.05.01.06.05.03.37-.28.53-.08.59.16.06.25.03.54.24.62.45.17.6.67.59,1.08,0,.23-.2.53-1.65.75-.33.05-.67.08-.98.11-.15.01-.29.03-.42.04h0s.01,0,.01,0h.02s0,0,0,0h0s0,0,0,0c0,0-.01.01-.02.03,0,.01-.01.02-.02.04,0,.02,0,.01,0,.02,0,0,0,.01,0,.01h0s0-.16,0-.16c0,0,0,0,0,.01,0,.03.04.06.06.07,0,0,0,0,0,0h0s0,0,0,0c0,0-.02,0-.04,0h-.03s-.01,0-.01,0h0s0,0,0,0h0,.09s0,0,0,0h-.01s-.05.01-.05.01c0,0,0,0,.01-.01.02-.02.01-.01.02-.02h0s0-.02.01-.03c0-.01,0-.02,0-.03v-.02s0,0,0,0h0s0,.17,0,.17h0s0,0,0,0h0s0-.01,0-.01h0s0,0-.02-.03c-.02-.02-.04-.04-.04-.04,0,0,0,0,.03,0,.01,0,.03,0,.05,0,.01,0,.7-.06.94-.08.12,0,.25-.01.3,0,.6.03,1.54.28,1.44.51-.14.29-.16.57-.29.82Z"/>
  <path class="cls-2" d="M452.47,376.8c-6.75,1.26-13.51,2.47-20.24,3.8-2.51.5-5.13.64-7.62,1.81-1.24.58-3.81.23-6.12.69-6.27,1.26-12.6,2.32-18.88,3.57-6.11,1.22-12.15,2.64-18.26,3.86-6.05,1.21-12.38,2-18.14,3.5-5,1.3-9.67,1.52-14.49,2.57-5.1,1.12-10.4,2.21-15.48,2.85-3.71.47-7.38.87-11,1.68-2.26.51-4.31,1.31-6.79,1.74-2.3.4-4.98.55-6.84,1.71-.16.1-1.21.15-1.76.14-2.58-.05-5.61.55-7.62,1.29-1.96.72-3.76,1.01-5.64,1.38l-3.87.75-2.18.42c-1.27.25-2.63.54-3.67.21-1.09-.25-2.15-.93-2.86-1.85-.71-.94-1.09-1.93-1.1-3.28l.04-4.89c.03-1.97.12-3.93.21-5.9l.13-2.95.05-1.47c0-.32.02-1.42.26-2.2.47-1.73,1.61-3.29,3.23-4.22.4-.24.83-.42,1.28-.57.21-.07.47-.13.66-.18l.38-.09c.51-.11,1.03-.23,1.54-.34,2.04-.45,4.05-.85,5.94-1.04,1.95-.19,3.57-.45,5.28-.94,1.67-.48,3.51-1.16,5.43-1.64,2.23-.56,4.68-.61,6.23-1.78.14-.11.93-.25,1.3-.26,6.14-.16,11.69-2.7,17.76-3.66,6.24-.98,12.56-2.48,18.85-3.73,1.68-.33,3.51-.45,4.95-1.33.51-.31,2.27-.67,3.15-.69,4.8-.1,9.62-1.5,14.43-2.24,5.48-.84,10.89-2.19,16.51-2.51,2.38-.14,5.58-.53,8.26-1.73,1.23-.55,3.97-.64,5.97-1.04,1.64-.33,3.19-.92,4.82-1.18,1.39-.22,2.84-.13,4.26-.21.42-.02.94-.1,1.34-.2,7.85-2.06,15.95-2.25,23.99-3.72,8.08-1.48,16.37-2.53,24.61-3.27,2.27-.22,4.58-.36,6.72-.32,1.07.03,2.1.11,3.06.25.48.07.94.16,1.39.27.77.06,1.51.46,1.91.95.38.45.46.88.44,1.15-.03.28-.15.41-.31.45-.31.08-.77-.26-1.41-.23-.11,0-.22.03-.32.07-.07.04-.33.1-.49.15-.37.1-.75.2-1.13.3-.77.19-1.57.36-2.37.47-2.56.37-5.11.8-7.59,1.19-5.17.81-10.21,2.13-15.61,2.53-1.68.12-3.57.79-5.05.35-.2-.06-.9,0-1.21.09-6.96,2.08-14.48,2.65-21.76,3.86-6.21,1.03-12.05,2.7-18.33,3.38-3.29,1.35-7.33,1.88-10.82,2.23-12.33,1.24-24.44,4.08-36.61,6.33-12.35,2.29-24.66,4.96-37,7.38-2.1.42-3.82,1.23-6.35,1.38-1.15.06-2.37.32-3.61.72-1.24.39-2.56.94-3.97,1.37-1.28.39-2.62.78-3.93,1.08-1.28.29-2.48.52-3.68.66-1.23.14-2.45.31-3.66.49l-1.82.28-.42.07c-.05,0-.11.01-.16.03-.11.02-.21.07-.31.12-.41.22-.72.7-.73,1.21l-.02,3.64.06,7.43.02,3.05c.01.19-.03.39.06.56.08.17.26.3.45.32.47-.04.38-.04,1.96-.31l3.63-.65,7.27-1.32c4.84-.9,9.67-1.83,14.47-2.83,5.86-1.22,11.63-2.75,17.6-3.69,2.54-.4,5.13-1.33,7.76-1.05.75.08,3-.93,4.63-1.26,4.03-.82,8.09-1.53,12.14-2.29,5.62-1.05,11.27-2.04,16.87-3.17,3.42-.69,6.75-1.63,10.17-2.34,3.57-.75,7.19-1.42,10.79-2.02,4.57-.75,9.14-1.33,13.7-2.1,4.73-.8,9.58-2.06,14.15-2.56,8.51-.92,16.82-2.81,25.2-4.3,4.16-.75,8.33-1.5,12.5-2.26l6.23-1.18c1.81-.33,3.44-.99,4.67-2.05,1.4-1.17,2.35-2.58,2.77-4.34.12-.44.16-.88.22-1.37l.1-1.71c.06-1.14.1-2.3.1-3.47.03-1.13.41-1.73.5-2.84.13-1.03.46-1.78.95-1.51.18.1.46.36.66.68.32.51.66,1.14.85,1.82.2.66.27,1.36.36,1.89.16,1.12.33,2.25.49,3.39.07.57.14,1.15.21,1.73.04.67.07,1.41-.01,2.15-.15,1.48-.63,3.04-1.55,4.45-1.35,2.08-3.33,3.64-5.45,4.59-1.05.5-2.17.82-3.26,1.07l-2.97.56-11.47,2.16Z"/>
  <g>
    <path class="cls-1" d="M79.09,315.71l201.2,54.34c.17.05.35.12.55.19.12.04.24.1.36.13.22-.09.44-.17.53-.2.64-.17,1.22-.28,1.8-.38.25-.05.5-.09.75-.14l16.78-3.42c9.01-1.84,18.02-3.69,27.04-5.52,21.43-4.33,44.46-8.86,67.74-12.71,20.37-3.36,41.18-6.2,61.98-8.45.84-.09,5.21-.76,6.06-.72,5.83.25-3.62-1.84-3.62-1.84l-30.99-10.91c-18.76-6.61-37.51-13.21-56.27-19.81l-44.82-15.78c-3.74-.09-7.14-.16-10.39-.19l-7.26.45c-13.91.85-26.27,1.66-37.8,2.47-27.71,1.96-50.75,3.97-72.52,6.33-25.45,2.77-48.74,5.99-71.22,9.86-7.77,1.34-15.66,1.79-23.29,3.22-2.9.54-23.71,2.57-26.62,3.11Z"/>
    <path class="cls-2" d="M150.17,303.52c12.76-1.92,25.56-3.56,38.34-5.13,4.76-.59,9.66-.8,14.56-2.01,2.44-.61,7.13-.27,11.54-.74,11.94-1.27,23.96-2.2,35.93-3.22,11.64-1.01,23.24-2.12,34.89-2.93,11.62-.72,23.62-1.46,34.81-2.15,2.42-.04,4.79-.03,7.11.02l1.32.03c.49.13,1.16.4,1.32.45.54.2,1.08.4,1.62.59,1.07.4,2.14.8,3.2,1.19,4.25,1.6,8.43,3.2,12.82,4.67,9.29,3.1,18.88,6.37,27.82,9.84,6.52,2.53,12.95,5.09,19.56,7.27,4.12,1.36,8.08,2.32,12.53,3.92,4.13,1.48,8.72,3.47,12.59,3.98.33.04,2.13.83,3.04,1.27,4.3,2.07,9.78,3.96,13.63,4.94,3.76.95,6.96,2.13,10.35,3.31,4.68,1.63,9.37,3.27,14.06,4.9l1.76.42c.65.16,1.31.33,2,.53.34.1.7.21,1.1.35.2.07.4.14.7.27l.23.1.32.17.08.05.16.1c.1.07.2.14.3.22l.14.12c.14.13.28.28.41.43.13.16.24.33.34.51.05.09.1.18.14.27l.07.17c.04.12.08.24.12.37.14.52.16,1.18,0,1.75-.07.28-.18.54-.29.77-.07.13-.09.16-.13.22l-.11.16c-.31.43-.76.83-1.22,1.07-.15.08-.13.06-.17.09l-.1.04-.2.08c-.14.05-.27.09-.41.13-.22.05-.26.05-.4.08-.11.02-.26.04-.31.04l-.43.03h-.34c-.42.01-.83,0-1.13-.01l-.41.03-.77.08-1.63.2c-1.09.14-2.22.31-3.45.43-7.33.74-14.62,1.3-21.95,2.16-7.63.9-15.7,2.39-22.76,3.06-7.1.66-13.82,1.76-20.7,2.92-3.91.66-8.54,1.09-11.6,2.47-.29.13-1.75.38-2.43.44-11.33.96-22.01,4.42-33.31,6.39-11.65,2.02-23.51,4.65-35.27,7.08-3.14.65-6.53,1.1-9.31,2.27-.98.41-4.27,1.11-5.89,1.29-2.06.23-4.13.53-6.22.88-1.04.19-2.08.37-3.13.56l-.83.15-.71.14-.69.14c-.33.04-.52.18-.76.26l-.7.28c-.53-.16-1.05-.36-1.55-.54-.3-.11-.37-.12-.54-.17l-.44-.12-1.78-.47-3.56-.93c-2.37-.62-4.73-1.25-7.07-1.92-9.97-2.85-20.11-5.2-30.04-8.53-4.2-1.41-9.99-3.12-15.32-3.78-2.45-.3-7.26-1.96-10.96-2.88-3.04-.75-6.05-1.21-9.04-2-2.54-.68-5.01-1.66-7.56-2.49-.75-.25-1.7-.5-2.47-.67-14.88-3.13-29.12-8.16-43.92-11.92-14.87-3.77-29.85-7.92-44.7-12.05-8.19-2.28-16.58-4.79-21.77-7.72-2.34-1.32-2.17-2.01,1.43-1.47,2.64.39,5.66.91,8.6,1.62,4.72,1.13,9.44,2.26,14.03,3.36,9.55,2.32,19.14,4.2,28.89,7.21,3.03.93,6.71,1.53,9.07,2.84.33.18,1.57.57,2.18.68,13.34,2.55,26.78,6.87,40.12,10.4,11.36,3,22.54,5.18,33.9,8.61,6.5.92,13.86,3.05,20.15,5,7.12,2.21,14.29,4.28,21.48,6.27l10.81,2.95,10.03,2.67.07-.03s.02,0,.03-.01h.02s-.14.02-.06,0l.85-.19.84-.18.72-.14,3.06-.64,6.12-1.27c4.08-.83,8.17-1.66,12.24-2.49,23.12-4.61,46.25-9.47,69.51-13.64,3.96-.71,7.3-1.77,12-2.23,4.42-.42,10.03-1.63,15.13-2.44,4.67-.74,9.55-1.66,14-2.1,7.95-.79,15.91-1.75,23.89-2.72,8.08-.96,16.18-1.92,24.26-2.89.33.01.58.02.83.01.12,0,.23,0,.28-.01h.02s0,0,0,0c0,.02-.01-.05,0,.08.04.35.1.71.18,1.05.08.56.28,1.06.39,1.08-.04,0,.03,0-.06.03-.07.03-.12.08-.15.13-.12.14-.32.36-.41.58-.13.24-.36.59-.5.89l-.11.24c-.05.1,0,.03-.01.05h-.02s-.14-.07-.25-.1c-.22-.08-.49-.16-.77-.25-1.12-.33-2.31-.62-3.53-.9l-.28-.06c-8.7-3.1-17.42-6.2-26.13-9.3-8.68-3.06-17.36-6.08-26.03-9.03-10.62-3.6-21.3-6.89-31.91-10.81-4.52-1.67-9.46-2.94-13.7-5.24-1.2-.65-5.64-1.6-8.58-2.6-7.29-2.5-14.57-5.11-21.85-7.67l-3.66-1.29c-.08-.03-.06-.02-.25-.03l-1-.02-2-.04-4.01-.08-2-.04h-.5c-.19-.01-.04-.02-.3,0l-1,.06c-5.36.32-10.7.68-16.04,1.06-6.51.47-12.94,1.21-19.45,1.71-6.81.51-13.69.99-20.51,1.44-8.65.55-17.25.97-25.89,1.64-8.95.7-18.23,1.93-26.79,2.46-15.95.99-31.74,3.22-47.52,5.37-7.84,1.07-15.68,2.23-23.5,3.51-3.91.62-7.78,1.37-11.8,1.94-3.98.57-7.93,1-11.81,1.54-2.2.3-4.34.59-6.44.91-2.28.38-4.42.49-6.56.68-4.27.33-8.51.62-12.87,1.1-2.04.23-4.47.02-6.2-.32-1.71-.35-2.79-.79-2-1.25.32-.18.97-.4,1.64-.53,4.26-.82,8.32-1.63,12.55-2.39,2.11-.38,4.27-.74,6.5-1.09,1.11-.16,2.24-.33,3.4-.5.55-.08,1.18-.17,1.66-.25.59-.1,1.2-.21,1.81-.32,7.36-1.19,14.65-1.66,21.67-2.88,7.2-1.24,14.42-2.42,21.65-3.51Z"/>
  </g>
  <g>
    <path class="cls-1" d="M77.97,324.82c-.32.84-.48,1.74-.48,2.65v9.07c0,3.36,2.26,6.35,5.5,7.27,0,0,180.1,58.71,183.23,59.51,3.13.8,2.73-1.19,2.76-2.41.12-4.28.12-10.03.12-13.65,0-1.35-2.81-3.87-4.25-4.35-1.31-.44,1.59.47.34.1l-105.19-30.71c-12.79-3.82-25.89-9.06-38.68-12.89l-36.95-11.65c-2.14-.64-4.27-2.3-6.41-2.94Z"/>
    <path class="cls-2" d="M116.24,335.27l10.17,3.2c3.4,1.09,6.78,2.23,10.14,3.36,2.51.84,4.94,2.05,7.75,2.3,1.4.12,3.53,1.73,5.84,2.48,3.12,1.01,6.25,2.05,9.37,3.01,3.13.95,6.33,1.88,9.49,2.77,6.18,1.72,12.4,3.24,18.57,4.96,6.12,1.7,12.32,3.91,18.3,5.23,5.18,1.14,9.61,3.1,14.52,4.38,5.2,1.35,10.57,2.81,15.56,4.58,3.64,1.29,7.23,2.63,10.92,3.57,2.31.58,4.53.8,7.02,1.56,2.31.7,4.87,1.81,7.05,1.61.18-.02,1.19.43,1.69.69,1.27.71,3.94,1.6,3.09,1.31.97.34,1.55.71,2.1,1.04.54.33,1.01.65,1.45.96.33.24.65.49.96.77.15.15.3.28.45.45.14.15.31.33.5.59.36.47.66.98.88,1.51.22.54.32,1.11.35,1.69,0,.93,0,1.86,0,2.8-.01,3-.03,6.01-.04,9.02l-.02,2.25v.56c-.01.21,0,.31-.05.69-.08.64-.24,1.19-.47,1.68-.24.48-.54.93-.96,1.33-.41.41-.93.72-1.44.91-.26.12-.53.16-.8.25-.28.04-.56.08-.85.11l-.9-.03c-.28-.04-.53-.14-.8-.2l-2.38-.66-1.14-.33-.72-.26-2.86-1.05c-1.91-.71-3.81-1.42-5.73-2.08-4.01-1.38-8.43-2.42-12.04-4-3.62-1.58-7.2-2.72-10.86-3.91-2.08-.67-4.4-1.82-6.36-1.6-.18.02-.96-.24-1.3-.42-5.61-2.94-11.88-3.51-17.81-5.71-6.11-2.27-12.54-4.16-18.84-6.18-1.68-.54-3.4-1.35-5.12-1.29-.61.02-2.38-.53-3.18-.95-4.39-2.28-9.45-3.4-14.17-5.08-5.38-1.92-10.95-3.33-16.23-5.71-2.23-1.01-5.35-2.17-8.37-2.36-1.38-.09-3.94-1.28-5.96-1.86-1.66-.47-3.35-.66-4.97-1.17-1.38-.44-2.67-1.18-4.03-1.77-.4-.18-.91-.34-1.34-.44-8.21-1.78-15.75-5.44-23.82-7.82-4.05-1.2-8.11-2.48-12.15-3.81l-3.02-1-1.47-.49c-.57-.18-1.31-.44-1.96-.79-2.65-1.36-4.59-3.88-5.31-6.72-.18-.79-.31-1.6-.3-2.4,0-.23,0-.35,0-.5v-.44s.05-.87.05-.87c.05-1.16.14-2.3.26-3.4.13-1.09.3-2.14.53-3.11.22-.88.52-2.12,1.1-2.9.51-.73,1-.93,1.26-.76.28.18.33.73.4,1.65.03.34.08.68.15,1.02.07.39.13.79.2,1.19.12.81.21,1.65.25,2.48.07,1.34.14,2.67.21,4,.04.63.06,1.41.13,1.85.08.5.22.99.41,1.45.41.95,1.08,1.77,1.9,2.33.41.28.85.5,1.3.66.22.08.46.15.73.2l.97.25c2.68.71,5.28,1.47,7.91,2.52,1.62.65,3.69.91,4.86,1.98.16.15.83.42,1.17.48,7.4,1.34,14.58,4.38,21.83,6.67,6.17,1.94,12.37,3.11,18.47,5.47,3.66.34,7.63,1.78,11,3.14,11.9,4.78,24.28,8.2,36.42,12.27,12.31,4.13,24.71,8.04,37.05,12.1,2.1.69,4.06.84,6.41,1.98,2.21,1.07,5.29,1.79,7.99,2.67,2.47.8,5.12,1.48,7.39,2.42,4.7,1.97,9.53,3.61,14.39,5.17l3.65,1.15,1.6.49,1,.29c.29.08.42.1.64.07.21-.03.33-.24.33-.43l.04-2.81c.05-3.25.11-6.51.16-9.76.02-.19-.06-.36-.16-.52-.03-.04-.04-.06-.09-.13-.06-.07-.11-.15-.18-.22-.13-.15-.28-.31-.43-.46-.31-.3-.66-.6-1-.85-.34-.25-.7-.45-.83-.49l-.29-.1c-.07-.02-.33-.13-.12-.05.22.07.43.17.65.22.22.06.44.14.66.19.06.01.11.03.17.03.06.01.14.02.04,0-.11-.02-.22-.04-.33-.07l-1.64-.47-3.17-.9c-2.12-.58-4.23-1.17-6.34-1.75-5.97-1.61-11.98-2.9-17.94-4.82-2.54-.82-5.33-1.18-7.68-2.65-.66-.42-3.18-.55-4.84-1-4.1-1.13-8.18-2.37-12.28-3.56-5.68-1.66-11.36-3.37-17.05-4.96-3.47-.97-6.98-1.66-10.47-2.6-3.64-.98-7.3-2.05-10.91-3.18-4.57-1.44-9.06-3.02-13.64-4.45-4.79-1.52-9.82-2.85-14.2-4.74-8.14-3.52-16.45-6.18-24.8-8.76-8.31-2.7-16.65-5.39-25.01-7.86-2.37-.7-4.59-1.55-6.79-2.4-1.1-.42-2.2-.84-3.3-1.26l-.83-.3c-.27-.1-.65-.23-.96-.36-.65-.27-1.24-.57-1.81-.86-1.07-.56-1.91-1.58-2.49-2.42-.56-.84-.96-1.6-.39-1.76.22-.06.65-.05,1.04.07,1.23.37,2.35.83,3.41,1.19.53.18,1.05.33,1.53.43.54.09,1.08.19,1.62.28,2.34.42,4.74.95,7.32,1.8,7.62,2.5,15.31,4.86,22.97,7.27Z"/>
  </g>
</svg>