<?xml version="1.0" encoding="UTF-8"?>
<svg id="Content" xmlns="http://www.w3.org/2000/svg" viewBox="0 0 500 500">
  <defs>
    <style>
      .cls-1 {
        fill: none;
      }

      .cls-1, .cls-2 {
        stroke-width: 0px;
      }

      .cls-2 {
        fill: #101066;
      }
    </style>
  </defs>
  <g>
    <path class="cls-1" d="M445.04,283.46c-3.43-8.87-10.6-9.92-16.35-10.74l-.95-.13c-12.98-1.95-27.24-2.08-41.02-2.23l-3.13-.03c-13.63-.15-27.54-.41-41-.68-20.15-.4-40.99-.83-61.5-.83-30.11,0-54.85.9-77.86,2.8-4.44.37-9.47.78-13.93,4.66-7.23,6.29-8.9,14.77-9.46,28.21l-.1,2.43c-.53,13.03-1.45,34.87.49,46.78.1.62.19,1.21.29,1.8,1.11,6.93,1.92,11.94,6.03,16.48,2.69,2.96,5.83,3.61,7.96,3.83.26.04.63.06,1.13.06.99,0,2.32-.06,3.5-.1.81-.04,1.54-.07,1.92-.07,37.48.03,74.97.04,112.44.07,37.47.01,74.94.04,112.41.06.99,0,2.03.06,3.13.13,1.18.09,2.38.16,3.59.16,4.06,0,9.08-.87,11.78-7.56,3.2-7.93,5.32-23.95,5.55-41.84.23-18.54-1.62-34.71-4.94-43.26Z"/>
    <path class="cls-2" d="M451.19,347.69c-.64,5.8-1.5,11.59-3.08,17.38-.39,1.45-.88,2.89-1.44,4.34-.62,1.5-1.42,3.01-2.53,4.36-1.11,1.35-2.54,2.53-4.15,3.3-1.61.78-3.32,1.2-4.95,1.37-1.22.13-2.42.13-3.53.04l-1.7-.1-1.63-.08c-2.02-.12-4.26,0-6.49.34-2.22.34-6.35-.48-10.31-.45-10.73.01-21.49.02-32.22.03-10.44.14-20.84.28-31.28.43-10.35.07-21.02-.31-30.98.1-8.63.35-16.41-.29-24.67-.15-8.76.16-17.82.25-26.4-.06-6.26-.23-12.44-.51-18.66-.37-3.88.09-7.5.49-11.73.46-3.92-.03-8.38-.38-11.8.42-.29.07-2.05-.08-2.94-.19-4.24-.53-9.42-.5-12.97-.14-1.73.17-3.35.25-4.95.28-.78.02-1.63,0-2.32.05-.77.03-1.55.06-2.33.09l-1.73.06c-.31,0-.54.03-.9.02l-1.16-.06c-.46-.03-.5-.04-.91-.09-.33-.04-.66-.1-.99-.16-.67-.13-1.35-.29-2.02-.52-1.34-.44-2.66-1.08-3.84-1.91-.59-.41-1.15-.86-1.66-1.35-.52-.49-1-1.01-1.4-1.49-1.69-1.97-3.01-4.33-3.88-6.71-.87-2.38-1.36-4.74-1.75-6.98-.29-1.7-.51-3.32-.74-4.96-.22-1.64-.43-3.42-.54-5.1-.24-3.4-.3-6.75-.36-10.1-.1-6.97-.33-14.38.25-20.75.29-3.2.5-6.32.67-9.43.18-3.09.26-6.18.48-9.37.22-3.63,1.12-7.8,1.05-11.01-.03-.3.38-1.69.61-2.31,1.05-2.56,2.29-5.08,3.87-7.4.39-.58.79-1.15,1.24-1.69.42-.56.88-1.08,1.35-1.6.94-1.03,1.92-1.99,3.08-2.92,2.28-1.83,5.06-3.09,7.83-3.76,2.79-.68,5.44-.86,7.98-1.01,10.61-.58,21.49-1.4,32.26-1.84,2.87-.12,5.94.01,8.57-.65.93-.23,3.94-.35,5.41-.23,7.97.61,16.34.01,24.5.12,4.64.04,9.3.08,13.96.13,4.66.07,9.33.19,14.01.57,3.96.32,9.36.53,14.12-.15,2.19-.32,6.73.09,10.14.06,2.81-.03,5.51-.34,8.28-.31,2.35.02,4.72.36,7.11.53.71.05,1.58.07,2.28.04,13.58-.64,27.03.75,40.68.71,13.7-.07,27.78.06,41.7,2.17,1.86.28,3.82.56,5.82,1.05,1.99.48,4,1.22,5.77,2.31,1.77,1.08,3.25,2.5,4.26,4,1.05,1.49,1.57,3.07,1.88,4.44.2,1.27.11,1.93-.23,1.94-.17,0-.4-.15-.69-.47-.29-.32-.62-.82-1.1-1.44-.65-.94-1.51-1.82-2.39-2.64-.92-.8-1.94-1.49-3.01-2.09-3.48-1.93-7.75-2.11-11.94-2.61-8.64-.94-17.29-.66-26.35-1.24-2.82-.18-6.13.16-8.46-.52-.32-.09-1.49-.16-2.04-.12-12.12.89-24.73-.04-37.07-.15-10.52-.12-20.67.57-31.26.07-5.82.73-12.67.5-18.55.17-10.37-.54-20.77-.88-31.15-.73-10.39.1-20.77.41-31.12.72-10.51.32-21.01.87-31.49,1.67l-3.93.31c-1.31.11-2.62.21-3.85.35-2.46.28-4.7.79-6.67,1.77-.98.49-1.89,1.09-2.74,1.81-.43.36-.85.79-1.28,1.17-.39.43-.8.84-1.17,1.28-1.48,1.77-2.64,3.78-3.49,5.99-.56,1.52-.9,3.01-1.16,4.63-.27,1.61-.52,3.3-.92,5.3-.79,3.74-.67,8.82-.86,13.44-.17,4.21-.15,8.62-.45,12.57-.61,8.18-.78,16.45-.17,24.57.14,2.03.39,4.03.69,6,.34,2.03.67,4.11,1.04,6.07.38,1.98.83,3.88,1.47,5.62.65,1.74,1.52,3.31,2.65,4.73.59.72,1.14,1.32,1.78,1.83.63.52,1.34.92,2.1,1.24,1.53.63,3.25.9,5.14.8l3.06-.08c1.11-.05,2.14-.04,3.16-.04h6.19c8.25.03,16.5,0,24.72-.1,10.03-.12,20.02-.56,30.13-.38,4.31.08,8.86-.36,13.12.4,1.21.22,5.23-.36,8.01-.39,6.89-.06,13.81-.01,20.71,0,9.59,0,19.19.07,28.77,0,5.84-.04,11.63-.36,17.47-.43,6.11-.08,12.29-.07,18.41,0,7.76.1,15.47.38,23.23.46,8.04.08,16.42-.26,24.1.09l5.36.21,2.68.07,2.82.17,2.6.16c.85.06,1.71.11,2.48.06,1.58-.06,3.01-.37,4.24-.97,1.21-.62,2.24-1.53,3.03-2.76.21-.29.39-.61.57-.95.19-.32.33-.68.49-1.02.16-.33.3-.74.44-1.13.14-.39.29-.77.41-1.18,1.03-3.21,1.75-6.63,2.35-10.07,1.18-6.85,1.83-13.87,2.16-20.89.33-7.02.32-14.07-.05-21.06-.22-3.97-.36-7.76-.62-11.52-.27-3.75-.64-7.49-1.48-11.23-.37-1.75-.48-3.86-.4-5.45.04-1.56.32-2.63.88-2.02.21.23.55.77.8,1.34,1.49,3.66,2.62,7.28,3.52,11.09.89,3.81,1.54,7.81,1.83,12.28.42,6.59.54,13.18.44,19.76-.11,6.59-.45,13.17-1.16,19.75Z"/>
  </g>
  <path class="cls-2" d="M392.48,296.95c1.21-1.87,2.7-3.53,4.35-5.02.64-.54,1.48-.78,1.82-1.83.2-.52,1.31-.27,1.95-.65,1.79-1.06,3.82-1.63,5.82-2.16,1.96-.42,3.98-.91,6.05-.8,2.06.09,4.03.87,6,1.2.88.1,1.6.53,2.28.97.7.41,1.28.97,2.02,1.32.78.38,1.5.9,2.21,1.42.65.59,1.3,1.19,1.75,1.92.33.53.65,1.05.97,1.57.3.53.62,1.03,1.04,1.47.48.57,1.19.98,1.6,1.71.31.72.38,1.63,1.39,1.94.08.03.07.42.03.62-.1.49-.06.96.08,1.39.12.43.31.82.57,1.11.52.58.62,1.2.71,1.83l.23,1.31c.06.44.07.88.1,1.33.02.44.06.89.04,1.33-.03.44-.06.89-.1,1.33-.04.66-.23,1.31-.43,1.94-.18.64-.38,1.26-.6,1.88-.37,1.29-.54,2.81-1.41,3.8-.45.48-.78,1-1.11,1.5-.35.49-.65,1.01-.96,1.52-.4.57-1.17.96-.87,1.93.03.09-.15.29-.28.33-1.07.4-1.63,1.17-2.25,1.94-.57.82-1.24,1.62-2.13,2.13-1.89.93-3.69,2.08-5.72,2.77-.54.2-1.18.09-1.55.8-.13.24-.72.44-1.04.32-1.7-.51-3.25.13-4.88-.06-.91-.12-1.83-.1-2.73-.28-.91-.11-1.8-.41-2.6-.95-.69-.42-1.55-.96-2.72-.58-.53.13-1.2-.58-1.83-.8-.51-.21-1.14-.2-1.63-.48-.42-.23-.63-.76-.92-1.16-.09-.12-.22-.22-.36-.27-.33-.12-.65-.26-.95-.43-.28-.19-.55-.4-.81-.62-.26-.22-.5-.46-.73-.7-.22-.26-.42-.54-.62-.81-.4-.55-.78-1.11-1.11-1.69-.35-.58-.74-1.11-1.12-1.67-1.64-2.17-2.61-4.85-3.01-7.53-.08-.75-.13-1.51.04-2.22.21-.71.61-1.36,1.32-1.83.64-.43,1.35-.4,1.8.12.33.39.64.81.74,1.23.19.68.49,1.33.7,1.95.57,1.3,1.57,2.31,1.84,3.68.1.44.61.72.25,1.33-.05.09,0,.27.08.32.89.56,1.52,1.22,2.06,1.98.3.35.58.73.87,1.11.31.36.65.68,1,.99,1.29.98,2.93,1.16,4.18,2.08.54-.16,1.03-.17,1.46-.05.43.13.82.38,1.2.58,1.31.86,2.88,1.05,4.4,1.06,1.54-.06,3.03-.38,4.49-.76,2.99-.78,5.66-2.61,7.71-4.92.39-.38.26-1.03.92-1.31.65-.25.78-1.09,1.14-1.65.28-.55.4-1.21.83-1.66.83-.97,1.3-2.18,1.49-3.42.08-.62.18-1.24.16-1.88.02-.63.04-1.25,0-1.88-.01-2.48-.61-5.02-1.94-7.13-.85-1.27-2-2.25-2.91-3.41-.36-.55-1.17-.63-1.12-1.64.02-.31-.85-.2-1.18-.43-.41-.3-.84-.56-1.28-.82l-.64-.4-.68-.33c-1.24-.65-2.6-1.09-3.97-1.33-.43-.04-.86-.01-1.29.01-.42.02-.85.14-1.27.14h-.65c-.22.03-.44.05-.65.06-.43.04-.88-.01-1.31.04-1.1.05-2.25.02-3.35.33-.56.17-1.11.41-1.62.73-.26.14-.52.28-.79.39-.26.12-.52.25-.81.32-2.17.56-3.63,2.33-4.95,3.98-1.34,1.66-2.37,3.63-2.78,5.73-.1.6-.41,1.12-.61,1.68-.23.55-.51,1.12-.51,1.73-.02.53-1.96,1.34-2.59,1.1-.12-.05-.25-.16-.29-.27-.25-.7-.64-1.4-.84-2.16-.17-.75-.33-1.56-.08-2.38.62-2.44,1.55-4.81,2.91-6.93Z"/>
  <path class="cls-2" d="M219.81,294.68c2.62-.05,5.25-.03,7.87-.15.98-.04,1.97.28,2.98-.42.5-.35,1.45.46,2.35.42,2.44-.11,4.89-.02,7.33-.12,2.37-.09,4.74-.39,7.12-.49,2.35-.1,4.79.27,7.05-.15,1.96-.37,3.74.27,5.61.11,1.99-.17,4.05-.28,6.01.02,1.42.22,2.83.49,4.25.35.88-.09,1.71-.5,2.67-.48.89.03,1.91.37,2.68-.44.07-.07.47.08.67.19.97.52,2.14.49,2.95.13.79-.35,1.48-.31,2.21-.32,2.01-.05,4.02-.08,6.02,0,1.5.06,2.99.36,4.5.44,1.57.08,3.24-.29,4.68.1,1.45.39,2.84.37,4.26.37.81,0,1.75.37,2.42-.44.06-.08.36-.07.5,0,2.31,1.06,4.57-.33,6.91-.07,2.41.27,4.88.08,7.32.06.65,0,1.35.23,1.95-.36.21-.21.9-.23,1.23-.08,1.8.81,3.71.32,5.56.46,2.11.16,4.23-.21,6.35.42.9.27,2.13.41,3.21-.34.5-.34,1.53,0,2.3-.07.64-.06,1.25-.41,1.88-.42.54,0,1.07.3,1.62.44.16.04.36.05.52,0,3.09-.85,6.15.3,9.26.07,3.12-.23,6.28-.13,9.42,0,1.73.07,3.51.31,4.68,1.78.53.66.53,1.37-.2,1.79-.54.31-1.16.6-1.78.67-.99.14-1.98.28-2.93.42-2,.25-3.98.92-6.06.56-.64-.11-1.4.27-1.93-.38-.07-.09-.34-.14-.46-.09-2.76,1.01-5.62.34-8.43.41-2.39.06-4.7.86-7.11.51-1.32.81-2.88.66-4.22.42-4.72-.87-9.46-.3-14.19-.42-4.8-.12-9.6,0-14.39-.06-.82,0-1.52.45-2.48.1-.9-.33-2.06-.07-3.11-.07-.96,0-1.97.17-2.87-.03-3.75-.84-7.54-.34-11.31-.42-3.75-.08-7.51-.16-11.25.05-2.28.13-4.55.59-6.85.42-.98-.07-2.01.37-2.98-.39-.28-.21-1.19.37-1.82.4-1.57.07-3.14.04-4.71.04-2.18,0-4.36-.04-6.54.05-1.33.05-2.64.38-3.97.47-1.39.09-2.79.1-4.18.03-1.76-.08-3.52-.35-5.28-.4-1.83-.06-3.73.31-5.48-.03-3.26-.63-6.49-.23-9.74-.27-3.22-.02-6.45,0-9.64.26-.9.08-1.77-.03-2.64-.14-.43-.06-.86-.12-1.3-.16-.23-.02-.43-.03-.6-.04h-.21s-.06,0-.06,0h-.02s0,0,0,0l-.03-.13c-.22-.8-.48-.96-.38-.88.01,0,.1.06.15.07.06.02.2.08.28.09-.12-.03-.26,0-.4.04-.56.19-1.16.56-1.5.37-.13-.07-.27-.23-.31-.43-.05-.31-.1-.74.16-1.28.27-.54.79-.88,1.13-1.05.7-.35,1.15-.5,1.58-.68.86-.34,1.77-.59,2.78-.59,3.01-.04,5.96-.14,8.95-.22Z"/>
  <path class="cls-2" d="M221.29,347.74c2.88-.04,5.77-.03,8.65-.14,1.07-.04,2.17.29,3.28-.41.55-.35,1.6.46,2.59.42,2.69-.11,5.38-.02,8.07-.12,2.61-.09,5.22-.39,7.83-.49,2.59-.1,5.26.28,7.76-.15,2.16-.37,4.11.27,6.18.11,2.19-.17,4.46-.28,6.61.02,1.57.22,3.12.49,4.67.35.97-.09,1.88-.5,2.94-.48.98.03,2.1.37,2.95-.44.07-.07.51.08.74.19,1.06.52,2.36.49,3.25.13.86-.35,1.63-.31,2.43-.32,2.21-.05,4.42-.08,6.63,0,1.65.06,3.3.36,4.95.44,1.72.08,3.56-.29,5.15.1,1.6.39,3.13.37,4.69.37.89,0,1.93.37,2.66-.44.07-.08.4-.07.55,0,2.54,1.06,5.03-.33,7.6-.07,2.65.27,5.37.08,8.06.05.72,0,1.48.23,2.14-.36.23-.21.99-.23,1.35-.08,1.98.81,4.08.32,6.11.46,2.32.16,4.65-.21,6.99.42.99.27,2.34.41,3.53-.34.55-.34,1.68,0,2.54-.07.7-.06,1.38-.41,2.07-.42.59,0,1.18.3,1.78.44.18.04.4.05.57,0,3.4-.85,6.77.3,10.19.07,3.43-.23,6.91-.13,10.36,0,1.9.07,3.86.31,5.15,1.78.58.66.58,1.37-.22,1.79-.59.31-1.28.6-1.95.67-1.09.14-2.17.28-3.23.42-2.2.25-4.38.92-6.66.56-.71-.11-1.54.27-2.13-.38-.08-.09-.37-.14-.51-.09-3.03,1.01-6.19.34-9.28.41-2.63.06-5.17.86-7.83.51-1.46.81-3.17.66-4.65.42-5.2-.87-10.42-.3-15.62-.42-5.28-.12-10.56,0-15.84-.06-.9,0-1.67.45-2.73.1-.99-.33-2.27-.07-3.42-.07-1.06,0-2.16.17-3.16-.03-4.12-.84-8.3-.34-12.44-.42-4.13-.08-8.27-.16-12.38.05-2.51.13-5.01.59-7.54.42-1.08-.07-2.21.37-3.28-.39-.3-.21-1.31.37-2,.4-1.72.07-3.45.04-5.18.04-2.4,0-4.8-.04-7.2.05-1.46.05-2.91.38-4.37.46-1.53.09-3.07.1-4.6.03-1.94-.08-3.87-.35-5.81-.41-2.01-.06-4.1.31-6.03-.03-3.59-.63-7.15-.24-10.72-.27-3.55-.03-7.1,0-10.62.25-.99.08-1.95-.02-2.9-.14-.48-.06-.95-.12-1.43-.16-.47-.04-1.03-.05-1.18-.02,0,0-.02,0-.02,0h0s-.04-.15-.04-.15c-.03-.11-.08-.23-.11-.32-.02-.07-.04-.14-.08-.21-.13-.28-.2-.34-.22-.36.02.02.09.07.33.15l.08.02s-.03,0-.04-.01c-.03-.01-.06,0-.1,0-.07,0-.14.02-.21.04-.57.2-1.16.6-1.5.39-.13-.07-.27-.26-.31-.48-.05-.34-.06-.88.33-1.44.41-.53.91-.75,1.24-.9.69-.29,1.13-.45,1.6-.63.95-.34,1.95-.59,3.07-.6,3.3-.04,6.56-.13,9.84-.22Z"/>
  <path class="cls-2" d="M317.08,324.8c-1.99-.09-3.98-.23-5.97-.25-.74-.02-1.49-.34-2.29.34-.39.34-1.09-.48-1.78-.45-1.86.08-3.73-.06-5.6.01-1.81.07-3.62.34-5.44.41-1.8.07-3.65-.33-5.38.08-1.5.35-2.85-.3-4.28-.16-1.52.16-3.09.22-4.59-.04-1.09-.2-2.17-.46-3.25-.3-.67.1-1.3.52-2.04.51-.68-.02-1.46-.35-2.05.47-.05.07-.36-.07-.51-.18-.74-.51-1.65-.46-2.26-.09-.6.36-1.13.33-1.69.35-1.53.07-3.07.13-4.61.08-1.15-.04-2.3-.32-3.45-.38-1.2-.06-2.47.33-3.59-.04-1.12-.37-2.18-.33-3.27-.31-.62.01-1.35-.35-1.84.48-.05.08-.28.07-.39,0-1.78-1.03-3.5.4-5.29.17-1.85-.24-3.74,0-5.61.05-.5.02-1.04-.21-1.48.39-.16.21-.68.24-.94.1-1.4-.78-2.84-.26-4.26-.37-1.62-.12-3.24.27-4.88-.34-.7-.26-1.64-.39-2.46.37-.38.35-1.17.01-1.77.1-.49.07-.95.42-1.44.44-.41.01-.83-.29-1.25-.42-.12-.04-.28-.04-.4,0-2.36.88-4.73-.24-7.11.02-2.39.26-4.82.19-7.23.1-1.33-.05-2.7-.28-3.6-1.73-.41-.66-.41-1.37.16-1.79.41-.31.89-.61,1.36-.69.75-.15,1.51-.3,2.24-.44,1.53-.27,3.04-.97,4.63-.62.49.11,1.07-.29,1.48.36.06.09.26.14.36.09,2.1-1.04,4.3-.4,6.44-.49,1.83-.08,3.58-.91,5.43-.58,1-.82,2.19-.69,3.22-.46,3.62.83,7.26.16,10.88.22,3.68.05,7.36-.13,11.04-.15.63,0,1.16-.47,1.9-.13.69.32,1.58.04,2.39.03.74-.01,1.51-.2,2.2,0,2.89.79,5.79.23,8.68.27,2.88.04,5.76.07,8.63-.19,1.75-.16,3.48-.64,5.25-.5.75.06,1.54-.4,2.29.37.21.22.91-.36,1.4-.38,1.21-.06,2.42,0,3.62,0,1.68.01,3.36.08,5.03.01,1.02-.04,2.04-.35,3.06-.42,1.07-.07,2.15-.06,3.22.02,1.36.11,2.7.39,4.06.47,1.4.09,2.88-.25,4.21.11,2.48.63,4.99.48,7.49.66,2.48.19,4.97.36,7.46.32,1.36,0,2.57.74,3.92.83.61.04,1.46,2,1.21,2.62-.05.12-.16.24-.26.28-1.35.5-2.65,1.34-4.23,1.17-2.3-.24-4.53-.24-6.8-.36Z"/>
  <g>
    <g>
      <path class="cls-1" d="M424.06,318.56c-.7-3.35-7.32-6.16-9.6-7.2-2.21,1.84-5.95,1.9-8.29.08-4.47,1.79-8.74,5.99-8.27,9.04,0,0,3.12,2.99,4.2,3.61,2.75,1.59,5.96,2.37,8.93,2.37s5.62-.79,7.85-2.29c0,0,4.61-3.9,5.19-5.61Z"/>
      <path class="cls-2" d="M421.84,324.78c-.42.39-.79.7-1.28,1.12-.16.15-.34.28-.53.39l-.41.26-.8.49c-.41.25-.96.13-1.14.96-.1.42-.83-.18-1.21-.02-1.07.45-2.23.58-3.35.79-1.09.21-2.21.51-3.32.53-1.12.01-2.17-.53-3.28-.35-.99.15-1.62-.7-2.49-.85-.93-.16-1.89-.46-2.57-1.15l-.36-.39c-.14-.14-.19-.22-.41-.4-.39-.34-.58-.55-.9-.71-.37-.18-.91-.1-1.21-.4-.28-.27-.36-.81-1.14-.44-.07.03-.09-.19-.08-.33,0-.18.04-.27-.08-.47-.1-.18-.21-.33-.34-.46-.27-.26-.6-.45-.98-.56-.6-.18-.96-.49-1.3-.8l-.03-.31c-.08-.73-.13-1.51-.12-2.26.03-.38.13-.76.2-1.14.08-.38.27-.74.4-1.11.11-.28.23-.53.43-.8l.27-.38.21-.25c.3-.29.59-.58.86-.86.54-.58.82-1.47,1.59-1.68.76-.22,1.22-.65,1.73-1.06.29-.24.85-.2.62-1.03-.02-.08.1-.15.19-.14.74.12,1.12-.21,1.48-.65l.27-.33c.09-.11.18-.22.34-.35.34-.26.73-.48,1.14-.6.77-.23,1.53-.53,2.26-.82.4.28.82.54,1.25.81.22.13.42.28.64.39.25.11.26.11.34.14.13.04.23.33.52-.21.1-.19.23-.17.27-.02.27.87.84.41,1.26.49.27.05.51-.06.74-.13.12-.02.23-.07.37-.05.03.03.25-.07.38-.09.15-.03.3-.05.46-.06.47-.1.95-.28,1.38-.93.16-.07.33-.12.51-.25.34-.22,1.04.47,1.56.62.42.12,1.03.02,1.41.18.21.09.29.46.43.69.04.07.12.11.2.1,1.58-.17,2.24,1.47,3.53,2.03,1.32.59,2.52,1.56,3.57,3.01.58.78,1.01,2.15-.28,3.19-.56.44-1.28.49-1.76.39-.35-.08-.65-.11-.82-.23-.21-.18-.56-.31-.81-.46-.6-.31-1.51-.19-1.83-.9-.12-.22-.55-.05-.34-.7.03-.09-.03-.18-.09-.17-1.38.3-1.94-.78-2.94-1.2-.42-.18-.92-.18-1.4-.22-.16-.03-.15.02-.19.04-.03.02-.06.04-.08.04-.04.01-.06-.02-.1-.13-.06.32-.06.51-.05.6,0,.14.04,0-.09-.11-.1-.17-1.07.11-1.68.18-.67.11-1.32.2-1.98.26-1.3.1-2.66.06-3.93-.45-.21-.09-.41-.16-.61-.26-.18-.09-.12-.07-.17-.1l-.14-.11c-.11,0-.22.09-.32.14l-.61.36-.7.44c-.23.16-.16.66-.62.57-.44-.07-.59.38-.84.61-.25.21-.34.57-.7.63-.71.15-1.21.59-1.48,1.07-.07.1-.16.29-.16.31,0,.03-.03.1-.04.16-.03.12-.04.23-.1.34-.03.13-.13.33-.03.45.1.13.23.25.37.36l.53.42c.2.15.4.29.61.43.37.24.79.4,1.15.55.09.04.18.08.24.09.08.03.14.06.15.05h0s.03-.04-.02.04l-.13.22-.12.22-.02.03c-.07.11.56-.97.3-.51h0s0,0,0,0h0s0,0,0,0l.03.02.13.07c.08.05.16.11.23.17.26.22.75-.03.74.8,0,.23.52-.17.73-.12.52.14,1.01.34,1.53.49.71.2,1.44.4,2.19.42.46,0,.92-.26,1.36-.33.46-.06.9-.06,1.34-.02.56.06,1.16.26,1.73.21.61-.04,1.08-.55,1.72-.42.61.12,1.14-.04,1.61-.29.6-.33.54-.38,1.15-.88.98-.77,1.94-1.6,2.62-2.57.37-.53,1.26-.58,1.52-1,.06-.09.52.07,1.05.21.55.14,1.2.23,1.47.42.1.07.2.19.21.28.13,1.14.32,2.34-.33,2.99-.96.94-1.81,1.84-2.73,2.7Z"/>
    </g>
    <path class="cls-2" d="M413.44,305.01c-.07-.17-.18-.31-.25-.47-.11-.13-.22-.27-.36-.37-.11-.05,0-.42-.52.04-.25.25.14-.47,0-.52-.31-.1-.58-.33-.94-.35-.18,0-.37.07-.53.12-.18.08-.35.17-.51.19-.17.05-.34,0-.52-.04-.18,0-.36.05-.48.27-.19.43-.63-.13-.88.14-.26.29-.51.49-.85.36-.27-.1-.6-.2-.65.03-.03.14.2.49.13.53-.07.03-.42-.07.23.41.05.04-.08-.02-.18-.07-.49-.22-.51-.07-.2.1.31.17.26.17.27.21.03.07.02.34-.05.54-.06.16-.34.37-.38.58-.04.23.37.32.07.63-.3.33-.18.52-.08.7.06.09-.18.44.56.05.07-.04.08,0,.04.05-.35.43-.16.53.08.52.24,0,.53-.13.55.04,0,.09.04.17.08.24.06.05.12.09.19.12.13.07.3.09.46.13.08.02.09.3.35-.24.09-.19.17-.2.17-.04,0,.86.42.41.64.59.31.16.58-.19.96.39.17.27.42.35.41-.42-.01-.35.21-.03.29-.15.06-.09.02-.45.09-.48.06-.02.23.23.35.33.03.03.06.02.06-.03,0-.46.13-.47.35-.44.23.05.48.07.53-.11-.02-.21.08-.31.12-.44.03-.06.1-.1.14-.17.04-.07.08-.13.14-.2.14-.15.34-.29,1.86-.4.67-.06,1.39-.06,1.78.16.29.16.56.37.61.57.09.31.21.64.22.97.02.34.17.74.15,1.12-.01.38-.12.76-.46.98-.22.11-.08.57-.71.31-.09-.04-.18,0-.17.06.12.7-.23,1.09-.61,1.4-.41.27-.88.42-1.27.68-.63.42-1.11,1.47-2,1.33-.24.87-.86.88-1.33.65-.84-.34-1.58-.43-2.36-.5-.77-.07-1.57-.15-2.3-.49-1.46-.67-2.99-1.66-3.92-3.02-.15-.23-.68-.18-.55-.65.13-.43-.29-.64-.43-.97-.14-.29-.43-.55-.33-.91.2-.73.15-1.32.07-1.92-.08-.6-.2-1.22-.1-1.84.09-.6.29-1.31.55-1.94.27-.64.6-1.24.95-1.83.42-.7.79-1.6,1.57-1.88.31-.12.43-.68,1.05-.14.17.15.17-.47.34-.58.41-.25.88-.39,1.36-.52.65-.21,1.35-.28,2.05-.44.43-.07.85-.45,1.33-.48.49-.06.99-.03,1.48.16.61.19,1.14.66,1.69.94.55.33,1.35.34,1.66,1.02.29.59.62,1.03.99,1.43.36.42.75.82.98,1.32.27.48.4.99.61,1.48.13.5.34.99.47,1.47.09.28-.02.57-.13.85-.13.27-.3.53-.29.78,0,.27-1.88.48-2.53.36-.12-.02-.25-.05-.3-.08-.62-.39-1.51-.63-1.51-.93,0-.12,0-.24,0-.36-.02-.11-.06-.22-.09-.32-.05-.23-.17-.4-.24-.6Z"/>
  </g>
  <g>
    <path class="cls-1" d="M50.02,170.99c.23,17.89,2.35,33.91,5.55,41.84,2.7,6.69,7.72,7.56,11.78,7.56,1.21,0,2.41-.07,3.59-.16,1.1-.07,2.15-.13,3.13-.13,37.47-.01,74.94-.04,112.41-.06,37.47-.03,74.96-.04,112.44-.07.39,0,1.11.03,1.92.07,1.18.04,2.51.1,3.5.1.5,0,.87-.01,1.13-.06,2.13-.22,5.27-.87,7.96-3.83,4.11-4.54,4.91-9.55,6.03-16.48.1-.59.19-1.18.29-1.8,1.94-11.91,1.03-33.75.49-46.78l-.1-2.43c-.56-13.44-2.23-21.92-9.46-28.21-4.46-3.88-9.49-4.29-13.93-4.66-23.01-1.9-47.75-2.8-77.86-2.8-20.51,0-41.35.43-61.5.83-13.46.27-27.37.53-41,.68l-3.13.03c-13.78.15-28.04.28-41.02,2.23l-.95.13c-5.75.83-12.91,1.87-16.35,10.74-3.33,8.55-5.17,24.72-4.94,43.26Z"/>
    <path class="cls-2" d="M70.95,114.59c11.53-1.77,23.22-2.06,34.73-2.32,4.29-.1,8.67.22,13.12-.54,2.21-.38,6.35.37,10.31.27,10.72-.26,21.47-.34,32.2-.57,10.45-.29,20.85-.58,31.3-.86,5.18-.11,10.44-.1,15.65-.14,5.21-.02,10.37-.15,15.37-.32,8.66-.33,16.45.41,24.73.45,8.78.04,17.88.28,26.46,1.03,6.26.55,12.43,1.23,18.66,1.58,1.96.12,3.79.12,5.81.21,2,.1,4.2.32,6.52,1.1,2.15.72,4.34,1.96,6.18,3.46,1.8,1.48,3.36,2.96,4.86,4.31.26.22,1.29,1.98,1.66,2.93,1.96,4.47,3.1,9.88,3.91,13.5.82,3.55.95,6.68,1.11,9.95.4,8.8.81,17.68.78,26.57-.05,6.68-.41,13.3-1.23,20.1-.22,1.78-.5,3.6-.77,5.31-.26,1.73-.52,3.52-.88,5.33-.36,1.8-.82,3.65-1.54,5.43-.71,1.78-1.66,3.48-2.83,4.91-.59.72-1.18,1.37-1.85,2.03-.69.67-1.44,1.29-2.25,1.82-1.61,1.07-3.44,1.77-5.24,2.13-.45.09-.9.16-1.34.22l-.58.06-.75.04-.74.03-.6-.02-1.2-.04-2.35-.08c-.72-.03-1.46-.06-2.26-.05-3.55,0-7.71-.37-10.62.45-.27.08-1.6.07-2.22,0-10.14-1.06-20.11.35-30.38.09-10.58-.26-21.45-.06-32.19-.03-2.86,0-5.92-.22-8.56.37-.93.21-3.94.23-5.39.09-7.93-.8-16.3-.3-24.43-.44-9.28-.15-18.58.23-27.94-.39-3.96-.26-9.36-.4-14.11.35-2.18.35-6.72,0-10.13.08-2.8.07-5.5.42-8.27.43-2.35.01-4.72-.29-7.11-.43-.71-.04-1.58-.04-2.28,0-13.56.87-27.09-.3-40.68-.01-1.7.1-3.41.2-5.12.3-1.77.14-3.83.06-5.9-.42-1.04-.25-2.08-.63-3.08-1.12-1-.51-1.93-1.17-2.77-1.91-1.66-1.51-2.83-3.37-3.65-5.22-.79-1.84-1.34-3.56-1.81-5.33-.49-1.76-.86-3.51-1.21-5.26-.68-3.5-1.16-6.99-1.53-10.48-.84-7.69-.95-15.64.43-20.86.62-2.35,1.33-2.35,1.81.86.36,2.36.75,5.05.98,7.74.36,4.3.91,8.58,1.53,12.7.65,4.29,1.57,8.53,2.75,12.63.6,2.03,1.27,4.09,2.07,5.87.79,1.74,1.86,3.18,3.26,4.18.88.63,2.05.97,3.26,1.18,1.23.18,2.46.32,3.62.55.31.08,1.44.07,1.96,0,1.45-.18,3.17-.4,4.67-.47,1.53-.08,3.06-.14,4.6-.18,3.08-.08,6.17-.1,9.28-.08,6.21.03,12.45.17,18.61.13,10.51-.07,20.66-.88,31.27-.54,5.82-.81,12.67-.67,18.56-.43,20.77.85,41.62.26,62.41.36,21.09.1,42.2-.03,63.3,0,3.59,0,6.69-.46,10.9-.1.99.08,2.05.13,3.15.15.55,0,1.12.01,1.69.02.58,0,1.22.04,1.84.05,1.15.02,2.31.04,3.48.05h.42s.29-.02.29-.02l.29-.02h.15s.24-.04.24-.04c.57-.07.98-.15,1.44-.25,1.62-.37,3.01-1.17,4.15-2.33.27-.28.57-.62.86-.97.28-.35.56-.7.81-1.05.52-.7.95-1.45,1.37-2.2,1.71-3.1,2.41-7.11,3.15-11.18.38-2.06.67-3.97.88-6,.2-2.01.33-4.05.43-6.09.33-8.19.08-16.46-.13-24.71-.14-4.11-.27-8.23-.41-12.35-.14-4.1-.36-8.15-.96-12.07-.63-3.9-1.63-7.68-3.59-10.83-.97-1.58-2.15-3-3.52-4.27-1.35-1.29-2.79-2.23-4.43-2.92-2-.84-4.22-1.2-6.6-1.39-2.4-.18-4.95-.3-7.43-.44-4.99-.27-9.99-.52-15.02-.88-4.29-.31-8.83-.09-13.04-1.01-1.2-.27-5.23.17-8,.11-6.87-.14-13.77-.33-20.66-.41l-14.36-.1c-4.79.02-9.58.12-14.36.21-5.84.13-11.61.52-17.45.67-6.11.16-12.27.24-18.39.25-7.75,0-15.46-.16-23.23-.1-8.04.05-16.42.54-24.12.32-14.33-.38-28.59-.27-42.62,1.01-3.47.31-6.96.78-10.42,1.3-3.37.5-6.42,1.41-8.7,3.31-1.14.94-2.08,2.11-2.84,3.44-.39.66-.7,1.38-1.01,2.11-.28.77-.58,1.54-.81,2.35-.98,3.22-1.65,6.62-2.14,10.04-1.08,7.79-2.18,15-2.33,22.81-.07,3.62-1.9,8.57-2.56,7.08-.12-.29-.26-.89-.31-1.5-.62-7.72-1.34-14.91-.31-23.85.4-3.29.9-6.58,1.58-9.86.7-3.3,1.49-6.55,2.96-9.87.77-1.66,1.73-3.29,3.02-4.71,1.28-1.42,2.82-2.62,4.49-3.51,3.35-1.8,6.96-2.36,10.19-2.83Z"/>
  </g>
  <path class="cls-2" d="M103.43,143.83c-.94-1.45-2.04-2.82-3.42-3.88-.52-.36-.85-1.06-1.79-.85-.46.13-.54-.9-1.09-1.16-1.46-.68-2.96-1.31-4.54-1.6-1.56-.18-3.13-.06-4.64.17-.38.02-.75.08-1.13.12-.38.05-.77.05-1.14.13-.74.16-1.49.34-2.09.81-.53.36-1.08.55-1.65.73-.59.14-1.13.38-1.61.75-.51.39-.95.88-1.47,1.26-.46.45-.99.81-1.52,1.17-.38.27-.8.52-1.16.82-.34.32-.65.68-.87,1.09-.25.54-.16,1.22-.51,1.72-.26.5-.88.96-.33,1.72.05.06-.17.24-.32.33-.35.19-.58.48-.71.79-.11.31-.08.66.02.95.21.57.06.97.03,1.43l-.11.93c-.03.31-.02.63-.04.94,0,.31-.05.63-.04.94.01.31.01.63,0,.94-.03.47-.04.95-.06,1.43-.03.48-.05.98.05,1.45.14,1.02.86,1.88.87,2.88.03.5.13.98.32,1.4.2.42.45.81.69,1.22.3.43.4,1.17,1.29,1,.08-.01.2.14.21.25.09.9.67,1.44,1.36,1.78.66.4,1.44.58,1.95,1.14,1.14,1.07,2.68,1.66,4.16,2.11.39.13.78.44,1.29-.02.18-.17.58-.06.76.09.98.99,2.3.63,3.46.72.68.05,1.36-.03,2.03-.16.68-.07,1.34-.18,2.1-.06.65.14,1.48-.09,1.85-1,.14-.46.88-.43,1.3-.72.33-.26.47-.77.8-.98.29-.17.73-.11,1.09-.22.11-.03.21-.1.27-.2.13-.24.29-.43.44-.63.15-.21.31-.39.48-.56.17-.17.36-.33.55-.47.18-.16.36-.32.56-.48.39-.31.8-.61,1.12-.99.34-.36.69-.74.88-1.21.87-1.82,1.7-3.64,2.22-5.61.11-.55.28-1.09.6-1.59.27-.51.73-.98,1.48-1.39.68-.37,1.39-.4,1.78.18.29.43.55.94.6,1.45.05.8.08,1.62.07,2.43-.12,1.63.04,3.51-1.07,4.96-.34.43-.25,1.22-1.07,1.27-.11,0-.27.17-.28.28-.12,1.26-.78,2.29-1.55,3.21-.41.44-.85.85-1.28,1.27-.45.4-.92.77-1.34,1.18-.35.37-.73.69-1.08,1.06-.36.36-.69.76-1.09,1.08-.39.34-.79.66-1.22.95-.44.27-.92.47-1.43.62-.34.64-.88,1.02-1.48,1.27-.59.26-1.23.39-1.84.4-2.11.19-4.14.28-6.18.34-2.04-.02-4.11-.19-6.07-.83-3.94-1.31-7.62-3.52-10.31-6.7-.48-.51-1.19-.74-1.41-1.62-.22-.79-.91-1.53-1.39-2.31-.38-.73-.92-1.45-1.04-2.25-.2-1.67-.58-3.19-.85-4.77-.12-.79-.3-1.57-.33-2.37-.07-.8-.12-1.59-.03-2.39.23-3.17,1.14-6.24,2.41-9.15.8-1.74,1.53-3.67,3.05-5.01.59-.59,1-1.5,2.11-1.49.29,0,.56-.91.98-1.27.51-.45,1.08-.82,1.67-1.16l.88-.52.92-.44c1.69-.87,3.53-1.36,5.35-1.84.56-.11,1.12-.29,1.68-.47.56-.19,1.14-.27,1.72-.35.31-.03.61-.07.92-.08l.93.03c.62.05,1.24.05,1.84.2,1.54.3,2.99.9,4.4,1.48.73.31,1.52.51,2.25.85.37.16.73.33,1.08.52.34.2.64.45.92.72,2.02,2,4.24,3.59,5.86,5.86,1.58,2.23,2.74,4.72,3.62,7.31.23.74.31,1.49.24,2.24-.04.75-.07,1.47-.06,2.2.04.72-1.81,1.61-2.47,1.34-.13-.05-.26-.15-.31-.24-.34-.62-.72-1.19-1.09-1.74-.41-.55-.65-1.11-.79-1.75-.32-1.94-1.17-3.76-2.23-5.4Z"/>
  <path class="cls-2" d="M280.09,143.8c-2.61-.05-5.23-.13-7.84-.09-.97.01-1.96-.34-2.98.35-.51.34-1.44-.49-2.34-.46-2.44.07-4.88-.08-7.32-.02-2.37.06-4.74.33-7.11.39-2.35.06-4.78-.33-7.04.08-1.96.35-3.73-.3-5.61-.16-1.99.15-4.05.25-6-.06-1.42-.23-2.83-.51-4.24-.37-.88.09-1.71.49-2.67.46-.89-.03-1.91-.38-2.68.42-.07.07-.47-.08-.67-.19-.96-.53-2.14-.49-2.95-.14-.79.35-1.48.3-2.21.32-2.01.04-4.02.07-6.02-.01-1.5-.06-2.99-.36-4.5-.44-1.57-.08-3.24.28-4.68-.1-1.45-.39-2.84-.37-4.26-.37-.81,0-1.75-.37-2.42.45-.06.08-.36.07-.5,0-2.31-1.06-4.57.33-6.91.07-2.41-.27-4.88-.07-7.32-.04-.65,0-1.35-.23-1.95.36-.21.21-.89.23-1.23.08-1.8-.8-3.71-.31-5.56-.44-2.11-.15-4.22.23-6.35-.4-.9-.26-2.13-.41-3.21.35-.5.35-1.53,0-2.3.08-.64.07-1.25.42-1.88.43-.54.01-1.07-.29-1.62-.43-.16-.04-.36-.04-.52,0-3.08.86-6.15-.28-9.26-.04-3.12.24-6.28.15-9.42.03-1.73-.06-3.51-.3-4.69-1.77-.53-.66-.53-1.37.2-1.79.54-.31,1.16-.6,1.77-.68.99-.14,1.97-.28,2.93-.42,2-.25,3.98-.94,6.05-.58.64.11,1.4-.28,1.93.37.07.09.34.14.46.09,2.75-1.02,5.62-.36,8.43-.44,2.39-.07,4.7-.88,7.11-.54,1.32-.81,2.88-.67,4.22-.43,4.73.85,9.47.27,14.2.38,4.8.11,9.6,0,14.4.04.82,0,1.52-.45,2.48-.1.9.33,2.06.07,3.11.07.96,0,1.97-.17,2.87.03,3.75.85,7.54.34,11.31.44,3.75.1,7.51.18,11.25-.02,2.28-.12,4.55-.56,6.86-.38.98.08,2.02-.36,2.98.4.27.22,1.19-.36,1.82-.39,1.57-.06,3.14,0,4.71,0,2.18,0,4.37.08,6.55,0,1.33-.04,2.65-.35,3.98-.41,1.39-.07,2.8-.06,4.19.03,1.76.11,3.52.39,5.28.49,1.83.1,3.74-.23,5.49.14,3.25.68,6.51.41,9.76.53,3.23.14,6.47.25,9.72.2.93-.01,1.8.16,2.67.34l1.3.26c.45.1.86.09,1.74.31.1.03.21.07.34.14.12.06.24.15.38.26.25.21.49.55.59.88.2.69-.07,1.12-.31,1.37-.54.49-1.21.52-1.51.36-.12-.06-.24-.18-.29-.24-.04-.06-.09-.1-.13-.09.06-.01.33-.12.32-.14.02-.02.03-.03,0,0,0,0-.05.06-.09.13-.02.04-.1.18-.14.3-.02.05-.05.15-.06.18l-.02.03c-.13.13-.54.28-.98.41-.89.26-1.78.45-2.78.38-2.92-.23-5.9-.18-8.85-.26Z"/>
  <path class="cls-2" d="M278.63,196.86c-2.88-.04-5.75-.13-8.63-.09-1.07.01-2.16-.33-3.28.35-.56.34-1.58-.49-2.57-.46-2.68.07-5.37-.08-8.06-.02-2.61.06-5.22.33-7.83.4-2.59.06-5.26-.33-7.75.08-2.16.35-4.11-.3-6.17-.16-2.19.15-4.46.25-6.6-.06-1.56-.23-3.11-.51-4.67-.37-.97.09-1.88.49-2.94.46-.98-.03-2.1-.38-2.95.42-.07.07-.51-.08-.74-.19-1.06-.53-2.36-.49-3.24-.14-.87.35-1.63.3-2.43.32-2.21.04-4.42.07-6.62-.01-1.65-.06-3.29-.36-4.95-.44-1.72-.08-3.56.28-5.15-.1-1.6-.39-3.12-.37-4.69-.37-.89,0-1.93-.37-2.66.45-.07.08-.4.07-.55,0-2.54-1.06-5.03.33-7.6.07-2.65-.27-5.37-.07-8.06-.04-.72,0-1.48-.23-2.14.36-.23.21-.98.23-1.35.08-1.98-.8-4.08-.31-6.11-.44-2.32-.15-4.65.23-6.99-.4-.99-.26-2.34-.41-3.53.35-.55.35-1.68,0-2.54.08-.7.07-1.38.42-2.07.43-.59.01-1.18-.29-1.78-.43-.18-.04-.4-.04-.57,0-3.4.86-6.77-.28-10.19-.04-3.43.24-6.91.15-10.37.03-1.9-.06-3.87-.3-5.16-1.77-.58-.66-.58-1.37.22-1.79.59-.31,1.27-.6,1.95-.68,1.09-.14,2.17-.28,3.23-.42,2.2-.25,4.38-.94,6.66-.58.71.11,1.54-.28,2.13.37.08.09.37.14.51.09,3.03-1.02,6.19-.36,9.27-.44,2.63-.07,5.17-.88,7.83-.54,1.45-.81,3.17-.67,4.65-.43,5.2.85,10.42.27,15.62.38,5.28.11,10.56,0,15.85.04.9,0,1.67-.45,2.73-.1.99.33,2.27.07,3.42.07,1.06,0,2.16-.17,3.16.03,4.13.85,8.3.34,12.45.44,4.13.1,8.27.18,12.39-.02,2.51-.12,5.01-.56,7.54-.38,1.08.08,2.22-.36,3.28.4.3.22,1.31-.36,2.01-.39,1.73-.06,3.46,0,5.19,0,2.4,0,4.81.08,7.2,0,1.46-.04,2.91-.35,4.38-.41,1.53-.07,3.08-.06,4.61.03,1.94.11,3.87.39,5.81.48,2.01.1,4.12-.23,6.04.14,3.58.68,7.16.41,10.73.53,3.55.12,7.12.26,10.69.19,1.02,0,1.99.17,2.94.35.48.09.96.19,1.44.26.48.09.9.1,1.72.25.09.02.2.05.32.1.11.04.24.11.37.2.26.16.56.46.73.8.36.74.12,1.29-.12,1.57-.54.55-1.21.58-1.51.42-.12-.07-.24-.19-.29-.26-.02-.04-.05-.04-.06-.06,0-.03-.1.01,0-.02.14-.06.15-.05.23-.1.03-.02.05-.03.05-.03-.03.03-.01.02-.08.11-.02.03-.04.07-.06.11-.03.05-.07.13-.09.19l-.06.17-.02.03s-.04.03-.07.05c-.24.13-.74.28-1.23.41-.97.26-1.96.45-3.05.37-3.21-.22-6.5-.18-9.74-.26Z"/>
  <path class="cls-2" d="M182.68,164.23c2.02-.09,4.04-.14,6.05-.31.75-.08,1.52.28,2.28-.42.38-.35,1.12.47,1.82.43,1.87-.1,3.76,0,5.63-.09,1.82-.09,3.64-.39,5.46-.48,1.81-.09,3.68.27,5.42-.15,1.51-.37,2.87.26,4.32.1,1.53-.16,3.12-.31,4.61.04,1.09.24,2.17.54,3.25.42.68-.08,1.31-.47,2.05-.43.68.04,1.46.4,2.06-.39.05-.07.36.08.51.2.73.54,1.64.52,2.26.17.61-.34,1.14-.28,1.7-.29,1.54-.02,3.08-.02,4.62.09,1.15.08,2.29.41,3.44.5,1.2.1,2.49-.24,3.59.17,1.11.41,2.17.41,3.26.43.62.01,1.34.4,1.86-.41.05-.08.28-.06.39,0,1.75,1.09,3.51-.27,5.3.03,1.84.31,3.74.15,5.61.15.5,0,1.03.25,1.5-.33.17-.2.69-.22.94-.06,1.37.83,2.84.37,4.25.53,1.62.19,3.24-.17,4.85.47.68.27,1.62.43,2.46-.32.38-.34,1.17.02,1.76-.06.49-.06.96-.4,1.44-.41.41,0,.82.3,1.23.45.12.04.27.05.4,0,2.37-.83,4.7.34,7.08.14,2.39-.21,4.8-.08,7.2.06,1.32.08,2.68.34,3.58,1.81.41.67.41,1.38-.16,1.79-.41.3-.89.59-1.36.66-.76.13-1.52.27-2.25.39-1.53.23-3.06.9-4.65.52-.49-.12-1.08.26-1.48-.39-.06-.09-.26-.14-.36-.1-2.12.99-4.32.3-6.47.35-1.83.04-3.62.83-5.47.46-1.03.8-2.23.64-3.25.39-3.62-.89-7.25-.4-10.87-.57-3.67-.19-7.35-.13-11.02-.25-.63-.02-1.17.43-1.9.06-.68-.35-1.58-.1-2.38-.11-.73-.01-1.51.15-2.2-.07-2.86-.9-5.77-.44-8.65-.59-2.87-.14-5.75-.28-8.61-.12-1.75.1-3.49.51-5.25.31-.75-.08-1.55.32-2.28-.42-.21-.21-.91.37-1.39.4-1.2.07-2.4.04-3.6.05-1.66.01-3.33-.03-4.99.06-1.01.05-2.01.38-3.03.46-1.06.09-2.13.09-3.19.02-1.35-.09-2.69-.35-4.04-.42-1.4-.07-2.84.29-4.19-.05-2.51-.68-4.96-.17-7.43-.15-2.46.04-4.93.1-7.36.37-1.43.19-2.77-.36-4.16-.26-.66.05-1.53-1.78-1.26-2.45.05-.13.15-.26.26-.32,1.32-.69,2.49-1.71,3.98-1.76,2.23-.05,4.55-.2,6.83-.31Z"/>
  <g>
    <g>
      <path class="cls-1" d="M81.12,168.45c2.23,1.5,4.96,2.29,7.85,2.29s6.18-.78,8.93-2.37c1.07-.62,4.2-3.61,4.2-3.61.46-3.05-3.81-7.25-8.27-9.04-2.34,1.82-6.08,1.76-8.29-.08-2.28,1.04-8.9,3.85-9.6,7.2.58,1.71,5.19,5.61,5.19,5.61Z"/>
      <path class="cls-2" d="M74.7,165.44c-.63-.77-.94-1.6-1.32-2.45.21-.74.45-1.47.73-2.18.16-.28.4-.53.57-.81.18-.28.33-.56.28-1.04-.02-.24.24-.39.57-.49.17-.05.34-.09.5-.15.14-.03.24-.07.32-.15.84-.84,1.83-1.37,2.71-2,.85-.61,1.63-1.34,2.5-1.87.22-.13.45-.23.68-.32l.93-.36c.8-.33,1.55-.68,2.33-1.26.15-.11.29-.2.43-.27.54.31,1.09.84,1.55,1.28.19.17.38.34.58.49.08.06.16.09.26.1.49,0,.94-.04,1.42.26.35.23.79.44,1.12.22.21-.14.26-.6.46-.64.01,0,.21-.05.36-.11.16-.07.31-.15.46-.26.29-.21.54-.52.73-1.15.03-.11.33-.13.47-.1.04,0,.07.02.11.02.66.74,1.32.99,1.92.88.62-.09,1.13.19,1.65.42l.74.38c.22.11.42.23.62.36.41.25.8.53,1.16.85.55.47.91,1.16,1.39,1.69.49.55,1.33.89,1.51,1.69.16.8.57,1.33.96,1.96.06.1.08.19.13.33.05.15.11.29.18.42.14.26.32.46.8.58.09.02.15.24.13.35-.08.37-.15.7-.13,1.02,0,.16.04.31.07.47,0,.16.03.31.06.47.13.62.32,1.38.32,2.05-.18.22-.4.44-.67.62-.39.28-.74.56-1.08.85l-.5.44-.33.31c-.37.36-.72.74-1.11,1.1-.21.19-.6.2-.45.84.06.22-.21.46-.43.44-.17,0-.32,0-.46.03-.15.03-.34.09-.5.15-.25.06-.43.14-.63.25-.39.21-.75.49-1.17.61-.95.26-1.78.97-2.9.64-.47-.14-1.02-.14-1.35.69-.16.39-.7.14-1.04.28-.28.11-.52.5-.82.54-.25.04-.54-.23-.8-.36-.08-.04-.17-.03-.24.02-.69.48-1.45.42-2.19.25-.74-.18-1.45-.48-2.2-.48-1.52-.01-3.03-.55-4.37-1.31-.74-.41-1.42-1.08-1.05-2.6.17-.68.58-1.26,1.05-1.46.34-.14.68-.28.91-.24.37.07.76.07,1.12.1.76.06,1.57-.37,2.14.15.19.16.51-.16.56.51,0,.09.09.16.14.12,1.1-.83,1.94-.11,2.96-.22.85-.1,1.53-.99,2.38-.8.28-.88.78-.86,1.28-.75.87.19,1.68-.04,2.38-.41.18-.09.35-.19.52-.3l.25-.16.12-.08h0s0,0,0,0h0s0,0,0,0c-.26-.45.36.62.29.5l-.13-.23-.13-.23c-.06-.1-.01-.03-.03-.05h.01c.12-.12.5-.44.83-.68.45-.33.91-.71,1.35-1.11l.23-.21.12-.12c.07-.1.01-.25,0-.37-.02-.07-.48.03-.15-.11.16-.03.09-.25-.01-.34-.11-.11-.24-.21-.33-.33-.18-.23-.49-.36-.54-.7-.19-1.49-1.63-2.02-2.66-2.77-.98-.66-1.06-.8-1.44-.82-.12.11-.22.21-.33.32-.97.59-2.25,1.34-3.53,1.2-.53-.05-1.17.35-1.61-.48-.11-.22-.69.26-1.06.2-.44-.08-.87-.2-1.3-.38l-.29-.12-.12-.06c-.09-.05-.17-.09-.17-.09-.04-.02-.08-.05-.11-.09-.09-.01-.22.06-.29.15.02,0-.17.12-.24.2-.1.09-.19.18-.28.28-.18.19-.36.39-.57.54-.42.31-.88.54-1.35.72-.59.23-1.27.32-1.81.6-.28.15-.5.38-.69.59-.2.19-.47.46-.58.31-.54-.18-.79.24-.77.51.05.09.1.17.14.25.04.09.09.18.14.27l.09.13s.06.08.18.21c.4.43.85.85,1.36,1.22.57.41.61,1.33,1.14,1.79.24.21-.66,1.93-1.17,2.34-.1.08-.23.14-.3.14-.93-.02-2.06.22-2.64-.4-.43-.46-.87-.9-1.33-1.36l-.71-.73c-.33-.37-.68-.75-.98-1.15Z"/>
    </g>
    <path class="cls-2" d="M82.19,147.18c.17-.4.45-.76.67-1.14.27-.35.54-.71.83-1.05.24-.26.68-.22.53-.99-.05-.38.7.09.93-.1.66-.53,1.48-.72,2.23-1.02.37-.13.74-.28,1.12-.44.38-.12.77-.24,1.17-.29.39-.03.78.08,1.16.14.38.08.74.15,1.14.02.71-.19,1.08.58,1.65.65.31.04.63.1.92.22.3.13.58.34.79.65.31.45.51.95.97,1.16.28.13.8.06,1.02.37.22.29.15.78,1,.61.07-.02.04.21-.01.34-.24.61-.04.97.42,1.15.44.18.5.49.58.79.25.85.32,1.55.24,2.29-.07.55-.43,1.05-.6,1.53-.17.5.01,1.17-.53,1.51-.53.32-.7.72-.93,1.13-.14.24-.6.28-.05.92.05.06-.02.14-.1.14-.66.01-.82.33-.95.75-.12.41-.24.9-.67,1.06-.21.08-.4.19-.59.3-.19.1-.37.21-.55.32-.36.25-.71.48-1.1.64-.21.09-.5-.03-.51.58,0,.22-.24.31-.39.2-.81-.59-1.29-.03-1.94-.08-.69-.11-1.42.28-2.05-.43-.26-.28-.58-.5-1.08.17-.24.3-.5-.1-.77-.12-.22,0-.54.26-.76.19-.19-.05-.25-.41-.36-.62-.03-.06-.09-.1-.16-.08-.68.17-1.16-.21-1.53-.67-.39-.44-.63-1.02-1.11-1.35-.94-.74-1.52-1.94-1.68-3.09-.14-.63.08-1.35,1.49-1.78.64-.19,1.35-.19,1.79-.07.32.09.63.17.72.27.13.16.33.29.51.39.18.11.4.18.62.22.21.04.32.09.22.3-.04.13.32-.04-.15.41-.07.06-.08.13-.03.11.49-.15.7-.16.79,0,.13.12.2.37.4.43.37.12.92-.54,1.13-.12.37-.76.47-.56.64-.32.27.47.66.53.99.46.35-.06.64-.26.95-.32.66-.14,1.04-.55,1.45-1.02.07-.09-.26-.41.1-.32.35.07.2-.21.26-.33.06-.12-.06-.3.17-.35.49-.11.64-.4.66-.68.02-.29-.08-.56-.06-.84.05-.51-.03-.88-.47-1.09-.28-.12-.74.07-.88-.23-.08-.14-.39.19-.18-.55.06-.22-.35.25-.45.23-.27-.05-.49-.19-.73-.25-.33-.12-.66-.21-.98-.18-.2.05-.4.31-.55.42-.17.09-.33.09-.49.06-.22-.08-.47-.25-.72-.27-.24.04-.25.42-.6.25-.72-.28-.86.3-1.1.64-.17.15-.25.39-.37.59-.05.25-.14.47-.07.75.03.15-.13.27-.3.4-.15.14-.31.29-.31.46,0,.13-1.9.45-2.54.4-.12-.01-.25-.04-.3-.08-.58-.43-1.56-.96-1.38-1.61.1-.46.19-.92.33-1.38.1-.47.29-.93.49-1.38Z"/>
  </g>
</svg>