<?xml version="1.0" encoding="UTF-8"?>
<svg id="Content" xmlns="http://www.w3.org/2000/svg" viewBox="0 0 500 500">
  <defs>
    <style>
      .cls-1 {
        fill: #101066;
        stroke-width: 0px;
      }
    </style>
  </defs>
  <g>
    <g>
      <path class="cls-1" d="M311.77,146.85c-14.95,1.83-29.84,4.3-44.56,7.45-5.47,1.23-11.14,2.09-16.66,4.15-1.37.51-3.42.87-5.76,1.27-2.33.43-4.96.88-7.47,1.53-13.63,3.59-27.31,7.2-40.95,10.79-13.28,3.54-26.52,7.14-40.01,10.05-13.37,2.89-27.38,4.86-40.49,6.62-2.85.34-5.63.61-8.38.84-1.37.14-2.74.19-4.1.23-1.36.04-2.71.09-4.06.13-1.35.04-2.69.08-4.03.12-1.35.03-2.58.03-3.73.15-1.15.11-2.17.35-2.97.72-.79.38-1.34.87-1.73,1.57-.86,1.45-.89,4.01-.58,6.73.32,2.88.65,5.78.97,8.66.62,5.79,1.19,11.57,1.63,17.19.65,8.2,1.23,16.32,2.23,24.43.63,5.06,1.54,9.76,2.09,15.29.52,5.13.79,11,2.07,15.38.11.37.21,2.69.22,3.86.07,5.6.82,12.37,1.67,16.97.83,4.48,1.21,8.47,1.67,12.67l.95,8.63c.3,2.75.8,5.26,1.84,6.86.52.8,1.1,1.37,1.94,1.85.82.48,1.89.84,3.1,1.11,2.39.53,5.43.72,8.22,1.04,4.25.53,8.51.75,12.77,1.12l6.41.27c1.07.04,2.14.1,3.21.11h3.22c2.24-.04,4.51-.02,6.8-.16,2.28-.13,4.57-.26,6.84-.39,2.27-.17,4.51-.34,6.71-.51,2.2-.15,4.35-.29,6.41-.43,8.33-.41,16.22-1.64,24.29-2.93,2.29-.4,4.79-.75,7.17-1.17,2.38-.42,4.63-1.01,6.42-1.76.34-.14,2.05-.46,2.85-.55,13.23-1.55,25.67-5.9,38.83-8.83,13.57-3.02,27.38-6.71,41.15-9.99,3.67-.89,7.66-1.54,10.91-2.9,1.15-.47,5.02-1.34,6.93-1.61,10.4-1.42,21.15-4.03,31.81-5.58,12.14-1.76,24.38-3.56,36.82-3.59,2.63.04,5.73-.07,8.96-.13,1.62-.03,3.27-.09,4.91-.2,1.64-.12,3.27-.26,4.85-.39,1.45-.14,3.69-.08,6.13.01,2.46.11,4.92.32,6.83.06,1.56-.2,2.9-.68,3.88-1.38.98-.73,1.71-1.62,2.28-2.74.99-1.9,1.61-4.59,1.65-7.48.02-.85-.06-1.93-.19-2.79-.32-2.06-.76-4.29-1.11-6.48-.37-2.2-.71-4.4-1.03-6.6-.65-4.41-1.22-8.82-1.78-13.24-1.11-8.84-2.15-17.7-3.53-26.57-.68-4.46-1.36-8.93-2.04-13.42-.33-2.24-.66-4.49-.98-6.73l-.24-1.69c-.08-.57-.16-1.21-.22-1.79-.12-1.19-.22-2.36-.29-3.51-.54-9.21-.66-18.22-1.49-27.12-.92-9.8-2.4-19.68-5.11-25.42-.29-.67-.56-1.15-.69-1.51-.13-.36-.13-.6.02-.67.27-.12,1.37.33,2.8,2.06,2.09,2.53,3.64,5.99,4.64,9.49,1.57,5.63,2.46,11.36,3.11,16.91.65,5.79,1.16,11.56,1.58,17.36.2,2.88.4,5.77.6,8.69.11,1.44.22,2.88.38,4.26.18,1.47.36,2.94.53,4.42.41,3.7,1.42,7.97,1.2,11.11-.03.43.14,1.96.29,2.67,3.26,15.62,4.94,32.12,7.31,48.17.26,1.71.52,3.41.78,5.1.27,1.67.56,3.45.73,5.23.18,1.79.27,3.62.15,5.51-.12,1.89-.44,3.85-1.21,5.79-.76,1.93-2.05,3.83-3.78,5.22-1.72,1.44-3.84,2.26-5.83,2.67-4.04.8-7.63.27-11,.19-1.9.16-3.87.25-5.89.3-2.02.07-4.08.18-6.14.21-4.12.01-8.26.21-12.09.23-13.51.34-27.03,2.01-40.43,4.31-13.41,2.31-26.72,5.28-40.01,8.31-26.96,6.16-53.77,13.54-81.08,19.08-2.32.5-4.47,1-6.73,1.51-2.26.51-4.62,1-7.39,1.29-5.19.6-11.83,1.95-17.88,2.76-5.53.78-11.35,1.58-16.62,1.87-10.92.58-21.91.88-32.93.58-2.75,0-5.5-.22-8.26-.36-1.38-.08-2.75-.13-4.13-.25l-4.12-.39c-2.76-.29-5.42-.41-8.39-1.03-1.47-.32-3-.78-4.48-1.58-1.47-.78-2.87-1.97-3.85-3.38-1-1.39-1.61-2.91-2.05-4.39-.42-1.48-.67-2.94-.84-4.34-.18-1.42-.3-2.75-.44-4.1l-.42-4.05-1.69-16.19c-1.14-10.79-2.32-21.57-3.56-32.3-1.52-13.1-3.35-26.11-4.58-39.35-.53-5.64-1.59-11.54-1.43-17.19.05-1.6-1.09-6.8-1.5-10.43-.24-2.32-.5-4.86.11-7.7.31-1.41.93-2.9,1.93-4.19,1-1.28,2.37-2.3,3.76-2.89,2.8-1.21,5.43-1.27,7.75-1.36l6.75-.31c12.46-.64,24.91-2.08,37.23-4.23,3.75-.72,7.47-1.44,11.18-2.27,3.7-.85,7.41-1.71,11.13-2.56,7.79-1.81,15.65-3.68,23.44-5.58,9.88-2.38,19.74-4.75,29.62-7.28,10.23-2.65,20.83-5.77,30.75-7.85,4.62-.97,9.24-1.94,13.85-2.91l6.92-1.47,6.93-1.4c9.25-1.83,18.53-3.49,27.86-4.81,18.55-2.62,37.28-4.31,55.95-5.25,2.65-.12,5.25-.19,7.81-.22,2.56,0,5.09,0,7.61.04,2.53.05,5.04.11,7.58.16,2.56.07,5.19.2,7.9.63,1.26.2,2.62.61,3.85,1.2,1.23.59,2.31,1.35,3.1,2.08.79.71,1.25,1.51,1.41,1.94.16.45,0,.63-.46.49-.38-.1-.97-.46-1.67-.76-2.17-1.01-4.49-1.5-6.84-1.69-2.36-.19-4.76-.12-7.24.02-5,.3-10.21.59-15.99.71-17.05.4-34.11,1.79-51.05,3.88Z"/>
      <path class="cls-1" d="M251.54,178.47c5.52.56,10.94,2.31,15.81,5.01.89.52,1.75,1.13,2.65,1.68.86.61,1.75,1.18,2.83,1.56.27.09.54.28.82.53.26.26.52.59.79.95.55.7,1.13,1.5,1.84,2.13,3.73,3.55,6.68,7.8,9.24,12.17,2.49,4.26,4.69,8.68,6.29,13.34,1.55,4.64,2.26,9.62,3.35,14.18.45,1.99.63,3.92.66,5.83.09,1.91,0,3.79.14,5.73.2,4.1.16,8.41-.7,12.38-.25,1.45-.65,2.87-.99,4.3-.3,1.43-.7,2.83-.96,4.28-.09.45-.14.9-.21,1.35-.08.45-.15.89-.23,1.34-.16.9-.33,1.83-.65,2.79-.7,1.76-1.7,3.62-1.71,5.43,0,.16-.49.87-.76,1.21-.63.83-1.37,1.74-1.89,2.7-.28.47-.5.96-.74,1.41-.25.45-.46.89-.63,1.3-.33.79-.71,1.53-1.14,2.16-.44.63-.9,1.23-1.39,1.83-2.64,3.32-5.69,6.41-9.21,8.95-2.65,1.89-5.62,3.29-8.67,4.47-1.6.63-3.22,1.21-4.84,1.71-.82.22-1.64.45-2.45.61-.82.13-1.62.24-2.4.28-3.14.09-6.11.21-9.17-.09-.87-.1-1.79-.32-2.68-.46-.88-.19-1.76-.22-2.56-.03-.15.04-.79-.15-1.06-.3-2.25-1.23-4.51-2.1-6.78-3.14-2.25-1.03-4.47-2.25-6.32-3.96-3.8-3.5-7.28-7.43-10.09-11.73-.36-.58-.69-1.2-1.07-1.78-.36-.59-.77-1.13-1.34-1.53-.41-.28-1.09-1.55-1.29-2.23-1-3.71-2.95-7.14-4.07-10.82-1.27-4.16-2.73-8.33-2.94-12.75-.1-1.87-.34-4.35-1.36-6.46-.23-.49-.32-1.27-.38-2.13-.04-.86-.06-1.79-.17-2.59-.14-1.3-.59-2.55-.63-3.85-.06-1.11.24-2.23.37-3.35.04-.33.04-.74,0-1.07-.4-3.19-.13-6.4.39-9.55.52-3.16,1.3-6.27,1.95-9.44,1.32-6.36,3.83-12.67,7.64-18.19,2.08-3.04,4.91-5.81,7.72-6.33,1.25-.25,1.68.32.91,1.6-.28.46-.59.96-.9,1.47-.31.51-.68.98-1.02,1.47-1.19,1.49-2.14,3.15-3.07,4.74-1.86,3.39-2.87,7.06-4.51,10.69-.54,1.13-.57,2.63-1.48,3.44-.12.11-.31.6-.33.85-.39,5.39-1.83,10.75-1.99,16.26-.16,4.67.82,9.12.95,13.8,1.06,2.47,1.37,5.43,1.64,8.02.93,9.15,4.56,17.86,9.15,25.57,2.34,3.93,5.18,7.54,8.5,10.53,3.33,2.97,7.13,5.37,11.28,6.74.7.25,1.41.3,2.11.44.72.08,1.44.24,2.27.54,1.56.62,3.73.47,5.63.42.88-.06,1.78-.12,2.66-.28.44-.07.88-.12,1.31-.17.43-.07.86-.12,1.28-.15,1.75-.11,3.49-.49,5.21-.97,1.68-.5,3.3-1.19,4.85-2.04,3.11-1.69,5.9-3.96,8.49-6.42,1.29-1.23,2.53-2.53,3.69-3.91.58-.69,1.14-1.39,1.69-2.11.52-.72,1-1.46,1.5-2.19,1.88-3,3.47-6.23,4.52-9.67,1.33-4.18,1.86-8.53,2.65-12.89.15-.93.17-1.91.28-2.87.11-.96.22-1.92.67-2.83.13-.26.07-.84,0-1.51-.09-.67-.25-1.42-.24-2.03v-2.28s-.07-2.28-.07-2.28c-.02-1.52-.13-3.04-.26-4.55-.38-4.2-.95-8.41-2.05-12.48-.29-1.25-.74-2.45-1.19-3.64l-.66-1.79c-.25-.59-.49-1.17-.72-1.77l-.7-1.87-.78-1.84-.75-1.85-.83-1.81c-1.32-3.09-2.88-6.04-4.72-8.84-1.06-1.36-2.12-2.79-3.37-3.98-.61-.61-1.17-1.28-1.78-1.86-.62-.58-1.2-1.17-1.75-1.79-.49-.6-1.08-1.07-1.66-1.58-.58-.49-1.15-1.01-1.76-1.46l-1.92-1.24-.97-.61c-.34-.18-.68-.33-1.03-.5l-2.06-.97c-.69-.31-1.43-.51-2.15-.77-.73-.22-1.42-.55-2.17-.69l-2.22-.53c-.37-.09-.73-.19-1.1-.26l-1.13-.15-2.26-.3c-1.52-.14-3.05-.1-4.58-.16-1.53.12-3.07.24-4.59.4-1.49.22-2.96.54-4.39.99-3.2,1.01-6.3,1.77-9.1,3.71-.64.45-1.66.63-2.52.63-.86,0-1.59-.22-1.53-.69.02-.18.15-.46.34-.68,2.38-2.73,4.95-5.38,9.05-6.86,3.01-1.03,6.17-1.74,9.28-1.94,1.56-.1,3.1-.34,4.67-.25,1.57.05,3.14-.03,4.7.23Z"/>
      <path class="cls-1" d="M88.8,222.31c.81-.09,1.64-.1,2.44-.37.29-.1.69.2.82-.58.06-.38.56.33.83.21.36-.14.73-.26,1.1-.4.37-.14.75-.25,1.09-.45.66-.4,1.23-.96,1.83-1.43.62-.41,1.47-.55,1.84-1.29.3-.65,1.12-.49,1.52-.98.38-.56.82-1.04,1.48-1.26.48-.16,1.01-.29,1.24-.72.13-.28,0-.76.23-.97.21-.19.7-.22.24-.92-.04-.06.15-.07.28-.05.6.09.81-.24.69-.66-.12-.41.05-.55.16-.76.31-.56.67-1.07,1.06-1.6.3-.39.83-.64,1.12-1.05.31-.43.27-1.06.81-1.33.56-.27.75-.7.95-1.13.11-.25.57-.4-.09-.93-.06-.05-.01-.14.06-.16,1.3-.31.25-1.56.78-2.19.51-.68.62-1.54.81-2.34.06-.21.35-.38-.15-.73-.18-.13-.13-.35.04-.42.93-.38.64-1.14.92-1.72.32-.67.13-1.46.89-2.05.32-.25.56-.64-.11-1.16-.31-.24.1-.52.07-.8-.02-.23-.32-.5-.29-.72.03-.18.36-.31.53-.48.05-.05.07-.12.03-.18-.65-1.2.64-2.08.58-3.2-.07-1.12.18-2.21.44-3.3.14-.6.46-1.2,1.97-1.43.68-.1,1.38-.02,1.77.3.28.23.54.49.59.72.08.37.21.74.28,1.1.15.75.73,1.55.26,2.25-.15.22.2.54-.48.64-.09.01-.16.1-.12.15.86,1.14.04,2.08-.06,3.1-.08.87.56,1.86.04,2.67.71.64.44,1.19.1,1.62-1.21,1.53-1.07,3.38-1.7,5.07-.62,1.7-1.12,3.46-1.86,5.13-.13.28.19.71-.28.91-.43.18-.39.69-.56,1.06-.16.33-.17.76-.5.98-1.41.89-1.66,2.38-2.55,3.55-.89,1.17-1.82,2.28-2.63,3.49-.48.76-.79,1.7-1.56,2.21-.32.22-.33.82-1.13.5-.22-.09-.11.58-.28.76-.41.47-.95.8-1.44,1.18-.67.54-1.45.94-2.12,1.49-.42.32-.73.84-1.16,1.18-.44.36-.97.6-1.52.77-.68.24-1.45.26-2.15.43-.7.21-1.35.76-2.13.62-.71-.11-1.37-.08-2.01.04-.63.14-1.28.26-1.94.3-.65.06-1.3.02-1.96.03-.65.03-1.3,0-1.97.01-.77.05-1.33-.73-2.02-.85-.35-.06-.32-1.98-.04-2.59.05-.12.13-.23.18-.27.73-.48,1.36-1.27,1.96-1.15.45.08.91.14,1.37.15l1.39-.05Z"/>
      <path class="cls-1" d="M393.59,173.29c-.85-.09-1.7-.25-2.57-.3-.33-.02-.6-.4-1.04.23-.22.31-.4-.55-.7-.56-.82-.04-1.6-.32-2.42-.41-.8-.09-1.65,0-2.46-.14-.81-.15-1.49-.74-2.37-.62-.78.13-1.13-.73-1.8-.82-.7-.14-1.44-.32-1.92-.92-.35-.43-.66-.89-1.15-1.03-.31-.08-.78.13-1.06-.08-.31-.25-.44-.78-1.2-.35-.07.04-.12-.19-.12-.33-.03-.66-.34-.94-.82-.92-.47.03-.64-.21-.86-.41-.59-.56-1.04-1.15-1.46-1.8-.27-.49-.3-1.12-.54-1.61-.25-.51-.84-.85-.75-1.48.1-.64-.17-1.04-.37-1.48-.12-.25.08-.7-.76-.56-.08.01-.11-.09-.08-.16.61-1.15-.94-1.3-1-2.16-.08-.86-.5-1.59-.81-2.38-.08-.21.06-.5-.55-.52-.22,0-.31-.23-.2-.38.6-.83-.06-1.31-.09-1.96-.02-.74-.55-1.37-.1-2.21.2-.36.27-.79-.53-1.02-.37-.11-.09-.52-.22-.77-.11-.2-.48-.37-.51-.59-.03-.19.25-.42.37-.62.04-.06.03-.13-.02-.18-1-.99.11-2.21-.16-3.29-.1-.58-.11-1.17-.07-1.75.07-.6.23-1.22.38-1.81.19-.66.71-1.39,2.19-1.27.67.05,1.32.34,1.66.7.24.26.47.52.5.7.05.3.11.56.21.86.18.62.73,1.15.38,1.71-.12.18.26.4-.4.53-.09.02-.14.09-.1.13.47.39.62.8.59,1.2,0,.41-.16.83-.06,1.24.16.71,1,1.25.81,2.01.87.25.8.7.64,1.14-.26.76-.17,1.48.03,2.16.23.67.52,1.32.68,2.01.35,1.4.96,2.7,1.51,4.01.1.22.6.21.4.62-.18.38.19.59.34.85.14.24.43.41.38.74-.12.7.12,1.2.42,1.65.29.47.7.82.99,1.25.55.89,1.26,1.62,2.04,1.93.59.22,1.39.17,1.89.6.22.19.66-.06.6.73-.02.23.47-.19.64-.14.43.13.85.32,1.27.49.6.22,1.18.49,1.82.59.39.06.84-.12,1.24-.1.42.02.81.14,1.2.29.49.21.94.59,1.46.76.53.19,1.16-.07,1.63.37.88.81,1.94.61,2.93.81.99.19,2,.36,3.03.29.58-.04,1.05.66,1.62.7.26.02.46,1.94.29,2.57-.03.12-.09.25-.14.29-.61.54-1.21,1.43-1.85,1.3-.95-.18-1.91-.21-2.88-.32Z"/>
      <path class="cls-1" d="M385.27,292.88c.13-.77.31-1.53.38-2.31.03-.29.41-.52-.21-.95-.31-.22.55-.34.57-.61.05-.74.33-1.44.42-2.17.1-.72-.02-1.49.1-2.22.11-.72.68-1.33.5-2.13-.17-.7.64-1.02.68-1.62.05-.64.2-1.29.7-1.75.38-.33.81-.62.86-1.08.03-.29-.22-.69-.07-.96.15-.25.6-.38-.01-.97-.05-.05.14-.1.27-.11.61-.03.76-.37.57-.77-.18-.39-.04-.57.07-.78.31-.58.59-1.17,1.05-1.68.34-.38.85-.63,1.23-.97.38-.35.43-1.03,1.04-1.14.61-.1.89-.44,1.2-.78.18-.19.66-.13.24-.87-.04-.07.04-.13.12-.12,1.25.23.87-1.26,1.64-1.57.79-.28,1.31-.94,1.97-1.4.18-.13.5-.05.35-.66-.05-.21.13-.36.3-.29.93.38,1.24-.34,1.85-.52.71-.15,1.2-.83,2.1-.49.38.14.79.14.89-.7.05-.39.5-.15.73-.3.19-.12.3-.51.51-.58.18-.05.43.18.65.29.06.03.13.02.18-.03.44-.51.99-.57,1.55-.48.56.1,1.11.26,1.64.12.54-.12,1.1-.16,1.66-.13.56.06,1.11.18,1.65.3.59.18,1.18.56,1.17,2.06,0,.68-.21,1.36-.51,1.72-.22.27-.45.52-.63.56-.28.07-.56.18-.82.26-.56.21-1.07.79-1.55.44-.16-.11-.34.27-.48-.38-.02-.09-.09-.14-.12-.09-.34.49-.66.65-1.01.64-.35-.01-.72-.09-1.06.01-.6.15-.92,1.11-1.58.93-.06.87-.43.87-.82.75-1.4-.35-2.27.72-3.29,1.29-1.09.57-1.99,1.44-2.9,2.26-.16.14.04.59-.39.51-.41-.08-.41.34-.59.54-.16.19-.21.49-.52.53-1.27.23-1.47,1.34-2.06,2.14-.6.81-1.18,1.67-1.42,2.68-.16.61.01,1.35-.39,1.85-.18.22.14.64-.66.61-.23,0,.23.43.19.6-.09.42-.26.82-.4,1.22-.19.56-.41,1.13-.51,1.72-.05.37.16.8.13,1.17-.02.39-.11.77-.28,1.12-.21.45-.58.87-.76,1.34-.19.48.05,1.09-.39,1.5-.82.78-.66,1.76-.89,2.67-.23.9-.43,1.82-.41,2.77,0,.54-.7.92-.77,1.44-.03.24-1.95.29-2.58.09-.12-.04-.24-.1-.28-.14-.51-.6-1.37-1.2-1.22-1.78.22-.85.29-1.73.43-2.6Z"/>
      <path class="cls-1" d="M123.12,329.37c-.17-.7-.31-1.41-.61-2.07-.11-.25.13-.61-.61-.66-.37-.02.33-.52.23-.75-.31-.6-.44-1.26-.75-1.86-.29-.59-.83-1.05-1.16-1.6-.35-.53-.24-1.32-.92-1.65-.57-.29-.23-1-.6-1.37-.38-.4-.78-.78-.8-1.38-.02-.43,0-.91-.32-1.15-.2-.15-.65-.09-.79-.3-.12-.2-.01-.62-.77-.29-.06.03-.01-.14.04-.25.26-.52.03-.75-.37-.69-.4.06-.47-.11-.6-.24-.39-.34-.76-.69-1.06-1.11-.23-.31-.25-.84-.5-1.14-.26-.32-.82-.32-.85-.86-.04-.54-.32-.78-.61-1.01-.17-.12-.16-.56-.78,0-.06.05-.12,0-.11-.07.11-1.21-1.16-.4-1.5-.95-.41-.52-1.07-.66-1.63-.93-.15-.07-.21-.37-.59.09-.14.16-.29.1-.31-.06-.1-.9-.76-.64-1.14-.94-.46-.34-1.06-.23-1.42-.95-.15-.31-.43-.54-.91.11-.22.3-.38-.11-.6-.08-.18.02-.41.31-.57.28-.13-.03-.2-.36-.3-.54-.03-.05-.08-.06-.13-.02-.96.71-1.54-.54-2.4-.44-.83.07-1.67.01-2.49-.18-.46-.09-.91-.36-1.22-1.85-.14-.67-.14-1.38.08-1.79.16-.3.35-.58.54-.65.3-.11.6-.27.9-.37.61-.22,1.28-.86,1.89-.46.18.12.46-.25.55.44.01.09.09.15.13.11.97-.88,1.77-.07,2.63,0,.74.02,1.63-.51,2.29.02.62-.67,1.08-.39,1.42-.05.61.58,1.26,1,1.97,1.23.7.28,1.48.39,2.11.83.65.41,1.33.78,2.01,1.14.67.37,1.29.83,1.92,1.28.21.15.67-.09.71.37.04.42.48.45.74.67.23.2.59.28.68.62.17.72.58,1.14,1,1.55.41.42.9.77,1.27,1.23.78.89,1.36,1.9,2.27,2.68.56.47,1.27.84,1.54,1.54.11.29.66.34.17.99-.14.18.52.11.63.28.29.39.49.85.72,1.27.32.6.62,1.21.95,1.8.21.35.67.59.91.94.25.36.45.76.53,1.19.11.55.05,1.15.17,1.69.12.55.67.98.49,1.61-.34,1.15.32,1.97.47,2.95.15.97.39,1.91.72,2.83.2.52-.33,1.14-.22,1.66.05.25-1.74.9-2.4.92-.12,0-.26-.01-.31-.04-.69-.38-1.69-.64-1.74-1.19-.05-.83-.33-1.61-.54-2.4Z"/>
      <path class="cls-1" d="M161.76,243.23c1.04.25,2.07.64,3.15,1.06.41.15.62.66,1.37.3.39-.15.32.75.66.97.97.61,1.7,1.49,2.43,2.44.7.91,1.43,1.87,1.8,2.98.37,1.12.09,2.29.45,3.37.3.99-.48,1.75-.57,2.62-.11.95-.41,1.96-1.15,2.63-.54.49-1.15.84-1.47,1.44-.21.35-.18.94-.56,1.23-.35.28-.91.29-.75,1.16.01.07-.23.07-.37.04-.69-.18-1.1.13-1.28.61-.17.49-.5.6-.82.75-.87.42-1.8.74-2.75.84-.72.08-1.45-.15-2.13-.2-.71-.05-1.52.28-2.14-.19-.61-.47-1.2-.57-1.82-.74-.36-.1-.62-.57-1.19.07-.05.06-.18,0-.22-.08-.29-.7-.77-.82-1.31-.92-.54-.08-1.15-.15-1.52-.57-.73-.86-1.67-1.48-2.42-2.35-.21-.22-.19-.63-.84-.51-.23.04-.44-.22-.4-.44.21-1.14-.6-1.68-.81-2.57-.21-.96-.81-1.93-.29-3.02.21-.45.35-.98-.38-1.55-.33-.27.07-.76.05-1.14,0-.31-.28-.69-.22-1.01.07-.27.44-.44.65-.65.06-.06.09-.15.08-.24-.14-.85.26-1.56.78-2.12.51-.58,1.14-1.02,1.55-1.65.83-1.28,2.23-2.2,3.75-2.69.82-.29,1.87-.26,2.57,1.12.31.62.35,1.33.18,1.79-.13.34-.25.64-.39.76-.24.19-.44.44-.63.66-.41.46-.43,1.25-1.03,1.3-.21.01-.07.44-.63.06-.08-.05-.17-.03-.16.02.11.63-.03.94-.27,1.23-.22.29-.53.54-.65.9-.21.64.46,1.35.06,1.81.78.36.64.57.43.91-.37.56-.29,1.18-.04,1.71.26.54.65,1,.99,1.51.69,1.06,1.81,1.78,2.91,2.31.2.08.51-.28.62.12.12.39.49.22.75.27.25.05.52-.08.74.14.45.48,1.01.55,1.54.5.53-.07,1.03-.27,1.54-.37,1.01-.21,2.02-.65,2.61-1.47.38-.51.36-1.17.77-1.53.18-.18-.09-.56.69-.47.23.02-.21-.42-.19-.57.07-.38.2-.74.26-1.13.08-.53.15-1.08.02-1.59-.09-.32-.46-.54-.61-.78-.17-.25-.27-.5-.32-.78-.09-.34-.04-.78-.29-1.14-.24-.37-.79-.38-.95-.9-.36-1.01-1.42-1.12-2.33-1.45-.93-.34-1.97-.58-3.05-.55-.61.02-1.12-.68-1.75-.72-.29-.02-.56-1.93-.39-2.57.03-.12.09-.25.14-.29.68-.55,1.35-1.43,2.12-1.29,1.12.22,2.28.32,3.46.6Z"/>
      <path class="cls-1" d="M343.85,211.67c1.04.25,2.07.64,3.15,1.06.41.15.62.66,1.37.3.39-.15.32.75.66.97.97.61,1.7,1.49,2.43,2.44.7.91,1.43,1.87,1.8,2.98.37,1.12.09,2.29.45,3.37.3.99-.48,1.75-.57,2.62-.11.95-.41,1.96-1.15,2.63-.54.49-1.15.84-1.47,1.44-.21.35-.18.94-.56,1.23-.35.28-.91.29-.75,1.16.01.07-.23.07-.37.04-.69-.18-1.1.13-1.28.61-.17.49-.5.6-.82.75-.87.42-1.8.74-2.75.84-.72.08-1.45-.15-2.13-.2-.71-.05-1.52.28-2.14-.19-.61-.47-1.2-.57-1.82-.74-.36-.1-.62-.57-1.19.07-.05.06-.18,0-.22-.08-.29-.7-.77-.82-1.31-.92-.54-.08-1.15-.15-1.52-.57-.73-.86-1.67-1.48-2.42-2.35-.21-.22-.19-.63-.84-.51-.23.04-.44-.22-.4-.44.21-1.14-.6-1.68-.81-2.57-.21-.96-.81-1.93-.29-3.02.21-.45.35-.98-.38-1.55-.33-.27.07-.76.05-1.14,0-.31-.28-.69-.22-1.01.07-.27.44-.44.65-.65.06-.06.09-.15.08-.24-.14-.85.26-1.56.78-2.12.51-.58,1.14-1.02,1.55-1.65.83-1.28,2.23-2.2,3.75-2.69.82-.29,1.87-.26,2.57,1.12.31.62.35,1.33.18,1.79-.13.34-.25.64-.39.76-.24.19-.44.44-.63.66-.41.46-.43,1.25-1.03,1.3-.21.01-.07.44-.63.06-.08-.05-.17-.03-.16.02.11.63-.03.94-.27,1.23-.22.29-.53.54-.65.9-.21.64.46,1.35.06,1.81.78.36.64.57.43.91-.37.56-.29,1.18-.04,1.71.26.54.65,1,.99,1.51.69,1.06,1.81,1.78,2.91,2.31.2.08.51-.28.62.12.12.39.49.22.75.27.25.05.52-.08.74.14.45.48,1.01.55,1.54.5.53-.07,1.03-.27,1.54-.37,1.01-.21,2.02-.65,2.61-1.47.38-.51.36-1.17.77-1.53.18-.18-.09-.56.69-.47.23.02-.21-.42-.19-.57.07-.38.2-.74.26-1.13.08-.53.15-1.08.02-1.59-.09-.31-.46-.54-.61-.78-.17-.25-.27-.5-.32-.78-.09-.34-.04-.78-.29-1.14-.24-.37-.79-.38-.95-.9-.36-1.01-1.42-1.12-2.33-1.45-.93-.34-1.97-.58-3.05-.55-.61.02-1.12-.68-1.75-.72-.29-.02-.56-1.93-.39-2.57.03-.12.09-.25.14-.29.68-.55,1.35-1.43,2.12-1.29,1.12.22,2.28.32,3.46.6Z"/>
    </g>
    <g>
      <path class="cls-1" d="M245.32,259.1c1.71.69,3.5,1.12,5.27,1.28.65,0,1.34.46,2.01-.28.31-.37.97.5,1.57.36,1.61-.23,3.21-.54,4.6-1.31,1.35-.74,2.4-1.87,3.27-2.97.86-1.06,1.93-2.21,1.87-3.58,0-.57.1-1.04.26-1.54l.14-.75c.04-.26-.02-.51-.08-.76-.34-1.07-.82-2.01-1.19-3.13-.16-.39-.33-.81-.53-1.2-.26-.36-.55-.71-.92-.97-.53-.28-1.14-.31-1.65-.66-.47-.31-.84-1.02-1.7-.51-.07.04-.23-.2-.3-.36-.32-.78-1.12-1.04-1.75-.9-.31.07-.56.05-.8,0-.25-.04-.48-.11-.72-.17-.67-.17-1.31-.37-2.01-.49l-1.02-.23-1.13-.28c-1.25-.29-2.4-.92-3.59-1.35-1.23-.47-2.7-.64-3.67-1.51-.95-.89-2-1.39-3.03-2.06-.59-.38-1.03-1.13-1.98-.85-.09.03-.3-.15-.35-.28-.46-1.06-1.23-1.67-2.07-2.35-.84-.65-1.72-1.42-2.17-2.5-.46-1.1-.86-2.28-1.12-3.52-.26-1.24-.34-2.57-.11-3.84.04-.34.2-.66.27-1,.07-.34.08-.68-.07-1.07-.12-.28.13-.98.43-1.21.39-.33.7-.68,1.01-1.01.3-.35.56-.71.83-1.05.52-.72,1.05-1.41,1.69-1.95.73-.62,1.41-1.25,2.15-1.81.38-.27.74-.52,1.16-.75.47-.24.96-.43,1.47-.51.87-.15,1.88-.43,2.57-1.43.32-.47,1.31-.39,1.96-.61.53-.18,1.01-.63,1.56-.72.47-.08.98.17,1.47.27.14.03.32.01.45-.04,1.32-.52,2.73-.43,4.1-.13,1.38.31,2.7.81,4.13,1.21,1.44.41,2.92,1.16,4.18,2.38,1.26,1.21,2.17,2.97,2.45,4.69.36,1.92-.19,3.8-1.86,4.41-.74.29-1.41.06-1.72-.54-.2-.45-.44-.9-.48-1.31-.08-.65-.28-1.25-.54-1.73-.24-.52-.67-.88-1.08-1.17-.41-.3-.78-.57-1.14-1.03-.24-.3-.78-.16-.79-.88,0-.1-.13-.22-.22-.21-1,.13-1.84,0-2.76-.19-.91-.18-1.86-.39-2.83-.34-1.67.09-3.09,1.1-4.66,1.19-.6,1.01-1.47,1.19-2.25,1.34-.37.07-.61.13-.99.31-.35.18-.72.37-1.05.59-.65.44-1.25.95-1.74,1.5-1,1.11-1.62,2.34-1.94,3.47-.35,1.16-.2,2.35.36,3.55.57,1.19,1.54,2.33,2.7,3.35.41.35,1.03.26,1.35.9.3.62,1.12.81,1.74,1.14.58.31,1.27.45,1.76.88,1.02.9,2.29,1.42,3.59,1.76.66.15,1.32.29,1.99.39.32.05.69.12,1.08.2.38.08.76.16,1.14.25,2.99.78,5.94,1.9,8.8,3.5,1.71.98,3.67,2.02,4.81,3.96.27.37.56.78.82,1.19.13.21.23.43.29.67.04.25.03.52-.06.81-.1.32.8.9.96,1.52.53,1.46.57,3.06.47,4.6-.18,2.15-.93,4.18-1.95,5.98-.31.55-.61,1.1-.9,1.68-.34.53-.68,1.09-1.1,1.57-.91.99-1.97,1.84-3.14,2.46-.37.19-.75.37-1.13.54-.38.16-.78.27-1.17.4-.77.28-1.57.41-2.34.63-.8.19-1.61.43-2.43.61-.81.11-1.64.28-2.42.09-2.87-.54-5.6-.66-8.23-1.54l-1.89-.73c-.63-.23-1.22-.56-1.84-.82l-.92-.42c-.42-.22-.82-.46-1.18-.74-.73-.55-1.33-1.21-1.84-1.94-.57-.83-.8-1.79-.84-2.73-.04-.95.1-1.87.29-2.83.09-.46.73-.84,1.37-.88.65-.05,1.24.18,1.47.43.09.1.17.23.18.32.05.59.36,1.1.66,1.49.31.41.59.72.73,1.14.21.63.67,1.18,1.15,1.44.06.05.36.18.59.28l.72.32c.48.22.96.43,1.46.59Z"/>
      <path class="cls-1" d="M245.56,197.76c.04.3.03.6.16.88.05.11-.27.27.43.28.35,0-.44.24-.39.34.13.26.07.56.2.83.13.26.45.47.59.73.13.25-.19.6.27.78.4.15-.19.49,0,.67.21.2.35.41.11.7-.18.21-.42.43-.25.57.11.08.53.09.52.21,0,.11-.32.3.49.22.07,0-.06.07-.17.12-.49.22-.42.36-.05.37.36.02.34.11.37.19.1.22.18.45.15.71-.02.19-.28.43-.31.62-.04.2.36.32.02.57-.34.26-.29.42-.25.58.02.1-.32.29.5.19.08,0,.07.03.01.06-.98.49.44.48.24.81-.21.35.05.6.13.89.02.08-.19.21.4.17.21-.01.25.06.11.13-.75.38-.22.51-.31.76-.11.29.31.48-.26.85-.24.16-.36.33.41.33.35,0,.03.19.12.27.08.07.43.09.46.17.02.07-.27.18-.4.27-.04.03-.04.05,0,.06.91.25-.17.82.12,1.17.29.36.24.78.16,1.2-.04.23-.25.48-1.7.77-.65.13-1.36.19-1.79.15-.31-.03-.61-.08-.69-.14-.13-.1-.32-.2-.45-.29-.28-.2-.97-.34-.64-.62.1-.09-.29-.12.34-.27.09-.02.13-.06.08-.07-1.05-.18-.43-.59-.56-.9-.11-.26-.95-.39-.65-.72-.82-.01-.72-.21-.5-.4.75-.69.08-1.13.08-1.69,0-.57-.23-1.1-.29-1.67-.01-.1-.48-.08-.16-.27.3-.17.02-.25,0-.38-.02-.11-.22-.19-.04-.34.73-.62.14-.95.13-1.41,0-.46-.03-.92-.33-1.32-.18-.24-.68-.42-.57-.73.05-.13-.41-.17.31-.44.2-.08-.39-.07-.43-.14-.1-.18-.1-.37-.14-.56-.06-.26-.05-.54-.18-.79-.08-.15-.42-.25-.53-.4-.11-.15-.14-.33-.1-.52.06-.24.28-.5.32-.73.04-.24-.35-.42-.04-.69.58-.51.19-.85.21-1.27.02-.42.01-.82-.18-1.21-.12-.22.5-.5.47-.72-.01-.11,1.85-.42,2.5-.44.12,0,.26,0,.3.01.62.15,1.56.23,1.53.46-.06.34.05.67.1,1Z"/>
      <path class="cls-1" d="M253.78,277.74c.01-.21.07-.43-.01-.66-.03-.08.31-.17-.38-.25-.34-.04.47-.12.44-.2-.1-.21.02-.42-.07-.62-.08-.2-.38-.39-.47-.59-.09-.19.28-.43-.15-.59-.37-.14.26-.34.09-.49-.18-.16-.29-.32,0-.52.21-.14.47-.3.32-.4-.1-.07-.51-.09-.49-.18.02-.08.35-.21-.45-.18-.07,0,.07-.05.18-.08.51-.15.46-.25.1-.27-.35-.02-.32-.09-.34-.15-.07-.16-.12-.33-.07-.51.04-.14.32-.31.38-.45.06-.15-.32-.23.04-.42.36-.19.32-.31.3-.43-.01-.07.34-.22-.47-.13-.08,0-.07-.02,0-.04,1.01-.39-.4-.33-.18-.58.23-.26,0-.43-.07-.64-.02-.05.2-.16-.39-.09-.21.02-.24-.03-.1-.09.76-.32.24-.38.34-.57.11-.21-.3-.31.27-.63.24-.14.35-.28-.4-.19-.35.04-.03-.13-.12-.18-.08-.04-.43,0-.45-.05-.02-.04.26-.16.39-.24.04-.02.04-.04-.01-.04-.89-.04.15-.59-.15-.79-.3-.2-.28-.48-.24-.77.02-.16.21-.37,1.57-.92.62-.25,1.29-.47,1.71-.53.31-.05.6-.08.69-.04.14.05.34.09.48.15.3.11,1.01.11.71.41-.09.09.3.06-.31.29-.09.03-.13.07-.08.07,1.05-.01.48.44.62.68.12.21.96.23.68.55.82-.07.71.12.51.31-.73.65-.07.97-.08,1.45-.02.48.18.92.22,1.4,0,.08.47.07.14.22-.31.14-.04.21-.02.31.02.09.21.16.02.28-.78.5-.22.78-.26,1.16-.04.38-.07.75.17,1.08.15.21.62.38.47.63-.06.1.39.16-.36.33-.21.05.37.08.41.14.08.15.05.31.06.46.02.22-.02.44.07.65.05.13.38.24.46.37.09.14.1.28.02.42-.09.19-.36.37-.43.55-.07.19.28.37-.07.56-.66.33-.32.65-.41.99-.09.33-.15.65-.02,1,.08.2-.58.32-.59.5,0,.09-1.9,0-2.54-.1-.12-.02-.25-.04-.3-.06-.58-.22-1.5-.43-1.42-.58.12-.23.05-.48.06-.73Z"/>
    </g>
  </g>
  <path class="cls-1" d="M178.94,127.59c1.34-3.42,2.27-7.01,2.35-10.65.02-.67.04-1.36.03-2.05-.05-.69-.06-1.39-.55-2.04-.46-.63.24-2.03-.05-3.26-.24-.82-.46-1.63-.68-2.46l-.16-.62-.23-.6-.46-1.2c-.53-1.63-1.4-3.12-2.21-4.63-.18-.37-.42-.72-.68-1.06l-.74-1.02c-.51-.67-.97-1.37-1.52-2l-1.7-1.88c-.56-.62-1.09-1.28-1.7-1.83-.59-.56-1.13-1.19-1.73-1.75l-1.83-1.67c-1.3-1.02-2.61-2.01-4.09-2.62-1.23-.61-2.38-1.19-3.47-1.89-.55-.33-1.13-.6-1.71-.89-.58-.27-1.16-.57-1.81-.72-2.67-.83-5.48-1.31-8.13-2.02-.97-.19-1.95-.42-2.94-.57-.99-.08-1.98-.14-2.97-.06-.62.09-1.2.26-1.8.42-.3.08-.6.15-.91.21-.31.07-.62.15-.95.2-.61.09-1.27.1-1.9.21-.62.15-1.19.43-1.6.94-.07.09-.63.08-.93.04-.71-.09-1.43.09-2.11.3-.34.11-.66.25-.95.4-.29.17-.53.37-.75.57-.82.79-1.7,1.07-2.54,1.63-2.38,1.34-4.54,3.06-6.6,4.87-.38.35-.78.68-1.18,1.01-.39.34-.75.71-1.14,1.06-.38.36-.77.7-1.13,1.08-.35.39-.69.78-1.03,1.18-.73.82-1.25,1.84-1.85,2.77-.58.95-1.06,1.91-1.75,2.69-.61.83-1.13,1.69-1.58,2.58-.39.92-.78,1.83-1.09,2.78-.31,1.08-1.13,2.27-.5,3.38.06.1-.05.51-.15.68-.22.36-.4.74-.55,1.12-.12.39-.21.78-.28,1.18-.14.79-.22,1.6-.16,2.41.05.81.05,1.61.15,2.41.09.8.11,1.6.08,2.4-.12,3.36.8,6.67,2.07,9.78.35.82.49,1.83,1.41,2.3.32.17.73,1,.84,1.46.48,2.59,2.47,4.53,4.02,6.56,1.81,2.36,4.22,4.12,6.22,6.42.44.48.99,1.01,1.65,1.45.68.4,1.45.73,2.29.8.79.02,1.84,1.09,2.88,1.46.42.17.85.26,1.28.37.44.09.87.16,1.27.32.34.14.66.35.97.58.32.21.64.43.97.62.2.11.46.21.68.24,2.17.21,4.17.8,6.25,1.16.52.12,1.04.21,1.56.27.52.06,1.05.15,1.57.19,1.05.03,2.12.08,3.16-.12,1.06-.12,2.08-.4,3.11-.6l1.52-.43c.51-.12,1.01-.3,1.5-.49,2-.66,3.89-1.65,5.69-2.76.48-.33.98-.65,1.49-.95.49-.32.97-.65,1.48-.91,1.04-.5,2-1.01,3.15-1.1,1.02-.1,1.58.34,1.1,1.44-.37.79-.78,1.74-1.49,2.41-.55.54-1.07,1.13-1.64,1.66-.59.51-1.18,1.02-1.76,1.52-2.49,1.94-5.24,3.96-8.63,4.49-1.02.2-2.17.77-3.12.29-.13-.07-.55-.03-.75.03-1.06.34-2.17.68-3.29.75-.56.05-1.13.09-1.7.11-.57-.02-1.14-.05-1.7-.09-1.14-.04-2.25-.3-3.38-.47-1.1-.26-2.21-.46-3.29-.74-3.67-.87-7.46-1.55-10.69-3.75-2.27-.3-4.31-1.89-5.89-3.36-2.75-2.66-5.39-5.35-7.77-8.3-2.37-2.95-4.47-6.17-5.91-9.73-1.46-3.59-2.45-7.43-2.76-11.31-.34-3.86-.11-7.77.67-11.54.31-1.27.05-2.51.88-3.88.39-.64.6-1.43.89-2.24.29-.81.54-1.66.85-2.44.66-1.38,1.14-2.96,2.07-4.1,1.79-2.44,3.61-4.8,5.54-7.09,1.91-2.3,4.12-4.38,6.52-6.19,2.44-1.74,5.06-3.22,7.83-4.41,2.79-1.12,5.66-2.06,8.61-2.57,3.56-.69,7.27-1.27,10.94-.64.78.08,1.59.16,2.39.28.79.15,1.59.31,2.25.89.37.32,1.92.1,2.92.34,1.2.38,2.41.73,3.58,1.2,1.15.51,2.34.94,3.45,1.54,3.17,1.49,6.05,3.54,8.8,5.7,1.67,1.32,3.41,2.63,4.9,4.19,1.45,1.69,2.96,3.36,4.07,5.34l1.09,1.83c.37.6.61,1.29.91,1.94.57,1.31,1.21,2.57,1.63,3.95.5,1.4,1.15,2.77,1.5,4.24.21.72.4,1.45.57,2.17.14.73.16,1.47.18,2.18.1,5.3-.09,10.57-1.71,15.53-1.61,4.91-4.14,9.4-7.04,13.54-.83,1.17-1.76,2.19-2.8,3.08-1,.92-1.98,1.83-3.01,2.77-.93.92-3.44.73-3.5-.11-.01-.16.04-.4.15-.57.71-1.13,1.35-2.24,1.99-3.37.6-1.16,1.35-2.23,2.26-3.34,2.77-3.23,4.9-6.94,6.45-10.81Z"/>
  <g>
    <path class="cls-1" d="M150.92,131.03c-1.09.63-2.31,1.02-3.55,1.32-.48.12-.96-.2-1.43.53-.25.36-.72-.49-1.14-.47-.59.02-1.16-.11-1.73-.22-.55-.17-1.11-.29-1.64-.49-.53-.16-1.07-.29-1.59-.48-.54-.16-1.04-.39-1.53-.66-.49-.26-.85-.69-1.26-1.05-.38-.39-.77-.75-1.29-.97-.43-.21-.67-.59-.87-.97-.18-.4-.32-.8-.64-1.1-.64-.65-1.22-1.44-1.32-2.37-.1-.67-.02-1.36-.39-1.89-.19-.34-.69-.58-.78-1.02-.1-.4.19-.91-.68-1.12-.07-.02.04-.23.13-.34.42-.52.37-1.03-.03-1.37-.39-.33-.36-.67-.37-1.01-.08-.94-.01-1.89.17-2.81.2-.68.6-1.3.86-1.92.28-.64.14-1.5.77-1.95.6-.45.82-1,1.12-1.53.17-.31.67-.47.11-1.14-.05-.06.03-.17.12-.18.73-.14.91-.58,1.04-1.1.13-.51.23-1.06.64-1.37.22-.16.39-.33.6-.54l.67-.68c.45-.44.91-.87,1.42-1.22.28-.18.67-.16.65-.81,0-.23.3-.41.51-.36,1.14.35,1.77-.42,2.66-.51.97-.1,1.89-.64,2.91-.09.43.23.94.35,1.44-.39.23-.35.71.03,1.06-.03.3-.03.63-.36.93-.32.26.03.47.37.69.56.07.06.16.08.24.05.81-.27,1.58.05,2.26.49.7.47,1.3,1.07,2.08,1.55.78.47,1.57,1.36,2,2.37.44,1.01.55,2.14.4,3.21-.18,1.12-.83,2.04-2.37,1.87-.69-.07-1.31-.43-1.59-.83-.21-.3-.38-.57-.42-.76-.02-.3-.16-.58-.26-.77-.12-.19-.36-.33-.55-.4-.19-.08-.28-.12-.2-.31.06-.15-.32.05.11-.47.05-.07.04-.15-.01-.13-.54.17-.82.12-1.11-.07-.29-.18-.6-.46-1-.53-.71-.12-1.45.59-2.12.22-.41.79-.8.67-1.21.45-.71-.37-1.44-.3-2.08-.08-.65.22-1.19.59-1.73.85-.28.13-.53.3-.75.48-.11.09-.22.18-.31.29l-.14.15-.17.22-.71.92-.64.95c-.16.21.13.63-.31.72-.42.09-.38.53-.51.82-.11.28-.07.62-.37.8-1.19.81-1.03,2.16-1.17,3.29-.16,1.15-.14,2.37.34,3.45.17.32.39.62.6.91.24.28.4.58.47.92.07.3.58.36.06.99-.14.18.51.13.63.27l.83,1.13c.42.49.83,1,1.37,1.35.33.21.81.19,1.16.3.35.16.68.29.97.55.19.13.37.29.55.47.19.16.39.29.6.4.47.19.96-.1,1.38.25.86.66,1.73.13,2.52-.15.83-.28,1.61-.87,2.16-1.65.14-.24.42-.34.71-.45.29-.11.57-.27.74-.5.14-.2,1.97.48,2.45.91.09.09.17.2.18.27.1.89.49,2.05-.2,2.69-.92.96-1.96,1.9-3.17,2.63Z"/>
    <path class="cls-1" d="M149.95,91.98c-.01.2-.08.4-.02.6.02.08-.32.12.36.26.34.07-.48.07-.45.14.08.19-.07.36,0,.55.06.18.32.39.38.58.06.18-.34.31.05.53.34.19-.32.23-.19.39.14.17.22.33-.1.43-.23.07-.53.13-.4.25.08.07.48.19.44.26-.04.06-.39.08.4.25.07.01-.08.02-.19.02-.53,0-.51.08-.16.19.34.11.29.15.3.2.02.15.03.29-.07.42-.07.09-.39.15-.48.24-.1.1.25.27-.15.31-.4.04-.39.14-.41.24,0,.05-.39.07.42.23.07.02.06.03,0,.03-1.08,0,.29.36,0,.47-.29.12-.12.32-.11.48,0,.04-.24.06.34.17.2.04.22.09.07.09-.82.02-.34.21-.49.31-.17.12.19.3-.45.37-.27.03-.42.1.32.25.34.07-.01.1.06.15.06.05.4.12.41.16,0,.03-.3.04-.44.06-.04,0-.05.02,0,.03.83.27-.32.36-.1.58.22.21.11.4-.01.59-.07.1-.31.2-1.78.24-.66.02-1.37,0-1.79-.06-.31-.05-.6-.1-.67-.15-.13-.08-.28-.16-.41-.23-.24-.16-.92-.35-.55-.49.12-.04-.27-.12.39-.12.09,0,.14-.02.1-.03-1-.27-.32-.45-.37-.66-.05-.18-.84-.43-.47-.58-.8-.18-.64-.29-.39-.36.89-.26.36-.67.52-1.01.16-.34.09-.7.19-1.03.02-.06-.43-.17-.07-.19.34-.02.09-.14.1-.21,0-.07-.15-.17.06-.2.88-.14.41-.48.54-.73.13-.24.25-.5.08-.78-.1-.17-.52-.39-.33-.52.08-.06-.34-.19.42-.15.22.01-.35-.13-.37-.18-.05-.11,0-.21.02-.32.02-.15.09-.28.04-.44-.04-.09-.34-.22-.4-.31-.07-.1-.06-.19.03-.27.11-.1.39-.19.48-.29.09-.11-.25-.27.11-.34.67-.15.36-.39.45-.59.09-.2.16-.41,0-.62-.09-.12.56-.2.56-.32,0-.05,1.89-.08,2.54-.04.12,0,.25.02.3.03.59.14,1.52.3,1.45.45-.1.23-.04.46-.06.68Z"/>
    <path class="cls-1" d="M143.14,130.32c-.01.2-.08.4-.02.6.02.08-.32.12.36.26.34.07-.48.07-.45.14.08.19-.07.36,0,.55.06.18.32.39.38.58.06.18-.34.31.05.53.34.19-.32.23-.19.39.14.17.22.33-.1.43-.23.07-.53.13-.4.25.08.07.48.19.44.26-.04.06-.39.08.4.25.07.01-.08.02-.19.02-.53,0-.51.08-.16.19.34.11.29.15.3.2.02.15.03.29-.07.42-.07.09-.39.15-.48.24-.1.1.25.27-.15.31-.4.04-.39.14-.41.24,0,.05-.39.07.42.23.07.02.06.03,0,.03-1.08,0,.29.35,0,.47-.29.12-.12.32-.11.48,0,.04-.24.06.34.17.2.04.22.09.07.09-.82.02-.34.21-.49.31-.17.12.19.3-.45.37-.27.03-.42.1.32.25.34.07-.01.1.06.15.06.05.4.12.41.16,0,.03-.3.04-.44.06-.04,0-.05.02,0,.03.83.27-.32.36-.1.58.22.21.11.4-.01.59-.07.1-.31.2-1.78.24-.66.02-1.37,0-1.79-.06-.31-.05-.6-.1-.67-.15-.13-.08-.28-.16-.41-.23-.24-.16-.92-.35-.55-.49.12-.04-.27-.12.39-.12.09,0,.14-.02.1-.03-1-.27-.32-.45-.37-.66-.05-.18-.84-.43-.47-.58-.8-.18-.64-.29-.39-.36.89-.26.36-.67.52-1.01.16-.34.09-.7.19-1.03.02-.06-.43-.17-.07-.19.34-.02.09-.14.1-.21,0-.07-.15-.17.06-.2.88-.14.41-.48.54-.73.13-.24.25-.5.08-.78-.1-.17-.52-.39-.33-.52.08-.06-.34-.19.42-.15.22.01-.35-.13-.37-.18-.05-.11,0-.21.02-.32.02-.15.09-.28.04-.44-.04-.09-.34-.22-.4-.31-.07-.1-.06-.19.03-.27.11-.1.39-.19.48-.29.09-.11-.25-.27.11-.34.67-.15.36-.39.45-.59.09-.2.16-.41,0-.62-.09-.12.56-.2.56-.32,0-.05,1.89-.08,2.54-.04.12,0,.25.02.3.03.59.14,1.52.3,1.45.45-.1.23-.04.46-.06.68Z"/>
  </g>
  <path class="cls-1" d="M327.47,349.99c-3.07,3.68-5.54,7.85-7.11,12.32-.28.83-.62,1.66-.88,2.52-.2.88-.41,1.77-.22,2.74.14.94-.95,2.46-1.08,4.11-.19,2.21-.18,4.43-.08,6.65.17,2.22.43,4.45.96,6.62.97,4.24,2.73,8.31,4.68,12.18.51.94.93,1.93,1.46,2.86.54.93,1.09,1.86,1.63,2.79,1.22,1.77,2.46,3.53,4.01,4.91,1.25,1.28,2.46,2.44,3.56,3.72.57.62,1.19,1.17,1.8,1.75.62.56,1.23,1.16,1.96,1.61,2.96,2.12,6.26,3.86,9.31,5.7,1.15.59,2.29,1.22,3.46,1.78,1.2.47,2.42.92,3.67,1.24.8.14,1.58.2,2.38.28.4.04.8.08,1.2.14.41.05.83.07,1.25.15.79.13,1.63.35,2.46.46.83.07,1.65-.02,2.36-.38.12-.06.82.13,1.18.26.86.31,1.82.34,2.75.34.47,0,.92-.05,1.35-.1.42-.08.82-.22,1.16-.35,1.35-.55,2.57-.58,3.84-.93,3.51-.72,6.9-2,10.17-3.47.61-.29,1.23-.56,1.85-.82.62-.28,1.21-.61,1.82-.9.6-.31,1.22-.59,1.81-.93.58-.35,1.16-.72,1.73-1.09,1.22-.74,2.28-1.78,3.4-2.7,1.1-.94,2.09-1.95,3.2-2.69,1.04-.83,2.01-1.72,2.91-2.65.83-.99,1.67-1.97,2.44-3.03.82-1.22,2.2-2.43,2.06-3.93,0-.14.28-.61.46-.79.38-.39.73-.79,1.05-1.22.29-.44.55-.9.79-1.36.48-.93.91-1.89,1.18-2.91.28-1.01.63-2,.84-3.03.23-1.02.52-2.02.87-3.02,1.39-4.16,1.61-8.64,1.27-13.03-.11-1.16.05-2.46-.74-3.44-.28-.34-.44-1.55-.44-2.16.18-3.37-1.37-6.59-2.54-9.72-1.36-3.63-3.56-6.81-5.3-10.36-.39-.74-.88-1.6-1.52-2.4-.68-.77-1.47-1.5-2.39-2-.89-.41-1.86-2.08-2.98-2.97-.44-.38-.93-.69-1.4-1.01-.49-.3-.98-.59-1.42-.95-.37-.31-.69-.68-1.01-1.06-.33-.36-.66-.74-1.01-1.09-.21-.21-.5-.43-.76-.56-2.54-1.23-4.83-2.74-7.3-3.97l-.91-.49-.94-.43c-.63-.28-1.26-.58-1.9-.83-1.31-.43-2.62-.91-4-1.09-1.37-.28-2.76-.36-4.13-.52-.69-.04-1.39-.04-2.08-.07-.35,0-.69-.04-1.04-.03l-1.04.05c-2.78.04-5.53.54-8.22,1.24-.74.23-1.48.44-2.23.62-.73.22-1.45.47-2.17.63-.36.09-.72.16-1.08.22-.35.07-.69.16-1.04.21-.69.11-1.36.14-2.03.08-1.2-.11-1.6-.7-.53-1.75.39-.38.82-.79,1.29-1.17.23-.19.47-.39.73-.56.26-.16.53-.31.8-.45.88-.43,1.75-.93,2.64-1.33.92-.37,1.82-.74,2.72-1.11,3.78-1.32,7.86-2.52,12.12-1.96,1.31.11,2.89-.03,3.88.75.13.11.66.21.92.22.7.02,1.41.06,2.12.13.35.04.71.07,1.06.12l1.04.23c.7.16,1.39.34,2.08.54.68.24,1.35.5,2.02.76,1.36.48,2.61,1.21,3.9,1.83.63.34,1.24.71,1.86,1.06.62.35,1.25.69,1.84,1.08,4.1,2.48,8.27,4.9,11.37,8.73,2.47,1.37,4.34,4.04,5.72,6.38,2.39,4.19,4.57,8.44,6.3,12.91,1.73,4.46,2.99,9.16,3.38,13.98.4,4.87.12,9.87-.99,14.65-1.07,4.78-2.84,9.39-5.22,13.64-.86,1.41-1.12,2.95-2.57,4.33-.67.64-1.23,1.53-1.9,2.38-.66.86-1.31,1.77-1.98,2.6-1.33,1.41-2.54,3.1-4.06,4.16-3.01,2.34-6.11,4.51-9.32,6.54l-2.44,1.46c-.84.45-1.69.87-2.54,1.3-.43.21-.85.44-1.28.63l-1.32.54c-.89.34-1.76.74-2.67,1.02-3.61,1.18-7.33,1.96-11.13,2.34-3.79.28-7.61.31-11.36-.22-4.56-.57-9.21-1.4-13.41-3.51-.92-.39-1.84-.81-2.76-1.27-.9-.48-1.8-.96-2.43-1.83-.35-.48-2.24-.94-3.33-1.61-1.29-.92-2.62-1.81-3.85-2.82l-1.81-1.56c-.61-.51-1.21-1.04-1.76-1.62l-2.34-2.35-2.16-2.53c-.75-.82-1.35-1.75-2.02-2.63-.66-.89-1.33-1.77-1.9-2.73-1.51-2.24-3-4.51-4.2-6.95-1.2-2.54-2.17-5.23-2.91-7.97-.9-3.49-1.32-7.07-1.53-10.67-.23-3.71-.42-7.7.53-11.21,1.74-6.45,4.07-12.72,7.92-18.09,3.81-5.32,8.6-9.8,13.73-13.66,2.93-2.2,6.11-3.36,9.22-4.98,1.48-.77,4.26.01,3.93.88-.06.17-.24.4-.45.55-2.75,1.99-4.93,4.24-8.06,6.23-4.65,2.95-8.78,6.66-12.24,10.85Z"/>
  <g>
    <path class="cls-1" d="M374.01,394.14l-1.01.47c-.34.14-.7.24-1.06.36-.7.26-1.43.37-2.16.56-.55.11-1.11-.2-1.66.53-.29.37-.83-.49-1.32-.46-.69.05-1.35-.12-2.02-.2l-1.95-.47c-1.24-.33-2.56-.56-3.73-1.14-.29-.14-.57-.31-.84-.49l-.77-.6c-.53-.38-1.01-.78-1.62-1.01-.54-.19-.86-.62-1.16-1.04-.31-.41-.55-.86-.94-1.2-.42-.35-.84-.73-1.16-1.19-.33-.44-.63-.92-.76-1.46-.11-.39-.2-.79-.32-1.15-.1-.38-.23-.74-.46-1.05-.3-.38-.84-.65-.99-1.17-.15-.48,0-1.09-.88-1.31-.07-.02,0-.28.08-.42.19-.33.23-.64.17-.93-.03-.29-.17-.54-.38-.74-.4-.39-.45-.8-.48-1.21-.05-.58-.1-1.16-.11-1.74.03-.58.08-1.16.16-1.74.19-.85.61-1.65.91-2.43.31-.81.24-1.84.94-2.42.34-.29.56-.61.76-.93.22-.31.39-.64.58-.97.22-.38.75-.62.28-1.34-.05-.07.06-.2.15-.22.8-.21,1.04-.75,1.28-1.34.24-.57.42-1.22.92-1.61,1.11-.88,2.25-2,3.48-2.69.33-.21.79-.14.86-.83.03-.25.39-.43.63-.36,1.25.35,2.08-.39,3.12-.49,1.14-.1,2.25-.61,3.43-.06.5.23,1.11.37,1.7-.38.28-.33.83.03,1.25-.01.35-.03.72-.36,1.07-.32.3.03.55.38.82.56.08.06.19.08.28.06.92-.27,1.8.05,2.61.49.82.48,1.56,1.04,2.46,1.51.91.48,1.83,1.22,2.51,2.31.69,1.07,1.04,2.52.91,3.78-.11,1.4-.86,2.58-2.45,2.5-.71-.03-1.32-.4-1.58-.86-.19-.34-.34-.66-.37-.89,0-.37-.13-.7-.26-.94-.06-.13-.15-.24-.27-.32-.1-.09-.23-.14-.33-.19-.2-.11-.36-.18-.37-.49-.06-.2-.41-.04-.14-.64.04-.08,0-.18-.06-.17-.66.14-1.07.02-1.54-.21-.44-.23-.93-.53-1.47-.63-.96-.16-1.95.53-2.87.15-.55.78-1.12.65-1.66.44-.95-.37-1.93-.3-2.82-.05-.9.25-1.71.65-2.49.99-.79.34-1.47.82-1.96,1.36-.61.74-1.28,1.5-1.81,2.29-.19.27,0,.73-.46.88-.46.14-.46.68-.66,1.04-.15.35-.13.77-.46,1.02-1.32,1.09-1.18,2.76-1.29,4.19-.1,1.46.08,2.99.78,4.32.21.4.5.77.8,1.12.14.18.28.36.39.55.13.18.25.37.32.59.07.18.24.3.35.47.12.15.17.35-.02.73-.1.22.57.17.74.35.46.42.81.93,1.27,1.34.3.31.62.6.95.87.32.29.68.53,1.05.73.45.28,1.07.23,1.53.41.5.16.97.39,1.42.64.29.14.57.36.85.53.29.16.59.32.9.45.33.09.68.07,1.02.09.34,0,.66-.01.98.19,1.22.65,2.44.08,3.55-.28,1.13-.39,2.19-1.08,2.99-2.03.4-.57,1.36-.61,1.78-1.25.19-.26,2.06.38,2.52.85.08.09.15.22.15.3-.02,1.02.23,2.34-.61,3.1-.56.59-1.23,1.09-1.86,1.63-.32.27-.69.48-1.03.72-.35.24-.7.47-1.09.64Z"/>
    <path class="cls-1" d="M370.61,348.32c0,.23-.06.47,0,.7.02.09-.32.16.37.28.34.07-.48.1-.45.18.08.22-.06.42,0,.64.06.21.33.44.39.66.06.21-.34.38.05.62.34.21-.32.29-.18.46.14.19.23.37-.1.5-.23.09-.53.18-.4.31.08.08.48.2.44.28-.04.07-.39.11.4.28.07.01-.08.03-.19.03-.53.02-.51.12-.16.23.34.11.29.16.3.22.03.17.03.34-.06.49-.07.11-.39.2-.48.31-.09.12.25.3-.15.37-.4.07-.39.18-.41.3,0,.06-.39.1.42.24.08.01.06.04,0,.04-1.08.07.29.4,0,.56-.29.16-.12.38-.11.57,0,.05-.24.08.34.19.2.04.22.09.07.1-.82.06-.34.26-.49.39-.17.15.19.34-.44.46-.27.05-.42.14.32.27.34.06,0,.11.07.18.06.05.41.12.42.17,0,.04-.3.06-.44.1-.04.01-.05.02,0,.04.84.27-.31.45-.09.69.22.24.12.46,0,.69-.07.13-.31.25-1.77.37-.66.05-1.37.07-1.79.01-.31-.04-.6-.09-.68-.14-.12-.08-.3-.17-.42-.26-.25-.17-.94-.37-.56-.55.11-.05-.27-.13.38-.16.09,0,.14-.03.09-.04-1.01-.27-.34-.51-.39-.76-.05-.21-.85-.47-.49-.66-.8-.17-.65-.3-.39-.4.89-.35.35-.8.5-1.2.16-.4.09-.82.18-1.22.02-.07-.43-.18-.07-.22.34-.04.09-.16.1-.25,0-.08-.15-.19.06-.24.88-.21.41-.58.54-.88.13-.29.25-.59.07-.92-.1-.2-.53-.43-.34-.6.08-.07-.34-.2.42-.19.22,0-.35-.14-.37-.19-.05-.13,0-.25.02-.37.02-.17.09-.34.03-.51-.04-.11-.34-.24-.41-.35-.07-.12-.06-.22.02-.32.11-.13.39-.24.48-.37.09-.14-.25-.3.11-.41.67-.21.35-.48.43-.72.08-.24.15-.49-.01-.73-.09-.13.55-.26.55-.4,0-.06,1.89-.18,2.54-.17.12,0,.25.01.3.02.6.14,1.53.28,1.47.46-.09.27-.03.54-.04.8Z"/>
    <path class="cls-1" d="M363.67,393.44c0,.23-.06.47,0,.7.02.09-.32.16.37.28.34.07-.48.1-.45.18.08.22-.06.42,0,.64.06.21.33.44.39.65.06.21-.34.38.05.62.34.21-.32.29-.18.46.14.19.23.37-.1.5-.23.09-.53.18-.4.31.08.08.48.2.44.28-.04.07-.39.11.4.28.07.01-.08.03-.19.03-.53.02-.51.12-.16.23.34.11.29.16.3.22.03.17.03.34-.06.49-.07.11-.39.2-.48.31-.09.12.25.3-.15.37-.4.07-.39.18-.41.3,0,.06-.39.1.42.24.08.01.06.04,0,.04-1.08.07.29.4,0,.55-.29.16-.12.38-.11.57,0,.05-.24.08.34.19.2.04.22.09.07.1-.82.06-.34.26-.49.39-.17.15.19.34-.44.46-.27.05-.42.14.32.27.34.06,0,.11.07.18.06.05.41.12.42.17,0,.04-.3.06-.44.1-.04,0-.05.02,0,.04.84.27-.31.45-.09.69.22.24.12.46,0,.69-.07.13-.31.25-1.77.37-.66.05-1.37.07-1.79.01-.31-.04-.6-.09-.68-.14-.12-.08-.3-.17-.42-.26-.25-.17-.94-.37-.56-.55.11-.05-.27-.13.38-.16.09,0,.14-.03.09-.04-1.01-.27-.34-.51-.39-.76-.05-.21-.85-.47-.49-.66-.8-.17-.65-.3-.39-.4.89-.35.35-.8.5-1.2.16-.4.09-.82.18-1.22.02-.07-.43-.18-.07-.22.34-.04.09-.16.1-.25,0-.08-.15-.19.06-.24.88-.21.41-.58.54-.88.13-.29.25-.59.07-.92-.1-.2-.53-.43-.34-.6.08-.07-.34-.2.42-.19.22,0-.35-.13-.37-.19-.05-.13,0-.25.02-.37.02-.17.09-.34.03-.51-.04-.11-.34-.24-.41-.35-.07-.12-.06-.22.02-.32.11-.13.39-.24.48-.37.09-.14-.25-.3.11-.41.67-.21.35-.48.43-.72.08-.24.15-.49-.01-.73-.09-.13.55-.26.55-.4,0-.06,1.89-.18,2.54-.17.12,0,.25.01.3.02.6.14,1.53.28,1.47.46-.09.27-.03.54-.04.8Z"/>
  </g>
</svg>