<?xml version="1.0" encoding="UTF-8"?>
<svg id="Content" xmlns="http://www.w3.org/2000/svg" viewBox="0 0 500 500">
  <defs>
    <style>
      .cls-1 {
        fill: #101066;
        stroke-width: 0px;
      }
    </style>
  </defs>
  <path class="cls-1" d="M77.39,295.49c-1.6.16-3.18.07-4.74-.02-.59-.04-1.11-.44-1.82.11-.36.28-.76-.64-1.28-.72-.72-.08-1.4-.33-2.09-.54l-1.03-.33c-.33-.13-.67-.26-1.01-.38-1.34-.41-2.71-.82-3.99-1.42-.62-.33-1.19-.77-1.77-1.16-.56-.43-1.12-.84-1.79-1.07-1.17-.42-1.53-1.63-2.46-2.25-.94-.72-1.92-1.51-2.41-2.61-.19-.39-.36-.79-.57-1.15-.19-.38-.4-.74-.7-1.03-.37-.37-1.01-.51-1.29-1.02-.26-.47-.27-1.15-1.21-1.14-.08,0-.08-.28-.05-.44.15-.75-.16-1.36-.71-1.63-.52-.27-.69-.65-.87-1.06-.5-1.11-1.02-2.22-1.28-3.42-.1-.45-.16-.9-.19-1.36,0-.47-.01-.93-.07-1.38-.15-.92-.63-1.88-.35-2.79.25-.9.24-1.72.21-2.56-.02-.48.34-1.03-.44-1.44-.07-.04-.05-.22.02-.3.58-.66.5-1.33.42-2.03-.09-.69-.26-1.43-.03-2.1.57-1.35.71-2.82,1.17-4.21.12-.37.45-.69.05-1.22-.15-.19,0-.58.2-.71.59-.35.85-.83,1.08-1.33.24-.49.42-1.03.73-1.49.34-.53.62-1.08.96-1.62.34-.53.69-1.05,1.33-1.37.53-.28,1.05-.76.83-1.73-.09-.45.58-.7.82-1.1.19-.33.17-.84.41-1.14.2-.25.66-.26.99-.4.1-.04.18-.12.22-.22.17-.48.44-.87.75-1.21.33-.32.73-.58,1.13-.82l1.21-.71c.41-.22.8-.47,1.14-.79,1.37-1.29,3.11-2.15,4.87-2.83.96-.38,2.1-.5,3.19.64.49.52.7,1.2.47,1.74-.17.39-.36.78-.63.96-.43.3-.83.62-1.21.96-.4.33-.74.76-1.11,1.11-.36.37-.73.71-1.27.81-.33.08-.45.57-1.02.19-.08-.05-.22-.02-.24.06-.54,1.61-2.02,1.95-3,2.99-.4.45-.66,1.01-.93,1.54-.25.56-.53,1.06-1.05,1.4.22,1-.29,1.52-.88,1.9-2,1.43-2.59,3.84-3.46,5.93-.92,2.16-1.23,4.51-1.41,6.8-.02.4.38.74.05,1.19-.32.43-.04.99-.02,1.49,0,.46.28.92.11,1.37-.35.95-.19,1.89.01,2.79.09.46.3.88.44,1.32.17.43.28.89.46,1.32.31.87.6,1.76,1.05,2.58.39.85.93,1.62,1.5,2.36.33.46.82.81,1.22,1.2.21.19.4.4.59.61.2.2.38.41.53.66.27.41.89.51.67,1.37-.06.25.68.16.92.36.57.52,1.12,1.04,1.71,1.54.39.36.81.7,1.24,1,.44.31.84.65,1.33.89.58.29,1.27.38,1.87.61.63.22,1.21.54,1.78.88.74.37,1.4,1.02,2.2,1.3.41.17.86.23,1.29.33.44.07.86.14,1.24.41,1.42,1,3.08.78,4.6.8,1.52.01,3.07-.2,4.34-.87.7-.37,1.66-.13,2.34-.6.27-.2,1.9.93,2.18,1.53.05.12.07.27.03.35-.42,1.1-.87,2.47-2.1,2.95-1.78.69-3.59,1.18-5.4,1.35Z"/>
  <path class="cls-1" d="M241.45,333.86c-6.65-4.89-13.19-9.91-19.86-14.68-2.48-1.77-4.82-3.86-7.82-5.11-1.49-.61-3.44-2.95-5.81-4.47-6.39-4.13-12.87-8.15-19.65-11.49-6.61-3.23-13.46-5.78-20.47-7.75-3.46-1.04-7.01-1.89-10.56-2.65-3.56-.63-7.12-1.16-10.57-1.12-5.94-.01-11.34-.41-16.94.65-1.48.24-2.94.67-4.42.99-1.47.39-2.91.84-4.38,1.24-2.93.93-5.91,1.96-8.93,2.79-4.4,1.2-8.9,2.26-13.73,2.71-2.98.25-6.09.44-9.45-.89-.76-.33-1.56-.65-2.28-1.14-.74-.45-1.48-.89-2.17-1.42-1.39-1.02-2.6-2.11-3.81-2.94-.21-.14-1.01-1.37-1.3-2.03-1.53-3.1-3.12-6.6-4.43-8.88-1.31-2.23-2.04-4.38-2.79-6.64-2.08-6.2-3.51-12.61-4.28-19.06-.29-2.42-.44-4.84-.52-7.26-.02-1.21-.07-2.42-.07-3.62,0-.63-.02-1.16-.01-1.86,0-.68.05-1.39.13-2.13.05-.39.11-.78.2-1.19.08-.4.18-.81.4-1.39.4-1.07,1.03-2.09,1.97-2.74.23-.16.49-.29.77-.43l.6-.3.82-.42c.55-.28,1.1-.56,1.64-.84,1.1-.54,2.14-1.15,3.21-1.68,1.06-.52,2.1-1.03,3.1-1.52,4.11-1.85,7.69-4.24,11.3-6.74,1.01-.73,2.16-1.45,3.21-2.23,1.03-.79,1.94-1.66,2.49-2.6.1-.18.85-.74,1.22-.96,6.22-3.68,10.4-9.55,15.4-14.67,5.2-5.31,9.72-11.49,13.73-17.86.53-.85,1.14-1.7,1.67-2.57.51-.89.94-1.8,1.16-2.74.17-.66,1.2-2.5,1.81-3.33,3.44-4.48,5.68-10.02,8.3-15.16,2.99-5.88,5.41-12.1,8.84-17.92,1.45-2.46,3.25-5.89,4.12-9.3.2-.78.75-1.87,1.37-3.04.65-1.16,1.38-2.4,1.92-3.52.9-1.82,1.56-3.7,2.53-5.47.87-1.48,1.98-2.82,3.02-4.23.31-.42.66-.95.9-1.41,1.12-2.23,2.49-4.31,3.9-6.37,1.49-1.99,2.98-3.99,4.66-5.84,1.61-1.9,3.38-3.67,5.1-5.48.88-.89,1.8-1.74,2.68-2.63l1.34-1.32,1.38-1.29c.93-.86,1.82-1.77,2.81-2.57l2.95-2.44c2.06-1.51,4.1-3.08,6.33-4.38,2.15-1.41,4.49-2.55,6.79-3.72l3.57-1.53c1.18-.53,2.45-.86,3.66-1.29,5.42-1.76,11.44-2.51,15.29-1.12,1.73.54,1.7,1.25-.55,1.83-.83.21-1.71.43-2.61.61-.9.22-1.82.5-2.75.68-.74.16-1.48.29-2.21.48-.72.22-1.44.45-2.16.67-.71.23-1.43.43-2.13.67-.69.28-1.38.55-2.06.82-5.69,2.26-10.66,5.73-15.99,9.1-1.71,1.01-3.22,2.8-4.91,3.32-.23.07-.91.54-1.15.85-1.4,1.62-2.92,3.12-4.35,4.73-.72.8-1.5,1.55-2.21,2.36l-2.18,2.41c-2.87,3.25-5.72,6.59-8.12,10.2-4.14,6.11-6.95,12.76-10.66,19.28-1.15,4.03-3.39,8.35-5.4,12.04-7.09,13.02-12.57,27.1-20.7,39.94-4.11,6.5-8.71,12.72-13.77,18.53-5.07,5.81-10.62,11.19-16.56,16.08-1,.85-1.89,1.69-2.86,2.53-.97.83-1.99,1.71-3.35,2.45-2.51,1.44-5.43,3.79-8.28,5.58-2.59,1.66-5.31,3.44-7.95,4.66-1.37.63-2.74,1.25-4.11,1.88l-3.43,1.52c-.09.07-.16.17-.21.27-.06.12-.08.15-.16.44-.13.5-.21,1.1-.23,1.73-.02.31,0,.64,0,.97l.04,1.09c.03.73.06,1.46.11,2.18.35,5.82,1.21,11.6,2.42,17.26,1.2,5.64,2.87,11.19,5.13,16.48,1.12,2.65,2.37,5.17,3.95,7.33,1.59,2.16,3.5,3.85,5.8,4.86,2.8,1.22,5.96,1.45,9.21.97,3.24-.45,6.53-1.38,9.93-2.39,2.89-.85,5.81-2.37,9.01-2.61.87-.1,3.59-1.45,5.59-2.02,4.99-1.26,10.13-1.87,15.24-2.04,3.56-.16,7.11.04,10.64.32,3.52.37,7.03.84,10.48,1.53,4.23.77,8.41,1.62,12.54,2.86,4.32,1.29,8.54,2.99,12.61,4.89,5.15,2.43,10,5.3,14.83,8.2,5,3.01,10.29,6.01,14.67,9.44,8.15,6.36,16.51,12.28,24.65,18.42l6.1,4.58c2,1.52,4.01,2.95,6.09,4.28,4.15,2.63,8.58,4.81,13.18,6.03,2.61.67,5.1,1.24,7.61,1.4,2.51.16,5.05-.01,7.51-.85,1.13-.4,2.62-.52,3.8-.54,1.17-.02,2.07.21,1.75.76-.12.21-.45.54-.82.8-2.37,1.62-4.95,2.92-7.85,3.65-2.88.74-6.07.95-9.42.33-4.94-.89-9.55-2.74-13.83-5.02-4.28-2.25-8.29-5.07-11.99-7.87Z"/>
  <path class="cls-1" d="M270.45,108.46c2.33,4.42,4.71,8.82,6.97,13.28,2.1,4.54,4.29,9.03,6.35,13.58,1.44,3.44,2.56,7.06,4.67,10.4,1.11,1.64,1.5,5.34,2.69,8.56.79,2.19,1.58,4.38,2.37,6.58.79,2.2,1.37,4.46,2.07,6.68,1.32,4.47,2.75,8.92,3.82,13.45,2.39,8.74,4.45,17.55,6.08,26.48.35,2.22.68,4.46,1,6.71l.48,3.37c.16,1.12.33,2.25.41,3.38.43,4.51.89,8.96,1.54,13.26.39,3.74.51,7.31.6,10.84.02,1.76.14,3.52.09,5.28-.02,1.76-.02,3.53.02,5.33.05,1.9.09,3.82.14,5.75.01.96.05,1.93.03,2.89l-.11,2.89c-.16,3.85-.37,7.69-.68,11.4-.35,2.7-.7,5.38-1.05,8.06-.16,1.34-.32,2.68-.45,4.02-.14,1.34-.21,2.69-.4,4.02-.39,3.34-.42,6.52-.97,10.16-.43,3.39-1.62,7.11-1.37,10.19.02.26-.42,1.74-.67,2.48-.62,1.76-1.1,3.74-1.52,5.68-.44,1.94-.83,3.87-1.15,5.49-.63,3.16-1.93,5.99-3.95,8.62-1.44,1.77-3.13,3.39-5.07,4.59-1.94,1.18-4.02,2.1-6.17,2.65-4.29,1.09-8.7,1.05-12.86.11-3.12-.7-6.1-1.93-8.81-3.64-2.64-1.67-4.99-3.69-7.13-5.84-4.49-4.48-8.44-9.88-10.88-14.92-1.22-2.51-2.42-4.96-3.6-7.39-1.19-2.42-2.41-4.8-3.64-7.21-.35-.69-.7-1.41-1.04-2.14-.32-.74-.65-1.5-.99-2.22-.68-1.45-1.43-2.79-2.33-3.77-.17-.18-.65-1.24-.81-1.75-1.43-4.18-3.11-8.2-4.99-12.16-1.92-3.94-3.67-7.98-5.12-12.2-1.56-4.33-2.93-8.77-4.44-13.2-1.57-4.4-2.81-8.93-4.16-13.4-.33-1.2-.68-2.44-1.01-3.65-.32-1.22-.71-2.4-1.28-3.43-.4-.73-1.06-3.26-1.22-4.53-.22-1.72-.55-3.44-.88-5.17-.3-1.74-.65-3.48-1.02-5.22-.72-3.48-1.65-6.95-2.13-10.46-.31-1.99-.65-3.98-1-5.96-.34-1.99-.74-3.97-.98-5.98-.53-4.01-1.06-8.03-1.24-12.09-.08-3.45-.39-8.11-1.55-12.15-.48-1.86-.36-5.83-.63-8.78-.21-2.43-.74-4.75-.77-7.16-.06-2.05.2-4.11.29-6.19.03-.62.01-1.37-.05-1.98-.33-2.94-.31-5.89-.3-8.83.05-2.94.06-5.89.29-8.82.47-5.87.93-11.74,1.4-17.65.23-2.97.4-5.95.72-8.94.33-3,.75-6.04,1.39-9.09,1.29-6.07,3.51-12.31,7.87-17.4,2.37-2.74,5.34-5.1,8.54-6.41,3.16-1.37,6.49-1.57,8.87-.88,1.08.35,1.56.71,1.44,1.02-.06.15-.27.3-.62.43-.36.13-.86.22-1.52.39-1.94.44-3.99,1.25-5.92,2.26-3.11,1.59-5.72,4.1-7.71,6.82-2.08,2.84-3.4,6.19-4.37,9.65-.97,3.48-1.58,7.12-2.28,10.9-.44,2.35-.35,5.22-1.16,7.15-.11.27-.25,1.26-.25,1.73.02,2.61-.07,5.23-.22,7.85-.12,2.63-.19,5.28-.36,7.93l-.25,3.98-.13,1.99-.06,1.99c-.07,2.66-.14,5.31-.15,7.95.03,9,1.15,17.64,1.43,26.7.51,2.45.99,5.13,1.28,7.82.3,2.69.47,5.41.6,7.92,1.23,17.73,5.23,35.2,9.82,52.34,4.67,17.41,10.9,34.4,18.25,50.86,1.29,2.79,2.81,4.99,4,8.4,1.15,3.19,3.44,6.94,5.21,10.45,1.61,3.24,3.6,6.42,5.15,9.37,3.21,6.09,7.44,11.69,12.98,15.44,1.4.93,2.79,1.71,4.31,2.33,1.51.6,3.07,1.11,4.68,1.4,3.2.65,6.51.59,9.6-.09,3.05-.75,5.89-2.22,7.9-4.51,2.1-2.22,3.36-5.27,4.29-8.51.94-3.25,1.53-6.8,2.19-10.24l.97-5.19c.32-1.73.66-3.45.84-5.2.54-4.25,1.01-8.5,1.49-12.75.29-4.27.61-8.55,1.09-12.84.04-.46.09-.92.13-1.38.01-.47.03-.93.04-1.4.02-.94.05-1.88.07-2.82.08-1.88.24-3.75.69-5.56.13-.51.09-1.63.02-2.92-.03-.64-.07-1.33-.11-2-.06-.67-.1-1.33-.11-1.92-.03-2.94-.06-5.89-.09-8.83-.02-1.47.03-2.95-.06-4.42l-.23-4.42-.32-6.13-.16-3.07-.3-3.06c-.43-4.07-.8-8.15-1.32-12.2-.81-4.92-1.79-9.77-2.7-14.66-.55-2.55-1.08-5.11-1.59-7.68-.54-2.56-.93-5.16-1.58-7.68-.75-3.22-1.46-6.44-2.17-9.66l-.54-2.42-.66-2.39c-.45-1.59-.9-3.18-1.34-4.77-1.76-6.64-4.64-13.21-6.47-19.52-.91-2.92-2.04-5.76-3.12-8.61-1.13-2.84-2.16-5.72-3.51-8.45l-3.9-8.28-.98-2.07c-.33-.69-.71-1.35-1.06-2.03l-2.13-4.05c-1.42-2.67-2.76-5.4-4.26-8.04l-4.64-7.83c-3.02-5.29-6.4-10.22-10.34-14.58-2.24-2.45-4.43-4.72-6.85-6.66-2.41-1.93-5.08-3.53-8.09-4.36-.35-.09-.71-.22-1.07-.37-.36-.15-.73-.25-1.1-.41-.73-.31-1.43-.68-2.04-.95-1.21-.6-2.01-1.27-1.34-1.57.25-.11.8-.22,1.34-.25,6.94-.24,13.77,2.39,19.51,7.93,4.22,4.13,7.71,8.78,10.84,13.58,1.57,2.4,2.94,4.85,4.42,7.28,1.44,2.44,2.94,4.85,4.33,7.31Z"/>
  <path class="cls-1" d="M242.57,183.53c-.62.01-1.24-.03-1.86.06-.23.03-.47-.3-.7.4-.11.35-.35-.47-.57-.43-.57.1-1.16,0-1.74.09-.56.09-1.11.39-1.68.48-.56.09-1.14-.27-1.67.15-.46.37-.89-.26-1.34-.1-.47.17-.96.29-1.43,0-.34-.21-.68-.49-1.02-.34-.21.09-.4.51-.63.48-.21-.02-.46-.36-.63.44-.01.07-.11-.08-.16-.19-.24-.52-.52-.48-.71-.12-.18.35-.35.31-.52.33-.48.05-.96.09-1.44.02-.36-.06-.72-.36-1.08-.43-.38-.08-.77.3-1.12-.09-.35-.39-.68-.37-1.02-.37-.19,0-.42-.37-.58.45-.01.08-.09.07-.12,0-.55-1.06-1.1.33-1.66.07-.58-.28-1.17-.08-1.76-.06-.16,0-.32-.23-.47.35-.05.21-.22.23-.3.08-.42-.81-.89-.33-1.33-.47-.5-.17-1.02.19-1.52-.45-.21-.27-.5-.42-.78.32-.13.34-.37-.02-.56.06-.16.06-.32.4-.47.41-.13,0-.25-.3-.37-.45-.04-.04-.08-.05-.13,0-.78.83-1.47-.35-2.23-.16-.77.2-1.53.05-2.28-.12-.41-.09-.83-.36-1-1.85-.08-.67-.02-1.38.19-1.78.15-.3.32-.58.47-.64.24-.11.48-.27.72-.37.49-.22.99-.86,1.45-.47.14.12.34-.26.43.4.01.09.07.14.1.1.7-.98,1.33-.27,1.99-.32.56-.04,1.13-.83,1.68-.46.34-.8.69-.65,1-.39,1.08.89,2.21.34,3.31.46,1.12.13,2.25.02,3.38.07.19,0,.36-.45.58-.1.21.33.49.07.73.07.23,0,.46-.18.68.03.89.84,1.78.32,2.67.4.89.07,1.78.14,2.66-.08.54-.14,1.06-.6,1.61-.44.23.07.47-.38.72.38.07.21.27-.37.42-.4.37-.07.74-.04,1.12-.05.52-.01,1.04.03,1.55-.06.31-.05.62-.38.93-.46.33-.09.66-.09.99-.03.42.09.85.35,1.27.41.44.07.88-.29,1.31.05.79.64,1.55.29,2.33.35.77.06,1.54.1,2.31-.07.44-.1.84.54,1.27.53.2,0,.49,1.88.41,2.53-.01.12-.05.25-.08.3-.41.6-.78,1.54-1.25,1.48-.7-.08-1.4,0-2.1.01Z"/>
  <path class="cls-1" d="M249.77,226.65c-.52.02-1.05-.02-1.57.09-.19.04-.41-.29-.58.41-.08.35-.31-.46-.49-.41-.48.11-.98.03-1.46.15-.47.11-.92.42-1.38.55-.46.12-.98-.21-1.39.24-.35.39-.77-.21-1.13-.02-.38.2-.77.35-1.19.09-.31-.18-.62-.43-.88-.25-.16.11-.28.54-.47.53-.18,0-.43-.32-.47.49,0,.07-.1-.06-.16-.17-.26-.49-.49-.42-.6-.05-.11.37-.25.34-.39.38-.39.1-.78.18-1.18.17-.3-.01-.64-.26-.95-.29-.32-.03-.59.38-.94.05-.35-.33-.62-.26-.9-.21-.16.03-.41-.3-.4.52,0,.08-.06.08-.1.02-.65-.97-.83.5-1.34.33-.52-.17-.97.11-1.44.24-.13.03-.31-.17-.3.43,0,.21-.13.26-.22.13-.52-.71-.79-.15-1.18-.2-.44-.06-.77.41-1.33-.11-.24-.22-.51-.3-.54.48-.01.36-.3.07-.43.19-.11.1-.14.46-.26.5-.1.03-.28-.23-.42-.34-.04-.03-.08-.03-.1.02-.38.97-1.26.03-1.8.42-.54.38-1.17.46-1.8.53-.35.03-.76-.1-1.41-1.44-.29-.6-.5-1.28-.47-1.73.02-.33.06-.64.16-.75.16-.17.31-.4.47-.57.33-.35.54-1.13,1.05-.89.16.07.21-.34.49.26.04.08.1.12.12.06.29-1.13,1.04-.65,1.59-.86.47-.18.74-1.09,1.31-.87.08-.86.43-.79.76-.62,1.16.61,1.99-.17,2.99-.27,1.01-.1,1.97-.4,2.97-.54.17-.02.23-.5.49-.19.24.3.44,0,.65-.04.2-.04.38-.24.6-.08.91.71,1.61.08,2.4.05.79-.02,1.57-.06,2.32-.36.45-.19.87-.69,1.37-.58.21.05.38-.41.66.32.08.21.21-.39.34-.43.32-.1.65-.09.98-.13.45-.05.92-.03,1.36-.15.27-.07.52-.41.79-.51.28-.11.58-.12.88-.07.38.07.76.31,1.14.36.39.05.76-.32,1.15.01.71.62,1.37.25,2.05.3.68.05,1.35.08,2.02-.09.38-.1.74.54,1.11.53.17,0,.42,1.88.36,2.53-.01.12-.04.25-.07.3-.35.6-.66,1.54-1.06,1.49-.6-.09-1.19,0-1.78.03Z"/>
  <path class="cls-1" d="M247.76,185.39c-.11.62-.19,1.29-.21,1.95,0,.34,0,.63.02,1l.1,1.15c.06.57-.24,1.18.48,1.73.36.27-.42.88-.35,1.41.19,1.43.18,2.88.39,4.3.2,1.39.62,2.75.85,4.13.23,1.37.02,2.83.6,4.1.5,1.1,0,2.21.31,3.29.33,1.14.61,2.32.49,3.5-.08.86-.23,1.73.05,2.52.18.5.66.9.73,1.47.07.52-.16,1.17.71,1.47.07.03-.03.28-.11.42-.41.65-.24,1.33.2,1.73.43.4.46.77.55,1.02.03.1.06.17.06.14h.01s.02,0,.02,0c0,0,0,.02,0,.06,0,.03,0,.13.04.22.04.04.03.09.1.12.08.02.18.03.26.01.42-.11.33-.48.94-.66.61-.17.88-.76,1.08-1.39.12-.35.61-.74-.12-1.26-.07-.05-.03-.2.05-.25.65-.46.67-1.16.59-1.84-.07-.68-.24-1.38-.04-2.02.46-1.33.41-2.77.48-4.15.01-.37.27-.75-.3-1.12-.2-.13-.2-.51-.04-.69.81-.98.38-2.08.46-3.11.14-1.2-.34-2.33.17-3.58.2-.53.25-1.25-.57-1.73-.39-.21-.15-.83-.31-1.23-.14-.33-.52-.59-.62-.92-.08-.28.14-.63.21-.96.02-.1,0-.2-.07-.28-.6-.71-.83-1.49-.93-2.34-.17-.82-.23-1.71-.71-2.42-.47-.72-.85-1.47-1.29-2.2-.39-.76-.82-1.49-1.25-2.23-.45-.83-.89-1.69-.15-3.17.32-.66.86-1.13,1.46-1.04.44.06.9.19,1.2.45.48.4.99.8,1.41,1.24.44.46,1.01.84,1.47,1.32.45.48.85,1.01,1.01,1.67.1.41.64.69.2,1.28-.06.08-.03.25.04.31,1.7,1.15,1.71,3.18,2.3,4.84.48,1.43,1.61,2.71,1.53,4.31.97.7.92,1.75.8,2.62-.54,3.08.05,6.02-.25,8.98-.31,3-.59,5.9-1.18,8.88-.11.53.23,1.11-.3,1.69-.5.52-.52,1.42-.9,2.18-.33.68-.66,1.52-1.33,2-.66.47-1.47,1.01-2.24,1.35-.8.36-1.52.61-2.46.76-1.83.29-3.91-.19-5.11-1.69-.59-.71-.98-1.64-1.2-2.48-.18-.72-.27-1.29-.37-1.84-.21-1.11-.45-2.22-.76-3.31-.37-1.33-1.04-2.61-1.1-4.01-.02-.6-.55-1.15.11-1.84.19-.2-.47-.65-.55-1.03-.21-.93-.29-1.88-.42-2.82-.18-1.31-.29-2.62-.51-3.92-.14-.79-.54-1.55-.7-2.34-.17-.83-.25-1.68-.25-2.52,0-1.07.17-2.15.17-3.22-.01-1.11-.44-2.23-.16-3.31.27-1,.29-1.98.25-2.96l-.04-.74c0-.28-.03-.57-.03-.84-.01-.56.02-1.12.09-1.67.07-.55.17-1.1.3-1.66l.1-.42.16-.56c.1-.39.26-.75.4-1.12.62-1.43,1.61-2.73,3.11-3.16.82-.29,1.72-.07,2.48.26.78.35,1.44.83,2.12,1.27.77.5-.03,2.39-.63,2.7-.11.07-.24.12-.32.11-.55-.07-.95.14-1.25.33-.3.19-.44.39-.61.34-.28-.11-.55.07-.66.32-.06.12-.11.25-.14.38l-.05.2-.1.52Z"/>
  <path class="cls-1" d="M102.01,329.68c.82,6.19,1.58,12.39,2.48,18.57.33,2.3.31,4.69,1.31,7.01.5,1.16-.02,3.47.29,5.59.39,2.9.9,5.71.99,8.77.14,2.93.28,5.86.42,8.78.25,5.69.57,11.38.52,17.09-.03,2.83-.21,5.7-.39,8.54-.07,1.35-.2,3.03-.4,4.45-.19,1.45-.39,2.84-.54,4.21-.55,4.74-2.09,8.7-2.75,13.07-.68,4.61-1.4,9.42-1.6,13.56-.02.73-.03,1.47.05,2.1.02.34.09.61.14.88l.1.36.21.43c.54,1.17,1.43,2.23,2.58,3.03,1.46,1.01,3.18,1.4,5.08,2.11,1.77.66,3.93,1.49,5.77.97.15-.04,1,.25,1.44.4,2.07.81,4.8.93,6.65.6,1.8-.34,3.38-.3,5.05-.4,4.59-.26,9.21-.84,13.71-1.66,1.69-.31,3.37-.61,5.01-.97,1.65-.35,3.17-.81,4.82-1.44,3.38-1.25,6.52-3.28,9.1-4.81,1.28-.79,2.35-1.76,3.1-2.86.75-1.1,1.17-2.31,1.3-3.64.18-1.47.24-3.54-.94-4.71-.09-.1-.28-.73-.3-1.03-.23-2.55-1.41-4.99-2.69-7.35-1.3-2.37-2.76-4.72-3.81-7.35-1.08-2.7-2.25-5.46-3.29-8.25l-1.53-4.18c-.52-1.39-1.04-2.78-1.46-4.19-.47-1.5-.74-3.18-1.74-4.4-.17-.22-.39-.72-.57-1.27-.17-.55-.29-1.16-.33-1.56-.17-2.22-.69-4.39-1.25-6.57-.51-2.19-1.11-4.37-1.54-6.56-.47-2.5-.99-4.98-1.5-7.48-.48-2.5-.82-5.03-.96-7.6-.12-2.17-.37-5.1-1.52-7.55-.54-1.13-.5-3.63-.83-5.46-.26-1.5-.82-2.92-1-4.41-.16-1.27-.01-2.59-.02-3.89,0-.39-.06-.86-.15-1.23-1.7-7.24-1.31-14.65-2.3-21.97-1-7.37-1.68-14.85-2.48-22.24-.41-4.08-.79-8.27.28-11.25.48-1.34,1.18-1.46,1.84.22.48,1.23.98,2.65,1.26,4.1.46,2.32.9,4.64,1.31,6.9.84,4.7,2.04,9.34,2.19,14.3.05,1.54.63,3.29.11,4.62-.07.18-.06.82.02,1.11,1.69,6.42,1.71,13.28,2.53,19.9.69,5.64,2.17,10.97,2.6,16.67,1.27,2.98,1.63,6.64,1.94,9.79.99,11.15,3.96,21.98,7.16,32.59.76,2.71,1.71,5.36,2.65,8.01.9,2.68,1.95,5.22,3.09,7.79,1.14,2.56,2.37,5.11,3.6,7.71,1.22,2.61,2.47,5.26,3.46,8.16.65,1.96,1.66,3.68,1.55,6.45-.09,1.28-.11,2.79-.46,4.36-.33,1.55-.92,3.18-1.79,4.45-1.53,2.4-3.61,4.33-5.68,5.5-2.16,1.21-4.32,2.15-6.48,3.07-1.08.44-2.16.88-3.24,1.28-1.06.41-2.21.84-3.34,1.18-4.51,1.38-9.02,2.3-13.59,2.83-4.54.51-9.13.75-13.74.61-4.61-.14-9.25-.61-13.87-1.94-2.8-.82-5.67-1.96-8.21-4.04-1.25-1.03-2.42-2.3-3.25-3.82-.43-.66-.86-1.74-1.05-2.57-.11-.44-.17-.84-.24-1.27-.04-.4-.09-.81-.11-1.21-.13-2.66-.35-5.3.67-7.6.29-.64,0-2.95.24-4.47.55-3.78,1.35-7.47,2.11-11.14.52-2.54,1.06-5.07,1.51-7.57.22-1.24.42-2.48.54-3.66.11-1.08.14-2.47.19-3.73.1-3.13-.12-6.24-.15-9.38-.03-3.28-.03-6.59-.01-9.87.03-4.16.15-8.3,0-12.47-.04-1.1-.11-2.13-.19-3.18-.12-1.07-.32-2.18-.47-3.26-.32-2.17-.61-4.33-.7-6.4-.36-7.74-1.7-15.36-2.64-23.02-.48-3.81-.96-7.62-1.43-11.43l-.77-5.71-.1-.71c-.02-.16-.02-.12-.03-.19l-.08-.34-.32-1.39-.67-2.77c-1.06-4.18-1.4-8.16-2.56-12.22-.53-1.88.48-4.98,1.34-4.4.16.11.38.39.53.69,1.78,3.84,3.69,7.34,4.77,12.06l1.16,5.22.28,1.31.14.65.09.4.06.44.35,2.63,1.41,10.52Z"/>
  <path class="cls-1" d="M414.13,117.74c-2.94.3-5.88.63-8.77,1.2-1.08.22-2.25.07-3.24.96-.49.45-1.68-.13-2.68.11-1.34.32-2.68.63-4.02.95-1.35.3-2.68.65-4,1.06-1.29.38-2.54.84-3.79,1.34l-3.74,1.44c-2.48.91-5.17,1.53-7.38,2.87-.95.59-1.94.92-2.94,1.23-.99.33-1.97.65-2.9,1.15-.99.52-1.98,1.09-3,1.6-1.01.51-2.05.94-3.09,1.34-1.51.56-3.07,1.03-4.37,1.97-.82.57-1.42,1.38-2.37,1.9-.87.5-2.02.81-2.34,1.95-.03.1-.49.21-.74.23-1.2.13-2.28.91-2.84,1.7-.54.78-1.24,1.17-1.78,1.6-.77.6-1.44,1.22-1.87,1.77-.45.56-.58.95-.64,1.2-.02.1-.01.22-.05.35.01.1-.03.21,0,.32.02.22.2.55.61.84.91.61,2.53.6,3.86,1.05.69.25,1.41.32,2.12.33.66,0,1.49-.12,2.29-.22.91-.12,2.02.13,2.66-.79.06-.09.4-.12.56-.08,2.74.69,5.07-1.1,7.7-1.32,2.73-.21,5.43-.98,8.12-1.62.72-.16,1.54-.11,2.06-.85.18-.26.93-.46,1.32-.41,2.17.29,4.14-.73,6.18-1.18,2.34-.5,4.52-1.55,7-1.71,1.05-.07,2.43-.35,3.34-1.48.42-.51,1.63-.57,2.43-.94.65-.31,1.18-.88,1.84-1.14.56-.22,1.24-.14,1.86-.24.18-.03.39-.11.55-.21,2.93-2.04,6.56-2.36,9.66-4,3-1.63,5.99-3.19,8.02-5.25,1.14-1.15,1.94-2.21,3.65-3,.78-.36,1.5-.31,1.67.68.08.37.09.75.06,1.15-.01.41-.11.8-.26,1.18-.48,1.19-1.1,2.35-1.86,3.33-1.57,2.02-3.33,4.05-5.73,4.96-.74.28-1.38,1.04-2.24.73-.12-.04-.42.05-.54.16-2.52,2.29-5.84,2.98-8.84,4.26-2.55,1.08-4.79,2.8-7.56,3.4-1.18,1.29-2.97,1.73-4.53,1.98-5.5.88-10.65,2.92-16.05,4.05-5.47,1.15-10.95,2.3-16.49,3.05-.94.13-1.69.71-2.85.49-.54-.1-1.14-.04-1.75.06-.31.06-.62.11-.93.17-.35.05-.71.1-1.05.13-1.25.09-2.6.23-3.79-.12-1.23-.36-2.45-.74-3.69-1.29-1.23-.56-2.54-1.32-3.58-2.62-.52-.63-.92-1.41-1.17-2.21-.23-.8-.34-1.61-.29-2.44.11-1.68.87-3.16,1.73-4.22,1.75-2.12,3.83-3.32,5.6-4.5,1.82-1.23,3.67-2.4,5.47-3.63,2.23-1.46,4.32-3.18,6.79-4.27,1.04-.49,1.93-1.42,3.29-1.23.38.05,1.09-.94,1.74-1.29,1.64-.84,3.33-1.56,5.02-2.29l3.55-1.45c1.19-.46,2.39-.91,3.57-1.4,1.44-.6,2.8-1.36,4.26-1.95,1.52-.6,3.11-1.06,4.69-1.47,2.03-.46,4.07-.78,6.1-1.18,1.05-.21,2.1-.54,3.14-.82,1.05-.25,2.1-.47,3.14-.51,1.93-.08,3.82-.27,5.68-.61,1.88-.25,3.74-.62,5.63-.78l3.26-.3h.04c1.55-.19,2.96-.2,4.49-.03,1.51.19,3.11.56,4.67,1.52,1.27.79,2.21,2.14,2.57,3.5.39,1.37.35,2.65.3,3.86-.03.57-.57,1.17-1.2,1.48-.62.32-1.27.39-1.56.14-.11-.09-.21-.26-.23-.42-.13-.97-.47-1.85-.87-2.52-.42-.68-.8-1.09-1.15-1.53-.46-.6-1.4-1.07-2.58-1.28-1.15-.21-2.56-.2-3.73-.04l-.21.03-1.02.11Z"/>
  <path class="cls-1" d="M375.01,225.23c-3.65.23-7.31.5-10.88,1.05-1.32.22-2.75.07-3.97,1.02-.61.45-2.02-.09-3.2.23-1.59.42-3.14.9-4.59,1.47-1.41.56-2.83,1.31-3.52,2.12-.38.41-.38.58-.39.81.03.11.03.22.09.32l.09.13s.12.13.16.2c.54.67,1.7,1.5,2.98,2.15,2.53,1.34,5.57,2.72,8.62,3.07,1.33.14,2.52.47,3.77.81,1.26.34,2.5.7,3.82.88,2.79.36,5.66.78,8.31,1.56,1.93.57,3.84,1.17,5.83,1.36,1.24.11,2.45-.11,3.78.13,1.23.22,2.59.77,3.79.14.1-.05.63.17.9.32,1.26.71,2.91.89,4.08.69,1.14-.19,2.1-.04,3.11.07,2.79.3,5.59.57,8.37.91,2.08.26,4.14.73,6.23.95,2.18.24,4.53-.02,6.53.46,2.01.45,3.96.52,5.94.51,1.13,0,2.45.41,3.37-.43.09-.08.51-.07.7-.01,1.61.51,3.21.42,4.8.15,1.58-.25,3.2-.57,4.76-.57,1.61,0,3.17-.17,4.57-.58.7-.2,1.35-.46,1.95-.77.59-.3,1.18-.68,1.59-1.02.46-.38,1.14-.79.95-1.6-.06-.28.21-.8.45-1.01.68-.58.91-1.44.8-2.11-.11-.68-.46-1.14-.96-1.72-.58-.67-1.68-1.18-2.91-1.67-1.24-.48-2.72-1.02-4-1.8-1.11-.64-2.71-1.34-4.37-1.07-.76.12-2.03-.64-3.09-.87-.87-.2-1.78-.09-2.62-.31-.71-.19-1.35-.68-2.05-1-.21-.1-.47-.17-.7-.18-4.32-.23-8.23-2.16-12.56-2.59-4.33-.43-8.7-1.05-13.08-1.63-2.41-.32-4.88-.79-6.4-2.41-.68-.73-.62-1.44.45-1.76.79-.24,1.69-.44,2.57-.43,1.41,0,2.82,0,4.18,0,2.84.05,5.73-.31,8.63.44.9.24,2.02,0,2.68.75.09.11.46.21.64.19,4.05-.43,8.02.98,11.96,1.84,3.35.72,6.8.84,10.01,2.2,2.06-.21,4.15.63,5.88,1.47,1.53.77,3.04,1.35,4.81,2.17.87.41,1.77.9,2.66,1.53.89.64,1.78,1.44,2.47,2.46.7,1.02,1.2,2.23,1.4,3.45.21,1.22.15,2.43-.09,3.55-.49,2.24-1.59,4.19-3.15,5.72-1.64,1.61-3.56,2.59-5.45,3.23-1.9.65-3.8.97-5.6,1.16-1.82.19-3.54.26-5.26.33-1.72.08-3.45.13-5.17.13-1.17,0-2.18.5-3.56.11-1.29-.36-2.96-.08-4.46-.14-1.37-.05-2.83.09-4.11-.17-5.32-1.08-10.74-1.02-16.08-1.68-5.31-.66-10.61-1.46-15.89-2.07-3.22-.38-6.49-.46-9.68-1.2-1.36-.32-2.88-.14-4.1-1.13-.34-.28-1.73.05-2.61-.09-2.2-.34-4.38-.81-6.57-1.22-3.15-.63-6.27-1.45-9.39-2.56-1.9-.68-3.91-1.23-5.85-2.42-1.01-.64-2.03-1.42-2.98-2.54-.47-.57-.93-1.24-1.28-2.12-.17-.45-.34-.91-.4-1.39-.04-.24-.07-.48-.1-.71,0-.24,0-.48.01-.72,0-.61.19-1.2.36-1.77.23-.56.49-1.12.82-1.56.16-.22.33-.47.5-.66l.5-.51c.34-.36.68-.58,1.03-.86,1.38-.99,2.72-1.56,4.03-2.1,2.7-1.05,5.39-2.11,8-2.29,4.82-.3,9.39-1.11,14.05-1.4,4.6-.23,9.21-.46,13.8-.69,2.61-.15,4.99.46,7.53.45,1.19,0,2.78,1.9,2.28,2.54-.09.12-.29.25-.48.3-2.47.58-4.72,1.53-7.54,1.52-4.16-.01-8.33.21-12.47.47Z"/>
  <path class="cls-1" d="M373.13,326.02c2.14.44,4.28.88,6.42,1.31.81.15,1.53.68,2.54.22.5-.23,1.07.78,1.81.94,2.02.48,3.98,1.26,5.96,1.96,1.93.69,3.91,1.31,5.78,2.24.92.47,1.78,1.06,2.63,1.65.44.3.88.6,1.32.9.45.29.92.55,1.38.82.41.22.77.49,1.1.78.31.31.6.65.87.98.57.65,1,1.41,1.64,2.02,1.29,1.36,2.47,3.05,2.91,5l.2,1.07c.06.35.08.74.12,1.1.12.71.11,1.48.24,2.22.04.48.11.98.18,1.49.06.51-.03,1.08-.2,1.65-.16.53-.57,1.01-.81,1.53-.25.52-.55.97-.56,1.64,0,.11-.45.43-.72.48-.63.17-1.18.52-1.69.8-.5.27-.94.61-1.27.99-.64.63-1.38.87-2.11,1.05-2.02.56-4,.69-5.86.56-1.41-.1-2.7-.56-4-.82-1.34-.28-2.85-.21-3.97-.87-1.13-.66-2.26-.93-3.42-1.24-.66-.18-1.31-.75-2.07-.13-.07.06-.31-.02-.41-.12-1.55-1.57-3.73-.78-5.51-1.62-1.83-.87-3.85-1.34-5.8-2.02-.52-.19-.99-.6-1.67-.24-.24.13-.8-.07-1.01-.31-1.13-1.32-2.81-1.51-4.2-2.33-1.57-.91-3.4-1.51-4.65-3.04-.26-.33-.59-.67-1.01-.92-.41-.27-.91-.45-1.53-.44-.58.02-1.08-.88-1.67-1.27-.47-.35-1.13-.49-1.56-.9-.38-.37-.52-1.02-.76-1.52-.07-.15-.21-.3-.33-.41-1.26-1.04-2.07-2.55-2.39-4.21-.31-1.66-.34-3.35-.14-5.12.17-1.77.94-3.61,2.24-5.02,1.29-1.45,3.07-2.26,4.73-2.67,1.87-.5,3.79-.13,4.69,1.4.41.69.28,1.39-.33,1.78-.44.3-.92.51-1.35.63l-1.02.29c-.31.14-.6.3-.89.43-.58.31-1.01.78-1.35,1.22-.2.19-.29.46-.48.63-.17.19-.3.41-.55.56-.13.12-.13.33-.21.48-.09.15-.2.28-.54.34-.1.01-.19.16-.16.24.31.91.37,1.65.52,2.49.09.83.35,1.73.82,2.52.24.31.5.61.79.87l.95.7c.37.24.73.48,1.05.75.34.27.67.55.95.9,1.26-.02,2.08.72,2.8,1.47,2.58,2.64,6.31,3.67,9.77,5.07,3.54,1.45,7.33,2.48,11.05,3.66.63.19,1.3-.08,1.94.46.6.52,1.57.51,2.38.71.74.18,1.55.2,2.2.55,2.7,1.45,5.78,1.38,8.44,1.26,2.64-.07,5.25-1.12,5.6-2.83.27-1.07-.28-2.27-.6-3.65-.07-.3-.25-.57-.42-.86-.16-.29-.19-.63-.06-1.1.07-.27-.73-.53-1.01-.86-.7-.84-1.36-1.74-2.19-2.51-.54-.57-1.16-1.05-1.76-1.57-.65-.46-1.26-.92-2.02-1.33-.89-.52-1.93-.74-2.86-1.15-.97-.43-1.93-.9-2.88-1.39-1.19-.64-2.37-1.36-3.64-1.9-1.34-.53-2.86-.63-4.11-1.32-2.33-1.3-4.99-1.53-7.56-2.12-1.32-.28-2.5-.6-3.82-.77-1.31-.18-2.62-.33-3.93-.42-1.49-.11-2.75-.93-4.2-1.12-.67-.09-1.34-2.09-.97-2.69.07-.11.2-.23.32-.26,1.51-.4,2.96-1.15,4.6-.86,1.21.21,2.42.38,3.64.54l1.83.23c.61.08,1.24.22,1.86.33Z"/>
  <path class="cls-1" d="M316.84,51.58c.29.12.52.31.76.47l.51.36c.34.23.66.53.98.79.64.55,1.27,1.15,1.85,1.82.23.23.36.56.56.83.2.28.47.5.93.65.48.16.09,1.12.33,1.68.73,1.55.87,3.28.92,4.88.05,1.57.04,3.14-.3,4.61-.33,1.46-1.24,2.68-1.54,4.18-.26,1.31-1.45,1.92-2.02,2.95-.63,1.09-1.43,2.17-2.53,2.78-.79.46-1.62.79-2.21,1.43-.37.39-.53,1.04-1.05,1.34-.47.3-1.17.33-1.17,1.26,0,.08-.29.08-.45.05-.78-.16-1.38.2-1.66.74-.28.52-.69.68-1.1.87-1.12.53-2.28,1.01-3.5,1.28-.92.22-1.97.16-2.93.22-1,.07-2.09.52-3.07.11-.96-.42-1.86-.49-2.83-.72-.57-.14-1.04-.68-1.81-.12-.07.05-.28-.04-.35-.15-.57-.87-1.32-1.2-2.13-1.7-.42-.21-.8-.52-1.18-.82-.34-.34-.67-.71-.85-1.18-.75-1.88-1.16-3.72-1.16-5.4,0-.46.27-.89-.27-1.34-.19-.16-.16-.62.02-.82.99-1.02.75-2.26,1.24-3.35.52-1.21.71-2.6,1.85-3.51.51-.36.95-.94.67-1.89-.13-.44.51-.8.7-1.24.17-.35.12-.87.34-1.19.19-.28.63-.36.96-.52.1-.05.17-.14.2-.25.57-2.03,2.72-2.6,3.97-3.95,1.28-1.39,2.89-2.43,4.54-3.31.91-.48,1.97-.79,3.24.2.57.44.88,1.08.73,1.64-.11.41-.26.82-.51,1.05-.4.36-.75.79-1.12,1.14-.76.77-1.2,1.9-2.26,2.24-.33.12-.38.66-1.01.32-.09-.05-.23,0-.25.08-.42,1.69-1.9,2.16-2.8,3.29-.74.97-.79,2.33-1.69,3.12.32.96-.11,1.5-.63,1.95-1.75,1.62-1.91,4.16-2.14,6.17-.12,1.02.01,1.93.32,2.54.32.61.75,1.08,1.45,1.44.11.07.28.02.43,0,.15-.02.28.01.4.23.22.42.75.26,1.17.31.39.05.82-.11,1.22.09.83.41,1.76.39,2.63.19.85-.2,1.75-.58,2.65-.86,1.79-.56,3.56-1.35,4.99-2.57.89-.73,1.46-1.77,2.37-2.39.41-.27.42-.91,1.29-.75.26.05.12-.67.28-.92l.65-.9c.23-.29.44-.59.62-.91.55-.86,1.03-1.73,1.32-2.74.19-.62.07-1.31.15-1.9.08-.62.2-1.21.33-1.78.2-.72.42-1.41.42-2.13-.02-.75-.59-1.29-.56-2.03.01-.72-.34-1.34-.8-1.87-.23-.27-.51-.5-.78-.74l-.87-.7-.41-.31c-.07-.07-.12-.1-.19-.13l-.11-.04-.21-.06c-.15-.04-.31-.07-.47-.1-.64-.11-1.33-.07-1.98.09-.72.19-1.6-.23-2.39.1-.31.15-1.7-1.29-1.84-1.94-.02-.13,0-.28.05-.35.64-.99,1.36-2.25,2.74-2.48,1-.15,2.02-.23,3.05-.18.52.02,1.03.08,1.55.18.26.05.52.11.79.18.3.08.66.2.97.34Z"/>
</svg>