<?xml version="1.0" encoding="UTF-8"?>
<svg id="Content" xmlns="http://www.w3.org/2000/svg" viewBox="0 0 500 500">
  <defs>
    <style>
      .cls-1 {
        fill: #fff;
        stroke-width: 0px;
      }
    </style>
  </defs>
  <path class="cls-1" d="M343.62,247.86c6.67-13.11,11.6-27.16,13.76-41.62.19-1.35.39-2.7.58-4.06.22-1.36.27-2.74.4-4.12.05-.69.09-1.38.14-2.08l.05-1.04-.02-1.05c-.04-1.4-.13-2.81-.28-4.21-.34-2.78.27-8.04-.45-13.03l-.15-1.26c-.06-.42-.16-.83-.23-1.25l-.47-2.5-.47-2.5c-.15-.84-.41-1.65-.61-2.47-.44-1.64-.83-3.3-1.29-4.93l-1.62-4.84c-.49-1.63-1.21-3.18-1.85-4.76l-.98-2.36-.5-1.18-.57-1.14-2.3-4.56c-.36-.77-.8-1.49-1.24-2.21l-1.29-2.17c-6.98-11.13-17.33-19.68-28.97-25.68-11.56-5.96-24.7-10.02-37.31-11.69-10.91-1.41-20.81-2.82-31.44-2.97-11.25-.14-22.92.3-33.99.61-8.06.24-16.04.61-23.98,1.7-4.95.69-9.5,1.75-14.85,2.64-4.95.82-10.65,1.65-14.69,3.48-.34.14-2.55.57-3.68.74-5.37.85-11.7,2.91-15.77,4.86-3.97,1.89-7.54,3.33-11.15,5.16-9.92,4.95-19.14,11.36-26.22,19.61-5.24,6.23-9.73,13.18-12.79,20.88-3.3,8.01-4.76,17.24-6.1,25.2-1.36,8.03-1.64,15.89-1.73,23.94-.06,4.57-.38,9.96.46,13.73.08.35.08,2.08.03,2.87-.47,6.58-.34,13.13-.32,19.73,0,6.6-.03,13.28-1.04,20.02-1.02,6.93-2.45,13.95-4.7,20.8-2.23,6.85-5.32,13.51-9.33,19.55-.57.78-1.14,1.58-1.72,2.38l-.44.6-.11.15s-.01.02-.02.03l-.02.02-.14.18c-.18.23-.3.51.28.27.22-.09.38-.18.38-.19.01,0-.12.07-.32.23-.6.47-.52.62-.27.59.13-.02.31-.06.5-.15l.29-.13,1.35-.74c4.47-2.53,8.72-5.62,12.97-8.65,4.86-3.47,9.6-7.22,14.66-10.72,5.06-3.46,10.47-6.77,16.56-8.78,2.56-.85,5.65-1.74,8.98-2.25,3.33-.54,6.86-.74,10.23-.67.76.05,1.76.08,2.83.33,1.06.24,2.34.51,3.45.88,2.3.73,4.79,1.52,6.92,2.19,3.51,1.07,6.96,1.88,10.37,3.05,2.9,1,5.7,2.32,8.57,3.5.85.35,1.92.74,2.79,1,16.87,5.17,32.86,12.29,49.74,17.41,8.48,2.56,17.02,5.04,25.64,7.14,8.61,2.09,17.32,3.85,25.99,4.59,4.78.41,9.61.48,13.97.16,4.36-.34,8.23-1.09,11.33-2.08,1.4-.44,2.2-.63,2.27-.28.05.31-.61,1.21-2.43,2.41-2.69,1.71-6.19,3.05-9.76,3.65-5.72.99-11.51,1.02-17.06.67-11.54-.82-22.9-2.71-34.3-6.18-3.54-1.08-7.8-1.92-10.54-3.44-.38-.21-1.82-.69-2.52-.87-15.38-3.68-30.62-9.86-45.69-15.24-6.42-2.29-12.79-4.37-19.16-6.42-6.36-2.03-12.77-4.13-19.18-6.07-3.46-.52-7.15-.71-10.83-.3-3.68.39-7.36,1.35-10.71,2.62-2.54.98-5.04,2.19-7.49,3.54-2.44,1.38-4.84,2.9-7.21,4.49-4.73,3.22-9.34,6.74-14.07,10.21-4.74,3.46-9.6,6.9-14.9,9.8-4.59,2.4-9.4,4.38-13.12,5.22-.99.28-1.99.52-2.98.79l-3.15.8-1.65.42-.83.21c-.19.04-.32.05-.48.08l-1.85.27c2.71-2.74,5.44-5.4,8.16-8.36l4.08-4.34,2.04-2.16c.6-.68,1.14-1.35,1.65-2.1,8.08-10.48,12.46-23.33,14.57-36.5,2.14-13.23,2.1-26.85,2.04-40.5-.02-4.66-.55-8.67-.19-14.16.33-5.14.12-11.84.47-17.88.1-2.77.35-5.61.54-8.41.33-2.8.57-5.57,1.13-8.15.97-5.37,2.37-10.7,4.02-15.95l1.35-3.91c.44-1.31,1.04-2.56,1.55-3.84.98-2.59,2.33-5.02,3.54-7.51.66-1.22,1.4-2.39,2.1-3.59l1.06-1.79c.37-.59.79-1.14,1.18-1.71l2.4-3.41c.85-1.1,1.75-2.17,2.62-3.26,3.63-4.23,7.76-8.01,12.21-11.29,8.86-6.54,18.83-11.31,29.04-15,10.23-3.69,20.76-6.32,31.33-8.36,12.9-2.46,25.87-4.29,39.07-4.93,5.62-.28,11.52-.98,17.11-.37,1.58.16,6.82-.52,10.45-.55,9.01-.08,18.08.3,27.11,1.15,12.53,1.2,25.07,3.43,37.17,7.37,7.35,2.44,14.61,5.22,21.4,9.24,1.76,1.08,3.53,2.14,5.2,3.36,1.73,1.15,3.33,2.47,4.97,3.76,3.16,2.7,6.23,5.55,8.88,8.76,3.4,4.01,6.38,8.37,8.83,12.99,1.17,2.31,2.25,4.64,3.39,6.96,1.03,2.37,1.94,4.78,2.93,7.17,3.79,10.01,6.32,21.09,6.47,31.35.35,19.07-3.62,37.9-10.98,55.19-7.33,17.21-17.57,33.01-29.14,47.5-3.32,4.1-6.72,7.82-10.28,11.35-3.53,3.55-7.16,6.95-10.97,10.42-3.55,3.3-9.79,5.87-8.66,4.12.21-.33.73-.93,1.29-1.46,7.23-6.83,13.01-13.91,20.54-22.35,11.01-12.57,20.6-26.48,28.12-41.38Z"/>
  <path class="cls-1" d="M370.66,397.16c-3.67-.91-7.32-1.71-11.04-2.26-1.87-.26-3.72-.59-5.6-.79l-5.63-.59c-7.53-.65-15.11-.77-22.7-.6-5.65.12-11.45.05-17.31,1.08-2.91.51-8.44.05-13.69.46-7.11.53-14.26,1.05-21.44,1.37-7.18.3-14.37.56-21.65.3-14.1-.5-28.17-2.79-41.6-7.42-6.65-2.28-13.19-5.23-19.4-8.61-1.58-.81-3.07-1.75-4.61-2.61-1.52-.88-2.97-1.88-4.45-2.79-.74-.47-1.47-.93-2.2-1.39l-1.1-.69-1.06-.75c-1.41-.99-2.81-1.98-4.2-2.95-9.57-6.92-16.67-15.06-23.33-24.13-7.06-9.64-12.82-20.91-15.65-32.32-2.15-8.29-3.19-16.7-3.6-25.15-.05-1.32-.11-2.62-.19-3.92-.05-1.3-.01-2.6-.02-3.91-.06-2.63.19-5.32.52-8.2.78-5.34,2.34-11.23,3.08-15.93.08-.39.87-2.69,1.45-3.79,2.4-5.36,5.64-11.67,7.91-16.03.58-1.04,1.17-2.05,1.77-3.02.3-.49.58-.98.9-1.44.33-.45.67-.9,1-1.34.67-.88,1.34-1.76,2.01-2.63.65-.89,1.46-1.66,2.19-2.5,1.99-2.35,4.29-4.4,6.55-6.5l3.63-2.88c.3-.24.6-.48.91-.71l.97-.64,1.93-1.28,1.94-1.27,2.04-1.1,2.04-1.1,1.02-.55c.35-.17.71-.31,1.06-.47l4.26-1.82c.72-.29,1.5-.5,2.25-.76.76-.23,1.51-.52,2.27-.67,4.57-1.22,9.15-1.65,13.69-1.82,4.54-.16,9.05,0,13.54.41,9.34.75,19.3,2.34,27.5,5.41,1.02.4,2.04.8,3.05,1.19,1,.43,2,.86,2.99,1.29,1.95.85,3.79,1.77,5.49,2.3.84.27,1.64.44,2.22.42.58-.03.96-.16,1.45-.54.48-.39,1-.97,1.46-1.72.24-.35.45-.78.68-1.16l.78-1.38c1.2-2.1,2.53-4.36,3.96-6.44.69-1.05,1.33-2.11,1.93-3.12.64-.98,1.2-1.94,1.64-2.86.18-.34,1.25-1.82,1.86-2.41,4.79-5.08,9.77-9.87,15.3-14.09,5.52-4.21,11.69-7.79,18.47-10.02,13.94-4.62,29.46-5.26,43.88-1.82,3.83.99,7.78,2.4,11.36,3.26.63.16,1.94.55,3.26,1.17,1.32.6,2.72,1.28,3.59,1.78,4.72,2.83,9.43,5.89,13.88,9.37,4.45,3.47,8.64,7.39,12.2,11.75l2.92,3.82,2.65,3.98,1.33,1.99c.46.66.79,1.38,1.2,2.07l2.32,4.19.57,1.05.49,1.09.98,2.18c.63,1.46,1.33,2.9,1.89,4.39l1.56,4.51.75,2.26.59,2.31c.33,1.3.7,2.72,1.11,4.2.45,1.48.72,3.07,1.15,4.66.39,1.6.88,3.21,1.29,4.83.4,1.62.85,3.22,1.34,4.76.48,1.41.83,3.66,1.15,6.11.17,1.23.34,2.51.51,3.76.13,1.26.26,2.49.42,3.63.54,3.74,1.17,7.33,1.49,11.04.25,3.15.11,6.34.16,9.55,0,.95.04,2.12.12,3.06.82,9.06.87,18.1.84,27.11,0,4.51-.01,9.03-.02,13.55-.01,4.53-.02,9.05.12,13.57.3,9.06.68,18.15,2.38,26.85,1.65,8.66,4.97,16.99,11.09,22.8,3.36,3.18,7.44,5.7,11.56,7.46,1.04.41,2.04.87,3.05,1.26,1.02.36,2,.73,2.95,1.11,1.94.62,3.73,1.32,5.37,1.87,2.93,1.08,2.92,1.8-1.45,1.6-3.19-.23-6.89-.69-10.41-1.91-1.43-.41-2.79-1.04-4.18-1.58-.68-.3-1.34-.65-2.02-.98l-1.01-.5c-.33-.18-.64-.38-.97-.57-2.62-1.44-4.98-3.34-7.11-5.37-2.24-2.12-4.1-4.6-5.75-7.19-1.66-2.6-2.96-5.39-4.03-8.26-1.09-2.87-1.89-5.83-2.5-8.84-.63-3.01-1-6.06-1.24-9.14-.3-3.82-.94-8.27-.39-11.44.07-.44.06-2,0-2.74-.74-8.09-.78-16.32-.92-24.54-.12-8.28-.05-16.57-.3-24.75-.18-6.97-.74-13.79-1.35-20.59-.18-1.7-.36-3.4-.54-5.1l-.26-2.55-.32-2.55c-.2-1.7-.4-3.41-.6-5.12-.25-1.7-.48-3.42-.69-5.14-2.01-7.4-3.72-16.13-5.93-23.44-.42-1.63-1.05-3.19-1.57-4.79-.56-1.59-1.05-3.2-1.77-4.72l-2.01-4.62c-.7-1.52-1.56-2.97-2.33-4.46l-1.19-2.22c-.4-.74-.9-1.41-1.35-2.12l-2.77-4.2c-1-1.33-2.02-2.65-3.07-3.94-1.13-1.23-2.17-2.53-3.36-3.7-9.33-9.54-21.24-16.53-34.03-20.31-12.96-3.83-27.01-4.28-40-.62-6.49,1.82-12.69,4.62-18.36,8.27-5.67,3.65-10.79,8.14-15.27,13.22-.76.87-1.47,1.73-2.16,2.59-.64.91-1.27,1.81-1.91,2.73-1.36,1.79-2.54,3.82-4.2,5.98-.78,1.01-1.44,2.22-2.19,3.44-.36.62-.73,1.25-1.1,1.89-.2.35-.4.71-.61,1.07-.21.38-.43.77-.7,1.16-.26.39-.51.78-.85,1.17l-.48.59-.59.57c-.36.39-.89.73-1.37,1.07-.55.29-1.1.61-1.71.76-.61.21-1.21.27-1.82.34-.56,0-1.17.02-1.67-.06l-.77-.11-.7-.16c-.48-.1-.88-.24-1.32-.37-1.52-.5-2.87-1.08-4.21-1.63-1.34-.58-2.57-1.01-3.85-1.53-1.29-.45-2.58-.9-3.84-1.34-1.28-.39-2.54-.81-3.76-1.21-10.19-3.21-21.11-4.75-31.87-4.55-5.38.13-10.75.73-15.8,2.12-1.24.42-2.47.77-3.7,1.27l-3.66,1.58-.91.4-.88.47-1.75.95-1.75.94c-.59.3-1.12.71-1.68,1.06-8.98,5.59-16.4,13.59-21.85,22.74l-1.96,3.49c-.64,1.17-1.15,2.41-1.74,3.6l-.85,1.81c-.26.61-.49,1.24-.73,1.86-.47,1.25-.97,2.49-1.43,3.74-.76,2.56-1.67,5.07-2.2,7.69-.29,1.3-.65,2.59-.87,3.9l-.65,3.94c-.9,6.44-1.07,12.95-.66,19.42.47,6.48,1.6,12.89,3.13,19.25.36,1.35.75,2.7,1.16,4.07.4,1.36.96,2.68,1.42,4.03.87,2.72,2.02,5.32,2.73,8.03.17.79,1.08,2.24,2.05,3.93.49.84,1.02,1.74,1.54,2.62.57.85,1.12,1.69,1.58,2.46,4.58,7.65,10.11,14.77,16.46,21.09,8.85,8.72,19.11,16.12,30.27,21.69,6.81,3.4,13.94,5.88,21.21,8.04,7.62,2.25,15.49,3.85,23.37,4.93,5,.64,10.02,1.06,15.06,1.24l3.78.09h3.82c2.55,0,5.11-.11,7.67-.17,10.62-.38,21.7-1.62,31.95-1.93,9.54-.3,19.1-.71,28.69-.66,9.58.05,19.22.55,28.75,2.09,9.54,1.47,18.72,4.32,27.75,7.06,9.04,2.76,18.01,5.53,27.1,7.09,5.15.89,10.09,1.52,15.01,1.65,4.91.08,9.84-.31,14.71-1.68,2.54-.64,5.66-1.24,7.7-1.39l-.17,1.06c-.32-.48-.36-.83-.46-1.11-.08-.28-.17-.5-.29-.67-.11-.16-.22-.28-.17-.37.04-.09.28-.18.64-.04.52.17,1.05.85,1.31,1l1.38.77-1.63.81c-.12.06-.27.13-.41.2-4.69,2.27-9.5,4.02-14.69,4.99-2.59.5-5.28.79-8.06.92-2.78.08-5.68,0-8.68-.34-8.87-1-17.43-3.27-25.8-5.72-8.38-2.46-16.6-5.16-24.91-7.24Z"/>
</svg>