<?xml version="1.0" encoding="UTF-8"?>
<svg id="Content" xmlns="http://www.w3.org/2000/svg" viewBox="0 0 500 500">
  <defs>
    <style>
      .cls-1 {
        fill: #101066;
        stroke-width: 0px;
      }
    </style>
  </defs>
  <path class="cls-1" d="M354.44,415.48c-7.74,2.84-15.65,5.1-23.65,6.96-8,1.85-16.09,3.3-24.28,4.2-6.12.65-12.36.67-18.85,1.09-1.62.1-3.94-.17-6.55-.63-2.61-.49-5.51-1.21-8.36-1.99-.96-.29-1.93-.55-2.87-.92-.47-.18-.95-.35-1.42-.54l-1.4-.64-.7-.32-.64-.36-1.28-.71-2.56-1.43c-1.68-1-3.27-2.12-4.91-3.17-1.6-1.1-3.12-2.32-4.68-3.47-6.09-4.81-11.6-10.25-16.75-15.96-5.01-5.55-9.68-11.36-14.03-17.39-4.36-6.02-8.5-12.19-12.32-18.57-3.81-6.3-7.39-12.87-10.75-19.46-3.4-6.57-6.59-13.16-9.76-19.48-5.46-10.99-9.15-21.42-13.57-32.25-4.69-11.49-9.11-23.57-12.62-35.21-2.56-8.49-4.88-16.94-7.44-25.36-1.63-5.22-3.31-10.19-4.61-16.09-1.12-5.49-1.97-11.79-3.42-16.51-.12-.4-.36-2.91-.41-4.19-.25-6.08-.99-13.41-1.58-18.46-.36-2.45-.45-4.79-.56-7.07-.14-2.28-.07-4.53-.08-6.83v-2.37s.09-2.38.09-2.38l.18-4.75.37-4.76c.07-.79.11-1.59.2-2.38l.3-2.37c.7-6.33,1.98-12.64,3.77-18.82l1.08-3.46c.16-.57.41-1.17.65-1.76.24-.59.46-1.2.73-1.77.57-1.13,1.09-2.29,1.75-3.35l.95-1.61,1.04-1.54c2.79-4.1,6.13-7.67,9.69-10.96,7.39-6.86,16.33-12.94,24.83-16.53,8.52-3.59,16.91-6.4,25.84-8.04,5.09-.95,11.1-1.05,15.4-1.75.4-.11,2.37.04,3.26.14.93.09,1.85.29,2.78.43l1.38.22,1.37.28,1.37.27c.24.05.43.07.71.15l.82.22c1.07.33,2.08.78,2.99,1.33,3.66,2.21,6.13,5.3,8.24,8.43,2.08,3.17,3.78,6.51,5.19,9.95,1.42,3.44,2.55,6.98,3.41,10.61,1.76,7.47,2.92,15.14,3.34,22.93.2,3.89.22,7.81-.04,11.74-.26,3.93-.79,7.87-1.8,11.77-1.07,4.18-3.01,8.42-5.21,12.19-.37.67-1.4,1.98-2.79,3.17-1.37,1.19-3.12,2.19-4.35,2.6-.4.17-.84.27-1.25.4l-.61.17-.5.12c-.67.16-1.33.34-2,.52-1.33.37-2.66.77-3.97,1.22-2.62.89-5.21,1.95-7.62,3.21-2.4,1.24-4.72,2.72-6.29,4.4-.37.37-.79.94-1.19,1.45-.42.5-.77,1.07-1.15,1.61-.74,1.09-1.4,2.23-2,3.4-2.79,5.36-3.96,11.58-4.3,17.84-.33,6.29.16,12.68.91,19.11.6,5.44,2.22,12.84,4.89,18.93,1.19,2.8,2.86,8.9,4.64,13.31,1.45,3.63,3.19,6.99,4.73,10.52,1.31,3.01,2.4,6.13,3.7,9.21.38.91.91,2.01,1.38,2.88,4.54,8.33,9.02,16.64,13.83,24.78,2.41,4.06,4.91,8.08,7.57,11.98,2.67,3.87,5.48,7.72,8.63,11.09l2.4,2.49c.84.77,1.71,1.5,2.56,2.25l.64.56.69.48,1.37.97c.88.71,1.88,1.18,2.83,1.72,3.87,2.09,8.13,3.1,12.51,2.91,4.38-.17,8.83-1.46,13.13-3.24,4.32-1.79,8.53-4.04,12.69-6.42l1.72-1,.86-.5,1.07-.56c1.43-.75,3.03-1.22,4.63-1.49,3.24-.45,6.41.21,8.99,1.36,5.18,2.39,8.46,6.11,10.55,9.23.91,1.45,1.21,2.29.87,2.38-.36.11-1.28-.59-3.04-2.01-2.56-2.09-5.68-4.24-8.98-5.63-2.62-1.14-5.46-1.56-8.05-.97-1.3.27-2.5.87-3.65,1.54-1.29.8-2.58,1.59-3.85,2.38-5.36,3.21-10.87,6.33-17.08,8.42-3.07,1.1-6.4,1.73-9.8,1.94-3.43.18-6.93-.41-10.26-1.5-1-.41-2.05-.84-3.11-1.28-1.05-.44-2.02-1.06-3.01-1.58-1.01-.51-1.84-1.21-2.65-1.85-.78-.66-1.56-1.25-2.07-1.98-.3-.39-1.54-1.56-2.18-2.06l-.65-.52-.6-.57-1.2-1.15c-.79-.78-1.63-1.54-2.35-2.36-1.5-1.63-2.91-3.32-4.28-5.06-2.73-3.47-5.26-7.1-7.68-10.81-4.82-7.43-9.15-15.17-13.29-22.9-7-13.17-13.68-26.11-18.17-40.63-3.4-7.64-5.83-17.3-6.85-25.78-.93-7.47-1.3-15.09-.42-22.73.47-3.82,1.28-7.63,2.56-11.33,1.3-3.69,3.11-7.27,5.48-10.47.63-.79,1.16-1.55,1.98-2.39.76-.8,1.57-1.48,2.39-2.11,1.64-1.25,3.34-2.26,5.05-3.17,3.44-1.81,6.96-3.22,10.51-4.47.89-.31,1.78-.61,2.67-.9l1.34-.43.67-.21.53-.19c1.36-.48,2.6-1.24,3.71-2.23,2.22-2.02,3.86-4.94,5.04-8.09,2.36-6.47,3.07-13.77,3.04-20.97-.05-7.23-.88-14.5-2.36-21.61-1.5-7.09-3.63-14.1-6.83-20.4-1.61-3.12-3.52-6.09-5.85-8.29-1.16-1.09-2.42-1.95-3.68-2.39-.31-.14-.63-.18-.95-.27l-1.3-.22c-.87-.14-1.74-.31-2.62-.38-4.82-.54-8.99-.1-14.7.11-5.38.24-12.25,1.94-18.21,3.99-2.76.88-5.5,2.03-8.19,3.18-2.67,1.2-5.28,2.42-7.73,3.64-5.09,2.47-9.97,5.46-14.46,8.94-2.26,1.73-4.4,3.6-6.41,5.58-2.04,1.96-3.88,4.11-5.58,6.34-1.71,2.22-3.15,4.62-4.34,7.09-.62,1.24-1.08,2.5-1.54,3.8l-1.22,4.1c-1.49,5.51-2.63,11.15-3.3,16.86-1.49,11.34-1.59,22.93-.87,34.43.7,11.51,2.33,22.97,4.76,34.19,1.48,6.86,3.39,13.53,5.48,20.28,2.1,6.73,4.21,13.47,6.33,20.25,1.82,5.78,4.26,11.69,5.57,17.58.35,1.68,2.84,6.8,4.22,10.45,3.44,9.05,7.01,18.09,10.83,27,5.28,12.39,11.01,24.6,17.33,36.44,3.89,7.2,8.17,14.08,12.54,20.98,4.56,7.22,9.44,14.3,14.59,21.06,6.5,8.58,13.58,16.65,21.74,23.52,1.03.93,2.16,1.72,3.26,2.57,1.12.82,2.2,1.71,3.39,2.43l3.5,2.26c1.21.67,2.42,1.33,3.62,2,.6.33,1.21.69,1.79.92.59.26,1.15.55,1.77.76,1.2.48,2.46.86,3.71,1.22,2.53.7,5.14,1.15,7.71,1.54,4.81.69,9.75.87,14.7.7,4.95-.16,9.9-.64,14.82-1.32,9.85-1.4,19.6-3.62,29.17-6.36,4.75-1.38,9.45-2.93,14.06-4.69,1.14-.46,2.3-.89,3.42-1.38.54-.24,1.19-.47,1.64-.72.45-.26.94-.45,1.36-.75,1.74-1.12,3.12-2.75,4.12-4.69,1.01-1.93,1.62-4.16,1.95-6.46.33-2.3.45-4.67.34-7.06-.21-4.78-1.04-9.58-2.31-14.27-1.42-5.34-3.09-10.38-5.08-15.28-1.99-4.89-4.33-9.64-7.29-14.18-1.37-2.13-2.76-4.77-3.65-6.76-.93-1.95-1.26-3.31-.32-2.71.36.23,1.02.8,1.61,1.43,3.7,4.1,6.91,8.37,9.77,13.09,2.88,4.71,5.42,9.89,7.47,15.94,2.92,8.92,5.08,18.28,4.38,28.07-.17,2.44-.65,4.91-1.45,7.32-.81,2.41-2.01,4.81-3.82,6.82-.46.49-.97.95-1.45,1.42-.5.45-1.08.82-1.63,1.23-1.12.73-2.43,1.36-3.45,1.77-2.16.94-4.34,1.77-6.53,2.59Z"/>
</svg>