<svg xmlns="http://www.w3.org/2000/svg" viewBox="0 0 57 30" preserveAspectRatio="xMidYMid meet">
  <path d="M57 0H0v30h57V0Z" fill="#B22234"/>
  <path d="M57 4.62H0V2.3h57v2.3ZM0 6.92h57v2.31H0v-2.3Zm57 6.93H0v-2.31h57v2.3Zm-57 2.3h57v2.31H0v-2.3Zm57 6.93H0v-2.31h57v2.3Zm-57 2.3h57v2.31H0v-2.3Z" fill="#fff"/>
  <path d="M22.8 0H0v16.15h22.8V0Z" fill="#3C3B6E"/>
  <path d="m1.9.7.54 1.66-1.42-1.03h1.76L1.36 2.36 1.9.7Zm0 3.22.54 1.67-1.42-1.03h1.76L1.36 5.6l.54-1.67Zm0 3.23.54 1.67L1.02 7.8h1.76L1.36 8.82l.54-1.67Zm0 3.23.54 1.67-1.42-1.03h1.76l-1.42 1.03.54-1.67Zm0 3.24.54 1.67-1.42-1.04h1.76L1.36 15.3l.54-1.67ZM3.8 2.3l.54 1.68-1.42-1.03h1.76L3.26 3.98 3.8 2.3Zm0 3.24.54 1.67-1.42-1.03h1.76L3.26 7.2l.54-1.67Zm0 3.23.54 1.67L2.92 9.4h1.76l-1.42 1.03.54-1.67Zm0 3.23.54 1.67-1.42-1.03h1.76l-1.42 1.03L3.8 12ZM5.7.7l.54 1.66-1.42-1.03h1.76L5.16 2.36 5.7.7Zm0 3.22.54 1.67-1.42-1.03h1.76L5.16 5.6l.54-1.67Zm0 3.23.54 1.67L4.82 7.8h1.76L5.16 8.82l.54-1.67Zm0 3.23.54 1.67-1.42-1.03h1.76l-1.42 1.03.54-1.67Zm0 3.24.54 1.67-1.42-1.04h1.76L5.16 15.3l.54-1.67ZM7.6 2.3l.54 1.68-1.42-1.03h1.76L7.06 3.98 7.6 2.3Zm0 3.24.54 1.67-1.42-1.03h1.76L7.06 7.2l.54-1.67Zm0 3.23.54 1.67L6.72 9.4h1.76l-1.42 1.03.54-1.67Zm0 3.23.54 1.67-1.42-1.03h1.76l-1.42 1.03L7.6 12ZM9.5.7l.54 1.66-1.42-1.03h1.76L8.96 2.36 9.5.7Zm0 3.22.54 1.67-1.42-1.03h1.76L8.96 5.6l.54-1.67Zm0 3.23.54 1.67L8.62 7.8h1.76L8.96 8.82l.54-1.67Zm0 3.23.54 1.67-1.42-1.03h1.76l-1.42 1.03.54-1.67Zm0 3.24.54 1.67-1.42-1.04h1.76L8.96 15.3l.54-1.67ZM11.4 2.3l.54 1.68-1.42-1.03h1.76l-1.42 1.03.54-1.67Zm0 3.24.54 1.67-1.42-1.03h1.76L10.86 7.2l.54-1.67Zm0 3.23.54 1.67-1.42-1.03h1.76l-1.42 1.03.54-1.67Zm0 3.23.54 1.67-1.42-1.03h1.76l-1.42 1.03.54-1.67ZM13.3.7l.54 1.66-1.42-1.03h1.76l-1.42 1.03L13.3.7Zm0 3.22.54 1.67-1.42-1.03h1.76L12.76 5.6l.54-1.67Zm0 3.23.54 1.67-1.42-1.03h1.76l-1.42 1.03.54-1.67Zm0 3.23.54 1.67-1.42-1.03h1.76l-1.42 1.03.54-1.67Zm0 3.24.54 1.67-1.42-1.04h1.76l-1.42 1.04.54-1.67ZM15.2 2.3l.54 1.68-1.42-1.03h1.76l-1.42 1.03.54-1.67Zm0 3.24.54 1.67-1.42-1.03h1.76L14.66 7.2l.54-1.67Zm0 3.23.54 1.67-1.42-1.03h1.76l-1.42 1.03.54-1.67Zm0 3.23.54 1.67-1.42-1.03h1.76l-1.42 1.03.54-1.67ZM17.1.7l.54 1.66-1.42-1.03h1.76l-1.42 1.03L17.1.7Zm0 3.22.54 1.67-1.42-1.03h1.76L16.56 5.6l.54-1.67Zm0 3.23.54 1.67-1.42-1.03h1.76l-1.42 1.03.54-1.67Zm0 3.23.54 1.67-1.42-1.03h1.76l-1.42 1.03.54-1.67Zm0 3.24.54 1.67-1.42-1.04h1.76l-1.42 1.04.54-1.67ZM19 2.3l.54 1.68-1.42-1.03h1.76l-1.42 1.03L19 2.3Zm0 3.24.54 1.67-1.42-1.03h1.76L18.46 7.2 19 5.54Zm0 3.23.54 1.67-1.42-1.03h1.76l-1.42 1.03.54-1.67ZM19 12l.54 1.67-1.42-1.03h1.76l-1.42 1.03L19 12ZM20.9.7l.54 1.66-1.42-1.03h1.76l-1.42 1.03L20.9.7Zm0 3.22.54 1.67-1.42-1.03h1.76L20.36 5.6l.54-1.67Zm0 3.23.54 1.67-1.42-1.03h1.76l-1.42 1.03.54-1.67Zm0 3.23.54 1.67-1.42-1.03h1.76l-1.42 1.03.54-1.67Zm0 3.24.54 1.67-1.42-1.04h1.76l-1.42 1.04.54-1.67Z" fill="#fff"/>
</svg>
